999
dxflib 2.0.4.0
  0
SECTION
  2
HEADER
  9
$ACADVER
  1
AC1015
  9
$HANDSEED
  5
FFFF
  9
$DIMASZ
 40
20.0
  9
$GRIDUNIT
 10
0.0
 20
0.0
  9
$DIMADEC
 70
2
  9
$DIMGAP
 40
25.0
  9
$SPLINESEGS
 70
8
  9
$AUPREC
 70
2
  9
$LUNITS
 70
2
  9
$DIMEXO
 40
25.0
  9
$INSUNITS
 70
1
  9
$DIMLUNIT
 70
2
  9
$DIMTXT
 40
1.0
  9
$GRIDMODE
 70
1
  9
$LUPREC
 70
4
  9
$DIMSTYLE
  2
Standard
  9
$PLIMMAX
 10
17.0078740157480333
 20
10.984251968503937
  9
$PLIMMIN
 10
0.0
 20
0.0
  9
$DIMEXE
 40
5.0
  9
$DIMAUNIT
 70
0
  9
$AUNITS
 70
0
  0
ENDSEC
  0
SECTION
  2
TABLES
  0
TABLE
  2
VPORT
  5
8
100
AcDbSymbolTable
 70
1
  0
VPORT
  5
30
100
AcDbSymbolTableRecord
100
AcDbViewportTableRecord
  2
*Active
 70
0
 10
0.0
 20
0.0
 11
1.0
 21
1.0
 12
286.3055555555554861
 22
148.5
 13
0.0
 23
0.0
 14
10.0
 24
10.0
 15
10.0
 25
10.0
 16
0.0
 26
0.0
 36
1.0
 17
0.0
 27
0.0
 37
0.0
 40
297.0
 41
1.92798353909465
 42
50.0
 43
0.0
 44
0.0
 50
0.0
 51
0.0
 71
0
 72
100
 73
1
 74
3
 75
1
 76
1
 77
0
 78
0
281
0
 65
1
110
0.0
120
0.0
130
0.0
111
1.0
121
0.0
131
0.0
112
0.0
122
1.0
132
0.0
 79
0
146
0.0
  0
ENDTAB
  0
TABLE
  2
LTYPE
  5
5
100
AcDbSymbolTable
 70
21
  0
LTYPE
  5
14
100
AcDbSymbolTableRecord
100
AcDbLinetypeTableRecord
  2
ByBlock
 70
0
  3

 72
65
 73
0
 40
0.0
  0
LTYPE
  5
15
100
AcDbSymbolTableRecord
100
AcDbLinetypeTableRecord
  2
ByLayer
 70
0
  3

 72
65
 73
0
 40
0.0
  0
LTYPE
  5
16
100
AcDbSymbolTableRecord
100
AcDbLinetypeTableRecord
  2
CONTINUOUS
 70
0
  3
Solid line
 72
65
 73
0
 40
0.0
  0
LTYPE
  5
31
100
AcDbSymbolTableRecord
100
AcDbLinetypeTableRecord
  2
DOT
 70
0
  3
Dot . . . . . . . . . . . . . . . . . . . . . .
 72
65
 73
2
 40
6.3499999999999996
 49
0.0
 74
0
 49
-6.3499999999999996
 74
0
  0
LTYPE
  5
32
100
AcDbSymbolTableRecord
100
AcDbLinetypeTableRecord
  2
DOT2
 70
0
  3
Dot (.5x) .....................................
 72
65
 73
2
 40
3.1749999999999998
 49
0.0
 74
0
 49
-3.1749999999999998
 74
0
  0
LTYPE
  5
33
100
AcDbSymbolTableRecord
100
AcDbLinetypeTableRecord
  2
DOTX2
 70
0
  3
Dot (2x) .  .  .  .  .  .  .  .  .  .  .  .  .
 72
65
 73
2
 40
12.6999999999999993
 49
0.0
 74
0
 49
-12.6999999999999993
 74
0
  0
LTYPE
  5
34
100
AcDbSymbolTableRecord
100
AcDbLinetypeTableRecord
  2
DASHED
 70
0
  3
Dashed __ __ __ __ __ __ __ __ __ __ __ __ __ _
 72
65
 73
2
 40
19.0500000000000007
 49
12.6999999999999993
 74
0
 49
-6.3499999999999996
 74
0
  0
LTYPE
  5
35
100
AcDbSymbolTableRecord
100
AcDbLinetypeTableRecord
  2
DASHED2
 70
0
  3
Dashed (.5x) _ _ _ _ _ _ _ _ _ _ _ _ _ _ _ _ _
 72
65
 73
2
 40
9.5250000000000004
 49
6.3499999999999996
 74
0
 49
-3.1749999999999998
 74
0
  0
LTYPE
  5
36
100
AcDbSymbolTableRecord
100
AcDbLinetypeTableRecord
  2
DASHEDX2
 70
0
  3
Dashed (2x) ____  ____  ____  ____  ____  ___
 72
65
 73
2
 40
38.1000000000000014
 49
25.3999999999999986
 74
0
 49
-12.6999999999999993
 74
0
  0
LTYPE
  5
37
100
AcDbSymbolTableRecord
100
AcDbLinetypeTableRecord
  2
DASHDOT
 70
0
  3
Dash dot __ . __ . __ . __ . __ . __ . __ . __
 72
65
 73
4
 40
25.3999999999999986
 49
12.6999999999999993
 74
0
 49
-6.3499999999999996
 74
0
 49
0.0
 74
0
 49
-6.3499999999999996
 74
0
  0
LTYPE
  5
38
100
AcDbSymbolTableRecord
100
AcDbLinetypeTableRecord
  2
DASHDOT2
 70
0
  3
Dash dot (.5x) _._._._._._._._._._._._._._._.
 72
65
 73
4
 40
12.6999999999999993
 49
6.3499999999999996
 74
0
 49
-3.1749999999999998
 74
0
 49
0.0
 74
0
 49
-3.1749999999999998
 74
0
  0
LTYPE
  5
39
100
AcDbSymbolTableRecord
100
AcDbLinetypeTableRecord
  2
DASHDOTX2
 70
0
  3
Dash dot (2x) ____  .  ____  .  ____  .  ___
 72
65
 73
4
 40
50.7999999999999972
 49
25.3999999999999986
 74
0
 49
-12.6999999999999993
 74
0
 49
0.0
 74
0
 49
-12.6999999999999993
 74
0
  0
LTYPE
  5
3A
100
AcDbSymbolTableRecord
100
AcDbLinetypeTableRecord
  2
DIVIDE
 70
0
  3
Divide ____ . . ____ . . ____ . . ____ . . ____
 72
65
 73
6
 40
31.75
 49
12.6999999999999993
 74
0
 49
-6.3499999999999996
 74
0
 49
0.0
 74
0
 49
-6.3499999999999996
 74
0
 49
0.0
 74
0
 49
-6.3499999999999996
 74
0
  0
LTYPE
  5
3B
100
AcDbSymbolTableRecord
100
AcDbLinetypeTableRecord
  2
DIVIDE2
 70
0
  3
Divide (.5x) __..__..__..__..__..__..__..__.._
 72
65
 73
6
 40
15.875
 49
6.3499999999999996
 74
0
 49
-3.1749999999999998
 74
0
 49
0.0
 74
0
 49
-3.1749999999999998
 74
0
 49
0.0
 74
0
 49
-3.1749999999999998
 74
0
  0
LTYPE
  5
3C
100
AcDbSymbolTableRecord
100
AcDbLinetypeTableRecord
  2
DIVIDEX2
 70
0
  3
Divide (2x) ________  .  .  ________  .  .  _
 72
65
 73
6
 40
63.5
 49
25.3999999999999986
 74
0
 49
-12.6999999999999993
 74
0
 49
0.0
 74
0
 49
-12.6999999999999993
 74
0
 49
0.0
 74
0
 49
-12.6999999999999993
 74
0
  0
LTYPE
  5
3D
100
AcDbSymbolTableRecord
100
AcDbLinetypeTableRecord
  2
CENTER
 70
0
  3
Center ____ _ ____ _ ____ _ ____ _ ____ _ ____
 72
65
 73
4
 40
50.7999999999999972
 49
31.75
 74
0
 49
-6.3499999999999996
 74
0
 49
6.3499999999999996
 74
0
 49
-6.3499999999999996
 74
0
  0
LTYPE
  5
3E
100
AcDbSymbolTableRecord
100
AcDbLinetypeTableRecord
  2
CENTER2
 70
0
  3
Center (.5x) ___ _ ___ _ ___ _ ___ _ ___ _ ___
 72
65
 73
4
 40
28.5749999999999993
 49
19.0500000000000007
 74
0
 49
-3.1749999999999998
 74
0
 49
3.1749999999999998
 74
0
 49
-3.1749999999999998
 74
0
  0
LTYPE
  5
3F
100
AcDbSymbolTableRecord
100
AcDbLinetypeTableRecord
  2
CENTERX2
 70
0
  3
Center (2x) ________  __  ________  __  _____
 72
65
 73
4
 40
101.5999999999999943
 49
63.5
 74
0
 49
-12.6999999999999993
 74
0
 49
12.6999999999999993
 74
0
 49
-12.6999999999999993
 74
0
  0
LTYPE
  5
40
100
AcDbSymbolTableRecord
100
AcDbLinetypeTableRecord
  2
BORDER
 70
0
  3
Border __ __ . __ __ . __ __ . __ __ . __ __ .
 72
65
 73
6
 40
44.4500000000000028
 49
12.6999999999999993
 74
0
 49
-6.3499999999999996
 74
0
 49
12.6999999999999993
 74
0
 49
-6.3499999999999996
 74
0
 49
0.0
 74
0
 49
-6.3499999999999996
 74
0
  0
LTYPE
  5
41
100
AcDbSymbolTableRecord
100
AcDbLinetypeTableRecord
  2
BORDER2
 70
0
  3
Border (.5x) __.__.__.__.__.__.__.__.__.__.__.
 72
65
 73
6
 40
22.2250000000000014
 49
6.3499999999999996
 74
0
 49
-3.1749999999999998
 74
0
 49
6.3499999999999996
 74
0
 49
-3.1749999999999998
 74
0
 49
0.0
 74
0
 49
-3.1749999999999998
 74
0
  0
LTYPE
  5
42
100
AcDbSymbolTableRecord
100
AcDbLinetypeTableRecord
  2
BORDERX2
 70
0
  3
Border (2x) ____  ____  .  ____  ____  .  ___
 72
65
 73
6
 40
88.9000000000000057
 49
25.3999999999999986
 74
0
 49
-12.6999999999999993
 74
0
 49
25.3999999999999986
 74
0
 49
-12.6999999999999993
 74
0
 49
0.0
 74
0
 49
-12.6999999999999993
 74
0
  0
ENDTAB
  0
TABLE
  2
LAYER
  5
2
100
AcDbSymbolTable
 70
2
  0
LAYER
  5
10
100
AcDbSymbolTableRecord
100
AcDbLayerTableRecord
  2
0
 70
0
 62
7
  6
CONTINUOUS
370
0
390
F
  0
LAYER
  5
43
100
AcDbSymbolTableRecord
100
AcDbLayerTableRecord
  2
image
 70
0
 62
7
  6
CONTINUOUS
370
0
390
F
  0
ENDTAB
  0
TABLE
  2
STYLE
  5
3
100
AcDbSymbolTable
 70
1
  0
STYLE
  5
11
100
AcDbSymbolTableRecord
100
AcDbTextStyleTableRecord
  2
Standard
 70
0
 40
0.0
 41
1.0
 50
0.0
 71
0
 42
2.5
  3
txt
  4

  0
ENDTAB
  0
TABLE
  2
VIEW
  5
6
100
AcDbSymbolTable
 70
0
  0
ENDTAB
  0
TABLE
  2
UCS
  5
7
100
AcDbSymbolTable
 70
0
  0
ENDTAB
  0
TABLE
  2
APPID
  5
9
100
AcDbSymbolTable
 70
1
  0
APPID
  5
12
100
AcDbSymbolTableRecord
100
AcDbRegAppTableRecord
  2
ACAD
 70
0
  0
ENDTAB
  0
TABLE
  2
DIMSTYLE
  5
A
100
AcDbSymbolTable
 70
1
100
AcDbDimStyleTable
 71
0
  0
DIMSTYLE
105
27
100
AcDbSymbolTableRecord
100
AcDbDimStyleTableRecord
  2
Standard
 41
2.5
 42
0.625
 43
3.75
 44
1.25
 70
0
 73
0
 74
0
 77
1
 78
8
140
2.5
141
2.5
143
0.03937007874016
147
0.625
171
3
172
1
271
2
272
2
274
3
278
44
283
0
284
8
340
11
  0
ENDTAB
  0
TABLE
  2
BLOCK_RECORD
  5
1
100
AcDbSymbolTable
 70
1
  0
BLOCK_RECORD
  5
1F
100
AcDbSymbolTableRecord
100
AcDbBlockTableRecord
  2
*Model_Space
340
22
  0
BLOCK_RECORD
  5
1B
100
AcDbSymbolTableRecord
100
AcDbBlockTableRecord
  2
*Paper_Space
340
1E
  0
BLOCK_RECORD
  5
23
100
AcDbSymbolTableRecord
100
AcDbBlockTableRecord
  2
*Paper_Space0
340
26
  0
ENDTAB
  0
ENDSEC
  0
SECTION
  2
BLOCKS
  0
BLOCK
  5
20
100
AcDbEntity
  8
0
100
AcDbBlockBegin
  2
*Model_Space
 70
0
 10
0.0
 20
0.0
 30
0.0
  3
*Model_Space
  1

  0
ENDBLK
  5
21
100
AcDbEntity
  8
0
100
AcDbBlockEnd
  0
BLOCK
  5
1C
100
AcDbEntity
 67
1
  8
0
100
AcDbBlockBegin
  2
*Paper_Space
 70
0
 10
0.0
 20
0.0
 30
0.0
  3
*Paper_Space
  1

  0
ENDBLK
  5
1D
100
AcDbEntity
 67
1
  8
0
100
AcDbBlockEnd
  0
BLOCK
  5
24
100
AcDbEntity
  8
0
100
AcDbBlockBegin
  2
*Paper_Space0
 70
0
 10
0.0
 20
0.0
 30
0.0
  3
*Paper_Space0
  1

  0
ENDBLK
  5
25
100
AcDbEntity
  8
0
100
AcDbBlockEnd
  0
ENDSEC
  0
SECTION
  2
ENTITIES
  0
HATCH
  5
44
  8
0
 62
256
370
-1
  6
ByLayer
100
AcDbEntity
100
AcDbHatch
 10
0.0
 20
0.0
 30
0.0
210
0.0
220
0.0
230
1.0
  2
glass
 70
0
 71
0
 91
1
 92
1
 93
16
 72
2
 10
1384.0065552168503018
 20
344.2218674799031533
 40
138.6487834225084725
 50
248.099172862297138
 51
263.5113519121212562
 73
0
 72
2
 10
1368.7878409165323319
 20
475.8137319656082127
 40
6.185125261566597
 50
265.8325814402272727
 51
351.9364114272026995
 73
0
 72
1
 10
1374.9118138472865667
 20
476.681332129657676
 11
1374.9118138472865667
 21
468.8355984602638387
 72
2
 10
1367.1502930721053417
 20
469.071273394425134
 40
7.7650980301707255
 50
1.7392250502854936
 51
61.2693083881219351
 73
0
 72
2
 10
1395.3421994651303066
 20
301.0113926779400231
 40
163.0952531492246749
 50
98.625145652962587
 51
111.5364369699225904
 73
1
 72
2
 10
1335.694575535302647
 20
459.9993931385449741
 40
7.2827853015895565
 50
91.758433405071969
 51
164.2390314799370117
 73
0
 72
1
 10
1328.6855992546418292
 20
458.0212088078561123
 11
1328.6855992546418292
 21
467.9874110365455522
 72
2
 10
1336.6951873127084127
 20
465.8380269968960761
 40
8.2929700716825412
 50
195.0214980629454828
 51
237.9169707171573123
 73
0
 72
2
 10
1380.9658519217048251
 20
371.5746556350710534
 40
110.7084727412083964
 50
274.2233586416868434
 51
293.5317009647291115
 73
0
 72
2
 10
1420.9945849785674454
 20
465.5114521599562636
 40
8.639378209080709
 50
298.8778402300313815
 51
3.2693080994598245
 73
0
 72
1
 10
1429.6199026771139415
 20
465.0187550535316632
 11
1429.6199026771139415
 21
460.9898647908700013
 72
2
 10
1421.6655114573213723
 20
460.5802587523973557
 40
7.9649304318534897
 50
357.0521959700490697
 51
106.2128332602288481
 73
0
 72
2
 10
1320.2445636711825045
 20
170.9396095107649955
 40
298.9311266281633834
 50
70.6195496041306257
 51
76.5121239833624571
 73
1
 72
2
 10
1392.5558449392153761
 20
470.1511965605736236
 40
8.9095608808969562
 50
106.8910976627876579
 51
168.7400157056354431
 73
0
 72
1
 10
1383.8177817963282905
 20
468.4115047484046954
 11
1383.8177817963282905
 21
476.681332129657676
 72
2
 10
1388.897267845186434
 20
476.9030174790385672
 40
5.0843212835809846
 50
177.5010110142665383
 51
272.4989889857320691
 73
0
 97
0
 75
0
 76
1
 52
0.0
 41
0.2
 77
0
 78
1
 53
45.0
 43
0.0
 44
0.0
 45
-0.0883883476483184
 46
0.0883883476483185
 79
0
 98
0
  0
HATCH
  5
45
  8
0
 62
256
370
-1
  6
ByLayer
100
AcDbEntity
100
AcDbHatch
 10
0.0
 20
0.0
 30
0.0
210
0.0
220
0.0
230
1.0
  2
glass
 70
0
 71
0
 91
1
 92
1
 93
4
 72
1
 10
356.9715518959050655
 20
455.811850206742065
 11
368.870603625768581
 21
455.811850206742065
 72
1
 10
368.870603625768581
 20
455.811850206742065
 11
368.870603625768581
 21
434.8799416892449585
 72
1
 10
368.870603625768581
 20
434.8799416892449585
 11
356.9715518959050655
 21
434.8799416892449585
 72
1
 10
356.9715518959050655
 20
434.8799416892449585
 11
356.9715518959050655
 21
455.811850206742065
 97
0
 75
0
 76
1
 52
0.0
 41
0.2
 77
0
 78
1
 53
45.0
 43
0.0
 44
0.0
 45
-0.0883883476483184
 46
0.0883883476483185
 79
0
 98
0
  0
HATCH
  5
46
  8
0
 62
256
370
-1
  6
ByLayer
100
AcDbEntity
100
AcDbHatch
 10
0.0
 20
0.0
 30
0.0
210
0.0
220
0.0
230
1.0
  2
glass
 70
0
 71
0
 91
1
 92
1
 93
4
 72
1
 10
1070.0792250024114765
 20
467.0997998613736968
 11
1082.4714468279169068
 21
467.0997998613736968
 72
1
 10
1082.4714468279169068
 20
467.0997998613736968
 11
1082.4714468279169068
 21
446.7722079195359015
 72
1
 10
1082.4714468279169068
 20
446.7722079195359015
 11
1070.0792250024114765
 21
446.7722079195359015
 72
1
 10
1070.0792250024114765
 20
446.7722079195359015
 11
1070.0792250024114765
 21
467.0997998613736968
 97
0
 75
0
 76
1
 52
0.0
 41
0.2
 77
0
 78
1
 53
45.0
 43
0.0
 44
0.0
 45
-0.0883883476483184
 46
0.0883883476483185
 79
0
 98
0
  0
HATCH
  5
47
  8
0
 62
256
370
-1
  6
ByLayer
100
AcDbEntity
100
AcDbHatch
 10
0.0
 20
0.0
 30
0.0
210
0.0
220
0.0
230
1.0
  2
ansi31
 70
0
 71
0
 91
1
 92
1
 93
4
 72
1
 10
930.8348062853598321
 20
463.7210282952434
 11
982.2688916596347326
 21
463.7210282952434
 72
1
 10
982.2688916596347326
 20
463.7210282952434
 11
982.2688916596347326
 21
436.1176167777581441
 72
1
 10
982.2688916596347326
 20
436.1176167777581441
 11
930.8348062853598321
 21
436.1176167777581441
 72
1
 10
930.8348062853598321
 20
436.1176167777581441
 11
930.8348062853598321
 21
463.7210282952434
 97
0
 75
0
 76
1
 52
0.0
 41
2.0
 77
0
 78
1
 53
45.0
 43
0.0
 44
0.0
 45
-0.0883883476483184
 46
0.0883883476483185
 79
0
 98
0
  0
IMAGE
  5
48
  8
image
 62
256
370
-1
  6
ByLayer
100
AcDbEntity
100
AcDbRasterImage
 90
0
 10
0.0
 20
0.0
 30
0.0
 11
0.4808045685913486
 21
0.0
 31
0.0
 12
0.0
 22
0.4808045685913486
 32
0.0
 13
3290.0
 23
1289.0
340
49
 70
15
280
0
281
50
282
50
283
0
  0
HATCH
  5
4A
  8
0
 62
256
370
-1
  6
ByLayer
100
AcDbEntity
100
AcDbHatch
 10
0.0
 20
0.0
 30
0.0
210
0.0
220
0.0
230
1.0
  2
ansi31
 70
0
 71
0
 91
1
 92
1
 93
4
 72
1
 10
539.6592483407379177
 20
464.80670819760212
 11
742.6050532138044673
 21
464.80670819760212
 72
1
 10
742.6050532138044673
 20
464.80670819760212
 11
742.6050532138044673
 21
437.3254356691309113
 72
1
 10
742.6050532138044673
 20
437.3254356691309113
 11
539.6592483407379177
 21
437.3254356691309113
 72
1
 10
539.6592483407379177
 20
437.3254356691309113
 11
539.6592483407379177
 21
464.80670819760212
 97
0
 75
0
 76
1
 52
0.0
 41
2.0
 77
0
 78
1
 53
45.0
 43
0.0
 44
0.0
 45
-0.0883883476483184
 46
0.0883883476483185
 79
0
 98
0
  0
HATCH
  5
4B
  8
0
 62
256
370
-1
  6
ByLayer
100
AcDbEntity
100
AcDbHatch
 10
0.0
 20
0.0
 30
0.0
210
0.0
220
0.0
230
1.0
  2
ansi31
 70
0
 71
0
 91
1
 92
1
 93
4
 72
1
 10
292.3193137103774006
 20
464.942418185586348
 11
339.4106794752339624
 21
464.942418185586348
 72
1
 10
339.4106794752339624
 20
464.942418185586348
 11
339.4106794752339624
 21
437.3932906632063009
 72
1
 10
339.4106794752339624
 20
437.3932906632063009
 11
292.3193137103774006
 21
437.3932906632063009
 72
1
 10
292.3193137103774006
 20
437.3932906632063009
 11
292.3193137103774006
 21
464.942418185586348
 97
0
 75
0
 76
1
 52
0.0
 41
2.0
 77
0
 78
1
 53
45.0
 43
0.0
 44
0.0
 45
-0.0883883476483184
 46
0.0883883476483185
 79
0
 98
0
  0
LINE
  5
4C
100
AcDbEntity
100
AcDbLine
  8
0
 62
256
370
-1
  6
ByLayer
 10
169.6000000000016712
 20
503.8000000000048999
 30
0.0
 11
169.6000000000016712
 21
377.6000000000037176
 31
0.0
  0
LINE
  5
4D
100
AcDbEntity
100
AcDbLine
  8
0
 62
256
370
-1
  6
ByLayer
 10
169.6000000000016712
 20
377.6000000000037176
 30
0.0
 11
246.4000000000024215
 21
377.6000000000037176
 31
0.0
  0
LINE
  5
4E
100
AcDbEntity
100
AcDbLine
  8
0
 62
256
370
-1
  6
ByLayer
 10
172.8000000000016882
 20
377.6000000000037176
 30
0.0
 11
172.8000000000016882
 21
503.8000000000048999
 31
0.0
  0
LINE
  5
4F
100
AcDbEntity
100
AcDbLine
  8
0
 62
256
370
-1
  6
ByLayer
 10
172.8000000000016882
 20
503.8000000000048999
 30
0.0
 11
169.6000000000016712
 21
503.8000000000048999
 31
0.0
  0
LINE
  5
50
100
AcDbEntity
100
AcDbLine
  8
0
 62
256
370
-1
  6
ByLayer
 10
190.2500000000021885
 20
503.8000000000048999
 30
0.0
 11
190.2500000000021885
 21
377.6000000000037176
 31
0.0
  0
LINE
  5
51
100
AcDbEntity
100
AcDbLine
  8
0
 62
256
370
-1
  6
ByLayer
 10
298.2400000000037608
 20
503.8000000000048999
 30
0.0
 11
298.2400000000037608
 21
492.1600000000062209
 31
0.0
  0
LINE
  5
52
100
AcDbEntity
100
AcDbLine
  8
0
 62
256
370
-1
  6
ByLayer
 10
298.2400000000037608
 20
492.1600000000062209
 30
0.0
 11
538.0800000000068621
 21
492.1600000000062209
 31
0.0
  0
LINE
  5
53
100
AcDbEntity
100
AcDbLine
  8
0
 62
256
370
-1
  6
ByLayer
 10
538.0800000000068621
 20
492.1600000000062209
 30
0.0
 11
538.0800000000068621
 21
503.8000000000048999
 31
0.0
  0
LINE
  5
54
100
AcDbEntity
100
AcDbLine
  8
0
 62
256
370
-1
  6
ByLayer
 10
335.2000000000042519
 20
503.8000000000048999
 30
0.0
 11
335.2000000000042519
 21
508.3200000000064165
 31
0.0
  0
LINE
  5
55
100
AcDbEntity
100
AcDbLine
  8
0
 62
256
370
-1
  6
ByLayer
 10
335.2000000000042519
 20
508.3200000000064165
 30
0.0
 11
354.8800000000044861
 21
508.3200000000064165
 31
0.0
  0
LINE
  5
56
100
AcDbEntity
100
AcDbLine
  8
0
 62
256
370
-1
  6
ByLayer
 10
354.8800000000044861
 20
508.3200000000064165
 30
0.0
 11
354.8800000000044861
 21
503.8000000000048999
 31
0.0
  0
LINE
  5
57
100
AcDbEntity
100
AcDbLine
  8
0
 62
256
370
-1
  6
ByLayer
 10
372.4800000000047362
 20
503.8000000000048999
 30
0.0
 11
372.4800000000047362
 21
508.3200000000064165
 31
0.0
  0
LINE
  5
58
100
AcDbEntity
100
AcDbLine
  8
0
 62
256
370
-1
  6
ByLayer
 10
372.4800000000047362
 20
508.3200000000064165
 30
0.0
 11
519.5200000000065756
 21
508.3200000000064165
 31
0.0
  0
LINE
  5
59
100
AcDbEntity
100
AcDbLine
  8
0
 62
256
370
-1
  6
ByLayer
 10
519.5200000000065756
 20
508.3200000000064165
 30
0.0
 11
519.5200000000065756
 21
503.8000000000048999
 31
0.0
  0
LINE
  5
5A
100
AcDbEntity
100
AcDbLine
  8
0
 62
256
370
-1
  6
ByLayer
 10
538.0800000000069758
 20
503.8000000000048999
 30
0.0
 11
538.0800000000069758
 21
506.880000000007783
 31
0.0
  0
LINE
  5
5B
100
AcDbEntity
100
AcDbLine
  8
0
 62
256
370
-1
  6
ByLayer
 10
538.0800000000069758
 20
506.880000000007783
 30
0.0
 11
745.6000000000113914
 21
506.880000000007783
 31
0.0
  0
LINE
  5
5C
100
AcDbEntity
100
AcDbLine
  8
0
 62
256
370
-1
  6
ByLayer
 10
745.6000000000113914
 20
506.880000000007783
 30
0.0
 11
745.6000000000113914
 21
503.8000000000048999
 31
0.0
  0
LINE
  5
5D
100
AcDbEntity
100
AcDbLine
  8
0
 62
256
370
-1
  6
ByLayer
 10
745.6000000000113914
 20
503.8000000000048999
 30
0.0
 11
745.6000000000113914
 21
492.6720000000075856
 31
0.0
  0
LINE
  5
5E
100
AcDbEntity
100
AcDbLine
  8
0
 62
256
370
-1
  6
ByLayer
 10
745.6000000000113914
 20
492.6720000000075856
 30
0.0
 11
983.8080000000151131
 21
492.6720000000075856
 31
0.0
  0
LINE
  5
5F
100
AcDbEntity
100
AcDbLine
  8
0
 62
256
370
-1
  6
ByLayer
 10
983.8080000000151131
 20
492.6720000000075856
 30
0.0
 11
983.8080000000151131
 21
503.8000000000048999
 31
0.0
  0
LINE
  5
60
100
AcDbEntity
100
AcDbLine
  8
0
 62
256
370
-1
  6
ByLayer
 10
769.6640000000172677
 20
503.8000000000048999
 30
0.0
 11
769.6640000000172677
 21
508.3200000000064165
 31
0.0
  0
LINE
  5
61
100
AcDbEntity
100
AcDbLine
  8
0
 62
256
370
-1
  6
ByLayer
 10
769.6640000000172677
 20
508.3200000000064165
 30
0.0
 11
916.8640000000225427
 21
508.3200000000064165
 31
0.0
  0
LINE
  5
62
100
AcDbEntity
100
AcDbLine
  8
0
 62
256
370
-1
  6
ByLayer
 10
916.8640000000225427
 20
508.3200000000064165
 30
0.0
 11
916.8640000000225427
 21
503.8000000000048999
 31
0.0
  0
LINE
  5
63
100
AcDbEntity
100
AcDbLine
  8
0
 62
256
370
-1
  6
ByLayer
 10
940.0000000000256932
 20
503.8000000000048999
 30
0.0
 11
940.0000000000256932
 21
507.8000000000138812
 31
0.0
  0
LINE
  5
64
100
AcDbEntity
100
AcDbLine
  8
0
 62
256
370
-1
  6
ByLayer
 10
940.0000000000256932
 20
507.8000000000138812
 30
0.0
 11
958.4000000000262389
 21
507.8000000000138812
 31
0.0
  0
LINE
  5
65
100
AcDbEntity
100
AcDbLine
  8
0
 62
256
370
-1
  6
ByLayer
 10
958.4000000000262389
 20
507.8000000000138812
 30
0.0
 11
958.4000000000262389
 21
503.8000000000048999
 31
0.0
  0
LINE
  5
66
100
AcDbEntity
100
AcDbLine
  8
0
 62
256
370
-1
  6
ByLayer
 10
190.2500000000021885
 20
503.8000000000048999
 30
0.0
 11
940.0000000000258069
 21
503.8000000000048999
 31
0.0
  0
LINE
  5
67
100
AcDbEntity
100
AcDbLine
  8
0
 62
256
370
-1
  6
ByLayer
 10
940.0000000000256932
 20
503.8000000000048999
 30
0.0
 11
942.5649664000293342
 21
503.8000000000048999
 31
0.0
  0
ELLIPSE
  5
68
100
AcDbEntity
100
AcDbEllipse
  8
0
 62
256
370
-1
  6
ByLayer
 10
949.2234240000295813
 20
503.8000000000048999
 30
0.0
 11
-6.6584576000002471
 21
0.0
 31
0.0
 40
0.710412693772986
 41
0.0
 42
3.1415926535897931
  0
LINE
  5
69
100
AcDbEntity
100
AcDbLine
  8
0
 62
256
370
-1
  6
ByLayer
 10
190.2500000000021885
 20
468.7083703467065448
 30
0.0
 11
1039.3688690243470774
 21
468.7083703467065448
 31
0.0
  0
LINE
  5
6A
100
AcDbEntity
100
AcDbLine
  8
0
 62
256
370
-1
  6
ByLayer
 10
1007.1377469230534416
 20
503.8000000000048999
 30
0.0
 11
1007.1377469230534416
 21
496.189642875177924
 31
0.0
  0
LINE
  5
6B
100
AcDbEntity
100
AcDbLine
  8
0
 62
256
370
-1
  6
ByLayer
 10
1007.1377469230534416
 20
496.189642875177924
 30
0.0
 11
1096.0277889287262951
 21
496.189642875177924
 31
0.0
  0
LINE
  5
6C
100
AcDbEntity
100
AcDbLine
  8
0
 62
256
370
-1
  6
ByLayer
 10
1096.0277889287262951
 20
496.189642875177924
 30
0.0
 11
1096.0277889287262951
 21
503.8000000000048999
 31
0.0
  0
LINE
  5
6D
100
AcDbEntity
100
AcDbLine
  8
0
 62
256
370
-1
  6
ByLayer
 10
1044.1187185971691633
 20
473.4582199195287444
 30
0.0
 11
1162.6953204329809068
 21
473.4582199195287444
 31
0.0
  0
LINE
  5
6E
100
AcDbEntity
100
AcDbLine
  8
0
 62
256
370
-1
  6
ByLayer
 10
1039.3688690243470774
 20
468.7083703467065448
 30
0.0
 11
1044.1187185971691633
 21
473.4582199195287444
 31
0.0
  0
LINE
  5
6F
100
AcDbEntity
100
AcDbLine
  8
0
 62
256
370
-1
  6
ByLayer
 10
1171.9926185067331517
 20
467.541690813053151
 30
0.0
 11
1179.1501564531151871
 21
448.8607846316994028
 31
0.0
  0
ARC
  5
70
100
AcDbEntity
  8
0
 62
7
370
0
  6
CONTINUOUS
100
AcDbCircle
 10
1163.3554759458991157
 20
464.2323933396154985
 30
0.0
 40
9.249415191452476
100
AcDbArc
 50
20.9641973316363384
 51
94.0928329867018505
  0
ARC
  5
71
100
AcDbEntity
  8
0
 62
7
370
0
  6
CONTINUOUS
100
AcDbCircle
 10
1194.2859342239369198
 20
454.0375458147971699
 30
0.0
 40
15.9965816684231079
100
AcDbArc
 50
198.8817900298095651
 51
237.5367814529657835
  0
ARC
  5
72
100
AcDbEntity
  8
0
 62
7
370
0
  6
CONTINUOUS
100
AcDbCircle
 10
1139.6371997929345525
 20
490.9576785803704979
 30
0.0
 40
17.4994586608417713
100
AcDbArc
 50
132.788211770938176
 51
270.0
  0
ARC
  5
73
100
AcDbEntity
  8
0
 62
7
370
0
  6
CONTINUOUS
100
AcDbCircle
 10
1139.9405931570850043
 20
482.5535740074841442
 30
0.0
 40
9.1004128213338493
100
AcDbArc
 50
113.4711618296756797
 51
268.0894953518351258
  0
LINE
  5
74
100
AcDbEntity
100
AcDbLine
  8
0
 62
256
370
-1
  6
ByLayer
 10
1136.3160130058465711
 20
490.9010246510009097
 30
0.0
 11
1179.4826459236717255
 21
490.9010246510009097
 31
0.0
  0
LINE
  5
75
100
AcDbEntity
100
AcDbLine
  8
0
 62
256
370
-1
  6
ByLayer
 10
289.0622740032980005
 20
468.7083703467065448
 30
0.0
 11
289.0622740032980005
 21
433.7508345907854732
 31
0.0
  0
LINE
  5
76
100
AcDbEntity
100
AcDbLine
  8
0
 62
256
370
-1
  6
ByLayer
 10
342.6677191823133626
 20
468.7083703467065448
 30
0.0
 11
342.6677191823133626
 21
433.7508345907854732
 31
0.0
  0
LINE
  5
77
100
AcDbEntity
100
AcDbLine
  8
0
 62
256
370
-1
  6
ByLayer
 10
292.3193137103774006
 20
464.942418185586348
 30
0.0
 11
339.4106794752339624
 21
464.942418185586348
 31
0.0
  0
LINE
  5
78
100
AcDbEntity
100
AcDbLine
  8
0
 62
256
370
-1
  6
ByLayer
 10
339.4106794752339624
 20
464.942418185586348
 30
0.0
 11
339.4106794752339624
 21
437.3932906632063009
 31
0.0
  0
LINE
  5
79
100
AcDbEntity
100
AcDbLine
  8
0
 62
256
370
-1
  6
ByLayer
 10
339.4106794752339624
 20
437.3932906632063009
 30
0.0
 11
292.3193137103774006
 21
437.3932906632063009
 31
0.0
  0
LINE
  5
7A
100
AcDbEntity
100
AcDbLine
  8
0
 62
256
370
-1
  6
ByLayer
 10
292.3193137103774006
 20
437.3932906632063009
 30
0.0
 11
292.3193137103774006
 21
464.942418185586348
 31
0.0
  0
LINE
  5
7B
100
AcDbEntity
100
AcDbLine
  8
0
 62
256
370
-1
  6
ByLayer
 10
536.6905923579429327
 20
468.7083703467065448
 30
0.0
 11
536.6905923579429327
 21
433.7508345907854732
 31
0.0
  0
LINE
  5
7C
100
AcDbEntity
100
AcDbLine
  8
0
 62
256
370
-1
  6
ByLayer
 10
539.6592483407379177
 20
464.80670819760212
 30
0.0
 11
742.6050532138044673
 21
464.80670819760212
 31
0.0
  0
LINE
  5
7D
100
AcDbEntity
100
AcDbLine
  8
0
 62
256
370
-1
  6
ByLayer
 10
742.6050532138044673
 20
464.80670819760212
 30
0.0
 11
742.6050532138044673
 21
437.3254356691309113
 31
0.0
  0
LINE
  5
7E
100
AcDbEntity
100
AcDbLine
  8
0
 62
256
370
-1
  6
ByLayer
 10
742.6050532138044673
 20
437.3254356691309113
 30
0.0
 11
539.6592483407379177
 21
437.3254356691309113
 31
0.0
  0
LINE
  5
7F
100
AcDbEntity
100
AcDbLine
  8
0
 62
256
370
-1
  6
ByLayer
 10
539.6592483407379177
 20
437.3254356691309113
 30
0.0
 11
539.6592483407379177
 21
464.80670819760212
 31
0.0
  0
LINE
  5
80
100
AcDbEntity
100
AcDbLine
  8
0
 62
256
370
-1
  6
ByLayer
 10
565.5713741353306432
 20
464.80670819760212
 30
0.0
 11
565.5713741353306432
 21
437.3254356691309113
 31
0.0
  0
LINE
  5
81
100
AcDbEntity
100
AcDbLine
  8
0
 62
256
370
-1
  6
ByLayer
 10
591.3562718163655063
 20
464.80670819760212
 30
0.0
 11
591.3562718163655063
 21
437.3254356691309113
 31
0.0
  0
LINE
  5
82
100
AcDbEntity
100
AcDbLine
  8
0
 62
256
370
-1
  6
ByLayer
 10
617.1411694974003694
 20
464.80670819760212
 30
0.0
 11
617.1411694974003694
 21
437.3254356691309113
 31
0.0
  0
LINE
  5
83
100
AcDbEntity
100
AcDbLine
  8
0
 62
256
370
-1
  6
ByLayer
 10
641.3993298157424761
 20
464.80670819760212
 30
0.0
 11
641.3993298157424761
 21
437.3254356691309113
 31
0.0
  0
LINE
  5
84
100
AcDbEntity
100
AcDbLine
  8
0
 62
256
370
-1
  6
ByLayer
 10
666.8449525272900473
 20
464.80670819760212
 30
0.0
 11
666.8449525272900473
 21
437.3254356691309113
 31
0.0
  0
LINE
  5
85
100
AcDbEntity
100
AcDbLine
  8
0
 62
256
370
-1
  6
ByLayer
 10
692.1209377540939158
 20
464.80670819760212
 30
0.0
 11
692.1209377540939158
 21
437.3254356691309113
 31
0.0
  0
LINE
  5
86
100
AcDbEntity
100
AcDbLine
  8
0
 62
256
370
-1
  6
ByLayer
 10
717.7361979503850762
 20
464.80670819760212
 30
0.0
 11
717.7361979503850762
 21
437.3254356691309113
 31
0.0
  0
LINE
  5
87
100
AcDbEntity
100
AcDbLine
  8
0
 62
256
370
-1
  6
ByLayer
 10
745.7535249306464493
 20
468.7083703467065448
 30
0.0
 11
745.7535249306464493
 21
433.7508345907854732
 31
0.0
  0
LINE
  5
88
100
AcDbEntity
100
AcDbLine
  8
0
 62
256
370
-1
  6
ByLayer
 10
927.4420565904867999
 20
468.7083703467065448
 30
0.0
 11
927.4420565904867999
 21
433.7508345907854732
 31
0.0
  0
LINE
  5
89
100
AcDbEntity
100
AcDbLine
  8
0
 62
256
370
-1
  6
ByLayer
 10
984.9830914155330674
 20
468.7083703467065448
 30
0.0
 11
984.9830914155330674
 21
433.7508345907854732
 31
0.0
  0
LINE
  5
8A
100
AcDbEntity
100
AcDbLine
  8
0
 62
256
370
-1
  6
ByLayer
 10
930.8348062853598321
 20
463.7210282952434
 30
0.0
 11
982.2688916596347326
 21
463.7210282952434
 31
0.0
  0
LINE
  5
8B
100
AcDbEntity
100
AcDbLine
  8
0
 62
256
370
-1
  6
ByLayer
 10
982.2688916596347326
 20
463.7210282952434
 30
0.0
 11
982.2688916596347326
 21
436.1176167777581441
 31
0.0
  0
LINE
  5
8C
100
AcDbEntity
100
AcDbLine
  8
0
 62
256
370
-1
  6
ByLayer
 10
982.2688916596347326
 20
436.1176167777581441
 30
0.0
 11
930.8348062853598321
 21
436.1176167777581441
 31
0.0
  0
LINE
  5
8D
100
AcDbEntity
100
AcDbLine
  8
0
 62
256
370
-1
  6
ByLayer
 10
930.8348062853598321
 20
436.1176167777581441
 30
0.0
 11
930.8348062853598321
 21
463.7210282952434
 31
0.0
  0
CIRCLE
  5
8E
100
AcDbEntity
100
AcDbCircle
  8
0
 62
256
370
-1
  6
ByLayer
 10
523.9056936825386401
 20
351.6560630938101326
 30
0.0
 40
8.5
  0
CIRCLE
  5
8F
100
AcDbEntity
100
AcDbCircle
  8
0
 62
256
370
-1
  6
ByLayer
 10
457.9658391328398466
 20
351.6560630938101326
 30
0.0
 40
8.5
  0
CIRCLE
  5
90
100
AcDbEntity
100
AcDbCircle
  8
0
 62
256
370
-1
  6
ByLayer
 10
590.4708998559965494
 20
351.6560630938101326
 30
0.0
 40
8.5
  0
CIRCLE
  5
91
100
AcDbEntity
100
AcDbCircle
  8
0
 62
256
370
-1
  6
ByLayer
 10
657.8699081944663476
 20
351.6560630938101326
 30
0.0
 40
8.5
  0
CIRCLE
  5
92
100
AcDbEntity
100
AcDbCircle
  8
0
 62
256
370
-1
  6
ByLayer
 10
780.0914088824749797
 20
351.6560630938101326
 30
0.0
 40
8.5
  0
CIRCLE
  5
93
100
AcDbEntity
100
AcDbCircle
  8
0
 62
256
370
-1
  6
ByLayer
 10
846.5871315421818508
 20
351.6560630938101326
 30
0.0
 40
8.5
  0
CIRCLE
  5
94
100
AcDbEntity
100
AcDbCircle
  8
0
 62
256
370
-1
  6
ByLayer
 10
913.6387223118966858
 20
351.6560630938101326
 30
0.0
 40
8.5
  0
CIRCLE
  5
95
100
AcDbEntity
100
AcDbCircle
  8
0
 62
256
370
-1
  6
ByLayer
 10
981.3851482191215609
 20
351.6560630938101326
 30
0.0
 40
8.5
  0
CIRCLE
  5
96
100
AcDbEntity
100
AcDbCircle
  8
0
 62
256
370
-1
  6
ByLayer
 10
1074.0761555629553641
 20
351.6560630938101326
 30
0.0
 40
8.5
  0
CIRCLE
  5
97
100
AcDbEntity
100
AcDbCircle
  8
0
 62
256
370
-1
  6
ByLayer
 10
1154.1906469178582029
 20
351.6560630938101326
 30
0.0
 40
8.5
  0
CIRCLE
  5
98
100
AcDbEntity
100
AcDbCircle
  8
0
 62
256
370
-1
  6
ByLayer
 10
365.0663812477530996
 20
351.6560630938101326
 30
0.0
 40
8.5
  0
CIRCLE
  5
99
100
AcDbEntity
100
AcDbCircle
  8
0
 62
256
370
-1
  6
ByLayer
 10
281.4777142053002876
 20
351.6560630938101326
 30
0.0
 40
8.5
  0
CIRCLE
  5
9A
100
AcDbEntity
100
AcDbCircle
  8
0
 62
256
370
-1
  6
ByLayer
 10
523.9056936825386401
 20
351.6560630938101326
 30
0.0
 40
5.0
  0
CIRCLE
  5
9B
100
AcDbEntity
100
AcDbCircle
  8
0
 62
256
370
-1
  6
ByLayer
 10
590.4708998559965494
 20
351.6560630938101326
 30
0.0
 40
5.0
  0
CIRCLE
  5
9C
100
AcDbEntity
100
AcDbCircle
  8
0
 62
256
370
-1
  6
ByLayer
 10
457.9658391328398466
 20
351.6560630938101326
 30
0.0
 40
5.0
  0
CIRCLE
  5
9D
100
AcDbEntity
100
AcDbCircle
  8
0
 62
256
370
-1
  6
ByLayer
 10
365.0663812477530996
 20
351.6560630938101326
 30
0.0
 40
5.0
  0
CIRCLE
  5
9E
100
AcDbEntity
100
AcDbCircle
  8
0
 62
256
370
-1
  6
ByLayer
 10
281.4777142053002876
 20
351.6560630938101326
 30
0.0
 40
5.0
  0
CIRCLE
  5
9F
100
AcDbEntity
100
AcDbCircle
  8
0
 62
256
370
-1
  6
ByLayer
 10
657.8699081944663476
 20
351.6560630938101326
 30
0.0
 40
5.0
  0
CIRCLE
  5
A0
100
AcDbEntity
100
AcDbCircle
  8
0
 62
256
370
-1
  6
ByLayer
 10
780.0914088824749797
 20
351.6560630938101326
 30
0.0
 40
5.0
  0
CIRCLE
  5
A1
100
AcDbEntity
100
AcDbCircle
  8
0
 62
256
370
-1
  6
ByLayer
 10
846.5871315421818508
 20
351.6560630938101326
 30
0.0
 40
5.0
  0
CIRCLE
  5
A2
100
AcDbEntity
100
AcDbCircle
  8
0
 62
256
370
-1
  6
ByLayer
 10
913.6387223118966858
 20
351.6560630938101326
 30
0.0
 40
5.0
  0
CIRCLE
  5
A3
100
AcDbEntity
100
AcDbCircle
  8
0
 62
256
370
-1
  6
ByLayer
 10
981.3851482191215609
 20
351.6560630938101326
 30
0.0
 40
5.0
  0
CIRCLE
  5
A4
100
AcDbEntity
100
AcDbCircle
  8
0
 62
256
370
-1
  6
ByLayer
 10
1074.0761555629553641
 20
351.6560630938101326
 30
0.0
 40
5.0
  0
CIRCLE
  5
A5
100
AcDbEntity
100
AcDbCircle
  8
0
 62
256
370
-1
  6
ByLayer
 10
1154.1906469178582029
 20
351.6560630938101326
 30
0.0
 40
5.0
  0
LINE
  5
A6
100
AcDbEntity
100
AcDbLine
  8
0
 62
256
370
-1
  6
ByLayer
 10
169.8071222283967927
 20
357.0869053853899118
 30
0.0
 11
169.8071222283967927
 21
369.9793542259075139
 31
0.0
  0
LINE
  5
A7
100
AcDbEntity
100
AcDbLine
  8
0
 62
256
370
-1
  6
ByLayer
 10
169.8071222283967927
 20
369.9793542259075139
 30
0.0
 11
192.7081826687899877
 21
368.4526168632146437
 31
0.0
  0
LINE
  5
A8
100
AcDbEntity
100
AcDbLine
  8
0
 62
256
370
-1
  6
ByLayer
 10
169.8071222283967927
 20
357.0869053853899118
 30
0.0
 11
192.7081826687899877
 21
360.2676082243275459
 31
0.0
  0
LINE
  5
A9
100
AcDbEntity
100
AcDbLine
  8
0
 62
256
370
-1
  6
ByLayer
 10
192.7081826687899877
 20
377.6000000000037176
 30
0.0
 11
192.7081826687899877
 21
357.867237815205101
 31
0.0
  0
LINE
  5
AA
100
AcDbEntity
100
AcDbLine
  8
0
 62
256
370
-1
  6
ByLayer
 10
192.7081826687899877
 20
357.867237815205101
 30
0.0
 11
240.0709684092141742
 21
357.867237815205101
 31
0.0
  0
LINE
  5
AB
100
AcDbEntity
100
AcDbLine
  8
0
 62
256
370
-1
  6
ByLayer
 10
270.509585662309803
 20
375.4409816800398403
 30
0.0
 11
295.8477733929264559
 21
375.4409816800398403
 31
0.0
  0
LINE
  5
AC
100
AcDbEntity
100
AcDbLine
  8
0
 62
256
370
-1
  6
ByLayer
 10
295.8477733929264559
 20
375.4409816800398403
 30
0.0
 11
300.7333329535435951
 21
371.4382365946971163
 31
0.0
  0
LINE
  5
AD
100
AcDbEntity
100
AcDbLine
  8
0
 62
256
370
-1
  6
ByLayer
 10
300.7333329535435951
 20
371.4382365946971163
 30
0.0
 11
342.6677191821739825
 21
371.4382365946971163
 31
0.0
  0
LINE
  5
AE
100
AcDbEntity
100
AcDbLine
  8
0
 62
256
370
-1
  6
ByLayer
 10
342.6677191821739825
 20
371.4382365946971163
 30
0.0
 11
346.0604688770470148
 21
375.4409816800398403
 31
0.0
  0
ARC
  5
AF
100
AcDbEntity
  8
0
 62
7
370
0
  6
CONTINUOUS
100
AcDbCircle
 10
429.8429864909575144
 20
344.2430594363142404
 30
0.0
 40
12.2335327881413196
100
AcDbArc
 50
0.8138220490780701
 51
90.0
  0
LINE
  5
B0
100
AcDbEntity
100
AcDbLine
  8
0
 62
256
370
-1
  6
ByLayer
 10
412.4281219339878817
 20
356.4765922244555441
 30
0.0
 11
429.8429864909575144
 21
356.4765922244555441
 31
0.0
  0
LINE
  5
B1
100
AcDbEntity
100
AcDbLine
  8
0
 62
256
370
-1
  6
ByLayer
 10
442.0752852419533951
 20
340.9713443347376369
 30
0.0
 11
473.0090198599277187
 21
340.9713443347376369
 31
0.0
  0
ARC
  5
B2
100
AcDbEntity
  8
0
 62
7
370
0
  6
CONTINUOUS
100
AcDbCircle
 10
485.2413186109235994
 20
344.2430594363142404
 30
0.0
 40
12.2335327881413196
100
AcDbArc
 50
90.0
 51
179.1861779509219161
  0
LINE
  5
B3
100
AcDbEntity
100
AcDbLine
  8
0
 62
256
370
-1
  6
ByLayer
 10
379.5808358623923482
 20
375.4409816800398403
 30
0.0
 11
412.4281219339878248
 21
356.4765922244555441
 31
0.0
  0
LINE
  5
B4
100
AcDbEntity
100
AcDbLine
  8
0
 62
256
370
-1
  6
ByLayer
 10
240.0709684092141742
 20
357.867237815205101
 30
0.0
 11
270.5095856623097461
 21
375.4409816800398403
 31
0.0
  0
LINE
  5
B5
100
AcDbEntity
100
AcDbLine
  8
0
 62
256
370
-1
  6
ByLayer
 10
442.0752852419533951
 20
344.416817155316437
 30
0.0
 11
442.0752852419533951
 21
340.9713443347376369
 31
0.0
  0
LINE
  5
B6
100
AcDbEntity
100
AcDbLine
  8
0
 62
256
370
-1
  6
ByLayer
 10
473.0090198599277187
 20
344.416817155316437
 30
0.0
 11
473.0090198599277187
 21
340.9713443347376369
 31
0.0
  0
ARC
  5
B7
100
AcDbEntity
  8
0
 62
7
370
0
  6
CONTINUOUS
100
AcDbCircle
 10
497.8201193774522153
 20
344.2430594363142404
 30
0.0
 40
12.2335327881413196
100
AcDbArc
 50
0.8138220490780701
 51
90.0
  0
LINE
  5
B8
100
AcDbEntity
100
AcDbLine
  8
0
 62
256
370
-1
  6
ByLayer
 10
510.052418128448096
 20
344.416817155316437
 30
0.0
 11
510.052418128448096
 21
340.9713443347376369
 31
0.0
  0
ARC
  5
B9
100
AcDbEntity
  8
0
 62
7
370
0
  6
CONTINUOUS
100
AcDbCircle
 10
552.4666181650353565
 20
344.2430594363142404
 30
0.0
 40
12.2335327881413196
100
AcDbArc
 50
90.0
 51
179.1861779509219161
  0
LINE
  5
BA
100
AcDbEntity
100
AcDbLine
  8
0
 62
256
370
-1
  6
ByLayer
 10
540.2343194140395326
 20
344.416817155316437
 30
0.0
 11
540.2343194140395326
 21
340.9713443347376369
 31
0.0
  0
ARC
  5
BB
100
AcDbEntity
  8
0
 62
7
370
0
  6
CONTINUOUS
100
AcDbCircle
 10
562.7437775385446912
 20
344.2430594363142404
 30
0.0
 40
12.2335327881413196
100
AcDbArc
 50
0.8138220490780701
 51
90.0
  0
LINE
  5
BC
100
AcDbEntity
100
AcDbLine
  8
0
 62
256
370
-1
  6
ByLayer
 10
574.9760762895405151
 20
344.416817155316437
 30
0.0
 11
574.9760762895405151
 21
340.9713443347376369
 31
0.0
  0
ARC
  5
BD
100
AcDbEntity
  8
0
 62
7
370
0
  6
CONTINUOUS
100
AcDbCircle
 10
619.1273641699027621
 20
344.2430594363142404
 30
0.0
 40
12.2335327881413196
100
AcDbArc
 50
90.0
 51
179.1861779509219161
  0
LINE
  5
BE
100
AcDbEntity
100
AcDbLine
  8
0
 62
256
370
-1
  6
ByLayer
 10
606.8950654189069382
 20
344.416817155316437
 30
0.0
 11
606.8950654189069382
 21
340.9713443347376369
 31
0.0
  0
LINE
  5
BF
100
AcDbEntity
100
AcDbLine
  8
0
 62
256
370
-1
  6
ByLayer
 10
673.4472434335384605
 20
344.416817155316437
 30
0.0
 11
673.4472434335384605
 21
340.9713443347376369
 31
0.0
  0
ARC
  5
C0
100
AcDbEntity
  8
0
 62
7
370
0
  6
CONTINUOUS
100
AcDbCircle
 10
809.0127790925625959
 20
344.2430594363142404
 30
0.0
 40
12.2335327881413196
100
AcDbArc
 50
90.0
 51
179.1861779509219161
  0
LINE
  5
C1
100
AcDbEntity
100
AcDbLine
  8
0
 62
256
370
-1
  6
ByLayer
 10
796.780480341566772
 20
344.416817155316437
 30
0.0
 11
796.780480341566772
 21
340.9713443347376369
 31
0.0
  0
ARC
  5
C2
100
AcDbEntity
  8
0
 62
7
370
0
  6
CONTINUOUS
100
AcDbCircle
 10
874.6964131853065965
 20
344.2430594363142404
 30
0.0
 40
12.2335327881413196
100
AcDbArc
 50
90.0
 51
179.1861779509219161
  0
LINE
  5
C3
100
AcDbEntity
100
AcDbLine
  8
0
 62
256
370
-1
  6
ByLayer
 10
862.4641144343107726
 20
344.416817155316437
 30
0.0
 11
862.4641144343107726
 21
340.9713443347376369
 31
0.0
  0
ARC
  5
C4
100
AcDbEntity
  8
0
 62
7
370
0
  6
CONTINUOUS
100
AcDbCircle
 10
941.6828631608817659
 20
344.2430594363142404
 30
0.0
 40
12.2335327881413196
100
AcDbArc
 50
90.0
 51
179.1861779509219161
  0
LINE
  5
C5
100
AcDbEntity
100
AcDbLine
  8
0
 62
256
370
-1
  6
ByLayer
 10
929.450564409885942
 20
344.416817155316437
 30
0.0
 11
929.450564409885942
 21
340.9713443347376369
 31
0.0
  0
ARC
  5
C6
100
AcDbEntity
  8
0
 62
7
370
0
  6
CONTINUOUS
100
AcDbCircle
 10
1010.6235369607039729
 20
344.2430594363142404
 30
0.0
 40
12.2335327881413196
100
AcDbArc
 50
90.0
 51
179.1861779509219161
  0
LINE
  5
C7
100
AcDbEntity
100
AcDbLine
  8
0
 62
256
370
-1
  6
ByLayer
 10
998.391238209708149
 20
344.416817155316437
 30
0.0
 11
998.391238209708149
 21
340.9713443347376369
 31
0.0
  0
ARC
  5
C8
100
AcDbEntity
  8
0
 62
7
370
0
  6
CONTINUOUS
100
AcDbCircle
 10
630.0559314848301256
 20
344.2430594363142404
 30
0.0
 40
12.2335327881413196
100
AcDbArc
 50
0.8138220490780701
 51
90.0
  0
LINE
  5
C9
100
AcDbEntity
100
AcDbLine
  8
0
 62
256
370
-1
  6
ByLayer
 10
642.2882302358259494
 20
344.416817155316437
 30
0.0
 11
642.2882302358259494
 21
340.9713443347376369
 31
0.0
  0
LINE
  5
CA
100
AcDbEntity
100
AcDbLine
  8
0
 62
256
370
-1
  6
ByLayer
 10
763.8843793000796722
 20
344.416817155316437
 30
0.0
 11
763.8843793000796722
 21
340.9713443347376369
 31
0.0
  0
ARC
  5
CB
100
AcDbEntity
  8
0
 62
7
370
0
  6
CONTINUOUS
100
AcDbCircle
 10
819.724210427018761
 20
344.2430594363142404
 30
0.0
 40
12.2335327881413196
100
AcDbArc
 50
0.8138220490780701
 51
90.0
  0
LINE
  5
CC
100
AcDbEntity
100
AcDbLine
  8
0
 62
256
370
-1
  6
ByLayer
 10
831.9565091780145849
 20
344.416817155316437
 30
0.0
 11
831.9565091780145849
 21
340.9713443347376369
 31
0.0
  0
ARC
  5
CD
100
AcDbEntity
  8
0
 62
7
370
0
  6
CONTINUOUS
100
AcDbCircle
 10
887.3620683440097991
 20
344.2430594363142404
 30
0.0
 40
12.2335327881413196
100
AcDbArc
 50
0.8138220490780701
 51
90.0
  0
LINE
  5
CE
100
AcDbEntity
100
AcDbLine
  8
0
 62
256
370
-1
  6
ByLayer
 10
899.594367095005623
 20
344.416817155316437
 30
0.0
 11
899.594367095005623
 21
340.9713443347376369
 31
0.0
  0
ARC
  5
CF
100
AcDbEntity
  8
0
 62
7
370
0
  6
CONTINUOUS
100
AcDbCircle
 10
953.8056783684056654
 20
344.2430594363142404
 30
0.0
 40
12.2335327881413196
100
AcDbArc
 50
0.8138220490780701
 51
90.0
  0
LINE
  5
D0
100
AcDbEntity
100
AcDbLine
  8
0
 62
256
370
-1
  6
ByLayer
 10
966.0379771194014893
 20
344.416817155316437
 30
0.0
 11
966.0379771194014893
 21
340.9713443347376369
 31
0.0
  0
LINE
  5
D1
100
AcDbEntity
100
AcDbLine
  8
0
 62
256
370
-1
  6
ByLayer
 10
497.8201193774522153
 20
356.4765922244555441
 30
0.0
 11
485.2413186109235994
 21
356.4765922244555441
 31
0.0
  0
LINE
  5
D2
100
AcDbEntity
100
AcDbLine
  8
0
 62
256
370
-1
  6
ByLayer
 10
510.052418128448096
 20
340.9713443347376369
 30
0.0
 11
540.2343194140395326
 21
340.9713443347376369
 31
0.0
  0
LINE
  5
D3
100
AcDbEntity
100
AcDbLine
  8
0
 62
256
370
-1
  6
ByLayer
 10
562.7437775385446912
 20
356.4765922244555441
 30
0.0
 11
552.4666181650353565
 21
356.4765922244555441
 31
0.0
  0
LINE
  5
D4
100
AcDbEntity
100
AcDbLine
  8
0
 62
256
370
-1
  6
ByLayer
 10
574.9760762895405151
 20
340.9713443347376369
 30
0.0
 11
606.8950654189069382
 21
340.9713443347376369
 31
0.0
  0
LINE
  5
D5
100
AcDbEntity
100
AcDbLine
  8
0
 62
256
370
-1
  6
ByLayer
 10
630.0559314848301256
 20
356.4765922244555441
 30
0.0
 11
619.1273641699027621
 21
356.4765922244555441
 31
0.0
  0
LINE
  5
D6
100
AcDbEntity
100
AcDbLine
  8
0
 62
256
370
-1
  6
ByLayer
 10
642.2882302358259494
 20
340.9713443347376369
 30
0.0
 11
673.4472434335384605
 21
340.9713443347376369
 31
0.0
  0
LINE
  5
D7
100
AcDbEntity
100
AcDbLine
  8
0
 62
256
370
-1
  6
ByLayer
 10
763.8843793000796722
 20
340.9713443347376369
 30
0.0
 11
796.780480341566772
 21
340.9713443347376369
 31
0.0
  0
LINE
  5
D8
100
AcDbEntity
100
AcDbLine
  8
0
 62
256
370
-1
  6
ByLayer
 10
819.724210427018761
 20
356.4765922244555441
 30
0.0
 11
809.0127790925625959
 21
356.4765922244555441
 31
0.0
  0
LINE
  5
D9
100
AcDbEntity
100
AcDbLine
  8
0
 62
256
370
-1
  6
ByLayer
 10
831.9565091780145849
 20
340.9713443347376369
 30
0.0
 11
862.4641144343107726
 21
340.9713443347376369
 31
0.0
  0
LINE
  5
DA
100
AcDbEntity
100
AcDbLine
  8
0
 62
256
370
-1
  6
ByLayer
 10
887.3620683440097991
 20
356.4765922244555441
 30
0.0
 11
874.6964131853065965
 21
356.4765922244555441
 31
0.0
  0
LINE
  5
DB
100
AcDbEntity
100
AcDbLine
  8
0
 62
256
370
-1
  6
ByLayer
 10
899.594367095005623
 20
340.9713443347376369
 30
0.0
 11
929.450564409885942
 21
340.9713443347376369
 31
0.0
  0
LINE
  5
DC
100
AcDbEntity
100
AcDbLine
  8
0
 62
256
370
-1
  6
ByLayer
 10
953.8056783684056654
 20
356.4765922244555441
 30
0.0
 11
941.6828631608817659
 21
356.4765922244555441
 31
0.0
  0
LINE
  5
DD
100
AcDbEntity
100
AcDbLine
  8
0
 62
256
370
-1
  6
ByLayer
 10
966.0379771194014893
 20
340.9713443347376369
 30
0.0
 11
998.391238209708149
 21
340.9713443347376369
 31
0.0
  0
LINE
  5
DE
100
AcDbEntity
100
AcDbLine
  8
0
 62
256
370
-1
  6
ByLayer
 10
245.8057889243101783
 20
345.5719129210860388
 30
0.0
 11
268.2715038730768242
 21
345.5719129210860388
 31
0.0
  0
LINE
  5
DF
100
AcDbEntity
100
AcDbLine
  8
0
 62
256
370
-1
  6
ByLayer
 10
268.2715038730768242
 20
345.5719129210860388
 30
0.0
 11
268.2715038730768242
 21
340.9034893409396432
 31
0.0
  0
LINE
  5
E0
100
AcDbEntity
100
AcDbLine
  8
0
 62
256
370
-1
  6
ByLayer
 10
268.2715038730768242
 20
340.9034893409396432
 30
0.0
 11
297.4762932465524727
 21
340.9034893409396432
 31
0.0
  0
LINE
  5
E1
100
AcDbEntity
100
AcDbLine
  8
0
 62
256
370
-1
  6
ByLayer
 10
272.2885195118076354
 20
371.4110945972464037
 30
0.0
 11
292.0478937347538135
 21
371.4110945972464037
 31
0.0
  0
ARC
  5
E2
100
AcDbEntity
  8
0
 62
7
370
0
  6
CONTINUOUS
100
AcDbCircle
 10
260.0588996949466036
 20
348.0054079939031908
 30
0.0
 40
14.2531107706364324
100
AcDbArc
 50
126.7227705921468299
 51
180.0
  0
LINE
  5
E3
100
AcDbEntity
100
AcDbLine
  8
0
 62
256
370
-1
  6
ByLayer
 10
245.8057889243101783
 20
348.0054079939031908
 30
0.0
 11
245.8057889243101783
 21
345.5719129210860388
 31
0.0
  0
LINE
  5
E4
100
AcDbEntity
100
AcDbLine
  8
0
 62
256
370
-1
  6
ByLayer
 10
272.2885195118076354
 20
371.4110945972464037
 30
0.0
 11
251.536341292845691
 21
359.4298189162576591
 31
0.0
  0
LINE
  5
E5
100
AcDbEntity
100
AcDbLine
  8
0
 62
256
370
-1
  6
ByLayer
 10
292.0478937347538135
 20
371.4110945972464037
 30
0.0
 11
295.6523510106117101
 21
368.4363316648104956
 31
0.0
  0
LINE
  5
E6
100
AcDbEntity
100
AcDbLine
  8
0
 62
256
370
-1
  6
ByLayer
 10
295.6523510106117101
 20
368.4363316648104956
 30
0.0
 11
346.1147528722937068
 21
368.4363316648104956
 31
0.0
  0
LINE
  5
E7
100
AcDbEntity
100
AcDbLine
  8
0
 62
256
370
-1
  6
ByLayer
 10
346.1147528722937068
 20
368.4363316648104956
 30
0.0
 11
349.3283653832785944
 21
371.5630897836066424
 31
0.0
  0
ARC
  5
E8
100
AcDbEntity
  8
0
 62
7
370
0
  6
CONTINUOUS
100
AcDbCircle
 10
389.3948178966445539
 20
348.1574031802634295
 30
0.0
 40
14.2531107706364324
100
AcDbArc
 50
0.0
 51
53.277229407853163
  0
LINE
  5
E9
100
AcDbEntity
100
AcDbLine
  8
0
 62
256
370
-1
  6
ByLayer
 10
403.6479286672810076
 20
348.1574031802634295
 30
0.0
 11
403.6479286672810076
 21
345.7239081074462774
 31
0.0
  0
LINE
  5
EA
100
AcDbEntity
100
AcDbLine
  8
0
 62
256
370
-1
  6
ByLayer
 10
377.1651980797835222
 20
371.5630897836066424
 30
0.0
 11
397.9173762987454666
 21
359.5818141026178978
 31
0.0
  0
LINE
  5
EB
100
AcDbEntity
100
AcDbLine
  8
0
 62
256
370
-1
  6
ByLayer
 10
403.6479286672810076
 20
345.7239081074462774
 30
0.0
 11
379.6622618552109998
 21
345.7239081074462774
 31
0.0
  0
LINE
  5
EC
100
AcDbEntity
100
AcDbLine
  8
0
 62
256
370
-1
  6
ByLayer
 10
379.6622618552109998
 20
345.7239081074462774
 30
0.0
 11
379.6622618552109998
 21
340.794921350731272
 31
0.0
  0
LINE
  5
ED
100
AcDbEntity
100
AcDbLine
  8
0
 62
256
370
-1
  6
ByLayer
 10
379.6622618552109998
 20
340.794921350731272
 30
0.0
 11
351.8688563548009256
 21
340.794921350731272
 31
0.0
  0
ARC
  5
EE
100
AcDbEntity
  8
0
 62
7
370
0
  6
CONTINUOUS
100
AcDbCircle
 10
337.2234884812111204
 20
343.3026076639665689
 30
0.0
 40
14.6460561440490356
100
AcDbArc
 50
0.5554673655576735
 51
90.0
  0
LINE
  5
EF
100
AcDbEntity
100
AcDbLine
  8
0
 62
256
370
-1
  6
ByLayer
 10
351.8688563548009256
 20
340.794921350731272
 30
0.0
 11
351.8688563548009256
 21
343.4445950643235506
 31
0.0
  0
LINE
  5
F0
100
AcDbEntity
100
AcDbLine
  8
0
 62
256
370
-1
  6
ByLayer
 10
312.5368448521225559
 20
366.803469091675197
 30
0.0
 11
325.5997454373157893
 21
366.803469091675197
 31
0.0
  0
LINE
  5
F1
100
AcDbEntity
100
AcDbLine
  8
0
 62
256
370
-1
  6
ByLayer
 10
325.5997454373157893
 20
366.803469091675197
 30
0.0
 11
325.5997454373157893
 21
353.9490190477350779
 31
0.0
  0
LINE
  5
F2
100
AcDbEntity
100
AcDbLine
  8
0
 62
256
370
-1
  6
ByLayer
 10
325.5997454373157893
 20
353.9490190477350779
 30
0.0
 11
312.5368448521225559
 21
353.9490190477350779
 31
0.0
  0
LINE
  5
F3
100
AcDbEntity
100
AcDbLine
  8
0
 62
256
370
-1
  6
ByLayer
 10
312.5368448521225559
 20
353.9490190477350779
 30
0.0
 11
312.5368448521225559
 21
366.803469091675197
 31
0.0
  0
LINE
  5
F4
100
AcDbEntity
100
AcDbLine
  8
0
 62
256
370
-1
  6
ByLayer
 10
306.422295642032168
 20
360.202535285327599
 30
0.0
 11
312.5368448521225559
 21
360.202535285327599
 31
0.0
  0
ARC
  5
F5
100
AcDbEntity
  8
0
 62
7
370
0
  6
CONTINUOUS
100
AcDbCircle
 10
326.3236113579686162
 20
360.6194363678337709
 30
0.0
 40
4.3683698388829484
100
AcDbArc
 50
260.4617390961972774
 51
99.5382609038026942
  0
LINE
  5
F6
100
AcDbEntity
100
AcDbLine
  8
0
 62
256
370
-1
  6
ByLayer
 10
330.6720419411408329
 20
360.202535285327599
 30
0.0
 11
336.7171076374802396
 21
360.202535285327599
 31
0.0
  0
ARC
  5
F7
100
AcDbEntity
  8
0
 62
7
370
0
  6
CONTINUOUS
100
AcDbCircle
 10
311.7804279228224686
 20
343.0525210271779315
 30
0.0
 40
14.4646675048314215
100
AcDbArc
 50
87.0024008385976941
 51
188.5441292867338348
  0
LINE
  5
F8
100
AcDbEntity
100
AcDbLine
  8
0
 62
256
370
-1
  6
ByLayer
 10
337.2234884812111204
 20
357.948663808015624
 30
0.0
 11
329.7804348974315189
 21
357.948663808015624
 31
0.0
  0
LINE
  5
F9
100
AcDbEntity
100
AcDbLine
  8
0
 62
256
370
-1
  6
ByLayer
 10
347.0782937856511126
 20
456.3248339606067816
 30
0.0
 11
349.7924935415506411
 21
456.3248339606067816
 31
0.0
  0
LINE
  5
FA
100
AcDbEntity
100
AcDbLine
  8
0
 62
256
370
-1
  6
ByLayer
 10
349.7924935415506411
 20
456.3248339606067816
 30
0.0
 11
349.7924935415506411
 21
378.2915909784955488
 31
0.0
  0
LINE
  5
FB
100
AcDbEntity
100
AcDbLine
  8
0
 62
256
370
-1
  6
ByLayer
 10
349.7924935415506411
 20
378.2915909784955488
 30
0.0
 11
347.0782937856511126
 21
378.2915909784955488
 31
0.0
  0
LINE
  5
FC
100
AcDbEntity
100
AcDbLine
  8
0
 62
256
370
-1
  6
ByLayer
 10
347.0782937856511126
 20
378.2915909784955488
 30
0.0
 11
347.0782937856511126
 21
456.3248339606067816
 31
0.0
  0
LINE
  5
FD
100
AcDbEntity
100
AcDbLine
  8
0
 62
256
370
-1
  6
ByLayer
 10
375.4077537378523175
 20
456.3248339606067816
 30
0.0
 11
378.1219534937518461
 21
456.3248339606067816
 31
0.0
  0
LINE
  5
FE
100
AcDbEntity
100
AcDbLine
  8
0
 62
256
370
-1
  6
ByLayer
 10
378.1219534937518461
 20
456.3248339606067816
 30
0.0
 11
378.1219534937518461
 21
378.2915909784955488
 31
0.0
  0
LINE
  5
FF
100
AcDbEntity
100
AcDbLine
  8
0
 62
256
370
-1
  6
ByLayer
 10
378.1219534937518461
 20
378.2915909784955488
 30
0.0
 11
375.4077537378523175
 21
378.2915909784955488
 31
0.0
  0
LINE
  5
100
100
AcDbEntity
100
AcDbLine
  8
0
 62
256
370
-1
  6
ByLayer
 10
375.4077537378523175
 20
378.2915909784955488
 30
0.0
 11
375.4077537378523175
 21
456.3248339606067816
 31
0.0
  0
LINE
  5
101
100
AcDbEntity
100
AcDbLine
  8
0
 62
256
370
-1
  6
ByLayer
 10
352.8459682669375752
 20
460.2264961097123432
 30
0.0
 11
372.6935539819527889
 21
460.2264961097123432
 31
0.0
  0
LINE
  5
102
100
AcDbEntity
100
AcDbLine
  8
0
 62
256
370
-1
  6
ByLayer
 10
372.6935539819527889
 20
460.2264961097123432
 30
0.0
 11
372.6935539819527889
 21
403.3979387205661169
 31
0.0
  0
LINE
  5
103
100
AcDbEntity
100
AcDbLine
  8
0
 62
256
370
-1
  6
ByLayer
 10
372.6935539819527889
 20
403.3979387205661169
 30
0.0
 11
352.8459682669375752
 21
403.3979387205661169
 31
0.0
  0
LINE
  5
104
100
AcDbEntity
100
AcDbLine
  8
0
 62
256
370
-1
  6
ByLayer
 10
352.8459682669375752
 20
403.3979387205661169
 30
0.0
 11
352.8459682669375752
 21
460.2264961097123432
 31
0.0
  0
LINE
  5
105
100
AcDbEntity
100
AcDbLine
  8
0
 62
256
370
-1
  6
ByLayer
 10
356.9715518959050655
 20
455.811850206742065
 30
0.0
 11
368.870603625768581
 21
455.811850206742065
 31
0.0
  0
LINE
  5
106
100
AcDbEntity
100
AcDbLine
  8
0
 62
256
370
-1
  6
ByLayer
 10
368.870603625768581
 20
455.811850206742065
 30
0.0
 11
368.870603625768581
 21
434.8799416892449585
 31
0.0
  0
LINE
  5
107
100
AcDbEntity
100
AcDbLine
  8
0
 62
256
370
-1
  6
ByLayer
 10
368.870603625768581
 20
434.8799416892449585
 30
0.0
 11
356.9715518959050655
 21
434.8799416892449585
 31
0.0
  0
LINE
  5
108
100
AcDbEntity
100
AcDbLine
  8
0
 62
256
370
-1
  6
ByLayer
 10
356.9715518959050655
 20
434.8799416892449585
 30
0.0
 11
356.9715518959050655
 21
455.811850206742065
 31
0.0
  0
LINE
  5
109
100
AcDbEntity
100
AcDbLine
  8
0
 62
256
370
-1
  6
ByLayer
 10
358.0735169968023115
 20
396.1374543735370253
 30
0.0
 11
367.4375061546556935
 21
396.1374543735370253
 31
0.0
  0
ARC
  5
10A
100
AcDbEntity
  8
0
 62
256
370
-1
  6
ByLayer
100
AcDbCircle
 10
360.5562114794045669
 20
391.6779842598917298
 30
0.0
 40
5.103983306050214
100
AcDbArc
 50
119.1057406312754665
 51
172.5748702773847469
  0
ARC
  5
10B
100
AcDbEntity
  8
0
 62
256
370
-1
  6
ByLayer
100
AcDbCircle
 10
364.9548116720533812
 20
391.6779842598917298
 30
0.0
 40
5.103983306050214
100
AcDbArc
 50
7.4251297226152007
 51
60.8942593687244909
  0
LINE
  5
10C
100
AcDbEntity
100
AcDbLine
  8
0
 62
256
370
-1
  6
ByLayer
 10
355.4950272286977224
 20
392.3375747152776967
 30
0.0
 11
370.0159959227602258
 21
392.3375747152776967
 31
0.0
  0
LINE
  5
10D
100
AcDbEntity
100
AcDbLine
  8
0
 62
256
370
-1
  6
ByLayer
 10
352.9762498552229317
 20
383.6521354963963404
 30
0.0
 11
352.9762498552229317
 21
348.80723903016127
 31
0.0
  0
LINE
  5
10E
100
AcDbEntity
100
AcDbLine
  8
0
 62
256
370
-1
  6
ByLayer
 10
352.9762498552229317
 20
348.80723903016127
 30
0.0
 11
373.0396144508322891
 21
348.80723903016127
 31
0.0
  0
LINE
  5
10F
100
AcDbEntity
100
AcDbLine
  8
0
 62
256
370
-1
  6
ByLayer
 10
373.0396144508322891
 20
348.80723903016127
 30
0.0
 11
373.0396144508322891
 21
383.6521354963963404
 31
0.0
  0
LINE
  5
110
100
AcDbEntity
100
AcDbLine
  8
0
 62
256
370
-1
  6
ByLayer
 10
355.842444797452913
 20
383.6521354963963404
 30
0.0
 11
355.842444797452913
 21
352.3682691099014619
 31
0.0
  0
LINE
  5
111
100
AcDbEntity
100
AcDbLine
  8
0
 62
256
370
-1
  6
ByLayer
 10
355.842444797452913
 20
352.3682691099014619
 30
0.0
 11
370.1734195086024215
 21
352.3682691099014619
 31
0.0
  0
LINE
  5
112
100
AcDbEntity
100
AcDbLine
  8
0
 62
256
370
-1
  6
ByLayer
 10
370.1734195086024215
 20
352.3682691099014619
 30
0.0
 11
370.1734195086024215
 21
383.6521354963963404
 31
0.0
  0
LINE
  5
113
100
AcDbEntity
100
AcDbLine
  8
0
 62
256
370
-1
  6
ByLayer
 10
355.842444797452913
 20
360.3588731912696517
 30
0.0
 11
370.1734195086024215
 21
360.3588731912696517
 31
0.0
  0
LINE
  5
114
100
AcDbEntity
100
AcDbLine
  8
0
 62
256
370
-1
  6
ByLayer
 10
355.842444797452913
 20
363.5724857022547098
 30
0.0
 11
370.1734195086024215
 21
363.5724857022547098
 31
0.0
  0
LINE
  5
115
100
AcDbEntity
100
AcDbLine
  8
0
 62
256
370
-1
  6
ByLayer
 10
355.842444797452913
 20
374.5394855786632888
 30
0.0
 11
370.1734195086024215
 21
374.5394855786632888
 31
0.0
  0
ARC
  5
116
100
AcDbEntity
  8
0
 62
256
370
-1
  6
ByLayer
100
AcDbCircle
 10
196.6600972561286369
 20
384.3059932021259328
 30
0.0
 40
7.5940477385919047
100
AcDbArc
 50
297.9863844079669661
 51
355.0606406512832223
  0
ARC
  5
117
100
AcDbEntity
  8
0
 62
256
370
-1
  6
ByLayer
100
AcDbCircle
 10
244.6970135727687818
 20
384.434704402649345
 30
0.0
 40
7.0436742572953239
100
AcDbArc
 50
283.991343473826646
 51
353.6211337179564111
  0
LINE
  5
118
100
AcDbEntity
100
AcDbLine
  8
0
 62
256
370
-1
  6
ByLayer
 10
465.1226410493877665
 20
377.9903148055974498
 30
0.0
 11
478.1855416345809999
 21
377.9903148055974498
 31
0.0
  0
LINE
  5
119
100
AcDbEntity
100
AcDbLine
  8
0
 62
256
370
-1
  6
ByLayer
 10
478.1855416345809999
 20
377.9903148055974498
 30
0.0
 11
478.1855416345809999
 21
365.1358647616573307
 31
0.0
  0
LINE
  5
11A
100
AcDbEntity
100
AcDbLine
  8
0
 62
256
370
-1
  6
ByLayer
 10
478.1855416345809999
 20
365.1358647616573307
 30
0.0
 11
465.1226410493877665
 21
365.1358647616573307
 31
0.0
  0
LINE
  5
11B
100
AcDbEntity
100
AcDbLine
  8
0
 62
256
370
-1
  6
ByLayer
 10
465.1226410493877665
 20
365.1358647616573307
 30
0.0
 11
465.1226410493877665
 21
377.9903148055974498
 31
0.0
  0
LINE
  5
11C
100
AcDbEntity
100
AcDbLine
  8
0
 62
256
370
-1
  6
ByLayer
 10
459.0080918392973786
 20
371.3893809992498518
 30
0.0
 11
465.1226410493877665
 21
371.3893809992498518
 31
0.0
  0
ARC
  5
11D
100
AcDbEntity
  8
0
 62
7
370
0
  6
CONTINUOUS
100
AcDbCircle
 10
478.9094075552338268
 20
371.8062820817560237
 30
0.0
 40
4.3683698388829484
100
AcDbArc
 50
260.4617390961972774
 51
99.5382609038026942
  0
LINE
  5
11E
100
AcDbEntity
100
AcDbLine
  8
0
 62
256
370
-1
  6
ByLayer
 10
483.2578381384060435
 20
371.3893809992498518
 30
0.0
 11
489.3029038347454502
 21
371.3893809992498518
 31
0.0
  0
LINE
  5
11F
100
AcDbEntity
100
AcDbLine
  8
0
 62
256
370
-1
  6
ByLayer
 10
530.7446953778712668
 20
377.9903148055974498
 30
0.0
 11
543.8075959630643865
 21
377.9903148055974498
 31
0.0
  0
LINE
  5
120
100
AcDbEntity
100
AcDbLine
  8
0
 62
256
370
-1
  6
ByLayer
 10
543.8075959630643865
 20
377.9903148055974498
 30
0.0
 11
543.8075959630643865
 21
365.1358647616573307
 31
0.0
  0
LINE
  5
121
100
AcDbEntity
100
AcDbLine
  8
0
 62
256
370
-1
  6
ByLayer
 10
543.8075959630643865
 20
365.1358647616573307
 30
0.0
 11
530.7446953778712668
 21
365.1358647616573307
 31
0.0
  0
LINE
  5
122
100
AcDbEntity
100
AcDbLine
  8
0
 62
256
370
-1
  6
ByLayer
 10
530.7446953778712668
 20
365.1358647616573307
 30
0.0
 11
530.7446953778712668
 21
377.9903148055974498
 31
0.0
  0
LINE
  5
123
100
AcDbEntity
100
AcDbLine
  8
0
 62
256
370
-1
  6
ByLayer
 10
524.630146167780822
 20
371.3893809992498518
 30
0.0
 11
530.7446953778712668
 21
371.3893809992498518
 31
0.0
  0
ARC
  5
124
100
AcDbEntity
  8
0
 62
7
370
0
  6
CONTINUOUS
100
AcDbCircle
 10
544.5314618837172702
 20
371.8062820817560237
 30
0.0
 40
4.3683698388829484
100
AcDbArc
 50
260.4617390961972774
 51
99.5382609038026942
  0
LINE
  5
125
100
AcDbEntity
100
AcDbLine
  8
0
 62
256
370
-1
  6
ByLayer
 10
548.879892466889487
 20
371.3893809992498518
 30
0.0
 11
554.9249581632288937
 21
371.3893809992498518
 31
0.0
  0
LINE
  5
126
100
AcDbEntity
100
AcDbLine
  8
0
 62
256
370
-1
  6
ByLayer
 10
598.5758043174794238
 20
377.9903148055974498
 30
0.0
 11
611.6387049026727709
 21
377.9903148055974498
 31
0.0
  0
LINE
  5
127
100
AcDbEntity
100
AcDbLine
  8
0
 62
256
370
-1
  6
ByLayer
 10
611.6387049026727709
 20
377.9903148055974498
 30
0.0
 11
611.6387049026727709
 21
365.1358647616573307
 31
0.0
  0
LINE
  5
128
100
AcDbEntity
100
AcDbLine
  8
0
 62
256
370
-1
  6
ByLayer
 10
611.6387049026727709
 20
365.1358647616573307
 30
0.0
 11
598.5758043174794238
 21
365.1358647616573307
 31
0.0
  0
LINE
  5
129
100
AcDbEntity
100
AcDbLine
  8
0
 62
256
370
-1
  6
ByLayer
 10
598.5758043174794238
 20
365.1358647616573307
 30
0.0
 11
598.5758043174794238
 21
377.9903148055974498
 31
0.0
  0
LINE
  5
12A
100
AcDbEntity
100
AcDbLine
  8
0
 62
256
370
-1
  6
ByLayer
 10
592.4612551073890927
 20
371.3893809992498518
 30
0.0
 11
598.5758043174794238
 21
371.3893809992498518
 31
0.0
  0
ARC
  5
12B
100
AcDbEntity
  8
0
 62
7
370
0
  6
CONTINUOUS
100
AcDbCircle
 10
612.3625708233255409
 20
371.8062820817560237
 30
0.0
 40
4.3683698388829484
100
AcDbArc
 50
260.4617390961972774
 51
99.5382609038026942
  0
LINE
  5
12C
100
AcDbEntity
100
AcDbLine
  8
0
 62
256
370
-1
  6
ByLayer
 10
616.7110014064977577
 20
371.3893809992498518
 30
0.0
 11
622.7560671028371644
 21
371.3893809992498518
 31
0.0
  0
LINE
  5
12D
100
AcDbEntity
100
AcDbLine
  8
0
 62
256
370
-1
  6
ByLayer
 10
665.850350311942293
 20
377.9903148055974498
 30
0.0
 11
678.9132508971356401
 21
377.9903148055974498
 31
0.0
  0
LINE
  5
12E
100
AcDbEntity
100
AcDbLine
  8
0
 62
256
370
-1
  6
ByLayer
 10
678.9132508971356401
 20
377.9903148055974498
 30
0.0
 11
678.9132508971356401
 21
365.1358647616573307
 31
0.0
  0
LINE
  5
12F
100
AcDbEntity
100
AcDbLine
  8
0
 62
256
370
-1
  6
ByLayer
 10
678.9132508971356401
 20
365.1358647616573307
 30
0.0
 11
665.850350311942293
 21
365.1358647616573307
 31
0.0
  0
LINE
  5
130
100
AcDbEntity
100
AcDbLine
  8
0
 62
256
370
-1
  6
ByLayer
 10
665.850350311942293
 20
365.1358647616573307
 30
0.0
 11
665.850350311942293
 21
377.9903148055974498
 31
0.0
  0
LINE
  5
131
100
AcDbEntity
100
AcDbLine
  8
0
 62
256
370
-1
  6
ByLayer
 10
659.7358011018519619
 20
371.3893809992498518
 30
0.0
 11
665.850350311942293
 21
371.3893809992498518
 31
0.0
  0
ARC
  5
132
100
AcDbEntity
  8
0
 62
7
370
0
  6
CONTINUOUS
100
AcDbCircle
 10
679.6371168177884101
 20
371.8062820817560237
 30
0.0
 40
4.3683698388829484
100
AcDbArc
 50
260.4617390961972774
 51
99.5382609038026942
  0
LINE
  5
133
100
AcDbEntity
100
AcDbLine
  8
0
 62
256
370
-1
  6
ByLayer
 10
683.9855474009606269
 20
371.3893809992498518
 30
0.0
 11
690.0306130973000336
 21
371.3893809992498518
 31
0.0
  0
LINE
  5
134
100
AcDbEntity
100
AcDbLine
  8
0
 62
256
370
-1
  6
ByLayer
 10
772.868736595093651
 20
364.7884471929022538
 30
0.0
 11
759.8058360099003039
 21
364.7884471929022538
 31
0.0
  0
LINE
  5
135
100
AcDbEntity
100
AcDbLine
  8
0
 62
256
370
-1
  6
ByLayer
 10
759.8058360099003039
 20
364.7884471929022538
 30
0.0
 11
759.8058360099003039
 21
377.6428972368423729
 31
0.0
  0
LINE
  5
136
100
AcDbEntity
100
AcDbLine
  8
0
 62
256
370
-1
  6
ByLayer
 10
759.8058360099003039
 20
377.6428972368423729
 30
0.0
 11
772.868736595093651
 21
377.6428972368423729
 31
0.0
  0
LINE
  5
137
100
AcDbEntity
100
AcDbLine
  8
0
 62
256
370
-1
  6
ByLayer
 10
772.868736595093651
 20
377.6428972368423729
 30
0.0
 11
772.868736595093651
 21
364.7884471929022538
 31
0.0
  0
LINE
  5
138
100
AcDbEntity
100
AcDbLine
  8
0
 62
256
370
-1
  6
ByLayer
 10
778.9832858051839821
 20
371.3893809992498518
 30
0.0
 11
772.868736595093651
 21
371.3893809992498518
 31
0.0
  0
ARC
  5
139
100
AcDbEntity
  8
0
 62
7
370
0
  6
CONTINUOUS
100
AcDbCircle
 10
759.0819700892475339
 20
370.97247991674368
 30
0.0
 40
4.3683698388829484
100
AcDbArc
 50
80.4617390961972774
 51
279.5382609038027226
  0
LINE
  5
13A
100
AcDbEntity
100
AcDbLine
  8
0
 62
256
370
-1
  6
ByLayer
 10
754.7335395060753171
 20
371.3893809992498518
 30
0.0
 11
748.6884738097359104
 21
371.3893809992498518
 31
0.0
  0
LINE
  5
13B
100
AcDbEntity
100
AcDbLine
  8
0
 62
256
370
-1
  6
ByLayer
 10
840.7137596083308608
 20
364.7884471929022538
 30
0.0
 11
827.6508590231375138
 21
364.7884471929022538
 31
0.0
  0
LINE
  5
13C
100
AcDbEntity
100
AcDbLine
  8
0
 62
256
370
-1
  6
ByLayer
 10
827.6508590231375138
 20
364.7884471929022538
 30
0.0
 11
827.6508590231375138
 21
377.6428972368423729
 31
0.0
  0
LINE
  5
13D
100
AcDbEntity
100
AcDbLine
  8
0
 62
256
370
-1
  6
ByLayer
 10
827.6508590231375138
 20
377.6428972368423729
 30
0.0
 11
840.7137596083308608
 21
377.6428972368423729
 31
0.0
  0
LINE
  5
13E
100
AcDbEntity
100
AcDbLine
  8
0
 62
256
370
-1
  6
ByLayer
 10
840.7137596083308608
 20
377.6428972368423729
 30
0.0
 11
840.7137596083308608
 21
364.7884471929022538
 31
0.0
  0
LINE
  5
13F
100
AcDbEntity
100
AcDbLine
  8
0
 62
256
370
-1
  6
ByLayer
 10
846.828308818421192
 20
371.3893809992498518
 30
0.0
 11
840.7137596083308608
 21
371.3893809992498518
 31
0.0
  0
ARC
  5
140
100
AcDbEntity
  8
0
 62
7
370
0
  6
CONTINUOUS
100
AcDbCircle
 10
826.9269931024847438
 20
370.97247991674368
 30
0.0
 40
4.3683698388829484
100
AcDbArc
 50
80.4617390961972774
 51
279.5382609038027226
  0
LINE
  5
141
100
AcDbEntity
100
AcDbLine
  8
0
 62
256
370
-1
  6
ByLayer
 10
822.578562519312527
 20
371.3893809992498518
 30
0.0
 11
816.5334968229731203
 21
371.3893809992498518
 31
0.0
  0
LINE
  5
142
100
AcDbEntity
100
AcDbLine
  8
0
 62
256
370
-1
  6
ByLayer
 10
907.3343441422480282
 20
364.7884471929022538
 30
0.0
 11
894.2714435570546812
 21
364.7884471929022538
 31
0.0
  0
LINE
  5
143
100
AcDbEntity
100
AcDbLine
  8
0
 62
256
370
-1
  6
ByLayer
 10
894.2714435570546812
 20
364.7884471929022538
 30
0.0
 11
894.2714435570546812
 21
377.6428972368423729
 31
0.0
  0
LINE
  5
144
100
AcDbEntity
100
AcDbLine
  8
0
 62
256
370
-1
  6
ByLayer
 10
894.2714435570546812
 20
377.6428972368423729
 30
0.0
 11
907.3343441422480282
 21
377.6428972368423729
 31
0.0
  0
LINE
  5
145
100
AcDbEntity
100
AcDbLine
  8
0
 62
256
370
-1
  6
ByLayer
 10
907.3343441422480282
 20
377.6428972368423729
 30
0.0
 11
907.3343441422480282
 21
364.7884471929022538
 31
0.0
  0
LINE
  5
146
100
AcDbEntity
100
AcDbLine
  8
0
 62
256
370
-1
  6
ByLayer
 10
913.4488933523383594
 20
371.3893809992498518
 30
0.0
 11
907.3343441422480282
 21
371.3893809992498518
 31
0.0
  0
ARC
  5
147
100
AcDbEntity
  8
0
 62
7
370
0
  6
CONTINUOUS
100
AcDbCircle
 10
893.5475776364019111
 20
370.97247991674368
 30
0.0
 40
4.3683698388829484
100
AcDbArc
 50
80.4617390961972774
 51
279.5382609038027226
  0
LINE
  5
148
100
AcDbEntity
100
AcDbLine
  8
0
 62
256
370
-1
  6
ByLayer
 10
889.1991470532296944
 20
371.3893809992498518
 30
0.0
 11
883.1540813568902877
 21
371.3893809992498518
 31
0.0
  0
LINE
  5
149
100
AcDbEntity
100
AcDbLine
  8
0
 62
256
370
-1
  6
ByLayer
 10
973.5096783200488062
 20
364.7884471929022538
 30
0.0
 11
960.4467777348554591
 21
364.7884471929022538
 31
0.0
  0
LINE
  5
14A
100
AcDbEntity
100
AcDbLine
  8
0
 62
256
370
-1
  6
ByLayer
 10
960.4467777348554591
 20
364.7884471929022538
 30
0.0
 11
960.4467777348554591
 21
377.6428972368423729
 31
0.0
  0
LINE
  5
14B
100
AcDbEntity
100
AcDbLine
  8
0
 62
256
370
-1
  6
ByLayer
 10
960.4467777348554591
 20
377.6428972368423729
 30
0.0
 11
973.5096783200488062
 21
377.6428972368423729
 31
0.0
  0
LINE
  5
14C
100
AcDbEntity
100
AcDbLine
  8
0
 62
256
370
-1
  6
ByLayer
 10
973.5096783200488062
 20
377.6428972368423729
 30
0.0
 11
973.5096783200488062
 21
364.7884471929022538
 31
0.0
  0
LINE
  5
14D
100
AcDbEntity
100
AcDbLine
  8
0
 62
256
370
-1
  6
ByLayer
 10
979.6242275301391373
 20
371.3893809992498518
 30
0.0
 11
973.5096783200488062
 21
371.3893809992498518
 31
0.0
  0
ARC
  5
14E
100
AcDbEntity
  8
0
 62
7
370
0
  6
CONTINUOUS
100
AcDbCircle
 10
959.7229118142026891
 20
370.97247991674368
 30
0.0
 40
4.3683698388829484
100
AcDbArc
 50
80.4617390961972774
 51
279.5382609038027226
  0
LINE
  5
14F
100
AcDbEntity
100
AcDbLine
  8
0
 62
256
370
-1
  6
ByLayer
 10
955.3744812310304724
 20
371.3893809992498518
 30
0.0
 11
949.3294155346910657
 21
371.3893809992498518
 31
0.0
  0
LINE
  5
150
100
AcDbEntity
100
AcDbLine
  8
0
 62
256
370
-1
  6
ByLayer
 10
1125.9522689954033012
 20
354.3301361205136004
 30
0.0
 11
1112.8893684102099542
 21
354.3301361205136004
 31
0.0
  0
LINE
  5
151
100
AcDbEntity
100
AcDbLine
  8
0
 62
256
370
-1
  6
ByLayer
 10
1112.8893684102099542
 20
354.3301361205136004
 30
0.0
 11
1112.8893684102099542
 21
367.1845861644537194
 31
0.0
  0
LINE
  5
152
100
AcDbEntity
100
AcDbLine
  8
0
 62
256
370
-1
  6
ByLayer
 10
1112.8893684102099542
 20
367.1845861644537194
 30
0.0
 11
1125.9522689954033012
 21
367.1845861644537194
 31
0.0
  0
LINE
  5
153
100
AcDbEntity
100
AcDbLine
  8
0
 62
256
370
-1
  6
ByLayer
 10
1125.9522689954033012
 20
367.1845861644537194
 30
0.0
 11
1125.9522689954033012
 21
354.3301361205136004
 31
0.0
  0
LINE
  5
154
100
AcDbEntity
100
AcDbLine
  8
0
 62
256
370
-1
  6
ByLayer
 10
1132.0668182054935187
 20
360.9310699268611984
 30
0.0
 11
1125.9522689954033012
 21
360.9310699268611984
 31
0.0
  0
ARC
  5
155
100
AcDbEntity
  8
0
 62
7
370
0
  6
CONTINUOUS
100
AcDbCircle
 10
1112.1655024895571842
 20
360.5141688443550265
 30
0.0
 40
4.3683698388829484
100
AcDbArc
 50
80.4617390961972774
 51
279.5382609038027226
  0
LINE
  5
156
100
AcDbEntity
100
AcDbLine
  8
0
 62
256
370
-1
  6
ByLayer
 10
1107.8170719063848537
 20
360.9310699268611984
 30
0.0
 11
1101.772006210045447
 21
360.9310699268611984
 31
0.0
  0
ARC
  5
157
100
AcDbEntity
  8
0
 62
256
370
-1
  6
ByLayer
100
AcDbCircle
 10
177.7443412730951025
 20
363.9014773585311104
 30
0.0
 40
5.9252400868553163
100
AcDbArc
 50
295.184919293253472
 51
65.3145020703192642
  0
LINE
  5
158
100
AcDbEntity
100
AcDbLine
  8
0
 62
256
370
-1
  6
ByLayer
 10
417.6396162595799524
 20
383.6521354963963404
 30
0.0
 11
421.7887455715041369
 21
379.5030061844721558
 31
0.0
  0
LINE
  5
159
100
AcDbEntity
100
AcDbLine
  8
0
 62
256
370
-1
  6
ByLayer
 10
670.3104970596265275
 20
379.5030061844721558
 30
0.0
 11
703.878199688715199
 21
377.0713953360846631
 31
0.0
  0
LINE
  5
15A
100
AcDbEntity
100
AcDbLine
  8
0
 62
256
370
-1
  6
ByLayer
 10
703.878199688715199
 20
377.0713953360846631
 30
0.0
 11
703.878199688715199
 21
370.5491733226606925
 31
0.0
  0
LINE
  5
15B
100
AcDbEntity
100
AcDbLine
  8
0
 62
256
370
-1
  6
ByLayer
 10
703.878199688715199
 20
370.5491733226606925
 30
0.0
 11
723.1839768484502429
 21
370.5491733226606925
 31
0.0
  0
LINE
  5
15C
100
AcDbEntity
100
AcDbLine
  8
0
 62
256
370
-1
  6
ByLayer
 10
723.1839768484502429
 20
370.5491733226606925
 30
0.0
 11
723.1839768484502429
 21
358.7222107383185516
 31
0.0
  0
ARC
  5
15D
100
AcDbEntity
  8
0
 62
256
370
-1
  6
ByLayer
100
AcDbCircle
 10
683.3514591574049746
 20
344.6833498352119136
 30
0.0
 40
9.907801409714315
100
AcDbArc
 50
107.8695768755908233
 51
181.541516582532239
  0
LINE
  5
15E
100
AcDbEntity
100
AcDbLine
  8
0
 62
256
370
-1
  6
ByLayer
 10
697.7907924761861977
 20
354.1131738488322753
 30
0.0
 11
697.7907924761861977
 21
348.6345073575561742
 31
0.0
  0
LINE
  5
15F
100
AcDbEntity
100
AcDbLine
  8
0
 62
256
370
-1
  6
ByLayer
 10
697.7907924761861977
 20
348.6345073575561742
 30
0.0
 11
711.2700513039291081
 21
348.6345073575561742
 31
0.0
  0
LINE
  5
160
100
AcDbEntity
100
AcDbLine
  8
0
 62
256
370
-1
  6
ByLayer
 10
711.2700513039291081
 20
348.6345073575561742
 30
0.0
 11
711.2700513039291081
 21
351.591248003641681
 31
0.0
  0
LINE
  5
161
100
AcDbEntity
100
AcDbLine
  8
0
 62
256
370
-1
  6
ByLayer
 10
725.9667915741778188
 20
351.591248003641681
 30
0.0
 11
725.9667915741778188
 21
348.8953962380930989
 31
0.0
  0
LINE
  5
162
100
AcDbEntity
100
AcDbLine
  8
0
 62
256
370
-1
  6
ByLayer
 10
725.9667915741778188
 20
348.8953962380930989
 30
0.0
 11
739.4460504019206155
 21
348.8953962380930989
 31
0.0
  0
LINE
  5
163
100
AcDbEntity
100
AcDbLine
  8
0
 62
256
370
-1
  6
ByLayer
 10
739.4460504019206155
 20
348.8953962380930989
 30
0.0
 11
739.4460504019206155
 21
354.4610256895482507
 31
0.0
  0
LINE
  5
164
100
AcDbEntity
100
AcDbLine
  8
0
 62
256
370
-1
  6
ByLayer
 10
739.4460504019206155
 20
354.4610256895482507
 30
0.0
 11
755.0124202739592647
 21
354.4610256895482507
 31
0.0
  0
ARC
  5
165
100
AcDbEntity
  8
0
 62
256
370
-1
  6
ByLayer
100
AcDbCircle
 10
754.3810258006415097
 20
344.9629555736594284
 30
0.0
 40
9.5190332968887077
100
AcDbArc
 50
356.710945546440314
 51
86.1967967702655784
  0
ARC
  5
166
100
AcDbEntity
  8
0
 62
256
370
-1
  6
ByLayer
100
AcDbCircle
 10
-368.5707659765266726
 20
5525.6917119831641685
 30
0.0
 40
5288.6036036218638401
100
AcDbArc
 50
281.9443500153383297
 51
282.0936548937510224
  0
LINE
  5
167
100
AcDbEntity
100
AcDbLine
  8
0
 62
256
370
-1
  6
ByLayer
 10
708.3133106578435445
 20
351.591248003641681
 30
0.0
 11
725.9667915741778188
 21
351.591248003641681
 31
0.0
  0
LINE
  5
168
100
AcDbEntity
100
AcDbLine
  8
0
 62
256
370
-1
  6
ByLayer
 10
708.3133106578435445
 20
370.5491733226606925
 30
0.0
 11
708.3133106578435445
 21
376.7235434953687445
 31
0.0
  0
LINE
  5
169
100
AcDbEntity
100
AcDbLine
  8
0
 62
256
370
-1
  6
ByLayer
 10
708.3133106578435445
 20
358.7222107383185516
 30
0.0
 11
703.7042737683572113
 21
354.1131738488322753
 31
0.0
  0
LINE
  5
16A
100
AcDbEntity
100
AcDbLine
  8
0
 62
256
370
-1
  6
ByLayer
 10
703.7042737683572113
 20
354.1131738488322753
 30
0.0
 11
680.3112374802099112
 21
354.1131738488322753
 31
0.0
  0
LINE
  5
16B
100
AcDbEntity
100
AcDbLine
  8
0
 62
256
370
-1
  6
ByLayer
 10
723.1839768484502429
 20
358.7222107383185516
 30
0.0
 11
708.3133106578435445
 21
358.7222107383185516
 31
0.0
  0
LINE
  5
16C
100
AcDbEntity
100
AcDbLine
  8
0
 62
256
370
-1
  6
ByLayer
 10
708.3133106578435445
 20
351.591248003641681
 30
0.0
 11
708.3133106578435445
 21
358.7222107383185516
 31
0.0
  0
LINE
  5
16D
100
AcDbEntity
100
AcDbLine
  8
0
 62
256
370
-1
  6
ByLayer
 10
708.3133106578435445
 20
376.7235434953687445
 30
0.0
 11
725.9667915741778188
 21
376.7235434953687445
 31
0.0
  0
LINE
  5
16E
100
AcDbEntity
100
AcDbLine
  8
0
 62
256
370
-1
  6
ByLayer
 10
725.9667915741778188
 20
376.7235434953687445
 30
0.0
 11
768.752567982239043
 21
379.5030061844721558
 31
0.0
  0
LINE
  5
16F
100
AcDbEntity
100
AcDbLine
  8
0
 62
256
370
-1
  6
ByLayer
 10
421.7887455715041369
 20
379.5030061844721558
 30
0.0
 11
670.3104970596265275
 21
379.5030061844721558
 31
0.0
  0
LINE
  5
170
100
AcDbEntity
100
AcDbLine
  8
0
 62
256
370
-1
  6
ByLayer
 10
1060.9226367538776685
 20
467.9354595568433979
 30
0.0
 11
1063.6826916423708553
 21
467.9354595568433979
 31
0.0
  0
LINE
  5
171
100
AcDbEntity
100
AcDbLine
  8
0
 62
256
370
-1
  6
ByLayer
 10
1063.6826916423708553
 20
467.9354595568433979
 30
0.0
 11
1063.6826916423708553
 21
377.278272065567478
 31
0.0
  0
LINE
  5
172
100
AcDbEntity
100
AcDbLine
  8
0
 62
256
370
-1
  6
ByLayer
 10
1063.6826916423708553
 20
377.278272065567478
 30
0.0
 11
1060.9226367538776685
 21
377.278272065567478
 31
0.0
  0
LINE
  5
173
100
AcDbEntity
100
AcDbLine
  8
0
 62
256
370
-1
  6
ByLayer
 10
1060.9226367538776685
 20
377.278272065567478
 30
0.0
 11
1060.9226367538776685
 21
467.9354595568433979
 31
0.0
  0
LINE
  5
174
100
AcDbEntity
100
AcDbLine
  8
0
 62
256
370
-1
  6
ByLayer
 10
1089.3724332968074577
 20
467.9354595568433979
 30
0.0
 11
1092.1324881853006445
 21
467.9354595568433979
 31
0.0
  0
LINE
  5
175
100
AcDbEntity
100
AcDbLine
  8
0
 62
256
370
-1
  6
ByLayer
 10
1092.1324881853006445
 20
467.9354595568433979
 30
0.0
 11
1092.1324881853006445
 21
377.278272065567478
 31
0.0
  0
LINE
  5
176
100
AcDbEntity
100
AcDbLine
  8
0
 62
256
370
-1
  6
ByLayer
 10
1092.1324881853006445
 20
377.278272065567478
 30
0.0
 11
1089.3724332968074577
 21
377.278272065567478
 31
0.0
  0
LINE
  5
177
100
AcDbEntity
100
AcDbLine
  8
0
 62
256
370
-1
  6
ByLayer
 10
1089.3724332968074577
 20
377.278272065567478
 30
0.0
 11
1089.3724332968074577
 21
467.9354595568433979
 31
0.0
  0
LINE
  5
178
100
AcDbEntity
100
AcDbLine
  8
0
 62
256
370
-1
  6
ByLayer
 10
1066.6007065952521771
 20
471.1218367696517362
 30
0.0
 11
1086.2760763357475753
 21
471.1218367696517362
 31
0.0
  0
LINE
  5
179
100
AcDbEntity
100
AcDbLine
  8
0
 62
256
370
-1
  6
ByLayer
 10
1086.2760763357475753
 20
471.1218367696517362
 30
0.0
 11
1086.2760763357475753
 21
416.4438755571148363
 31
0.0
  0
LINE
  5
17A
100
AcDbEntity
100
AcDbLine
  8
0
 62
256
370
-1
  6
ByLayer
 10
1086.2760763357475753
 20
416.4438755571148363
 30
0.0
 11
1066.6007065952521771
 21
416.4438755571148363
 31
0.0
  0
LINE
  5
17B
100
AcDbEntity
100
AcDbLine
  8
0
 62
256
370
-1
  6
ByLayer
 10
1066.6007065952521771
 20
416.4438755571148363
 30
0.0
 11
1066.6007065952521771
 21
471.1218367696517362
 31
0.0
  0
LINE
  5
17C
100
AcDbEntity
100
AcDbLine
  8
0
 62
256
370
-1
  6
ByLayer
 10
1070.0792250024114765
 20
467.0997998613736968
 30
0.0
 11
1082.4714468279169068
 21
467.0997998613736968
 31
0.0
  0
LINE
  5
17D
100
AcDbEntity
100
AcDbLine
  8
0
 62
256
370
-1
  6
ByLayer
 10
1082.4714468279169068
 20
467.0997998613736968
 30
0.0
 11
1082.4714468279169068
 21
446.7722079195359015
 31
0.0
  0
LINE
  5
17E
100
AcDbEntity
100
AcDbLine
  8
0
 62
256
370
-1
  6
ByLayer
 10
1082.4714468279169068
 20
446.7722079195359015
 30
0.0
 11
1070.0792250024114765
 21
446.7722079195359015
 31
0.0
  0
LINE
  5
17F
100
AcDbEntity
100
AcDbLine
  8
0
 62
256
370
-1
  6
ByLayer
 10
1070.0792250024114765
 20
446.7722079195359015
 30
0.0
 11
1070.0792250024114765
 21
467.0997998613736968
 31
0.0
  0
LINE
  5
180
100
AcDbEntity
100
AcDbLine
  8
0
 62
256
370
-1
  6
ByLayer
 10
1066.9311658439344228
 20
383.6521354963963404
 30
0.0
 11
1066.9311658439344228
 21
348.6695375662764604
 31
0.0
  0
LINE
  5
181
100
AcDbEntity
100
AcDbLine
  8
0
 62
256
370
-1
  6
ByLayer
 10
1066.9311658439344228
 20
348.6695375662764604
 30
0.0
 11
1086.758720764742975
 21
348.6695375662764604
 31
0.0
  0
LINE
  5
182
100
AcDbEntity
100
AcDbLine
  8
0
 62
256
370
-1
  6
ByLayer
 10
1086.758720764742975
 20
348.6695375662764604
 30
0.0
 11
1086.758720764742975
 21
383.6521354963963404
 31
0.0
  0
LINE
  5
183
100
AcDbEntity
100
AcDbLine
  8
0
 62
256
370
-1
  6
ByLayer
 10
1069.8531213059484344
 20
383.6521354963963404
 30
0.0
 11
1069.8531213059484344
 21
352.5130553815346843
 31
0.0
  0
LINE
  5
184
100
AcDbEntity
100
AcDbLine
  8
0
 62
256
370
-1
  6
ByLayer
 10
1069.8531213059484344
 20
352.5130553815346843
 30
0.0
 11
1084.2541875115882704
 21
352.5130553815346843
 31
0.0
  0
LINE
  5
185
100
AcDbEntity
100
AcDbLine
  8
0
 62
256
370
-1
  6
ByLayer
 10
1084.2541875115882704
 20
352.5130553815346843
 30
0.0
 11
1084.2541875115882704
 21
383.6521354963963404
 31
0.0
  0
LINE
  5
186
100
AcDbEntity
100
AcDbLine
  8
0
 62
256
370
-1
  6
ByLayer
 10
1069.8531213059484344
 20
360.0962255091421866
 30
0.0
 11
1084.2541875115882704
 21
360.0962255091421866
 31
0.0
  0
LINE
  5
187
100
AcDbEntity
100
AcDbLine
  8
0
 62
256
370
-1
  6
ByLayer
 10
1069.8531213059484344
 20
363.2268920755856811
 30
0.0
 11
1084.2541875115882704
 21
363.2268920755856811
 31
0.0
  0
LINE
  5
188
100
AcDbEntity
100
AcDbLine
  8
0
 62
256
370
-1
  6
ByLayer
 10
1069.8531213059484344
 20
371.7144769890546172
 30
0.0
 11
1084.2541875115882704
 21
371.7144769890546172
 31
0.0
  0
LINE
  5
189
100
AcDbEntity
100
AcDbLine
  8
0
 62
256
370
-1
  6
ByLayer
 10
1069.8531213059484344
 20
374.5668620829253541
 30
0.0
 11
1084.2541875115882704
 21
374.5668620829253541
 31
0.0
  0
LINE
  5
18A
100
AcDbEntity
100
AcDbLine
  8
0
 62
256
370
-1
  6
ByLayer
 10
1071.7011222085527606
 20
396.8724596672739722
 30
0.0
 11
1081.0651113664061995
 21
396.8724596672739722
 31
0.0
  0
ARC
  5
18B
100
AcDbEntity
  8
0
 62
256
370
-1
  6
ByLayer
100
AcDbCircle
 10
1074.1838166911550161
 20
392.4129895536286767
 30
0.0
 40
5.103983306050214
100
AcDbArc
 50
119.1057406312754665
 51
172.5748702773847469
  0
ARC
  5
18C
100
AcDbEntity
  8
0
 62
256
370
-1
  6
ByLayer
100
AcDbCircle
 10
1078.5824168838037167
 20
392.4129895536286767
 30
0.0
 40
5.103983306050214
100
AcDbArc
 50
7.4251297226152007
 51
60.8942593687244909
  0
LINE
  5
18D
100
AcDbEntity
100
AcDbLine
  8
0
 62
256
370
-1
  6
ByLayer
 10
1069.1226324404481147
 20
393.0725800090146436
 30
0.0
 11
1083.6436011345106181
 21
393.0725800090146436
 31
0.0
  0
LINE
  5
18E
100
AcDbEntity
100
AcDbLine
  8
0
 62
256
370
-1
  6
ByLayer
 10
1071.7011222085527606
 20
411.6561628977015062
 30
0.0
 11
1081.0651113664061995
 21
411.6561628977015062
 31
0.0
  0
ARC
  5
18F
100
AcDbEntity
  8
0
 62
256
370
-1
  6
ByLayer
100
AcDbCircle
 10
1074.1838166911550161
 20
407.1966927840562107
 30
0.0
 40
5.103983306050214
100
AcDbArc
 50
119.1057406312754665
 51
172.5748702773847469
  0
ARC
  5
190
100
AcDbEntity
  8
0
 62
256
370
-1
  6
ByLayer
100
AcDbCircle
 10
1078.5824168838037167
 20
407.1966927840562107
 30
0.0
 40
5.103983306050214
100
AcDbArc
 50
7.4251297226152007
 51
60.8942593687244909
  0
LINE
  5
191
100
AcDbEntity
100
AcDbLine
  8
0
 62
256
370
-1
  6
ByLayer
 10
1069.1226324404481147
 20
407.8562832394421775
 30
0.0
 11
1083.6436011345106181
 21
407.8562832394421775
 31
0.0
  0
LINE
  5
192
100
AcDbEntity
100
AcDbLine
  8
0
 62
256
370
-1
  6
ByLayer
 10
1057.1189117921182969
 20
375.2904382392722482
 30
0.0
 11
1066.9311658439344228
 21
375.2904382392722482
 31
0.0
  0
LINE
  5
193
100
AcDbEntity
100
AcDbLine
  8
0
 62
256
370
-1
  6
ByLayer
 10
1024.5323746086785377
 20
356.4765922244555441
 30
0.0
 11
1010.6235369607039729
 21
356.4765922244555441
 31
0.0
  0
LINE
  5
194
100
AcDbEntity
100
AcDbLine
  8
0
 62
256
370
-1
  6
ByLayer
 10
1024.5323746086785377
 20
356.4765922244555441
 30
0.0
 11
1057.1189117921182969
 21
375.2904382392722482
 31
0.0
  0
LINE
  5
195
100
AcDbEntity
100
AcDbLine
  8
0
 62
256
370
-1
  6
ByLayer
 10
1066.9311658439344228
 20
371.5927288448071977
 30
0.0
 11
1059.9915216216604676
 21
371.5927288448071977
 31
0.0
  0
LINE
  5
196
100
AcDbEntity
100
AcDbLine
  8
0
 62
256
370
-1
  6
ByLayer
 10
1033.3808558068908496
 20
345.3299148707534414
 30
0.0
 11
1033.3808558068908496
 21
348.8953962380918483
 31
0.0
  0
ARC
  5
197
100
AcDbEntity
  8
0
 62
256
370
-1
  6
ByLayer
100
AcDbCircle
 10
1051.94156848351804
 20
345.113919144978297
 30
0.0
 40
18.9420068649035578
100
AcDbArc
 50
123.5163576142675481
 51
168.4844166065140314
  0
LINE
  5
198
100
AcDbEntity
100
AcDbLine
  8
0
 62
256
370
-1
  6
ByLayer
 10
1059.9915216216604676
 20
371.5927288448071977
 30
0.0
 11
1041.4822652291047689
 21
360.9064046840653646
 31
0.0
  0
LINE
  5
199
100
AcDbEntity
100
AcDbLine
  8
0
 62
256
370
-1
  6
ByLayer
 10
1033.3808558068908496
 20
345.3299148707534414
 30
0.0
 11
1058.6653364789453917
 21
345.3299148707534414
 31
0.0
  0
LINE
  5
19A
100
AcDbEntity
100
AcDbLine
  8
0
 62
256
370
-1
  6
ByLayer
 10
1058.6653364789453917
 20
345.3299148707534414
 30
0.0
 11
1058.6653364789453917
 21
340.8252335334882446
 31
0.0
  0
LINE
  5
19B
100
AcDbEntity
100
AcDbLine
  8
0
 62
256
370
-1
  6
ByLayer
 10
1058.6653364789453917
 20
340.8252335334882446
 30
0.0
 11
1087.7327059187771283
 21
340.8252335334882446
 31
0.0
  0
LINE
  5
19C
100
AcDbEntity
100
AcDbLine
  8
0
 62
256
370
-1
  6
ByLayer
 10
1087.7327059187771283
 20
340.8252335334882446
 30
0.0
 11
1087.7327059187771283
 21
345.9038704079410991
 31
0.0
  0
ARC
  5
19D
100
AcDbEntity
  8
0
 62
256
370
-1
  6
ByLayer
100
AcDbCircle
 10
1102.3859997923389074
 20
345.3639993266988881
 30
0.0
 40
14.6632357319018301
100
AcDbArc
 50
89.4904259606635151
 51
177.8900068350630193
  0
LINE
  5
19E
100
AcDbEntity
100
AcDbLine
  8
0
 62
256
370
-1
  6
ByLayer
 10
1102.5164091492101761
 20
360.0266551410103943
 30
0.0
 11
1107.8244213525231316
 21
360.0266551410103943
 31
0.0
  0
LINE
  5
19F
100
AcDbEntity
100
AcDbLine
  8
0
 62
256
370
-1
  6
ByLayer
 10
1086.758720764742975
 20
375.3321361325147336
 30
0.0
 11
1095.2984834543613033
 21
375.3321361325147336
 31
0.0
  0
LINE
  5
1A0
100
AcDbEntity
100
AcDbLine
  8
0
 62
256
370
-1
  6
ByLayer
 10
1098.3856685407154146
 20
372.2449510461606792
 30
0.0
 11
1135.7362599375910577
 21
372.2449510461606792
 31
0.0
  0
LINE
  5
1A1
100
AcDbEntity
100
AcDbLine
  8
0
 62
256
370
-1
  6
ByLayer
 10
1095.2984834543613033
 20
375.3321361325147336
 30
0.0
 11
1098.3856685407154146
 21
372.2449510461606792
 31
0.0
  0
LINE
  5
1A2
100
AcDbEntity
100
AcDbLine
  8
0
 62
256
370
-1
  6
ByLayer
 10
1139.2365190847951908
 20
375.7452101933648692
 30
0.0
 11
1162.0860368718244899
 21
375.7452101933648692
 31
0.0
  0
LINE
  5
1A3
100
AcDbEntity
100
AcDbLine
  8
0
 62
256
370
-1
  6
ByLayer
 10
1135.7362599375910577
 20
372.2449510461606792
 30
0.0
 11
1139.2365190847951908
 21
375.7452101933648692
 31
0.0
  0
ARC
  5
1A4
100
AcDbEntity
  8
0
 62
256
370
-1
  6
ByLayer
100
AcDbCircle
 10
1149.3450525626401486
 20
310.1302943357075605
 30
0.0
 40
66.8404807296771395
100
AcDbArc
 50
21.8264284927905052
 51
79.0111604542339023
  0
LINE
  5
1A5
100
AcDbEntity
100
AcDbLine
  8
0
 62
256
370
-1
  6
ByLayer
 10
1086.758720764742975
 20
372.0275436457136493
 30
0.0
 11
1091.8199650472031408
 21
372.0275436457136493
 31
0.0
  0
LINE
  5
1A6
100
AcDbEntity
100
AcDbLine
  8
0
 62
256
370
-1
  6
ByLayer
 10
1091.8199650472031408
 20
372.0275436457136493
 30
0.0
 11
1095.8202612154366307
 21
369.0708029996280288
 31
0.0
  0
LINE
  5
1A7
100
AcDbEntity
100
AcDbLine
  8
0
 62
256
370
-1
  6
ByLayer
 10
1095.8202612154366307
 20
369.0708029996280288
 30
0.0
 11
1141.8236671501215369
 21
369.0708029996280288
 31
0.0
  0
LINE
  5
1A8
100
AcDbEntity
100
AcDbLine
  8
0
 62
256
370
-1
  6
ByLayer
 10
1141.8236671501215369
 20
369.0708029996280288
 30
0.0
 11
1145.3891485174601712
 21
371.9405806855346555
 31
0.0
  0
LINE
  5
1A9
100
AcDbEntity
100
AcDbLine
  8
0
 62
256
370
-1
  6
ByLayer
 10
1125.9522689954033012
 20
358.3743588976124101
 30
0.0
 11
1130.6054452870321256
 21
358.3743588976124101
 31
0.0
  0
LINE
  5
1AA
100
AcDbEntity
100
AcDbLine
  8
0
 62
256
370
-1
  6
ByLayer
 10
1140.606185707615623
 20
340.8948039016356688
 30
0.0
 11
1140.606185707615623
 21
345.9386555920170281
 31
0.0
  0
ARC
  5
1AB
100
AcDbEntity
  8
0
 62
256
370
-1
  6
ByLayer
100
AcDbCircle
 10
1127.776425619179463
 20
345.8601447553979256
 30
0.0
 40
12.8300003070264257
100
AcDbArc
 50
0.3506132152223321
 51
77.2615768504746683
  0
LINE
  5
1AC
100
AcDbEntity
100
AcDbLine
  8
0
 62
256
370
-1
  6
ByLayer
 10
1140.606185707615623
 20
340.8948039016356688
 30
0.0
 11
1167.6516663232812334
 21
340.8948039016356688
 31
0.0
  0
LINE
  5
1AD
100
AcDbEntity
100
AcDbLine
  8
0
 62
256
370
-1
  6
ByLayer
 10
1167.6516663232812334
 20
340.8948039016356688
 30
0.0
 11
1167.6516663232812334
 21
345.4168778309431218
 31
0.0
  0
LINE
  5
1AE
100
AcDbEntity
100
AcDbLine
  8
0
 62
256
370
-1
  6
ByLayer
 10
1167.6516663232812334
 20
345.4168778309431218
 30
0.0
 11
1189.3054434078494523
 21
345.4168778309431218
 31
0.0
  0
ARC
  5
1AF
100
AcDbEntity
  8
0
 62
256
370
-1
  6
ByLayer
100
AcDbCircle
 10
1174.6366982279562308
 20
347.3141161580704193
 30
0.0
 40
14.7909295996756533
100
AcDbArc
 50
352.6303437416294742
 51
59.9516238143050515
  0
LINE
  5
1B0
100
AcDbEntity
100
AcDbLine
  8
0
 62
256
370
-1
  6
ByLayer
 10
1161.5642591107518911
 20
371.9405806855346555
 30
0.0
 11
1182.0321603917452649
 21
360.123432371206377
 31
0.0
  0
LINE
  5
1B1
100
AcDbEntity
100
AcDbLine
  8
0
 62
256
370
-1
  6
ByLayer
 10
1023.8671079634482339
 20
379.5030061844721558
 30
0.0
 11
1028.0162372753725322
 21
383.6521354963963404
 31
0.0
  0
LINE
  5
1B2
100
AcDbEntity
100
AcDbLine
  8
0
 62
256
370
-1
  6
ByLayer
 10
768.752567982239043
 20
379.5030061844721558
 30
0.0
 11
1023.8671079634482339
 21
379.5030061844721558
 31
0.0
  0
LINE
  5
1B3
100
AcDbEntity
100
AcDbLine
  8
0
 62
256
370
-1
  6
ByLayer
 10
1161.8251479914104038
 20
379.5030061844721558
 30
0.0
 11
1158.0673520003031172
 21
375.7452101933648692
 31
0.0
  0
LINE
  5
1B4
100
AcDbEntity
100
AcDbLine
  8
0
 62
256
370
-1
  6
ByLayer
 10
1161.8251479914104038
 20
379.5030061844721558
 30
0.0
 11
1262.4239003264749499
 21
379.5030061844721558
 31
0.0
  0
LINE
  5
1B5
100
AcDbEntity
100
AcDbLine
  8
0
 62
256
370
-1
  6
ByLayer
 10
1211.3940352933125268
 20
334.9813226094644278
 30
0.0
 11
1262.006478117619281
 21
334.9813226094644278
 31
0.0
  0
ARC
  5
1B6
100
AcDbEntity
  8
0
 62
256
370
-1
  6
ByLayer
100
AcDbCircle
 10
1137.0088986591865705
 20
333.9033011357310556
 30
0.0
 40
125.0022279832044774
100
AcDbArc
 50
0.4941259633537051
 51
21.3947295724521318
  0
LINE
  5
1B7
100
AcDbEntity
100
AcDbLine
  8
0
 62
256
370
-1
  6
ByLayer
 10
1210.094811795031319
 20
338.0071057993748695
 30
0.0
 11
1261.9437448312921788
 21
338.0071057993748695
 31
0.0
  0
LINE
  5
1B8
100
AcDbEntity
100
AcDbLine
  8
0
 62
256
370
-1
  6
ByLayer
 10
1255.3740535336398807
 20
374.093438138628926
 30
0.0
 11
1262.4239003264749499
 21
374.093438138628926
 31
0.0
  0
LINE
  5
1B9
100
AcDbEntity
100
AcDbLine
  8
0
 62
256
370
-1
  6
ByLayer
 10
1262.4239003264749499
 20
374.093438138628926
 30
0.0
 11
1262.4239003264749499
 21
379.5030061844721558
 31
0.0
  0
LINE
  5
1BA
100
AcDbEntity
100
AcDbLine
  8
0
 62
256
370
-1
  6
ByLayer
 10
1186.3487027618975844
 20
485.862058520064636
 30
0.0
 11
1197.4799616648094798
 21
458.642651984038082
 31
0.0
  0
ARC
  5
1BB
100
AcDbEntity
  8
0
 62
256
370
-1
  6
ByLayer
100
AcDbCircle
 10
1174.177807725723369
 20
476.4753911414469485
 30
0.0
 40
15.3701076918275241
100
AcDbArc
 50
37.6408061035783987
 51
69.8096609424858059
  0
LINE
  5
1BC
100
AcDbEntity
100
AcDbLine
  8
0
 62
256
370
-1
  6
ByLayer
 10
1203.5673688773392769
 20
453.4248743732981666
 30
0.0
 11
1238.5264788692966249
 21
444.8155413155773203
 31
0.0
  0
ARC
  5
1BD
100
AcDbEntity
  8
0
 62
256
370
-1
  6
ByLayer
100
AcDbCircle
 10
1205.1837629812166597
 20
461.4705438405006248
 30
0.0
 40
8.2064320550726215
100
AcDbArc
 50
200.1570482721215853
 51
258.6403624378679638
  0
LINE
  5
1BE
100
AcDbEntity
100
AcDbLine
  8
0
 62
256
370
-1
  6
ByLayer
 10
1246.6955619411135103
 20
436.3094767730697754
 30
0.0
 11
1259.0606078415648881
 21
383.6521354963963404
 31
0.0
  0
LINE
  5
1BF
100
AcDbEntity
100
AcDbLine
  8
0
 62
256
370
-1
  6
ByLayer
 10
190.2500000000021885
 20
383.6521354963963404
 30
0.0
 11
1259.0606078415648881
 21
383.6521354963963404
 31
0.0
  0
ARC
  5
1C0
100
AcDbEntity
  8
0
 62
256
370
-1
  6
ByLayer
100
AcDbCircle
 10
1235.7934187122550611
 20
434.0149976420824487
 30
0.0
 40
11.1409766836252047
100
AcDbArc
 50
11.8850904260949175
 51
75.7994891885541051
  0
LINE
  5
1C1
100
AcDbEntity
100
AcDbLine
  8
0
 62
256
370
-1
  6
ByLayer
 10
1232.618643206109482
 20
446.2704560684517787
 30
0.0
 11
1251.5013525280060094
 21
446.2704560684517787
 31
0.0
  0
LINE
  5
1C2
100
AcDbEntity
100
AcDbLine
  8
0
 62
256
370
-1
  6
ByLayer
 10
1251.5013525280060094
 20
446.2704560684517787
 30
0.0
 11
1251.5013525280060094
 21
430.8492899108311462
 31
0.0
  0
LINE
  5
1C3
100
AcDbEntity
100
AcDbLine
  8
0
 62
256
370
-1
  6
ByLayer
 10
1251.5013525280060094
 20
430.8492899108311462
 30
0.0
 11
1247.9777281033184408
 21
430.8492899108311462
 31
0.0
  0
LINE
  5
1C4
100
AcDbEntity
100
AcDbLine
  8
0
 62
256
370
-1
  6
ByLayer
 10
1247.9777281033184408
 20
430.8492899108311462
 30
0.0
 11
1247.9777281033184408
 21
446.2704560684517787
 31
0.0
  0
LINE
  5
1C5
100
AcDbEntity
100
AcDbLine
  8
0
 62
256
370
-1
  6
ByLayer
 10
1180.6091473900883102
 20
436.3801341782161671
 30
0.0
 11
1196.5233691028449812
 21
436.3801341782161671
 31
0.0
  0
LINE
  5
1C6
100
AcDbEntity
100
AcDbLine
  8
0
 62
256
370
-1
  6
ByLayer
 10
1196.5233691028449812
 20
436.3801341782161671
 30
0.0
 11
1196.5233691028449812
 21
430.1188010453282686
 31
0.0
  0
LINE
  5
1C7
100
AcDbEntity
100
AcDbLine
  8
0
 62
256
370
-1
  6
ByLayer
 10
1196.5233691028449812
 20
430.1188010453282686
 30
0.0
 11
1180.6091473900883102
 21
430.1188010453282686
 31
0.0
  0
LINE
  5
1C8
100
AcDbEntity
100
AcDbLine
  8
0
 62
256
370
-1
  6
ByLayer
 10
1180.6091473900883102
 20
430.1188010453282686
 30
0.0
 11
1180.6091473900883102
 21
436.3801341782161671
 31
0.0
  0
LINE
  5
1C9
100
AcDbEntity
100
AcDbLine
  8
0
 62
256
370
-1
  6
ByLayer
 10
1131.9098896898487965
 20
464.9909480771067933
 30
0.0
 11
1131.9098896898487965
 21
454.2945039750899241
 31
0.0
  0
LINE
  5
1CA
100
AcDbEntity
100
AcDbLine
  8
0
 62
256
370
-1
  6
ByLayer
 10
1163.3904812746463904
 20
469.3390960860567134
 30
0.0
 11
1139.6495931457798179
 21
469.3390960860567134
 31
0.0
  0
LINE
  5
1CB
100
AcDbEntity
100
AcDbLine
  8
0
 62
256
370
-1
  6
ByLayer
 10
1172.1021112609778356
 20
455.2563570955634304
 30
0.0
 11
1168.4343329650284886
 21
465.9475406390757826
 31
0.0
  0
LINE
  5
1CC
100
AcDbEntity
100
AcDbLine
  8
0
 62
256
370
-1
  6
ByLayer
 10
1175.9566290205389123
 20
465.1431332574307476
 30
0.0
 11
1181.0657029310552844
 21
454.5988743357269186
 31
0.0
  0
LINE
  5
1CD
100
AcDbEntity
100
AcDbLine
  8
0
 62
256
370
-1
  6
ByLayer
 10
1181.0657029310552844
 20
454.5988743357269186
 30
0.0
 11
1190.5229248505215764
 21
463.6212814542982414
 31
0.0
  0
LINE
  5
1CE
100
AcDbEntity
100
AcDbLine
  8
0
 62
256
370
-1
  6
ByLayer
 10
1190.5229248505215764
 20
463.6212814542982414
 30
0.0
 11
1185.5225546402289183
 21
473.7307255751071011
 31
0.0
  0
LINE
  5
1CF
100
AcDbEntity
100
AcDbLine
  8
0
 62
256
370
-1
  6
ByLayer
 10
1179.7612585283702629
 20
474.7090588771208672
 30
0.0
 11
1176.8262586223288508
 21
471.8827626713033396
 31
0.0
  0
SPLINE
  5
1D0
  8
0
 62
256
370
-1
  6
ByLayer
100
AcDbEntity
100
AcDbSpline
 70
8
 71
3
 72
8
 73
4
 74
0
 40
0.0
 40
0.0
 40
0.0
 40
0.0
 40
1.0
 40
1.0
 40
1.0
 40
1.0
 10
1185.5225546402289183
 20
473.7307255751071011
 30
0.0
 10
1184.6529250384389798
 20
474.8177625773445811
 30
0.0
 10
1182.6962584344114475
 20
475.5786884789108626
 30
0.0
 10
1179.7612585283702629
 20
474.7090588771208672
 30
0.0
  0
SPLINE
  5
1D1
  8
0
 62
256
370
-1
  6
ByLayer
100
AcDbEntity
100
AcDbSpline
 70
8
 71
3
 72
8
 73
4
 74
0
 40
0.0
 40
0.0
 40
0.0
 40
0.0
 40
1.0
 40
1.0
 40
1.0
 40
1.0
 10
1176.8262586223288508
 20
471.8827626713033396
 30
0.0
 10
1175.5218142196438293
 20
469.4912812663807813
 30
0.0
 10
1175.3044068191964016
 20
466.8823924610107952
 30
0.0
 10
1175.9566290205389123
 20
465.1431332574307476
 30
0.0
  0
LINE
  5
1D2
100
AcDbEntity
100
AcDbLine
  8
0
 62
256
370
-1
  6
ByLayer
 10
1141.0410005086730507
 20
504.0373171974902107
 30
0.0
 11
1147.5632225220981582
 21
504.0373171974902107
 31
0.0
  0
LINE
  5
1D3
100
AcDbEntity
100
AcDbLine
  8
0
 62
256
370
-1
  6
ByLayer
 10
1147.5632225220981582
 20
504.0373171974902107
 30
0.0
 11
1147.5632225220981582
 21
490.9010246510009097
 31
0.0
  0
LINE
  5
1D4
100
AcDbEntity
100
AcDbLine
  8
0
 62
256
370
-1
  6
ByLayer
 10
1141.0410005086730507
 20
504.0373171974902107
 30
0.0
 11
1141.0410005086730507
 21
490.9010246510009097
 31
0.0
  0
LINE
  5
1D5
100
AcDbEntity
100
AcDbLine
  8
0
 62
256
370
-1
  6
ByLayer
 10
1165.9124071198673391
 20
490.9010246510009097
 30
0.0
 11
1165.9124071198673391
 21
505.3417616001752322
 31
0.0
  0
ARC
  5
1D6
100
AcDbEntity
  8
0
 62
256
370
-1
  6
ByLayer
100
AcDbCircle
 10
1148.7888483974152223
 20
538.1969821261440075
 30
0.0
 40
37.0497203650892075
100
AcDbArc
 50
268.1042770806726026
 51
297.5277273066452608
  0
ARC
  5
1D7
100
AcDbEntity
  8
0
 62
256
370
-1
  6
ByLayer
100
AcDbCircle
 10
1148.0682272037411167
 20
459.4110628933607359
 30
0.0
 40
36.194370396191772
100
AcDbArc
 50
60.4613991880052097
 51
90.7994496233344108
  0
LINE
  5
1D8
100
AcDbEntity
100
AcDbLine
  8
0
 62
256
370
-1
  6
ByLayer
 10
179.7524386899626165
 20
503.8000000000048999
 30
0.0
 11
179.7524386899626165
 21
377.6000000000037176
 31
0.0
  0
LINE
  5
1D9
100
AcDbEntity
100
AcDbLine
  8
0
 62
256
370
-1
  6
ByLayer
 10
182.1874015749741886
 20
503.8000000000048999
 30
0.0
 11
182.1874015749741886
 21
377.6000000000037176
 31
0.0
  0
LINE
  5
1DA
100
AcDbEntity
100
AcDbLine
  8
0
 62
256
370
-1
  6
ByLayer
 10
179.7524386899626165
 20
503.8000000000048999
 30
0.0
 11
182.1874015749741886
 21
503.8000000000048999
 31
0.0
  0
LINE
  5
1DB
100
AcDbEntity
100
AcDbLine
  8
0
 62
256
370
-1
  6
ByLayer
 10
172.8000000000016882
 20
501.000000000005798
 30
0.0
 11
179.7524386899626165
 21
501.000000000005798
 31
0.0
  0
LINE
  5
1DC
100
AcDbEntity
100
AcDbLine
  8
0
 62
256
370
-1
  6
ByLayer
 10
182.1874015749741886
 20
501.000000000005798
 30
0.0
 11
190.2500000000021885
 21
501.000000000005798
 31
0.0
  0
ARC
  5
1DD
100
AcDbEntity
  8
0
 62
7
370
0
  6
CONTINUOUS
100
AcDbCircle
 10
281.4777142053002876
 20
351.6560630938101326
 30
0.0
 40
24.5
100
AcDbArc
 50
103.8769602387682198
 51
147.6455526700395353
  0
ARC
  5
1DE
100
AcDbEntity
  8
0
 62
7
370
0
  6
CONTINUOUS
100
AcDbCircle
 10
281.4777142053002876
 20
351.6560630938101326
 30
0.0
 40
24.5
100
AcDbArc
 50
43.2284447440485522
 51
76.1230397612317802
  0
LINE
  5
1DF
100
AcDbEntity
100
AcDbLine
  8
0
 62
256
370
-1
  6
ByLayer
 10
1262.4239003264749499
 20
330.6560630938101326
 30
0.0
 11
169.8071222283967927
 21
330.6560630938101326
 31
0.0
  0
ARC
  5
1E0
100
AcDbEntity
  8
0
 62
7
370
0
  6
CONTINUOUS
100
AcDbCircle
 10
281.4777142053002876
 20
351.6560630938101326
 30
0.0
 40
24.5
100
AcDbArc
 50
301.0027191338656962
 51
10.4870207561270572
  0
ARC
  5
1E1
100
AcDbEntity
  8
0
 62
7
370
0
  6
CONTINUOUS
100
AcDbCircle
 10
281.4777142053002876
 20
351.6560630938101326
 30
0.0
 40
24.5
100
AcDbArc
 50
194.3788695129270252
 51
238.9972808661349859
  0
ARC
  5
1E2
100
AcDbEntity
  8
0
 62
7
370
0
  6
CONTINUOUS
100
AcDbCircle
 10
281.4777142053002876
 20
351.6560630938101326
 30
0.0
 40
21.0
100
AcDbArc
 50
70.1721128095724396
 51
109.8278871904275604
  0
ARC
  5
1E3
100
AcDbEntity
  8
0
 62
7
370
0
  6
CONTINUOUS
100
AcDbCircle
 10
281.4777142053002876
 20
351.6560630938101326
 30
0.0
 40
21.0
100
AcDbArc
 50
196.841279587841143
 51
6.4519091970089733
  0
ARC
  5
1E4
100
AcDbEntity
  8
0
 62
7
370
0
  6
CONTINUOUS
100
AcDbCircle
 10
365.0663812477530996
 20
351.6560630938101326
 30
0.0
 40
24.5
100
AcDbArc
 50
119.5692238730035086
 51
125.6559718144179385
  0
ARC
  5
1E5
100
AcDbEntity
  8
0
 62
7
370
0
  6
CONTINUOUS
100
AcDbCircle
 10
365.0663812477530996
 20
351.6560630938101326
 30
0.0
 40
24.5
100
AcDbArc
 50
41.9132817752690912
 51
71.0078813602282821
  0
ARC
  5
1E6
100
AcDbEntity
  8
0
 62
7
370
0
  6
CONTINUOUS
100
AcDbCircle
 10
365.0663812477530996
 20
351.6560630938101326
 30
0.0
 40
24.5
100
AcDbArc
 50
301.0027191338650141
 51
345.9877834883775449
  0
ARC
  5
1E7
100
AcDbEntity
  8
0
 62
7
370
0
  6
CONTINUOUS
100
AcDbCircle
 10
365.0663812477530996
 20
351.6560630938101326
 30
0.0
 40
24.5
100
AcDbArc
 50
166.4758310959428513
 51
238.9972808661347301
  0
ARC
  5
1E8
100
AcDbEntity
  8
0
 62
7
370
0
  6
CONTINUOUS
100
AcDbCircle
 10
365.0663812477530996
 20
351.6560630938101326
 30
0.0
 40
21.0
100
AcDbArc
 50
168.0584408195917092
 51
343.5915119486161871
  0
ARC
  5
1E9
100
AcDbEntity
  8
0
 62
7
370
0
  6
CONTINUOUS
100
AcDbCircle
 10
365.0663812477530996
 20
351.6560630938101326
 30
0.0
 40
24.5
100
AcDbArc
 50
103.8769602387683477
 51
110.9300504285066467
  0
ARC
  5
1EA
100
AcDbEntity
  8
0
 62
7
370
0
  6
CONTINUOUS
100
AcDbCircle
 10
365.0663812477530996
 20
351.6560630938101326
 30
0.0
 40
21.0
100
AcDbArc
 50
108.56669558655814
 51
116.0550857186447615
  0
ARC
  5
1EB
100
AcDbEntity
  8
0
 62
7
370
0
  6
CONTINUOUS
100
AcDbCircle
 10
457.9658391328398466
 20
351.6560630938101326
 30
0.0
 40
21.0
100
AcDbArc
 50
173.3538792673894022
 51
8.103342732316877
  0
ARC
  5
1EC
100
AcDbEntity
  8
0
 62
7
370
0
  6
CONTINUOUS
100
AcDbCircle
 10
457.9658391328398466
 20
351.6560630938101326
 30
0.0
 40
24.5
100
AcDbArc
 50
170.2341569745932475
 51
238.9972808661430292
  0
ARC
  5
1ED
100
AcDbEntity
  8
0
 62
7
370
0
  6
CONTINUOUS
100
AcDbCircle
 10
457.9658391328398466
 20
351.6560630938101326
 30
0.0
 40
24.5
100
AcDbArc
 50
301.0027191338571697
 51
10.3497399588611305
  0
ARC
  5
1EE
100
AcDbEntity
  8
0
 62
7
370
0
  6
CONTINUOUS
100
AcDbCircle
 10
523.9056936825386401
 20
351.6560630938101326
 30
0.0
 40
24.5
100
AcDbArc
 50
301.0027191338812713
 51
9.4095130932637527
  0
ARC
  5
1EF
100
AcDbEntity
  8
0
 62
7
370
0
  6
CONTINUOUS
100
AcDbCircle
 10
523.9056936825386401
 20
351.6560630938101326
 30
0.0
 40
24.5
100
AcDbArc
 50
169.0573352216520959
 51
238.9972808661184445
  0
ARC
  5
1F0
100
AcDbEntity
  8
0
 62
7
370
0
  6
CONTINUOUS
100
AcDbCircle
 10
523.9056936825386401
 20
351.6560630938101326
 30
0.0
 40
21.0
100
AcDbArc
 50
170.2159706617034374
 51
5.7913225213902786
  0
ARC
  5
1F1
100
AcDbEntity
  8
0
 62
7
370
0
  6
CONTINUOUS
100
AcDbCircle
 10
590.4708998559965494
 20
351.6560630938101326
 30
0.0
 40
24.5
100
AcDbArc
 50
301.002719133877406
 51
9.3267283572507775
  0
ARC
  5
1F2
100
AcDbEntity
  8
0
 62
7
370
0
  6
CONTINUOUS
100
AcDbCircle
 10
590.4708998559965494
 20
351.6560630938101326
 30
0.0
 40
24.5
100
AcDbArc
 50
169.944437669286657
 51
238.9972808661227646
  0
ARC
  5
1F3
100
AcDbEntity
  8
0
 62
7
370
0
  6
CONTINUOUS
100
AcDbCircle
 10
590.4708998559965494
 20
351.6560630938101326
 30
0.0
 40
21.0
100
AcDbArc
 50
172.6433475360327634
 51
5.594505748534532
  0
ARC
  5
1F4
100
AcDbEntity
  8
0
 62
7
370
0
  6
CONTINUOUS
100
AcDbCircle
 10
657.8699081944663476
 20
351.6560630938101326
 30
0.0
 40
21.0
100
AcDbArc
 50
172.7946021975015469
 51
4.9799103490220622
  0
ARC
  5
1F5
100
AcDbEntity
  8
0
 62
7
370
0
  6
CONTINUOUS
100
AcDbCircle
 10
657.8699081944663476
 20
351.6560630938101326
 30
0.0
 40
24.5
100
AcDbArc
 50
301.0027191338695047
 51
5.7558837322806795
  0
ARC
  5
1F6
100
AcDbEntity
  8
0
 62
7
370
0
  6
CONTINUOUS
100
AcDbCircle
 10
657.8699081944663476
 20
351.6560630938101326
 30
0.0
 40
24.5
100
AcDbArc
 50
170.0054467198368684
 51
238.9972808661310069
  0
ARC
  5
1F7
100
AcDbEntity
  8
0
 62
7
370
0
  6
CONTINUOUS
100
AcDbCircle
 10
780.0914088824749797
 20
351.6560630938101326
 30
0.0
 40
21.0
100
AcDbArc
 50
175.7779119776183165
 51
5.0276214579087357
  0
ARC
  5
1F8
100
AcDbEntity
  8
0
 62
7
370
0
  6
CONTINUOUS
100
AcDbCircle
 10
780.0914088824749797
 20
351.6560630938101326
 30
0.0
 40
24.5
100
AcDbArc
 50
301.0027191338653552
 51
9.0874924986187438
  0
ARC
  5
1F9
100
AcDbEntity
  8
0
 62
7
370
0
  6
CONTINUOUS
100
AcDbCircle
 10
780.0914088824749797
 20
351.6560630938101326
 30
0.0
 40
24.5
100
AcDbArc
 50
173.6073181249629727
 51
238.9972808661348722
  0
ARC
  5
1FA
100
AcDbEntity
  8
0
 62
7
370
0
  6
CONTINUOUS
100
AcDbCircle
 10
846.5871315421818508
 20
351.6560630938101326
 30
0.0
 40
21.0
100
AcDbArc
 50
171.2692767080583849
 51
6.6714171699193674
  0
ARC
  5
1FB
100
AcDbEntity
  8
0
 62
7
370
0
  6
CONTINUOUS
100
AcDbCircle
 10
846.5871315421818508
 20
351.6560630938101326
 30
0.0
 40
24.5
100
AcDbArc
 50
301.0027191338715511
 51
9.7762795807386258
  0
ARC
  5
1FC
100
AcDbEntity
  8
0
 62
7
370
0
  6
CONTINUOUS
100
AcDbCircle
 10
846.5871315421818508
 20
351.6560630938101326
 30
0.0
 40
24.5
100
AcDbArc
 50
169.4149766825727568
 51
238.9972808661284773
  0
ARC
  5
1FD
100
AcDbEntity
  8
0
 62
7
370
0
  6
CONTINUOUS
100
AcDbCircle
 10
913.6387223118966858
 20
351.6560630938101326
 30
0.0
 40
21.0
100
AcDbArc
 50
170.4600686545526855
 51
6.7918958685191235
  0
ARC
  5
1FE
100
AcDbEntity
  8
0
 62
7
370
0
  6
CONTINUOUS
100
AcDbCircle
 10
913.6387223118966858
 20
351.6560630938101326
 30
0.0
 40
24.5
100
AcDbArc
 50
169.1349112250944415
 51
238.997280866124612
  0
ARC
  5
1FF
100
AcDbEntity
  8
0
 62
7
370
0
  6
CONTINUOUS
100
AcDbCircle
 10
913.6387223118966858
 20
351.6560630938101326
 30
0.0
 40
24.5
100
AcDbArc
 50
301.0027191338754164
 51
9.8258767778653961
  0
ARC
  5
200
100
AcDbEntity
  8
0
 62
7
370
0
  6
CONTINUOUS
100
AcDbCircle
 10
981.3851482191215609
 20
351.6560630938101326
 30
0.0
 40
21.0
100
AcDbArc
 50
172.3920128131395018
 51
4.3049274356725604
  0
ARC
  5
201
100
AcDbEntity
  8
0
 62
7
370
0
  6
CONTINUOUS
100
AcDbCircle
 10
981.3851482191215609
 20
351.6560630938101326
 30
0.0
 40
24.5
100
AcDbArc
 50
301.0027191338733701
 51
8.7820809508961286
  0
ARC
  5
202
100
AcDbEntity
  8
0
 62
7
370
0
  6
CONTINUOUS
100
AcDbCircle
 10
981.3851482191215609
 20
351.6560630938101326
 30
0.0
 40
24.5
100
AcDbArc
 50
169.8440205440775514
 51
238.9972808661266299
  0
ARC
  5
203
100
AcDbEntity
  8
0
 62
7
370
0
  6
CONTINUOUS
100
AcDbCircle
 10
1074.0761555629553641
 20
351.6560630938101326
 30
0.0
 40
24.5
100
AcDbArc
 50
106.9557007521298146
 51
127.1782145378052178
  0
ARC
  5
204
100
AcDbEntity
  8
0
 62
7
370
0
  6
CONTINUOUS
100
AcDbCircle
 10
1074.0761555629553641
 20
351.6560630938101326
 30
0.0
 40
24.5
100
AcDbArc
 50
56.2519997177138222
 51
58.8248670371152045
  0
ARC
  5
205
100
AcDbEntity
  8
0
 62
7
370
0
  6
CONTINUOUS
100
AcDbCircle
 10
1074.0761555629553641
 20
351.6560630938101326
 30
0.0
 40
24.5
100
AcDbArc
 50
301.0027191338742796
 51
17.8200327305455843
  0
ARC
  5
206
100
AcDbEntity
  8
0
 62
7
370
0
  6
CONTINUOUS
100
AcDbCircle
 10
1074.0761555629553641
 20
351.6560630938101326
 30
0.0
 40
24.5
100
AcDbArc
 50
194.9638841495143708
 51
238.9972808661257204
  0
ARC
  5
207
100
AcDbEntity
  8
0
 62
7
370
0
  6
CONTINUOUS
100
AcDbCircle
 10
1074.0761555629553641
 20
351.6560630938101326
 30
0.0
 40
21.0
100
AcDbArc
 50
197.5324052788001552
 51
16.3023103742688313
  0
ARC
  5
208
100
AcDbEntity
  8
0
 62
7
370
0
  6
CONTINUOUS
100
AcDbCircle
 10
1154.1906469178582029
 20
351.6560630938101326
 30
0.0
 40
24.5
100
AcDbArc
 50
100.5076730212445426
 51
134.6994919912588671
  0
ARC
  5
209
100
AcDbEntity
  8
0
 62
7
370
0
  6
CONTINUOUS
100
AcDbCircle
 10
1154.1906469178582029
 20
351.6560630938101326
 30
0.0
 40
24.5
100
AcDbArc
 50
30.1692393586847061
 51
79.4923269787554574
  0
ARC
  5
20A
100
AcDbEntity
  8
0
 62
7
370
0
  6
CONTINUOUS
100
AcDbCircle
 10
1154.1906469178582029
 20
351.6560630938101326
 30
0.0
 40
24.5
100
AcDbArc
 50
301.0027191338738248
 51
345.246523594872599
  0
ARC
  5
20B
100
AcDbEntity
  8
0
 62
7
370
0
  6
CONTINUOUS
100
AcDbCircle
 10
1154.1906469178582029
 20
351.6560630938101326
 30
0.0
 40
24.5
100
AcDbArc
 50
164.0973097255774178
 51
238.9972808661261752
  0
ARC
  5
20C
100
AcDbEntity
  8
0
 62
7
370
0
  6
CONTINUOUS
100
AcDbCircle
 10
1154.1906469178582029
 20
351.6560630938101326
 30
0.0
 40
21.0
100
AcDbArc
 50
75.0007931678752868
 51
104.9992068321247274
  0
ARC
  5
20D
100
AcDbEntity
  8
0
 62
7
370
0
  6
CONTINUOUS
100
AcDbCircle
 10
1154.1906469178582029
 20
351.6560630938101326
 30
0.0
 40
21.0
100
AcDbArc
 50
164.9017892249173372
 51
342.7162509926415623
  0
LINE
  5
20E
100
AcDbEntity
100
AcDbLine
  8
0
 62
256
370
-1
  6
ByLayer
 10
1145.3891485174601712
 20
371.9405806855346555
 30
0.0
 11
1161.5642591107518911
 21
371.9405806855346555
 31
0.0
  0
LINE
  5
20F
100
AcDbEntity
100
AcDbLine
  8
0
 62
256
370
-1
  6
ByLayer
 10
1161.4905905654738945
 20
375.8580340716520709
 30
0.0
 11
1200.1941759058831849
 21
353.5125086567632025
 31
0.0
  0
LINE
  5
210
100
AcDbEntity
100
AcDbLine
  8
0
 62
256
370
-1
  6
ByLayer
 10
1141.0410005086730507
 20
493.3408730953927943
 30
0.0
 11
1147.5632225220981582
 21
493.3408730953927943
 31
0.0
  0
LINE
  5
211
100
AcDbEntity
100
AcDbLine
  8
0
 62
256
370
-1
  6
ByLayer
 10
1129.0834188035908028
 20
503.8000000000048999
 30
0.0
 11
1137.6494450615068672
 21
490.9010246510009097
 31
0.0
  0
LINE
  5
212
100
AcDbEntity
100
AcDbLine
  8
0
 62
256
370
-1
  6
ByLayer
 10
958.4000000000262389
 20
503.8000000000048999
 30
0.0
 11
1129.0834188035908028
 21
503.8000000000048999
 31
0.0
  0
LINE
  5
213
100
AcDbEntity
100
AcDbLine
  8
0
 62
256
370
-1
  6
ByLayer
 10
1138.2581857829156888
 20
447.267896792567285
 30
0.0
 11
1167.1298885623434671
 21
447.267896792567285
 31
0.0
  0
LINE
  5
214
100
AcDbEntity
100
AcDbLine
  8
0
 62
256
370
-1
  6
ByLayer
 10
1156.1203778035282994
 20
469.3390960860567134
 30
0.0
 11
1156.1203778035282994
 21
447.267896792567285
 31
0.0
  0
ELLIPSE
  5
215
100
AcDbEntity
100
AcDbEllipse
  8
0
 62
256
370
-1
  6
ByLayer
 10
1138.2581857829156888
 20
454.2945039750899241
 30
0.0
 11
-6.3482960930668924
 21
0.0
 31
0.0
 40
1.1068493150778749
 41
0.0
 42
1.5707963267948966
  0
ELLIPSE
  5
216
100
AcDbEntity
100
AcDbEllipse
  8
0
 62
256
370
-1
  6
ByLayer
 10
1139.6495931457798179
 20
464.9909480771067933
 30
0.0
 11
-7.7397034559310214
 21
0.0
 31
0.0
 40
0.5617977528089769
 41
4.7123889803846897
 42
0.0
  0
SPLINE
  5
217
  8
0
 62
256
370
-1
  6
ByLayer
100
AcDbEntity
100
AcDbSpline
 70
8
 71
3
 72
9
 73
5
 74
0
 40
0.0
 40
0.0
 40
0.0
 40
0.0
 40
0.5
 40
1.0
 40
1.0
 40
1.0
 40
1.0
 10
1167.1298885623434671
 20
447.267896792567285
 30
0.0
 10
1169.4083181188775598
 20
447.267896792567285
 30
0.0
 10
1172.1215624764620316
 20
448.7984448917175087
 30
0.0
 10
1172.9076781211324487
 20
452.9082153968146827
 30
0.0
 10
1172.1021112609778356
 20
455.2563570955634304
 30
0.0
  0
SPLINE
  5
218
  8
0
 62
256
370
-1
  6
ByLayer
100
AcDbEntity
100
AcDbSpline
 70
8
 71
3
 72
9
 73
5
 74
0
 40
0.0
 40
0.0
 40
0.0
 40
0.0
 40
0.5
 40
1.0
 40
1.0
 40
1.0
 40
1.0
 10
1168.4343329650284886
 20
465.9475406390757826
 30
0.0
 10
1167.8330706106464731
 20
467.7001564380190075
 30
0.0
 10
1166.5559330250068797
 20
468.90428128509933
 30
0.0
 10
1164.8862441895703341
 20
469.3390960860567134
 30
0.0
 10
1163.3904812746463904
 20
469.3390960860567134
 30
0.0
  0
LINE
  5
219
100
AcDbEntity
100
AcDbLine
  8
0
 62
256
370
-1
  6
ByLayer
 10
346.0604688770470148
 20
375.4409816800398403
 30
0.0
 11
352.9762498552229317
 21
375.4409816800398403
 31
0.0
  0
LINE
  5
21A
100
AcDbEntity
100
AcDbLine
  8
0
 62
256
370
-1
  6
ByLayer
 10
355.842444797452913
 20
375.4409816800398403
 30
0.0
 11
370.1734195086024215
 21
375.4409816800398403
 31
0.0
  0
LINE
  5
21B
100
AcDbEntity
100
AcDbLine
  8
0
 62
256
370
-1
  6
ByLayer
 10
373.0396144508322891
 20
375.4409816800398403
 30
0.0
 11
379.5808358623923482
 21
375.4409816800398403
 31
0.0
  0
LINE
  5
21C
100
AcDbEntity
100
AcDbLine
  8
0
 62
256
370
-1
  6
ByLayer
 10
349.3283653832785944
 20
371.5630897836066424
 30
0.0
 11
352.9762498552229317
 21
371.5630897836066424
 31
0.0
  0
LINE
  5
21D
100
AcDbEntity
100
AcDbLine
  8
0
 62
256
370
-1
  6
ByLayer
 10
355.842444797452913
 20
371.5630897836066424
 30
0.0
 11
370.1734195086024215
 21
371.5630897836066424
 31
0.0
  0
LINE
  5
21E
100
AcDbEntity
100
AcDbLine
  8
0
 62
256
370
-1
  6
ByLayer
 10
373.0396144508322891
 20
371.5630897836066424
 30
0.0
 11
377.1651980797835222
 21
371.5630897836066424
 31
0.0
  0
LINE
  5
21F
100
AcDbEntity
100
AcDbLine
  8
0
 62
256
370
-1
  6
ByLayer
 10
190.2500000000021885
 20
433.7508345907854732
 30
0.0
 11
347.0782937856511126
 21
433.7508345907854732
 31
0.0
  0
LINE
  5
220
100
AcDbEntity
100
AcDbLine
  8
0
 62
256
370
-1
  6
ByLayer
 10
190.2500000000021885
 20
430.2766589032361253
 30
0.0
 11
347.0782937856511126
 21
430.2766589032361253
 31
0.0
  0
LINE
  5
221
100
AcDbEntity
100
AcDbLine
  8
0
 62
256
370
-1
  6
ByLayer
 10
378.1219534937518461
 20
433.7508345907854732
 30
0.0
 11
1060.9264005859970439
 21
433.7508345907854732
 31
0.0
  0
LINE
  5
222
100
AcDbEntity
100
AcDbLine
  8
0
 62
256
370
-1
  6
ByLayer
 10
378.1219534937518461
 20
430.2766589032361253
 30
0.0
 11
1060.9264005859970439
 21
430.2766589032361253
 31
0.0
  0
LINE
  5
223
100
AcDbEntity
100
AcDbLine
  8
0
 62
256
370
-1
  6
ByLayer
 10
942.5649664000293342
 20
503.8000000000048999
 30
0.0
 11
942.5649664000293342
 21
507.8000000000138812
 31
0.0
  0
LINE
  5
224
100
AcDbEntity
100
AcDbLine
  8
0
 62
256
370
-1
  6
ByLayer
 10
955.8818816000298284
 20
503.8000000000048999
 30
0.0
 11
955.8818816000298284
 21
507.8000000000138812
 31
0.0
  0
LINE
  5
225
100
AcDbEntity
100
AcDbLine
  8
0
 62
256
370
-1
  6
ByLayer
 10
958.4000000000262389
 20
503.8000000000048999
 30
0.0
 11
955.8818816000298284
 21
503.8000000000048999
 31
0.0
  0
LINE
  5
226
100
AcDbEntity
100
AcDbLine
  8
0
 62
256
370
-1
  6
ByLayer
 10
1132.583074387947363
 20
453.1661487758944986
 30
0.0
 11
1133.6829096045198639
 21
453.1661487758944986
 31
0.0
  0
LINE
  5
227
100
AcDbEntity
100
AcDbLine
  8
0
 62
256
370
-1
  6
ByLayer
 10
1136.0
 20
459.9999999999999432
 30
0.0
 11
1132.583074387947363
 21
453.1661487758944986
 31
0.0
  0
LINE
  5
228
100
AcDbEntity
100
AcDbLine
  8
0
 62
256
370
-1
  6
ByLayer
 10
1134.583074387947363
 20
453.1661487758944986
 30
0.0
 11
1135.6829096045198639
 21
453.1661487758944986
 31
0.0
  0
LINE
  5
229
100
AcDbEntity
100
AcDbLine
  8
0
 62
256
370
-1
  6
ByLayer
 10
1135.6829096045198639
 20
453.1661487758944986
 30
0.0
 11
1133.8798681732580462
 21
449.56006591337092
 31
0.0
  0
LINE
  5
22A
100
AcDbEntity
100
AcDbLine
  8
0
 62
256
370
-1
  6
ByLayer
 10
1138.0
 20
459.9999999999999432
 30
0.0
 11
1134.583074387947363
 21
453.1661487758944986
 31
0.0
  0
LINE
  5
22B
100
AcDbEntity
100
AcDbLine
  8
0
 62
256
370
-1
  6
ByLayer
 10
1136.0
 20
459.9999999999999432
 30
0.0
 11
1138.9769915254237276
 21
465.9539830508473415
 31
0.0
  0
LINE
  5
22C
100
AcDbEntity
100
AcDbLine
  8
0
 62
256
370
-1
  6
ByLayer
 10
1140.0
 20
465.9539830508473983
 30
0.0
 11
1138.9769915254237276
 21
465.9539830508473415
 31
0.0
  0
LINE
  5
22D
100
AcDbEntity
100
AcDbLine
  8
0
 62
256
370
-1
  6
ByLayer
 10
1138.0
 20
459.9999999999999432
 30
0.0
 11
1140.0
 21
464.0
 31
0.0
  0
LINE
  5
22E
100
AcDbEntity
100
AcDbLine
  8
0
 62
256
370
-1
  6
ByLayer
 10
1152.583074387947363
 20
453.1661487758944986
 30
0.0
 11
1153.6829096045198639
 21
453.1661487758944986
 31
0.0
  0
LINE
  5
22F
100
AcDbEntity
100
AcDbLine
  8
0
 62
256
370
-1
  6
ByLayer
 10
1153.6829096045198639
 20
453.1661487758944986
 30
0.0
 11
1151.8798681732580462
 21
449.56006591337092
 31
0.0
  0
LINE
  5
230
100
AcDbEntity
100
AcDbLine
  8
0
 62
256
370
-1
  6
ByLayer
 10
1156.0
 20
459.9999999999999432
 30
0.0
 11
1152.583074387947363
 21
453.1661487758944986
 31
0.0
  0
LINE
  5
231
100
AcDbEntity
100
AcDbLine
  8
0
 62
256
370
-1
  6
ByLayer
 10
1154.583074387947363
 20
453.1661487758944986
 30
0.0
 11
1155.6829096045198639
 21
453.1661487758944986
 31
0.0
  0
LINE
  5
232
100
AcDbEntity
100
AcDbLine
  8
0
 62
256
370
-1
  6
ByLayer
 10
1155.6829096045198639
 20
453.1661487758944986
 30
0.0
 11
1153.8798681732580462
 21
449.56006591337092
 31
0.0
  0
LINE
  5
233
100
AcDbEntity
100
AcDbLine
  8
0
 62
256
370
-1
  6
ByLayer
 10
1158.0
 20
459.9999999999999432
 30
0.0
 11
1154.583074387947363
 21
453.1661487758944986
 31
0.0
  0
LINE
  5
234
100
AcDbEntity
100
AcDbLine
  8
0
 62
256
370
-1
  6
ByLayer
 10
1142.583074387947363
 20
453.1661487758944986
 30
0.0
 11
1143.6829096045198639
 21
453.1661487758944986
 31
0.0
  0
LINE
  5
235
100
AcDbEntity
100
AcDbLine
  8
0
 62
256
370
-1
  6
ByLayer
 10
1143.6829096045198639
 20
453.1661487758944986
 30
0.0
 11
1141.8798681732580462
 21
449.56006591337092
 31
0.0
  0
LINE
  5
236
100
AcDbEntity
100
AcDbLine
  8
0
 62
256
370
-1
  6
ByLayer
 10
1146.0
 20
459.9999999999999432
 30
0.0
 11
1142.583074387947363
 21
453.1661487758944986
 31
0.0
  0
LINE
  5
237
100
AcDbEntity
100
AcDbLine
  8
0
 62
256
370
-1
  6
ByLayer
 10
1144.583074387947363
 20
453.1661487758944986
 30
0.0
 11
1145.6829096045198639
 21
453.1661487758944986
 31
0.0
  0
LINE
  5
238
100
AcDbEntity
100
AcDbLine
  8
0
 62
256
370
-1
  6
ByLayer
 10
1145.6829096045198639
 20
453.1661487758944986
 30
0.0
 11
1143.8798681732580462
 21
449.56006591337092
 31
0.0
  0
LINE
  5
239
100
AcDbEntity
100
AcDbLine
  8
0
 62
256
370
-1
  6
ByLayer
 10
1148.0
 20
459.9999999999999432
 30
0.0
 11
1144.583074387947363
 21
453.1661487758944986
 31
0.0
  0
LINE
  5
23A
100
AcDbEntity
100
AcDbLine
  8
0
 62
256
370
-1
  6
ByLayer
 10
1146.0
 20
459.9999999999999432
 30
0.0
 11
1148.9769915254237276
 21
465.9539830508473983
 31
0.0
  0
LINE
  5
23B
100
AcDbEntity
100
AcDbLine
  8
0
 62
256
370
-1
  6
ByLayer
 10
1150.0768267419962285
 20
465.9539830508473983
 30
0.0
 11
1148.9769915254237276
 21
465.9539830508473983
 31
0.0
  0
LINE
  5
23C
100
AcDbEntity
100
AcDbLine
  8
0
 62
256
370
-1
  6
ByLayer
 10
1148.0
 20
459.9999999999999432
 30
0.0
 11
1150.9769915254237276
 21
465.9539830508473983
 31
0.0
  0
LINE
  5
23D
100
AcDbEntity
100
AcDbLine
  8
0
 62
256
370
-1
  6
ByLayer
 10
1152.0768267419962285
 20
465.9539830508473983
 30
0.0
 11
1150.9769915254237276
 21
465.9539830508473983
 31
0.0
  0
LINE
  5
23E
100
AcDbEntity
100
AcDbLine
  8
0
 62
256
370
-1
  6
ByLayer
 10
1142.0768267419962285
 20
465.9539830508473983
 30
0.0
 11
1140.9769915254237276
 21
465.9539830508473983
 31
0.0
  0
LINE
  5
23F
100
AcDbEntity
100
AcDbLine
  8
0
 62
256
370
-1
  6
ByLayer
 10
1156.0
 20
459.9999999999999432
 30
0.0
 11
1158.9769915254237276
 21
465.9539830508473415
 31
0.0
  0
LINE
  5
240
100
AcDbEntity
100
AcDbLine
  8
0
 62
256
370
-1
  6
ByLayer
 10
1140.0768267419962285
 20
465.9539830508473983
 30
0.0
 11
1140.0
 21
465.9539830508473983
 31
0.0
  0
LINE
  5
241
100
AcDbEntity
100
AcDbLine
  8
0
 62
256
370
-1
  6
ByLayer
 10
1140.0
 20
464.0
 30
0.0
 11
1140.9769915254237276
 21
465.9539830508473983
 31
0.0
  0
LINE
  5
242
100
AcDbEntity
100
AcDbLine
  8
0
 62
256
370
-1
  6
ByLayer
 10
1160.0
 20
465.9539830508473983
 30
0.0
 11
1158.9769915254237276
 21
465.9539830508473415
 31
0.0
  0
LINE
  5
243
100
AcDbEntity
100
AcDbLine
  8
0
 62
256
370
-1
  6
ByLayer
 10
1158.0
 20
459.9999999999999432
 30
0.0
 11
1160.0
 21
464.0
 31
0.0
  0
LINE
  5
244
100
AcDbEntity
100
AcDbLine
  8
0
 62
256
370
-1
  6
ByLayer
 10
1162.583074387947363
 20
453.1661487758944986
 30
0.0
 11
1163.6829096045198639
 21
453.1661487758944986
 31
0.0
  0
LINE
  5
245
100
AcDbEntity
100
AcDbLine
  8
0
 62
256
370
-1
  6
ByLayer
 10
1163.6829096045198639
 20
453.1661487758944986
 30
0.0
 11
1161.8798681732580462
 21
449.56006591337092
 31
0.0
  0
LINE
  5
246
100
AcDbEntity
100
AcDbLine
  8
0
 62
256
370
-1
  6
ByLayer
 10
1166.0
 20
459.9999999999999432
 30
0.0
 11
1162.583074387947363
 21
453.1661487758944986
 31
0.0
  0
LINE
  5
247
100
AcDbEntity
100
AcDbLine
  8
0
 62
256
370
-1
  6
ByLayer
 10
1164.583074387947363
 20
453.1661487758944986
 30
0.0
 11
1165.6829096045198639
 21
453.1661487758944986
 31
0.0
  0
LINE
  5
248
100
AcDbEntity
100
AcDbLine
  8
0
 62
256
370
-1
  6
ByLayer
 10
1165.6829096045198639
 20
453.1661487758944986
 30
0.0
 11
1163.8798681732580462
 21
449.56006591337092
 31
0.0
  0
LINE
  5
249
100
AcDbEntity
100
AcDbLine
  8
0
 62
256
370
-1
  6
ByLayer
 10
1168.0
 20
459.9999999999999432
 30
0.0
 11
1164.583074387947363
 21
453.1661487758944986
 31
0.0
  0
LINE
  5
24A
100
AcDbEntity
100
AcDbLine
  8
0
 62
256
370
-1
  6
ByLayer
 10
1162.0768267419962285
 20
465.9539830508473983
 30
0.0
 11
1160.9769915254237276
 21
465.9539830508473983
 31
0.0
  0
LINE
  5
24B
100
AcDbEntity
100
AcDbLine
  8
0
 62
256
370
-1
  6
ByLayer
 10
1160.0768267419962285
 20
465.9539830508473983
 30
0.0
 11
1160.0
 21
465.9539830508473983
 31
0.0
  0
LINE
  5
24C
100
AcDbEntity
100
AcDbLine
  8
0
 62
256
370
-1
  6
ByLayer
 10
1160.0
 20
464.0
 30
0.0
 11
1160.9769915254237276
 21
465.9539830508473983
 31
0.0
  0
LINE
  5
24D
100
AcDbEntity
100
AcDbLine
  8
0
 62
256
370
-1
  6
ByLayer
 10
1140.0768267419962285
 20
465.9539830508473983
 30
0.0
 11
1141.7693832596009997
 21
469.3390960860567134
 31
0.0
  0
LINE
  5
24E
100
AcDbEntity
100
AcDbLine
  8
0
 62
256
370
-1
  6
ByLayer
 10
1142.0768267419962285
 20
465.9539830508473983
 30
0.0
 11
1143.7693832596009997
 21
469.3390960860567134
 31
0.0
  0
LINE
  5
24F
100
AcDbEntity
100
AcDbLine
  8
0
 62
256
370
-1
  6
ByLayer
 10
1150.0768267419962285
 20
465.9539830508473983
 30
0.0
 11
1151.7693832596009997
 21
469.3390960860567134
 31
0.0
  0
LINE
  5
250
100
AcDbEntity
100
AcDbLine
  8
0
 62
256
370
-1
  6
ByLayer
 10
1152.0768267419962285
 20
465.9539830508473983
 30
0.0
 11
1153.7693832596009997
 21
469.3390960860567134
 31
0.0
  0
LINE
  5
251
100
AcDbEntity
100
AcDbLine
  8
0
 62
256
370
-1
  6
ByLayer
 10
1160.0768267419962285
 20
465.9539830508473983
 30
0.0
 11
1161.7693832596009997
 21
469.3390960860567134
 31
0.0
  0
LINE
  5
252
100
AcDbEntity
100
AcDbLine
  8
0
 62
256
370
-1
  6
ByLayer
 10
1162.0768267419962285
 20
465.9539830508473983
 30
0.0
 11
1163.7667255372468844
 21
469.3337806413488238
 31
0.0
  0
LINE
  5
253
100
AcDbEntity
100
AcDbLine
  8
0
 62
256
370
-1
  6
ByLayer
 10
1166.0
 20
459.9999999999999432
 30
0.0
 11
1168.653844269460933
 21
465.3076885389217523
 31
0.0
  0
LINE
  5
254
100
AcDbEntity
100
AcDbLine
  8
0
 62
256
370
-1
  6
ByLayer
 10
1168.0
 20
459.9999999999999432
 30
0.0
 11
1169.4676970833136238
 21
462.9353941666273045
 31
0.0
  0
LINE
  5
255
100
AcDbEntity
100
AcDbLine
  8
0
 62
256
370
-1
  6
ByLayer
 10
1150.733783612856314
 20
447.267896792567285
 30
0.0
 11
1151.8798681732580462
 21
449.56006591337092
 31
0.0
  0
LINE
  5
256
100
AcDbEntity
100
AcDbLine
  8
0
 62
256
370
-1
  6
ByLayer
 10
1152.733783612856314
 20
447.267896792567285
 30
0.0
 11
1153.8798681732580462
 21
449.56006591337092
 31
0.0
  0
LINE
  5
257
100
AcDbEntity
100
AcDbLine
  8
0
 62
256
370
-1
  6
ByLayer
 10
1160.733783612856314
 20
447.267896792567285
 30
0.0
 11
1161.8798681732580462
 21
449.56006591337092
 31
0.0
  0
LINE
  5
258
100
AcDbEntity
100
AcDbLine
  8
0
 62
256
370
-1
  6
ByLayer
 10
1162.733783612856314
 20
447.267896792567285
 30
0.0
 11
1163.8798681732580462
 21
449.56006591337092
 31
0.0
  0
LINE
  5
259
100
AcDbEntity
100
AcDbLine
  8
0
 62
256
370
-1
  6
ByLayer
 10
1140.733783612856314
 20
447.267896792567285
 30
0.0
 11
1141.8798681732580462
 21
449.56006591337092
 31
0.0
  0
LINE
  5
25A
100
AcDbEntity
100
AcDbLine
  8
0
 62
256
370
-1
  6
ByLayer
 10
1142.733783612856314
 20
447.267896792567285
 30
0.0
 11
1143.8798681732580462
 21
449.56006591337092
 31
0.0
  0
LINE
  5
25B
100
AcDbEntity
100
AcDbLine
  8
0
 62
256
370
-1
  6
ByLayer
 10
1133.7650594158003514
 20
449.3304483984554736
 30
0.0
 11
1133.8798681732580462
 21
449.56006591337092
 31
0.0
  0
LINE
  5
25C
100
AcDbEntity
100
AcDbLine
  8
0
 62
256
370
-1
  6
ByLayer
 10
1133.6829096045198639
 20
453.1661487758944986
 30
0.0
 11
1132.6261196478101283
 21
451.0525688624752547
 31
0.0
  0
LINE
  5
25D
100
AcDbEntity
100
AcDbLine
  8
0
 62
256
370
-1
  6
ByLayer
 10
1180.0
 20
465.9539830508473983
 30
0.0
 11
1178.9769915254237276
 21
465.9539830508473415
 31
0.0
  0
LINE
  5
25E
100
AcDbEntity
100
AcDbLine
  8
0
 62
256
370
-1
  6
ByLayer
 10
1186.0
 20
459.9999999999999432
 30
0.0
 11
1188.9769915254237276
 21
465.9539830508473983
 31
0.0
  0
LINE
  5
25F
100
AcDbEntity
100
AcDbLine
  8
0
 62
256
370
-1
  6
ByLayer
 10
1182.583074387947363
 20
473.1661487758944986
 30
0.0
 11
1183.6829096045198639
 21
473.1661487758944986
 31
0.0
  0
LINE
  5
260
100
AcDbEntity
100
AcDbLine
  8
0
 62
256
370
-1
  6
ByLayer
 10
1183.6829096045198639
 20
473.1661487758944986
 30
0.0
 11
1181.8798681732580462
 21
469.56006591337092
 31
0.0
  0
LINE
  5
261
100
AcDbEntity
100
AcDbLine
  8
0
 62
256
370
-1
  6
ByLayer
 10
1180.0768267419962285
 20
465.9539830508473983
 30
0.0
 11
1181.8798681732580462
 21
469.56006591337092
 31
0.0
  0
LINE
  5
262
100
AcDbEntity
100
AcDbLine
  8
0
 62
256
370
-1
  6
ByLayer
 10
1184.583074387947363
 20
473.1661487758944986
 30
0.0
 11
1185.6829096045198639
 21
473.1661487758944986
 31
0.0
  0
LINE
  5
263
100
AcDbEntity
100
AcDbLine
  8
0
 62
256
370
-1
  6
ByLayer
 10
1185.6829096045198639
 20
473.1661487758944986
 30
0.0
 11
1183.8798681732580462
 21
469.56006591337092
 31
0.0
  0
LINE
  5
264
100
AcDbEntity
100
AcDbLine
  8
0
 62
256
370
-1
  6
ByLayer
 10
1182.0768267419962285
 20
465.9539830508473983
 30
0.0
 11
1183.8798681732580462
 21
469.56006591337092
 31
0.0
  0
LINE
  5
265
100
AcDbEntity
100
AcDbLine
  8
0
 62
256
370
-1
  6
ByLayer
 10
1182.0768267419962285
 20
465.9539830508473983
 30
0.0
 11
1180.9769915254237276
 21
465.9539830508473983
 31
0.0
  0
LINE
  5
266
100
AcDbEntity
100
AcDbLine
  8
0
 62
256
370
-1
  6
ByLayer
 10
1180.0768267419962285
 20
465.9539830508473983
 30
0.0
 11
1180.0
 21
465.9539830508473983
 31
0.0
  0
LINE
  5
267
100
AcDbEntity
100
AcDbLine
  8
0
 62
256
370
-1
  6
ByLayer
 10
1180.0
 20
464.0
 30
0.0
 11
1180.9769915254237276
 21
465.9539830508473983
 31
0.0
  0
LINE
  5
268
100
AcDbEntity
100
AcDbLine
  8
0
 62
256
370
-1
  6
ByLayer
 10
1177.2435616654006481
 20
462.4871233308012393
 30
0.0
 11
1178.9769915254237276
 21
465.9539830508473415
 31
0.0
  0
LINE
  5
269
100
AcDbEntity
100
AcDbLine
  8
0
 62
256
370
-1
  6
ByLayer
 10
1178.227854859117997
 20
460.4557097182358234
 30
0.0
 11
1180.0
 21
464.0
 31
0.0
  0
LINE
  5
26A
100
AcDbEntity
100
AcDbLine
  8
0
 62
256
370
-1
  6
ByLayer
 10
1186.0
 20
459.9999999999999432
 30
0.0
 11
1185.3367991640732271
 21
458.6735983281463973
 31
0.0
  0
LINE
  5
26B
100
AcDbEntity
100
AcDbLine
  8
0
 62
256
370
-1
  6
ByLayer
 10
1189.3691154586799712
 20
465.9539830508473983
 30
0.0
 11
1188.9769915254237276
 21
465.9539830508473983
 31
0.0
  0
LINE
  5
26C
100
AcDbEntity
100
AcDbLine
  8
0
 62
256
370
-1
  6
ByLayer
 10
1185.0852282453317912
 20
474.1704564906634687
 30
0.0
 11
1184.583074387947363
 21
473.1661487758944986
 31
0.0
  0
LINE
  5
26D
100
AcDbEntity
100
AcDbLine
  8
0
 62
256
370
-1
  6
ByLayer
 10
1183.4702812736820761
 20
474.9405625473637542
 30
0.0
 11
1182.583074387947363
 21
473.1661487758944986
 31
0.0
  0
LINE
  5
26E
100
AcDbEntity
100
AcDbLine
  8
0
 62
256
370
-1
  6
ByLayer
 10
1189.1609749882491087
 20
462.3219499764979901
 30
0.0
 11
1190.1687078810607545
 21
464.3374157621212817
 31
0.0
  0
ARC
  5
26F
100
AcDbEntity
  8
0
 62
256
370
-1
  6
ByLayer
100
AcDbCircle
 10
1377.1665647936301866
 20
357.9650787045731022
 30
0.0
 40
129.9699140166694065
100
AcDbArc
 50
61.9350337907775028
 51
115.5787402909696056
  0
ARC
  5
270
100
AcDbEntity
  8
0
 62
256
370
-1
  6
ByLayer
100
AcDbCircle
 10
1378.7476893485995788
 20
430.8285686127539407
 30
0.0
 40
72.7829701504564781
100
AcDbArc
 50
35.0742974183884044
 51
142.4394766633587324
  0
LINE
  5
271
100
AcDbEntity
100
AcDbLine
  8
0
 62
256
370
-1
  6
ByLayer
 10
1368.5504081694002707
 20
507.6401730953740525
 30
0.0
 11
1389.3310000504973232
 21
507.6401730953740525
 31
0.0
  0
LINE
  5
272
100
AcDbEntity
100
AcDbLine
  8
0
 62
256
370
-1
  6
ByLayer
 10
1368.5504081694002707
 20
507.6401730953740525
 30
0.0
 11
1368.5504081694002707
 21
502.893651700714031
 31
0.0
  0
LINE
  5
273
100
AcDbEntity
100
AcDbLine
  8
0
 62
256
370
-1
  6
ByLayer
 10
1389.3310000504973232
 20
507.6401730953740525
 30
0.0
 11
1389.3310000504973232
 21
502.8379727104780841
 31
0.0
  0
CIRCLE
  5
274
100
AcDbEntity
100
AcDbCircle
  8
0
 62
256
370
-1
  6
ByLayer
 10
1378.5166103980895969
 20
494.9173617396002669
 30
0.0
 40
5.5050565646394523
  0
LINE
  5
275
100
AcDbEntity
100
AcDbLine
  8
0
 62
256
370
-1
  6
ByLayer
 10
1321.0519124411780467
 20
475.1970041381506462
 30
0.0
 11
1321.0519124411780467
 21
383.5927623765795147
 31
0.0
  0
LINE
  5
276
100
AcDbEntity
100
AcDbLine
  8
0
 62
256
370
-1
  6
ByLayer
 10
1321.0519124411780467
 20
383.5927623765795147
 30
0.0
 11
1438.3138237702264632
 21
383.5927623765795147
 31
0.0
  0
LINE
  5
277
100
AcDbEntity
100
AcDbLine
  8
0
 62
256
370
-1
  6
ByLayer
 10
1438.3138237702264632
 20
383.5927623765795147
 30
0.0
 11
1438.3138237702264632
 21
472.6524418669961278
 31
0.0
  0
LINE
  5
278
100
AcDbEntity
100
AcDbLine
  8
0
 62
256
370
-1
  6
ByLayer
 10
1322.5362404326845081
 20
379.563872113917796
 30
0.0
 11
1436.6174489227894355
 21
379.563872113917796
 31
0.0
  0
LINE
  5
279
100
AcDbEntity
100
AcDbLine
  8
0
 62
256
370
-1
  6
ByLayer
 10
1436.6174489227894355
 20
379.563872113917796
 30
0.0
 11
1428.9837621093251983
 21
348.3929842922720468
 31
0.0
  0
LINE
  5
27A
100
AcDbEntity
100
AcDbLine
  8
0
 62
256
370
-1
  6
ByLayer
 10
1331.6542552376556614
 20
348.3929842922720468
 30
0.0
 11
1322.5362404326845081
 21
379.563872113917796
 31
0.0
  0
ARC
  5
27B
100
AcDbEntity
  8
0
 62
256
370
-1
  6
ByLayer
100
AcDbCircle
 10
1380.3190086734905435
 20
431.8539427640324675
 30
0.0
 40
96.6125758687527139
100
AcDbArc
 50
239.7542207778481611
 51
300.2457792221517252
  0
LINE
  5
27C
100
AcDbEntity
100
AcDbLine
  8
0
 62
256
370
-1
  6
ByLayer
 10
1356.2516905254849462
 20
373.626560147890018
 30
0.0
 11
1402.2658582622002541
 21
373.626560147890018
 31
0.0
  0
LINE
  5
27D
100
AcDbEntity
100
AcDbLine
  8
0
 62
256
370
-1
  6
ByLayer
 10
1402.2658582622002541
 20
373.626560147890018
 30
0.0
 11
1402.2658582622002541
 21
379.563872113917796
 31
0.0
  0
LINE
  5
27E
100
AcDbEntity
100
AcDbLine
  8
0
 62
256
370
-1
  6
ByLayer
 10
1356.2516905254849462
 20
373.626560147890018
 30
0.0
 11
1356.2516905254849462
 21
379.563872113917796
 31
0.0
  0
ARC
  5
27F
100
AcDbEntity
  8
0
 62
256
370
-1
  6
ByLayer
100
AcDbCircle
 10
1384.0065552168503018
 20
344.2218674799031533
 30
0.0
 40
138.6487834225084725
100
AcDbArc
 50
96.4886480878787438
 51
111.9008271377028763
  0
ARC
  5
280
100
AcDbEntity
  8
0
 62
256
370
-1
  6
ByLayer
100
AcDbCircle
 10
1380.9658519217048251
 20
371.5746556350710534
 30
0.0
 40
110.7084727412083964
100
AcDbArc
 50
66.46829903527086
 51
85.776641358313185
  0
ARC
  5
281
100
AcDbEntity
  8
0
 62
256
370
-1
  6
ByLayer
100
AcDbCircle
 10
1395.3421994651303066
 20
301.0113926779400231
 30
0.0
 40
163.0952531492246749
100
AcDbArc
 50
98.625145652962587
 51
111.5364369699225904
  0
ARC
  5
282
100
AcDbEntity
  8
0
 62
256
370
-1
  6
ByLayer
100
AcDbCircle
 10
1320.2445636711825045
 20
170.9396095107649955
 30
0.0
 40
298.9311266281633834
100
AcDbArc
 50
70.6195496041306257
 51
76.5121239833624571
  0
LINE
  5
283
100
AcDbEntity
100
AcDbLine
  8
0
 62
256
370
-1
  6
ByLayer
 10
1328.6855992546418292
 20
467.9874110365455522
 30
0.0
 11
1328.6855992546418292
 21
458.0212088078561123
 31
0.0
  0
LINE
  5
284
100
AcDbEntity
100
AcDbLine
  8
0
 62
256
370
-1
  6
ByLayer
 10
1374.9118138472865667
 20
476.681332129657676
 30
0.0
 11
1374.9118138472865667
 21
468.8355984602638387
 31
0.0
  0
LINE
  5
285
100
AcDbEntity
100
AcDbLine
  8
0
 62
256
370
-1
  6
ByLayer
 10
1383.8177817963282905
 20
476.681332129657676
 30
0.0
 11
1383.8177817963282905
 21
468.4115047484046954
 31
0.0
  0
LINE
  5
286
100
AcDbEntity
100
AcDbLine
  8
0
 62
256
370
-1
  6
ByLayer
 10
1429.6199026771139415
 20
465.0187550535316632
 30
0.0
 11
1429.6199026771139415
 21
460.9898647908700013
 31
0.0
  0
ARC
  5
287
100
AcDbEntity
  8
0
 62
256
370
-1
  6
ByLayer
100
AcDbCircle
 10
1336.6951873127084127
 20
465.8380269968960761
 30
0.0
 40
8.2929700716825412
100
AcDbArc
 50
122.0830292828426877
 51
164.9785019370545172
  0
ARC
  5
288
100
AcDbEntity
  8
0
 62
256
370
-1
  6
ByLayer
100
AcDbCircle
 10
1368.7878409165323319
 20
475.8137319656082127
 30
0.0
 40
6.185125261566597
100
AcDbArc
 50
8.0635885727972809
 51
94.1674185597726847
  0
ARC
  5
289
100
AcDbEntity
  8
0
 62
256
370
-1
  6
ByLayer
100
AcDbCircle
 10
1367.1502930721053417
 20
469.071273394425134
 30
0.0
 40
7.7650980301707255
100
AcDbArc
 50
298.7306916118780578
 51
358.2607749497145164
  0
ARC
  5
28A
100
AcDbEntity
  8
0
 62
256
370
-1
  6
ByLayer
100
AcDbCircle
 10
1335.694575535302647
 20
459.9993931385449741
 30
0.0
 40
7.2827853015895565
100
AcDbArc
 50
195.7609685200629883
 51
268.241566594928031
  0
ARC
  5
28B
100
AcDbEntity
  8
0
 62
256
370
-1
  6
ByLayer
100
AcDbCircle
 10
1388.897267845186434
 20
476.9030174790385672
 30
0.0
 40
5.0843212835809846
100
AcDbArc
 50
87.5010110142679167
 51
182.4989889857334617
  0
ARC
  5
28C
100
AcDbEntity
  8
0
 62
256
370
-1
  6
ByLayer
100
AcDbCircle
 10
1420.9945849785674454
 20
465.5114521599562636
 30
0.0
 40
8.639378209080709
100
AcDbArc
 50
356.7306919005401937
 51
61.1221597699686185
  0
ARC
  5
28D
100
AcDbEntity
  8
0
 62
256
370
-1
  6
ByLayer
100
AcDbCircle
 10
1421.6655114573213723
 20
460.5802587523973557
 30
0.0
 40
7.9649304318534897
100
AcDbArc
 50
253.7871667397711519
 51
2.947804029950936
  0
ARC
  5
28E
100
AcDbEntity
  8
0
 62
256
370
-1
  6
ByLayer
100
AcDbCircle
 10
1392.5558449392153761
 20
470.1511965605736236
 30
0.0
 40
8.9095608808969562
100
AcDbArc
 50
191.2599842943645569
 51
253.1089023372123563
  0
ARC
  5
28F
100
AcDbEntity
  8
0
 62
256
370
-1
  6
ByLayer
100
AcDbCircle
 10
1376.9159380772673558
 20
350.1746993155702512
 30
0.0
 40
104.9064396057780044
100
AcDbArc
 50
59.5734912143820523
 51
114.664180635610407
  0
LINE
  5
290
100
AcDbEntity
100
AcDbLine
  8
0
 62
256
370
-1
  6
ByLayer
 10
1333.1385832291625775
 20
445.5104443080118699
 30
0.0
 11
1327.2012712631349132
 21
438.5128980623363191
 31
0.0
  0
LINE
  5
291
100
AcDbEntity
100
AcDbLine
  8
0
 62
256
370
-1
  6
ByLayer
 10
1430.0439963889730279
 20
440.6333666216319216
 30
0.0
 11
1431.528324380479944
 21
435.1201483674632868
 31
0.0
  0
CIRCLE
  5
292
100
AcDbEntity
100
AcDbCircle
  8
0
 62
256
370
-1
  6
ByLayer
 10
1379.3647978218073149
 20
438.9369917741954623
 30
0.0
 40
7.8800446217249149
  0
LINE
  5
293
100
AcDbEntity
100
AcDbLine
  8
0
 62
256
370
-1
  6
ByLayer
 10
1318.0832564581637598
 20
467.5633173246864658
 30
0.0
 11
1318.0832564581637598
 21
379.7759189698478508
 31
0.0
  0
LINE
  5
294
100
AcDbEntity
100
AcDbLine
  8
0
 62
256
370
-1
  6
ByLayer
 10
1318.0832564581637598
 20
379.7759189698478508
 30
0.0
 11
1326.5651306953479889
 21
350.9375465634272473
 31
0.0
  0
LINE
  5
295
100
AcDbEntity
100
AcDbLine
  8
0
 62
256
370
-1
  6
ByLayer
 10
1315.1146004751515193
 20
467.5633173246864658
 30
0.0
 11
1315.1146004751515193
 21
379.5638721139183076
 31
0.0
  0
LINE
  5
296
100
AcDbEntity
100
AcDbLine
  8
0
 62
256
370
-1
  6
ByLayer
 10
1315.1146004751515193
 20
379.5638721139183076
 30
0.0
 11
1323.1723810004748429
 21
349.8773122837794176
 31
0.0
  0
LINE
  5
297
100
AcDbEntity
100
AcDbLine
  8
0
 62
256
370
-1
  6
ByLayer
 10
1441.4945266091713165
 20
467.5633173246864658
 30
0.0
 11
1441.4945266091713165
 21
379.1397784020591644
 31
0.0
  0
LINE
  5
298
100
AcDbEntity
100
AcDbLine
  8
0
 62
256
370
-1
  6
ByLayer
 10
1441.4945266091713165
 20
379.1397784020591644
 30
0.0
 11
1434.0728866516365088
 21
350.7254997074977041
 31
0.0
  0
LINE
  5
299
100
AcDbEntity
100
AcDbLine
  8
0
 62
256
370
-1
  6
ByLayer
 10
1444.0390888803260623
 20
467.5633173246864658
 30
0.0
 11
1444.0390888803260623
 21
379.3518252579887076
 31
0.0
  0
LINE
  5
29A
100
AcDbEntity
100
AcDbLine
  8
0
 62
256
370
-1
  6
ByLayer
 10
1444.0390888803260623
 20
379.3518252579887076
 30
0.0
 11
1436.6174489227912545
 21
349.2411717159907312
 31
0.0
  0
LINE
  5
29B
100
AcDbEntity
100
AcDbLine
  8
0
 62
256
370
-1
  6
ByLayer
 10
1342.4686448900652067
 20
331.0051421060483108
 30
0.0
 11
1420.0777941602852934
 21
331.0051421060483108
 31
0.0
  0
LINE
  5
29C
100
AcDbEntity
100
AcDbLine
  8
0
 62
256
370
-1
  6
ByLayer
 10
1348.6715195112014953
 20
340.5718183051972119
 30
0.0
 11
1348.6715195112014953
 21
331.0051421060483108
 31
0.0
  0
LINE
  5
29D
100
AcDbEntity
100
AcDbLine
  8
0
 62
256
370
-1
  6
ByLayer
 10
1409.3261118397285827
 20
339.6987596113810923
 30
0.0
 11
1409.3261118397285827
 21
331.0051421060483108
 31
0.0
  0
LINE
  5
29E
100
AcDbEntity
100
AcDbLine
  8
0
 62
256
370
-1
  6
ByLayer
 10
1353.7978228696176757
 20
338.9528312553322849
 30
0.0
 11
1353.7978228696176757
 21
329.0967204026822515
 31
0.0
  0
LINE
  5
29F
100
AcDbEntity
100
AcDbLine
  8
0
 62
256
370
-1
  6
ByLayer
 10
1404.9896060013265924
 20
338.4443530877938429
 30
0.0
 11
1404.9896060013265924
 21
328.8846735467526514
 31
0.0
  0
LINE
  5
2A0
100
AcDbEntity
100
AcDbLine
  8
0
 62
256
370
-1
  6
ByLayer
 10
1315.1146004751515193
 20
467.5633173246864658
 30
0.0
 11
1321.0519124411780467
 21
467.5633173246864658
 31
0.0
  0
LINE
  5
2A1
100
AcDbEntity
100
AcDbLine
  8
0
 62
256
370
-1
  6
ByLayer
 10
1444.0390888803260623
 20
467.5633173246864658
 30
0.0
 11
1438.3138237702264632
 21
467.5633173246864658
 31
0.0
  0
LINE
  5
2A2
100
AcDbEntity
100
AcDbLine
  8
0
 62
256
370
-1
  6
ByLayer
 10
907.7301808632741995
 20
463.9585207738842882
 30
0.0
 11
917.0602425241750097
 21
463.9585207738842882
 31
0.0
  0
LINE
  5
2A3
100
AcDbEntity
100
AcDbLine
  8
0
 62
256
370
-1
  6
ByLayer
 10
917.0602425241750097
 20
463.9585207738842882
 30
0.0
 11
917.0602425241750097
 21
450.217884509648627
 31
0.0
  0
LINE
  5
2A4
100
AcDbEntity
100
AcDbLine
  8
0
 62
256
370
-1
  6
ByLayer
 10
917.0602425241750097
 20
450.217884509648627
 30
0.0
 11
907.7301808632741995
 21
450.217884509648627
 31
0.0
  0
LINE
  5
2A5
100
AcDbEntity
100
AcDbLine
  8
0
 62
256
370
-1
  6
ByLayer
 10
907.7301808632741995
 20
450.217884509648627
 30
0.0
 11
907.7301808632741995
 21
463.9585207738842882
 31
0.0
  0
LINE
  5
2A6
100
AcDbEntity
100
AcDbLine
  8
0
 62
256
370
-1
  6
ByLayer
 10
770.6970206873540974
 20
397.7659742269122489
 30
0.0
 11
779.3824599062289735
 21
397.7659742269122489
 31
0.0
  0
LINE
  5
2A7
100
AcDbEntity
100
AcDbLine
  8
0
 62
256
370
-1
  6
ByLayer
 10
779.3824599062289735
 20
397.7659742269122489
 30
0.0
 11
779.3824599062289735
 21
407.4013833603516446
 31
0.0
  0
LINE
  5
2A8
100
AcDbEntity
100
AcDbLine
  8
0
 62
256
370
-1
  6
ByLayer
 10
779.3824599062289735
 20
407.4013833603516446
 30
0.0
 11
770.6970206873540974
 21
407.4013833603516446
 31
0.0
  0
LINE
  5
2A9
100
AcDbEntity
100
AcDbLine
  8
0
 62
256
370
-1
  6
ByLayer
 10
770.6970206873540974
 20
407.4013833603516446
 30
0.0
 11
770.6970206873540974
 21
397.7659742269122489
 31
0.0
  0
LINE
  5
2AA
100
AcDbEntity
100
AcDbLine
  8
0
 62
256
370
-1
  6
ByLayer
 10
514.0694337671592393
 20
406.8585434091719435
 30
0.0
 11
522.4834530104443502
 21
406.8585434091719435
 31
0.0
  0
LINE
  5
2AB
100
AcDbEntity
100
AcDbLine
  8
0
 62
256
370
-1
  6
ByLayer
 10
522.4834530104443502
 20
406.8585434091719435
 30
0.0
 11
522.4834530104443502
 21
396.9517143001427257
 31
0.0
  0
LINE
  5
2AC
100
AcDbEntity
100
AcDbLine
  8
0
 62
256
370
-1
  6
ByLayer
 10
522.4834530104443502
 20
396.9517143001427257
 30
0.0
 11
514.0694337671592393
 21
396.9517143001427257
 31
0.0
  0
LINE
  5
2AD
100
AcDbEntity
100
AcDbLine
  8
0
 62
256
370
-1
  6
ByLayer
 10
514.0694337671592393
 20
396.9517143001427257
 30
0.0
 11
514.0694337671592393
 21
406.8585434091719435
 31
0.0
  0
MTEXT
  5
2AE
100
AcDbEntity
100
AcDbMText
  8
0
 62
256
370
-1
  6
ByLayer
 10
531.8481741855146083
 20
587.4596752885627211
 30
0.0
 40
15.0
 41
100.0
 71
1
 72
0
  1
One\~half\~of\~locomotive\~shown
  7
normal
 50
0.0
 73
1
 44
1.0
  0
MTEXT
  5
2AF
100
AcDbEntity
100
AcDbMText
  8
0
 62
256
370
-1
  6
ByLayer
 10
463.0921364581096782
 20
566.226193049217045
 30
0.0
 40
15.0
 41
100.0
 71
1
 72
0
  1
sandbox\~fillers\~-\~both\~sides
  7
normal
 50
0.0
 73
1
 44
1.0
  0
MTEXT
  5
2B0
100
AcDbEntity
100
AcDbMText
  8
0
 62
256
370
-1
  6
ByLayer
 10
493.4256825143177139
 20
543.9815926079978681
 30
0.0
 40
15.0
 41
100.0
 71
1
 72
0
  1
fuel\~tank\~fillers\~-\~both\~sides
  7
normal
 50
0.0
 73
1
 44
1.0
  0
LINE
  5
2B1
100
AcDbEntity
100
AcDbLine
  8
0
 62
256
370
-1
  6
ByLayer
 10
461.6260053586591425
 20
451.2357094181105026
 30
0.0
 11
461.6260053586591425
 21
464.8067081976025747
 31
0.0
  0
LINE
  5
2B2
100
AcDbEntity
100
AcDbLine
  8
0
 62
256
370
-1
  6
ByLayer
 10
471.8042544432781256
 20
464.8067081976025747
 30
0.0
 11
471.5922075873485824
 21
464.8067081976025747
 31
0.0
  0
LINE
  5
2B3
100
AcDbEntity
100
AcDbLine
  8
0
 62
256
370
-1
  6
ByLayer
 10
471.5922075873485824
 20
464.8067081976025747
 30
0.0
 11
461.6260053586591425
 21
464.8067081976025747
 31
0.0
  0
LINE
  5
2B4
100
AcDbEntity
100
AcDbLine
  8
0
 62
256
370
-1
  6
ByLayer
 10
471.8042544432781256
 20
464.8067081976025747
 30
0.0
 11
471.8042544432781256
 21
451.2357094181105026
 31
0.0
  0
LINE
  5
2B5
100
AcDbEntity
100
AcDbLine
  8
0
 62
256
370
-1
  6
ByLayer
 10
471.8042544432781256
 20
451.2357094181105026
 30
0.0
 11
461.6260053586591425
 21
451.2357094181105026
 31
0.0
  0
LEADER
  5
2B6
  8
0
 62
256
370
-1
  6
ByLayer
100
AcDbEntity
100
AcDbLeader
  3
Standard
 71
1
 72
0
 73
3
 74
0
 75
0
 40
1.0
 41
10.0
 76
3
 10
907.7301808632741995
 20
463.9585207738842882
 10
850.1481841353272557
 20
556.5194583112322562
 10
770.8765171084365875
 20
556.5194583112322562
  0
LEADER
  5
2B7
  8
0
 62
256
370
-1
  6
ByLayer
100
AcDbEntity
100
AcDbLeader
  3
Standard
 71
1
 72
0
 73
3
 74
0
 75
0
 40
1.0
 41
10.0
 76
3
 10
919.83606839758761
 20
465.9232674233615512
 10
899.128367623216036
 20
555.7946887841344505
 10
867.2385084306836234
 20
555.7946887841344505
  0
LEADER
  5
2B8
  8
0
 62
256
370
-1
  6
ByLayer
100
AcDbEntity
100
AcDbLeader
  3
Standard
 71
1
 72
0
 73
3
 74
0
 75
0
 40
1.0
 41
10.0
 76
3
 10
907.7301808632741995
 20
463.9585207738842882
 10
857.6348190510381073
 20
555.2468585345626479
 10
766.397072343480886
 20
555.2468585345626479
  0
LEADER
  5
2B9
  8
0
 62
256
370
-1
  6
ByLayer
100
AcDbEntity
100
AcDbLeader
  3
Standard
 71
1
 72
0
 73
3
 74
0
 75
0
 40
1.0
 41
10.0
 76
3
 10
461.6260053586591425
 20
464.8067081976025747
 10
441.8513733408843791
 20
555.2468585345626479
 10
456.18873353778622
 20
555.2468585345626479
  0
LEADER
  5
2BA
  8
0
 62
256
370
-1
  6
ByLayer
100
AcDbEntity
100
AcDbLeader
  3
Standard
 71
1
 72
0
 73
3
 74
0
 75
0
 40
1.0
 41
10.0
 76
2
 10
514.0694337671592393
 20
406.8585434091719435
 10
502.4593050823331168
 20
523.3136471869175921
  0
LEADER
  5
2BB
  8
0
 62
256
370
-1
  6
ByLayer
100
AcDbEntity
100
AcDbLeader
  3
Standard
 71
1
 72
0
 73
3
 74
0
 75
0
 40
1.0
 41
10.0
 76
2
 10
779.3824599062289735
 20
407.4013833603516446
 10
793.1166981649797663
 20
523.3136471869175921
  0
ENDSEC
  0
SECTION
  2
OBJECTS
  0
DICTIONARY
  5
C
100
AcDbDictionary
280
0
281
1
  3
ACAD_GROUP
350
D
  3
ACAD_LAYOUT
350
1A
  3
ACAD_MLINESTYLE
350
17
  3
ACAD_PLOTSETTINGS
350
19
  3
ACAD_PLOTSTYLENAME
350
E
  3
AcDbVariableDictionary
350
2BC
  0
DICTIONARY
  5
D
100
AcDbDictionary
280
0
281
1
  0
ACDBDICTIONARYWDFLT
  5
E
100
AcDbDictionary
281
1
  3
Normal
350
F
100
AcDbDictionaryWithDefault
340
F
  0
ACDBPLACEHOLDER
  5
F
  0
DICTIONARY
  5
17
100
AcDbDictionary
280
0
281
1
  3
Standard
350
18
  0
MLINESTYLE
  5
18
100
AcDbMlineStyle
  2
STANDARD
 70
0
  3

 62
256
 51
90.0
 52
90.0
 71
2
 49
0.5
 62
256
  6
BYLAYER
 49
-0.5
 62
256
  6
BYLAYER
  0
DICTIONARY
  5
19
100
AcDbDictionary
280
0
281
1
  0
DICTIONARY
  5
1A
100
AcDbDictionary
281
1
  3
Layout1
350
1E
  3
Layout2
350
26
  3
Model
350
22
  0
LAYOUT
  5
1E
100
AcDbPlotSettings
  1

  2
C:\Program Files\AutoCAD 2002\plotters\DWF ePlot (optimized for plotting).pc3
  4

  6

 40
0.0
 41
0.0
 42
0.0
 43
0.0
 44
0.0
 45
0.0
 46
0.0
 47
0.0
 48
0.0
 49
0.0
140
0.0
141
0.0
142
1.0
143
1.0
 70
688
 72
0
 73
0
 74
5
  7

 75
16
147
1.0
148
0.0
149
0.0
100
AcDbLayout
  1
Layout1
 70
1
 71
1
 10
0.0
 20
0.0
 11
420.0
 21
297.0
 12
0.0
 22
0.0
 32
0.0
 14
100000000000000000000.0
 24
100000000000000000000.0
 34
100000000000000000000.0
 15
-100000000000000000000.0
 25
-100000000000000000000.0
 35
-100000000000000000000.0
146
0.0
 13
0.0
 23
0.0
 33
0.0
 16
1.0
 26
0.0
 36
0.0
 17
0.0
 27
1.0
 37
0.0
 76
0
330
1B
  0
LAYOUT
  5
22
100
AcDbPlotSettings
  1

  2
C:\Program Files\AutoCAD 2002\plotters\DWF ePlot (optimized for plotting).pc3
  4

  6

 40
0.0
 41
0.0
 42
0.0
 43
0.0
 44
0.0
 45
0.0
 46
0.0
 47
0.0
 48
0.0
 49
0.0
140
0.0
141
0.0
142
1.0
143
1.0
 70
1712
 72
0
 73
0
 74
0
  7

 75
0
147
1.0
148
0.0
149
0.0
100
AcDbLayout
  1
Model
 70
1
 71
0
 10
0.0
 20
0.0
 11
12.0
 21
9.0
 12
0.0
 22
0.0
 32
0.0
 14
0.0
 24
0.0
 34
0.0
 15
0.0
 25
0.0
 35
0.0
146
0.0
 13
0.0
 23
0.0
 33
0.0
 16
1.0
 26
0.0
 36
0.0
 17
0.0
 27
1.0
 37
0.0
 76
0
330
1F
  0
LAYOUT
  5
26
100
AcDbPlotSettings
  1

  2
C:\Program Files\AutoCAD 2002\plotters\DWF ePlot (optimized for plotting).pc3
  4

  6

 40
0.0
 41
0.0
 42
0.0
 43
0.0
 44
0.0
 45
0.0
 46
0.0
 47
0.0
 48
0.0
 49
0.0
140
0.0
141
0.0
142
1.0
143
1.0
 70
688
 72
0
 73
0
 74
5
  7

 75
16
147
1.0
148
0.0
149
0.0
100
AcDbLayout
  1
Layout2
 70
1
 71
2
 10
0.0
 20
0.0
 11
12.0
 21
9.0
 12
0.0
 22
0.0
 32
0.0
 14
0.0
 24
0.0
 34
0.0
 15
0.0
 25
0.0
 35
0.0
146
0.0
 13
0.0
 23
0.0
 33
0.0
 16
1.0
 26
0.0
 36
0.0
 17
0.0
 27
1.0
 37
0.0
 76
0
330
23
  0
DICTIONARY
  5
2BC
100
AcDbDictionary
281
1
  3
DIMASSOC
350
2BE
  3
HIDETEXT
350
2BD
  0
DICTIONARYVAR
  5
2BD
100
DictionaryVariables
280
0
  1
2
  0
DICTIONARYVAR
  5
2BE
100
DictionaryVariables
280
0
  1
1
  0
IMAGEDEF
  5
49
100
AcDbRasterImageDef
 90
0
  1
/home/jlm/model_railroad/baldwin/bh-50.gif
 10
3290.0
 20
1289.0
 11
1.0
 21
1.0
280
1
281
0
  0
ENDSEC
  0
EOF
