<?xml version="1.0" encoding="UTF-8" standalone="no"?>
<!-- Created with Inkscape (http://www.inkscape.org/) -->

<svg
   xmlns:dc="http://purl.org/dc/elements/1.1/"
   xmlns:cc="http://creativecommons.org/ns#"
   xmlns:rdf="http://www.w3.org/1999/02/22-rdf-syntax-ns#"
   xmlns:svg="http://www.w3.org/2000/svg"
   xmlns="http://www.w3.org/2000/svg"
   xmlns:xlink="http://www.w3.org/1999/xlink"
   xmlns:sodipodi="http://sodipodi.sourceforge.net/DTD/sodipodi-0.dtd"
   xmlns:inkscape="http://www.inkscape.org/namespaces/inkscape"
   width="210mm"
   height="297mm"
   viewBox="0 0 744.09448819 1052.3622047"
   id="svg2"
   version="1.1"
   inkscape:version="0.91 r13725"
   sodipodi:docname="ED Colour 6.svg"
   inkscape:export-filename="C:\Users\Peter\Google Drive\Engine Driver\ED Icons\ED colour 5-48.png"
   inkscape:export-xdpi="8.4013271"
   inkscape:export-ydpi="8.4013271">
  <defs
     id="defs4">
    <linearGradient
       inkscape:collect="always"
       id="linearGradient6089">
      <stop
         style="stop-color:#e5b703;stop-opacity:1;"
         offset="0"
         id="stop6091" />
      <stop
         style="stop-color:#ffe169;stop-opacity:1"
         offset="1"
         id="stop6093" />
    </linearGradient>
    <filter
       style="color-interpolation-filters:sRGB;"
       inkscape:label="Blur"
       id="filter6348">
      <feGaussianBlur
         stdDeviation="6 6"
         result="fbSourceGraphic"
         id="feGaussianBlur6350" />
      <feColorMatrix
         result="fbSourceGraphicAlpha"
         in="fbSourceGraphic"
         values="0 0 0 -1 0 0 0 0 -1 0 0 0 0 -1 0 0 0 0 1 0"
         id="feColorMatrix4744" />
      <feGaussianBlur
         id="feGaussianBlur4746"
         stdDeviation="4 4"
         result="fbSourceGraphic"
         in="fbSourceGraphic" />
      <feColorMatrix
         result="fbSourceGraphicAlpha"
         in="fbSourceGraphic"
         values="0 0 0 -1 0 0 0 0 -1 0 0 0 0 -1 0 0 0 0 1 0"
         id="feColorMatrix4748" />
      <feGaussianBlur
         id="feGaussianBlur4750"
         stdDeviation="2 2"
         result="fbSourceGraphic"
         in="fbSourceGraphic" />
      <feColorMatrix
         result="fbSourceGraphicAlpha"
         in="fbSourceGraphic"
         values="0 0 0 -1 0 0 0 0 -1 0 0 0 0 -1 0 0 0 0 1 0"
         id="feColorMatrix4752" />
      <feGaussianBlur
         id="feGaussianBlur4754"
         stdDeviation="0.01 0.01"
         result="blur"
         in="fbSourceGraphic" />
    </filter>
    <filter
       style="color-interpolation-filters:sRGB"
       inkscape:label="Blur"
       id="filter4371">
      <feGaussianBlur
         stdDeviation="2 2"
         result="fbSourceGraphic"
         id="feGaussianBlur4373" />
      <feColorMatrix
         result="fbSourceGraphicAlpha"
         in="fbSourceGraphic"
         values="0 0 0 -1 0 0 0 0 -1 0 0 0 0 -1 0 0 0 0 1 0"
         id="feColorMatrix4375" />
      <feGaussianBlur
         id="feGaussianBlur4377"
         stdDeviation="6.01 6"
         result="blur"
         in="fbSourceGraphic" />
    </filter>
    <filter
       style="color-interpolation-filters:sRGB;"
       inkscape:label="Blur"
       id="filter6411">
      <feGaussianBlur
         stdDeviation="6 6"
         result="blur"
         id="feGaussianBlur6413" />
    </filter>
    <filter
       style="color-interpolation-filters:sRGB;"
       inkscape:label="Blur"
       id="filter4771">
      <feGaussianBlur
         stdDeviation="2 93.75"
         result="fbSourceGraphic"
         id="feGaussianBlur4773" />
      <feColorMatrix
         result="fbSourceGraphicAlpha"
         in="fbSourceGraphic"
         values="0 0 0 -1 0 0 0 0 -1 0 0 0 0 -1 0 0 0 0 1 0"
         id="feColorMatrix4775" />
      <feGaussianBlur
         id="feGaussianBlur4777"
         stdDeviation="2 2"
         result="blur"
         in="fbSourceGraphic" />
    </filter>
    <filter
       style="color-interpolation-filters:sRGB;"
       inkscape:label="Blur"
       id="filter4861">
      <feGaussianBlur
         stdDeviation="6.01 3"
         result="blur"
         id="feGaussianBlur4863" />
    </filter>
    <filter
       style="color-interpolation-filters:sRGB;"
       inkscape:label="Blur"
       id="filter4865">
      <feGaussianBlur
         stdDeviation="6.01 3"
         result="blur"
         id="feGaussianBlur4867" />
    </filter>
    <filter
       style="color-interpolation-filters:sRGB;"
       inkscape:label="Blur"
       id="filter4928">
      <feGaussianBlur
         stdDeviation="6 6"
         result="blur"
         id="feGaussianBlur4930" />
    </filter>
    <filter
       style="color-interpolation-filters:sRGB;"
       inkscape:label="Drop Shadow"
       id="filter5185">
      <feFlood
         flood-opacity="0.196078"
         flood-color="rgb(0,0,0)"
         result="flood"
         id="feFlood5187" />
      <feComposite
         in="flood"
         in2="SourceGraphic"
         operator="in"
         result="composite1"
         id="feComposite5189" />
      <feGaussianBlur
         in="composite1"
         stdDeviation="0"
         result="blur"
         id="feGaussianBlur5191" />
      <feOffset
         dx="4"
         dy="4"
         result="offset"
         id="feOffset5193" />
      <feComposite
         in="SourceGraphic"
         in2="offset"
         operator="over"
         result="composite2"
         id="feComposite5195" />
    </filter>
    <filter
       style="color-interpolation-filters:sRGB;"
       inkscape:label="Drop Shadow"
       id="filter5212">
      <feFlood
         flood-opacity="0.196078"
         flood-color="rgb(0,0,0)"
         result="flood"
         id="feFlood5214" />
      <feComposite
         in="flood"
         in2="SourceGraphic"
         operator="in"
         result="composite1"
         id="feComposite5216" />
      <feGaussianBlur
         in="composite1"
         stdDeviation="0"
         result="blur"
         id="feGaussianBlur5218" />
      <feOffset
         dx="4"
         dy="4"
         result="offset"
         id="feOffset5220" />
      <feComposite
         in="SourceGraphic"
         in2="offset"
         operator="over"
         result="composite2"
         id="feComposite5222" />
    </filter>
    <filter
       style="color-interpolation-filters:sRGB;"
       inkscape:label="Drop Shadow"
       id="filter5241">
      <feFlood
         flood-opacity="0.196078"
         flood-color="rgb(0,0,0)"
         result="flood"
         id="feFlood5243" />
      <feComposite
         in="flood"
         in2="SourceGraphic"
         operator="in"
         result="composite1"
         id="feComposite5245" />
      <feGaussianBlur
         in="composite1"
         stdDeviation="0"
         result="blur"
         id="feGaussianBlur5247" />
      <feOffset
         dx="4"
         dy="4"
         result="offset"
         id="feOffset5249" />
      <feComposite
         in="SourceGraphic"
         in2="offset"
         operator="over"
         result="composite2"
         id="feComposite5251" />
    </filter>
    <filter
       style="color-interpolation-filters:sRGB;"
       inkscape:label="Drop Shadow"
       id="filter5857">
      <feFlood
         flood-opacity="0.52549"
         flood-color="rgb(0,0,0)"
         result="flood"
         id="feFlood5859" />
      <feComposite
         in="flood"
         in2="SourceGraphic"
         operator="in"
         result="composite1"
         id="feComposite5861" />
      <feGaussianBlur
         in="composite1"
         stdDeviation="2"
         result="blur"
         id="feGaussianBlur5863" />
      <feOffset
         dx="4"
         dy="4"
         result="offset"
         id="feOffset5865" />
      <feComposite
         in="SourceGraphic"
         in2="offset"
         operator="over"
         result="composite2"
         id="feComposite5867" />
    </filter>
    <filter
       style="color-interpolation-filters:sRGB;"
       inkscape:label="Drop Shadow"
       id="filter5881">
      <feFlood
         flood-opacity="0.52549"
         flood-color="rgb(0,0,0)"
         result="flood"
         id="feFlood5883" />
      <feComposite
         in="flood"
         in2="SourceGraphic"
         operator="in"
         result="composite1"
         id="feComposite5885" />
      <feGaussianBlur
         in="composite1"
         stdDeviation="4"
         result="blur"
         id="feGaussianBlur5887" />
      <feOffset
         dx="4"
         dy="4"
         result="offset"
         id="feOffset5889" />
      <feComposite
         in="SourceGraphic"
         in2="offset"
         operator="over"
         result="composite2"
         id="feComposite5891" />
    </filter>
    <filter
       style="color-interpolation-filters:sRGB;"
       inkscape:label="Drop Shadow"
       id="filter6066">
      <feFlood
         flood-opacity="0.784314"
         flood-color="rgb(0,0,0)"
         result="flood"
         id="feFlood6068" />
      <feComposite
         in="flood"
         in2="SourceGraphic"
         operator="in"
         result="composite1"
         id="feComposite6070" />
      <feGaussianBlur
         in="composite1"
         stdDeviation="4"
         result="blur"
         id="feGaussianBlur6072" />
      <feOffset
         dx="4"
         dy="4"
         result="offset"
         id="feOffset6074" />
      <feComposite
         in="SourceGraphic"
         in2="offset"
         operator="over"
         result="composite2"
         id="feComposite6076" />
    </filter>
    <linearGradient
       inkscape:collect="always"
       xlink:href="#linearGradient6089"
       id="linearGradient6095"
       x1="479.34518"
       y1="609.60089"
       x2="123.27731"
       y2="252.0797"
       gradientUnits="userSpaceOnUse"
       gradientTransform="matrix(0.97307951,0,0,0.97307951,10.149023,13.694807)" />
    <filter
       style="color-interpolation-filters:sRGB;"
       inkscape:label="Drop Shadow"
       id="filter6097">
      <feFlood
         flood-opacity="0.784314"
         flood-color="rgb(0,0,0)"
         result="flood"
         id="feFlood6099" />
      <feComposite
         in="flood"
         in2="SourceGraphic"
         operator="in"
         result="composite1"
         id="feComposite6101" />
      <feGaussianBlur
         in="composite1"
         stdDeviation="4"
         result="blur"
         id="feGaussianBlur6103" />
      <feOffset
         dx="4"
         dy="4"
         result="offset"
         id="feOffset6105" />
      <feComposite
         in="SourceGraphic"
         in2="offset"
         operator="over"
         result="composite2"
         id="feComposite6107" />
    </filter>
    <filter
       style="color-interpolation-filters:sRGB;"
       inkscape:label="Drop Shadow"
       id="filter6121">
      <feFlood
         flood-opacity="0.784314"
         flood-color="rgb(0,0,0)"
         result="flood"
         id="feFlood6123" />
      <feComposite
         in="flood"
         in2="SourceGraphic"
         operator="in"
         result="composite1"
         id="feComposite6125" />
      <feGaussianBlur
         in="composite1"
         stdDeviation="4"
         result="blur"
         id="feGaussianBlur6127" />
      <feOffset
         dx="2"
         dy="2"
         result="offset"
         id="feOffset6129" />
      <feComposite
         in="SourceGraphic"
         in2="offset"
         operator="over"
         result="composite2"
         id="feComposite6131" />
    </filter>
    <filter
       style="color-interpolation-filters:sRGB;"
       inkscape:label="Drop Shadow"
       id="filter6133">
      <feFlood
         flood-opacity="0.784314"
         flood-color="rgb(0,0,0)"
         result="flood"
         id="feFlood6135" />
      <feComposite
         in="flood"
         in2="SourceGraphic"
         operator="in"
         result="composite1"
         id="feComposite6137" />
      <feGaussianBlur
         in="composite1"
         stdDeviation="2"
         result="blur"
         id="feGaussianBlur6139" />
      <feOffset
         dx="2"
         dy="2"
         result="offset"
         id="feOffset6141" />
      <feComposite
         in="SourceGraphic"
         in2="offset"
         operator="over"
         result="composite2"
         id="feComposite6143" />
    </filter>
  </defs>
  <sodipodi:namedview
     id="base"
     pagecolor="#ffffff"
     bordercolor="#666666"
     borderopacity="1.0"
     inkscape:pageopacity="0.0"
     inkscape:pageshadow="2"
     inkscape:zoom="0.70710678"
     inkscape:cx="420.20039"
     inkscape:cy="637.1828"
     inkscape:document-units="px"
     inkscape:current-layer="layer1"
     showgrid="false"
     showguides="true"
     inkscape:guide-bbox="true"
     inkscape:window-width="1600"
     inkscape:window-height="847"
     inkscape:window-x="-8"
     inkscape:window-y="-8"
     inkscape:window-maximized="1"
     inkscape:snap-to-guides="true"
     inkscape:snap-midpoints="true"
     inkscape:snap-intersection-paths="true"
     inkscape:snap-nodes="false"
     inkscape:snap-others="false">
    <sodipodi:guide
       position="610.94026,339.05771"
       orientation="0,1"
       id="guide4306" />
    <sodipodi:guide
       position="525.87501,366.00001"
       orientation="1,0"
       id="guide4310" />
    <sodipodi:guide
       position="292.625,409.06251"
       orientation="0,1"
       id="guide4314" />
    <sodipodi:guide
       position="318.64,409.06251"
       orientation="0,1"
       id="guide4316" />
    <sodipodi:guide
       position="215,360.25001"
       orientation="0,1"
       id="guide4318" />
    <sodipodi:guide
       position="118.75,834.50002"
       orientation="1,0"
       id="guide4734" />
    <sodipodi:guide
       position="633.00001,843.00002"
       orientation="1,0"
       id="guide4736" />
    <sodipodi:guide
       position="115.83293,286.59922"
       orientation="0,1"
       id="guide4738" />
    <sodipodi:guide
       position="347.89654,801.152"
       orientation="0,1"
       id="guide5168" />
    <sodipodi:guide
       position="633.00001,633.56769"
       orientation="0,1"
       id="guide5224" />
  </sodipodi:namedview>
  <metadata
     id="metadata7">
    <rdf:RDF>
      <cc:Work
         rdf:about="">
        <dc:format>image/svg+xml</dc:format>
        <dc:type
           rdf:resource="http://purl.org/dc/dcmitype/StillImage" />
        <dc:title></dc:title>
      </cc:Work>
    </rdf:RDF>
  </metadata>
  <g
     inkscape:label="Layer 1"
     inkscape:groupmode="layer"
     id="layer1">
    <rect
       style="color:#000000;clip-rule:nonzero;display:inline;overflow:visible;visibility:visible;opacity:1;isolation:auto;mix-blend-mode:normal;color-interpolation:sRGB;color-interpolation-filters:linearRGB;solid-color:#000000;solid-opacity:1;fill:url(#linearGradient6095);fill-opacity:1;fill-rule:nonzero;stroke:none;stroke-width:0.43440107;stroke-linecap:round;stroke-linejoin:round;stroke-miterlimit:36.40000153;stroke-dasharray:none;stroke-dashoffset:0;stroke-opacity:1;color-rendering:auto;image-rendering:auto;shape-rendering:auto;text-rendering:auto;enable-background:accumulate"
       id="rect4353"
       width="500.20343"
       height="499.46051"
       x="126.00825"
       y="258.60895"
       ry="54.698738"
       inkscape:export-xdpi="8.3068924"
       inkscape:export-ydpi="8.3068924" />
    <rect
       style="color:#000000;clip-rule:nonzero;display:inline;overflow:visible;visibility:visible;opacity:1;isolation:auto;mix-blend-mode:normal;color-interpolation:sRGB;color-interpolation-filters:linearRGB;solid-color:#000000;solid-opacity:1;fill:none;fill-opacity:1;fill-rule:nonzero;stroke:#cccccc;stroke-width:4.73400021;stroke-linecap:round;stroke-linejoin:round;stroke-miterlimit:36.40000153;stroke-dasharray:none;stroke-dashoffset:0;stroke-opacity:1;filter:url(#filter6133);color-rendering:auto;image-rendering:auto;shape-rendering:auto;text-rendering:auto;enable-background:accumulate"
       id="rect4353-0"
       width="450.04169"
       height="311.2782"
       x="151.97916"
       y="423.72311"
       ry="34.089836"
       inkscape:export-xdpi="8.3068924"
       inkscape:export-ydpi="8.3068924"
       transform="matrix(0.93704288,0,0,0.93704288,23.734838,32.538659)" />
    <path
       style="fill:#ffffff;fill-rule:evenodd;stroke:none;stroke-width:0.08262863;stroke-linecap:butt;stroke-linejoin:miter;stroke-miterlimit:4;stroke-dasharray:none;stroke-opacity:1;filter:url(#filter6066)"
       d="m 305.09185,320.87693 -15.29896,47.33957 -14.54708,-2.99926 14.60149,-48.99168 -21.3512,-5.77056 -14.40863,51.80449 -22.6635,-2.41247 13.12716,-54.872 -44.88219,-9.8316 -12.34323,69.51246 8.07494,0.74095 10.73156,-61.56003 29.08037,6.3964 -13.25862,55.68579 38.14186,4.08372 13.99377,-50.6854 6.18112,1.66509 -14.68597,49.45855 29.7056,6.17322 15.01471,-46.60689 21.4312,6.76195 -16.98498,44.22122 26.57174,8.21717 17.87348,-41.72081 5.60232,2.30014 -17.92641,41.09362 17.18421,6.38935 18.80916,-39.05901 14.21427,7.09457 -19.49213,36.75859 15.95434,7.29577 19.52926,-35.58437 18.79628,10.8251 -21.22128,31.97999 24.38401,11.95072 20.26751,-28.82894 15.47634,10.60299 -20.20838,26.31678 15.16867,7.62955 19.48398,-22.86474 6.76637,5.18194 -15.2203,19.1257 6.34565,4.01243 19.42104,-24.30191 -18.4542,-14.17114 -20.39573,23.94945 -1.83936,-0.92908 19.60976,-25.4587 -28.28954,-19.35544 -20.68337,29.86699 -11.0121,-5.45327 21.02425,-31.49149 -32.59369,-18.87671 -19.85838,36.3378 -2.01985,-0.92685 19.33643,-36.57438 -28.22346,-14.02963 -19.22855,39.81357 -2.92411,-1.0574 17.92792,-40.97213 -20.04869,-8.0956 -18.15952,42.31172 -11.91479,-3.63954 16.9065,-44.1797 z"
       id="path4185"
       inkscape:connector-curvature="0"
       sodipodi:nodetypes="ccccccccccccccccccccccccccccccccccccccccccccccccccccccccccccccccc"
       inkscape:export-xdpi="8.3068924"
       inkscape:export-ydpi="8.3068924"
       transform="matrix(0.93704288,0,0,0.93704288,23.734838,32.538659)" />
    <path
       style="color:#000000;clip-rule:nonzero;display:inline;overflow:visible;visibility:visible;opacity:1;isolation:auto;mix-blend-mode:normal;color-interpolation:sRGB;color-interpolation-filters:linearRGB;solid-color:#000000;solid-opacity:1;fill:#000000;fill-opacity:1;fill-rule:nonzero;stroke:none;stroke-width:0.07781854;stroke-linecap:round;stroke-linejoin:round;stroke-miterlimit:4;stroke-dasharray:none;stroke-dashoffset:0;stroke-opacity:1;color-rendering:auto;image-rendering:auto;shape-rendering:auto;text-rendering:auto;enable-background:accumulate"
       d="m 459.52711,434.52686 5.36701,0.10674 0.0795,-0.10491 z"
       id="path6369"
       inkscape:connector-curvature="0"
       inkscape:export-xdpi="8.3068924"
       inkscape:export-ydpi="8.3068924" />
    <path
       style="color:#000000;clip-rule:nonzero;display:inline;overflow:visible;visibility:visible;opacity:1;isolation:auto;mix-blend-mode:normal;color-interpolation:sRGB;color-interpolation-filters:linearRGB;solid-color:#000000;solid-opacity:1;fill:#000000;fill-opacity:1;fill-rule:nonzero;stroke:none;stroke-width:0.1;stroke-linecap:round;stroke-linejoin:round;stroke-miterlimit:4;stroke-dasharray:none;stroke-dashoffset:0;stroke-opacity:1;color-rendering:auto;image-rendering:auto;shape-rendering:auto;text-rendering:auto;enable-background:accumulate"
       d="m 306.46656,648.3342 a 31.187523,31.187523 0 0 0 -31.18796,31.1864 31.187523,31.187523 0 0 0 31.18796,31.18797 31.187523,31.187523 0 0 0 31.18795,-31.18797 31.187523,31.187523 0 0 0 -31.18795,-31.1864 z m 0,8.00556 a 23.001778,23.001778 0 0 1 23.00154,23.00153 23.001778,23.001778 0 0 1 -23.00154,23.00154 23.001778,23.001778 0 0 1 -23.00153,-23.00154 23.001778,23.001778 0 0 1 23.00153,-23.00153 z"
       id="path4168"
       inkscape:export-xdpi="8.3068924"
       inkscape:export-ydpi="8.3068924"
       inkscape:connector-curvature="0" />
    <path
       style="color:#000000;clip-rule:nonzero;display:inline;overflow:visible;visibility:visible;opacity:1;isolation:auto;mix-blend-mode:normal;color-interpolation:sRGB;color-interpolation-filters:linearRGB;solid-color:#000000;solid-opacity:1;fill:#000000;fill-opacity:1;fill-rule:nonzero;stroke:none;stroke-width:0.1;stroke-linecap:round;stroke-linejoin:round;stroke-miterlimit:4;stroke-dasharray:none;stroke-dashoffset:0;stroke-opacity:1;color-rendering:auto;image-rendering:auto;shape-rendering:auto;text-rendering:auto;enable-background:accumulate"
       d="m 381.73338,648.3342 a 31.187523,31.187523 0 0 0 -31.18796,31.1864 31.187523,31.187523 0 0 0 31.18796,31.18797 31.187523,31.187523 0 0 0 31.18796,-31.18797 31.187523,31.187523 0 0 0 -31.18796,-31.1864 z m 0,8.00556 a 23.001778,23.001778 0 0 1 23.00154,23.00153 23.001778,23.001778 0 0 1 -23.00154,23.00154 23.001778,23.001778 0 0 1 -23.00153,-23.00154 23.001778,23.001778 0 0 1 23.00153,-23.00153 z"
       id="path4168-9"
       inkscape:export-xdpi="8.3068924"
       inkscape:export-ydpi="8.3068924"
       inkscape:connector-curvature="0" />
    <path
       style="color:#000000;clip-rule:nonzero;display:inline;overflow:visible;visibility:visible;opacity:1;isolation:auto;mix-blend-mode:normal;color-interpolation:sRGB;color-interpolation-filters:linearRGB;solid-color:#000000;solid-opacity:1;fill:#000000;fill-opacity:1;fill-rule:nonzero;stroke:none;stroke-width:0.1;stroke-linecap:round;stroke-linejoin:round;stroke-miterlimit:4;stroke-dasharray:none;stroke-dashoffset:0;stroke-opacity:1;color-rendering:auto;image-rendering:auto;shape-rendering:auto;text-rendering:auto;enable-background:accumulate"
       d="m 457.0002,648.3342 a 31.187523,31.187523 0 0 0 -31.1864,31.1864 31.187523,31.187523 0 0 0 31.1864,31.18797 31.187523,31.187523 0 0 0 31.18797,-31.18797 31.187523,31.187523 0 0 0 -31.18797,-31.1864 z m 0,8.00556 a 23.001778,23.001778 0 0 1 23.00309,23.00153 23.001778,23.001778 0 0 1 -23.00309,23.00154 23.001778,23.001778 0 0 1 -23.00153,-23.00154 23.001778,23.001778 0 0 1 23.00153,-23.00153 z"
       id="path4168-6"
       inkscape:export-xdpi="8.3068924"
       inkscape:export-ydpi="8.3068924"
       inkscape:connector-curvature="0" />
    <path
       style="color:#000000;clip-rule:nonzero;display:inline;overflow:visible;visibility:visible;opacity:1;isolation:auto;mix-blend-mode:normal;color-interpolation:sRGB;color-interpolation-filters:linearRGB;solid-color:#000000;solid-opacity:1;fill:#000000;fill-opacity:1;fill-rule:nonzero;stroke:none;stroke-width:0.1;stroke-linecap:round;stroke-linejoin:round;stroke-miterlimit:4;stroke-dasharray:none;stroke-dashoffset:0;stroke-opacity:1;color-rendering:auto;image-rendering:auto;shape-rendering:auto;text-rendering:auto;enable-background:accumulate"
       d="m 518.28929,676.28971 a 17.209517,17.209517 0 0 0 -17.20867,17.20865 17.209517,17.209517 0 0 0 17.20867,17.21021 17.209517,17.209517 0 0 0 17.2102,-17.21021 17.209517,17.209517 0 0 0 -17.2102,-17.20865 z m 0,5.78662 a 11.423041,11.423041 0 0 1 11.42358,11.42203 11.423041,11.423041 0 0 1 -11.42358,11.42358 11.423041,11.423041 0 0 1 -11.42203,-11.42358 11.423041,11.423041 0 0 1 11.42203,-11.42203 z"
       id="path4168-6-1"
       inkscape:export-xdpi="8.3068924"
       inkscape:export-ydpi="8.3068924"
       inkscape:connector-curvature="0" />
    <path
       style="color:#000000;clip-rule:nonzero;display:inline;overflow:visible;visibility:visible;opacity:1;isolation:auto;mix-blend-mode:normal;color-interpolation:sRGB;color-interpolation-filters:linearRGB;solid-color:#000000;solid-opacity:1;fill:#000000;fill-opacity:1;fill-rule:nonzero;stroke:none;stroke-width:0.1;stroke-linecap:round;stroke-linejoin:round;stroke-miterlimit:4;stroke-dasharray:none;stroke-dashoffset:0;stroke-opacity:1;color-rendering:auto;image-rendering:auto;shape-rendering:auto;text-rendering:auto;enable-background:accumulate"
       d="m 245.17747,676.28971 a 17.209517,17.209517 0 0 0 -17.2102,17.20865 17.209517,17.209517 0 0 0 17.2102,17.21021 17.209517,17.209517 0 0 0 17.21023,-17.21021 17.209517,17.209517 0 0 0 -17.21023,-17.20865 z m 0,5.78662 a 11.423041,11.423041 0 0 1 11.42359,11.42203 11.423041,11.423041 0 0 1 -11.42359,11.42358 11.423041,11.423041 0 0 1 -11.42358,-11.42358 11.423041,11.423041 0 0 1 11.42358,-11.42203 z"
       id="path4168-6-1-5"
       inkscape:export-xdpi="8.3068924"
       inkscape:export-ydpi="8.3068924"
       inkscape:connector-curvature="0" />
    <path
       style="color:#000000;clip-rule:nonzero;display:inline;overflow:visible;visibility:visible;opacity:1;isolation:auto;mix-blend-mode:normal;color-interpolation:sRGB;color-interpolation-filters:linearRGB;solid-color:#000000;solid-opacity:1;fill:#008000;fill-opacity:1;fill-rule:nonzero;stroke:none;stroke-width:0.07781854;stroke-linecap:round;stroke-linejoin:round;stroke-miterlimit:4;stroke-dasharray:none;stroke-dashoffset:0;stroke-opacity:1;color-rendering:auto;image-rendering:auto;shape-rendering:auto;text-rendering:auto;enable-background:accumulate"
       d="m 275.21023,501.77417 c -0.38231,-0.003 -0.78316,0.12292 -1.00277,0.54922 -1.26019,2.43773 -3.76205,7.32122 -3.76205,7.32122 -3.1657,-1.55483 -5.83088,-1.98411 -9.57417,-1.98411 -3.83771,0 -6.71891,0.53092 -9.95681,2.16059 l -3.96656,-7.39545 c -0.41453,-0.74567 -1.30107,-0.52038 -1.52394,-0.42057 -0.22287,0.0998 -0.97323,0.71389 -0.64159,1.45799 l 3.87256,7.56696 c -6.79795,4.0598 -11.54866,11.40743 -12.22624,19.94165 l 48.88022,0 c -0.67757,-8.64365 -5.53251,-16.04837 -12.46373,-20.07359 l 3.74389,-7.38885 c 0.33041,-0.68591 -0.1808,-1.34316 -0.4816,-1.51571 -0.15038,-0.0863 -0.5149,-0.21664 -0.89721,-0.21935 z m -22.91699,14.15921 c 2.02192,0 3.65485,1.68874 3.65485,3.77525 -0.0103,2.07655 -1.63295,3.77689 -3.65485,3.77689 -2.01232,0 -3.63834,-1.70034 -3.63834,-3.77689 0,-2.08651 1.62604,-3.77524 3.63834,-3.77525 z m 17.00427,0 c 2.00273,0 3.63504,1.68874 3.63504,3.77525 0,2.07655 -1.63231,3.77689 -3.63504,3.77689 -2.02192,0 -3.64825,-1.70034 -3.64825,-3.77689 0,-2.08651 1.62633,-3.77524 3.64825,-3.77525 z"
       id="path4231"
       inkscape:export-xdpi="8.3068924"
       inkscape:export-ydpi="8.3068924"
       inkscape:connector-curvature="0" />
    <path
       style="color:#000000;clip-rule:nonzero;display:inline;overflow:visible;visibility:visible;opacity:1;isolation:auto;mix-blend-mode:normal;color-interpolation:sRGB;color-interpolation-filters:linearRGB;solid-color:#000000;solid-opacity:1;fill:#008000;fill-opacity:1;fill-rule:nonzero;stroke:none;stroke-width:0.07781854;stroke-linecap:round;stroke-linejoin:round;stroke-miterlimit:4;stroke-dasharray:none;stroke-dashoffset:0;stroke-opacity:1;color-rendering:auto;image-rendering:auto;shape-rendering:auto;text-rendering:auto;enable-background:accumulate"
       d="m 313.53703,520.67209 c -1.05787,-0.023 -2.19608,0.28459 -3.33652,1.03486 -3.05347,2.00877 -13.556,9.09184 -20.17696,13.73389 -3.41359,2.39334 -2.27231,6.05757 -1.37982,7.56368 0.89251,1.50613 4.34059,3.61331 7.39998,1.50651 0,0 13.55521,-9.18638 20.22762,-13.93076 4.91256,-3.49302 1.84986,-9.8088 -2.7343,-9.90818 z"
       id="path4225"
       inkscape:connector-curvature="0"
       inkscape:export-xdpi="8.3068924"
       inkscape:export-ydpi="8.3068924" />
    <path
       style="color:#000000;clip-rule:nonzero;display:inline;overflow:visible;visibility:visible;opacity:1;isolation:auto;mix-blend-mode:normal;color-interpolation:sRGB;color-interpolation-filters:linearRGB;solid-color:#000000;solid-opacity:1;fill:#008000;fill-opacity:1;fill-rule:nonzero;stroke:none;stroke-width:0.07781854;stroke-linecap:round;stroke-linejoin:round;stroke-miterlimit:4;stroke-dasharray:none;stroke-dashoffset:0;stroke-opacity:1;color-rendering:auto;image-rendering:auto;shape-rendering:auto;text-rendering:auto;enable-background:accumulate"
       d="m 226.69208,534.21693 c -3.02132,0 -5.46082,2.52871 -5.46082,5.64987 l 0,24.45091 0.0176,0 c 0.18327,2.94837 2.5497,5.27956 5.44327,5.27956 2.89356,0 5.25418,-2.33119 5.43744,-5.27956 l 0.0156,0 0,-24.45091 c 0,-3.12115 -2.44284,-5.64987 -5.45303,-5.64987 z"
       id="path4223"
       inkscape:connector-curvature="0"
       inkscape:export-xdpi="8.3068924"
       inkscape:export-ydpi="8.3068924" />
    <path
       style="color:#000000;clip-rule:nonzero;display:inline;overflow:visible;visibility:visible;opacity:1;isolation:auto;mix-blend-mode:normal;color-interpolation:sRGB;color-interpolation-filters:linearRGB;solid-color:#000000;solid-opacity:1;fill:#008000;fill-opacity:1;fill-rule:nonzero;stroke:none;stroke-width:0.07781854;stroke-linecap:round;stroke-linejoin:round;stroke-miterlimit:4;stroke-dasharray:none;stroke-dashoffset:0;stroke-opacity:1;color-rendering:auto;image-rendering:auto;shape-rendering:auto;text-rendering:auto;enable-background:accumulate"
       d="m 236.42878,534.9088 0,35.51287 48.88038,0 0,-35.51287 -48.88038,0 z"
       id="path6359"
       inkscape:connector-curvature="0"
       inkscape:export-xdpi="8.3068924"
       inkscape:export-ydpi="8.3068924" />
    <a
       id="a4201">
      <g
         id="g4205" />
    </a>
    <path
       id="path4259"
       style="color:#000000;clip-rule:nonzero;display:inline;overflow:visible;visibility:visible;opacity:1;isolation:auto;mix-blend-mode:normal;color-interpolation:sRGB;color-interpolation-filters:linearRGB;solid-color:#000000;solid-opacity:1;fill:#000000;fill-opacity:1;fill-rule:nonzero;stroke:none;stroke-width:0.07781854;stroke-linecap:round;stroke-linejoin:round;stroke-miterlimit:4;stroke-dasharray:none;stroke-dashoffset:0;stroke-opacity:1;color-rendering:auto;image-rendering:auto;shape-rendering:auto;text-rendering:auto;enable-background:accumulate"
       d="m 321.47785,526.74993 c -0.31782,2.57529 -1.72206,5.43489 -4.95228,7.88879 l -16.74242,11.39236 0.0271,31.54553 -83.49077,-0.38785 -0.0827,-91.20833 83.47095,-0.0989 -1.1e-4,-1.1e-4 0.0253,39.4733 9.95702,-6.75401 c 1.34616,-1.06207 2.82438,-1.47311 4.2564,-1.38172 l -0.004,-40.22252 -6.98495,-6.1662 -125.65072,-0.0196 0.0178,7.53465 c 16.40433,4.90223 20.78633,10.04069 23.9026,22.38593 l -0.002,184.92394 14.42857,0.0254 5.00432,-5.03173 2.16274,-7.2e-4 c 13.43334,-16.95856 31.76697,-7.80505 36.71638,-0.011 4.13427,-0.01 1.15896,-0.007 3.32333,-0.006 0.29457,-16.58727 7.70454,-24.9519 11.33497,-28.73452 3.63042,-3.78262 12.38487,-12.48894 32.89112,-12.51095 l 185.37947,-0.0785 7.01401,9.45766 8.4e-4,28.4266 c 0,0 5.07079,-6.20276 15.9865,-5.77334 10.9157,0.42944 18.26607,9.55134 19.99624,16.11106 1.7302,6.55969 0.32744,10.96354 0.32744,10.96354 21.93421,-0.046 11.78796,0.0263 33.72212,-0.0453 l -68.53334,-84.71155 -151.33569,0.10303 -0.002,-11.14212 151.39466,-0.007 -0.0718,-67.90279 19.96145,-0.0748 -0.39313,-20.0906 11.6829,-0.0337 c 0.54381,-4.77319 1.80056,-9.25012 8.89528,-13.07184 l -0.0166,-6.0947 -45.50434,-0.003 -0.11886,31.33905 -20.87785,0.18367 0.0569,-36.23253 20.86781,-30.26028 0.072,-17.81962 -1.9e-4,4.8e-4 -71.7515,0.6291 0.12054,17.05122 19.36601,30.58114 -0.15068,36.01087 -60.66955,-0.12046 -0.0754,-29.10743 C 386.257,485.95961 380.2436,479.25674 373.07156,479.27668 l -7.3853,0 c -6.1003,-0.0199 -13.74934,5.79412 -13.77221,18.18276 l 0.0562,29.35665 c -10.27892,-0.0453 -20.23077,-0.0133 -30.49307,-0.0671 z"
       inkscape:connector-curvature="0"
       sodipodi:nodetypes="cccccccccccccccccccccczcccczzccccccccccccccccccccccccccccccc"
       inkscape:export-xdpi="8.3068924"
       inkscape:export-ydpi="8.3068924" />
    <rect
       style="color:#000000;clip-rule:nonzero;display:inline;overflow:visible;visibility:visible;opacity:1;isolation:auto;mix-blend-mode:normal;color-interpolation:sRGB;color-interpolation-filters:linearRGB;solid-color:#000000;solid-opacity:1;fill:#000000;fill-opacity:1;fill-rule:nonzero;stroke:none;stroke-width:0.10097394;stroke-linecap:round;stroke-linejoin:round;stroke-miterlimit:4;stroke-dasharray:none;stroke-dashoffset:0;stroke-opacity:1;color-rendering:auto;image-rendering:auto;shape-rendering:auto;text-rendering:auto;enable-background:accumulate"
       id="rect4320"
       width="162.93834"
       height="8.661726"
       x="300.26483"
       y="675.19055"
       ry="4.330863"
       inkscape:export-xdpi="8.3068924"
       inkscape:export-ydpi="8.3068924" />
    <rect
       style="color:#000000;clip-rule:nonzero;display:inline;overflow:visible;visibility:visible;opacity:1;isolation:auto;mix-blend-mode:normal;color-interpolation:sRGB;color-interpolation-filters:linearRGB;solid-color:#000000;solid-opacity:1;fill:none;fill-opacity:1;fill-rule:nonzero;stroke:none;stroke-width:0.1;stroke-linecap:round;stroke-linejoin:round;stroke-miterlimit:4;stroke-dasharray:none;stroke-dashoffset:0;stroke-opacity:1;color-rendering:auto;image-rendering:auto;shape-rendering:auto;text-rendering:auto;enable-background:accumulate"
       id="rect4873"
       width="500.3154"
       height="500.3154"
       x="125.81414"
       y="258.55554"
       inkscape:export-xdpi="8.3068924"
       inkscape:export-ydpi="8.3068924" />
    <flowRoot
       xml:space="preserve"
       id="flowRoot5917"
       style="font-style:normal;font-variant:normal;font-weight:bold;font-stretch:condensed;font-size:70px;line-height:125%;font-family:Arial;-inkscape-font-specification:'Arial Bold Condensed';letter-spacing:0px;word-spacing:0px;fill:#ffffff;fill-opacity:1;stroke:none;stroke-width:1px;stroke-linecap:butt;stroke-linejoin:miter;stroke-opacity:1"
       transform="matrix(0.93704288,0,0,0.93704288,25.608924,8.1755446)"
       inkscape:export-xdpi="8.3068924"
       inkscape:export-ydpi="8.3068924"><flowRegion
         id="flowRegion5919"><rect
           id="rect5921"
           width="112"
           height="100"
           x="206"
           y="593.36218"
           style="font-style:normal;font-variant:normal;font-weight:bold;font-stretch:condensed;font-size:70px;font-family:Arial;-inkscape-font-specification:'Arial Bold Condensed';fill:#ffffff" /></flowRegion><flowPara
         id="flowPara5923"
         style="letter-spacing:5.94000006px">ED</flowPara></flowRoot>    <rect
       style="color:#000000;clip-rule:nonzero;display:inline;overflow:visible;visibility:visible;opacity:1;isolation:auto;mix-blend-mode:normal;color-interpolation:sRGB;color-interpolation-filters:linearRGB;solid-color:#000000;solid-opacity:1;fill:none;fill-opacity:0.41176471;fill-rule:nonzero;stroke:none;stroke-width:4.73400021;stroke-linecap:round;stroke-linejoin:round;stroke-miterlimit:36.40000153;stroke-dasharray:none;stroke-dashoffset:0;stroke-opacity:1;color-rendering:auto;image-rendering:auto;shape-rendering:auto;text-rendering:auto;enable-background:accumulate"
       id="rect6145"
       width="514.20447"
       height="514.64642"
       x="118.73483"
       y="251.18542"
       ry="0" />
  </g>
</svg>
