<?xml version="1.0" encoding="UTF-8" standalone="no"?>
<!-- Created with Inkscape (http://www.inkscape.org/) -->

<svg
   xmlns:dc="http://purl.org/dc/elements/1.1/"
   xmlns:cc="http://creativecommons.org/ns#"
   xmlns:rdf="http://www.w3.org/1999/02/22-rdf-syntax-ns#"
   xmlns:svg="http://www.w3.org/2000/svg"
   xmlns="http://www.w3.org/2000/svg"
   xmlns:sodipodi="http://sodipodi.sourceforge.net/DTD/sodipodi-0.dtd"
   xmlns:inkscape="http://www.inkscape.org/namespaces/inkscape"
   width="210mm"
   height="297mm"
   viewBox="0 0 744.09448819 1052.3622047"
   id="svg2"
   version="1.1"
   inkscape:version="0.91 r13725"
   sodipodi:docname="ED Monochrome 3 inverse.svg"
   inkscape:export-filename="C:\Users\Peter\Google Drive\Engine Driver\ED Icons\ED Monochrome4-016.png"
   inkscape:export-xdpi="2.4678311"
   inkscape:export-ydpi="2.4678311">
  <defs
     id="defs4" />
  <sodipodi:namedview
     id="base"
     pagecolor="#ffffff"
     bordercolor="#666666"
     borderopacity="1.0"
     inkscape:pageopacity="0.0"
     inkscape:pageshadow="2"
     inkscape:zoom="1"
     inkscape:cx="462.27182"
     inkscape:cy="519.7916"
     inkscape:document-units="px"
     inkscape:current-layer="layer1"
     showgrid="false"
     showguides="true"
     inkscape:guide-bbox="true"
     inkscape:window-width="1600"
     inkscape:window-height="847"
     inkscape:window-x="-8"
     inkscape:window-y="-8"
     inkscape:window-maximized="1">
    <sodipodi:guide
       position="177.13025,795.49515"
       orientation="0,1"
       id="guide4202" />
    <sodipodi:guide
       position="125.86501,728.67355"
       orientation="1,0"
       id="guide4204" />
    <sodipodi:guide
       position="632.15347,725.84513"
       orientation="1,0"
       id="guide4206" />
    <sodipodi:guide
       position="632.15347,288.85313"
       orientation="0,1"
       id="guide4208" />
    <sodipodi:guide
       position="621.94461,341.35581"
       orientation="0,1"
       id="guide4323" />
    <sodipodi:guide
       position="564.75,369.75001"
       orientation="1,0"
       id="guide4325" />
    <sodipodi:guide
       position="310.9375,413.81251"
       orientation="0,1"
       id="guide4333" />
    <sodipodi:guide
       position="177.30703,407.29352"
       orientation="1,0"
       id="guide4335" />
    <sodipodi:guide
       position="556.75001,457.37501"
       orientation="1,0"
       id="guide4337" />
    <sodipodi:guide
       position="539.75001,551.50001"
       orientation="0,1"
       id="guide4339" />
    <sodipodi:guide
       position="496.21219,645.58851"
       orientation="0,1"
       id="guide4390" />
  </sodipodi:namedview>
  <metadata
     id="metadata7">
    <rdf:RDF>
      <cc:Work
         rdf:about="">
        <dc:format>image/svg+xml</dc:format>
        <dc:type
           rdf:resource="http://purl.org/dc/dcmitype/StillImage" />
        <dc:title></dc:title>
      </cc:Work>
    </rdf:RDF>
  </metadata>
  <g
     inkscape:label="Layer 1"
     inkscape:groupmode="layer"
     id="layer1">
    <rect
       style="color:#000000;clip-rule:nonzero;display:inline;overflow:visible;visibility:visible;opacity:1;isolation:auto;mix-blend-mode:normal;color-interpolation:sRGB;color-interpolation-filters:linearRGB;solid-color:#000000;solid-opacity:1;fill:none;fill-opacity:0.6627451;fill-rule:nonzero;stroke:none;stroke-width:0.1;stroke-linecap:round;stroke-linejoin:round;stroke-miterlimit:4;stroke-dasharray:none;stroke-dashoffset:0;stroke-opacity:1;color-rendering:auto;image-rendering:auto;shape-rendering:auto;text-rendering:auto;enable-background:accumulate"
       id="rect4630"
       width="506.40601"
       height="506.88464"
       x="125.73315"
       y="256.60538"
       inkscape:export-filename="C:\Users\Peter\Google Drive\Engine Driver\ED Icons\icon_monochrome_e_72.png"
       inkscape:export-xdpi="12.796057"
       inkscape:export-ydpi="12.796057" />
    <path
       style="color:#000000;clip-rule:nonzero;display:inline;overflow:visible;visibility:visible;opacity:1;isolation:auto;mix-blend-mode:normal;color-interpolation:sRGB;color-interpolation-filters:linearRGB;solid-color:#000000;solid-opacity:1;fill:#ffffff;fill-opacity:1;fill-rule:nonzero;stroke:none;stroke-width:0.1;stroke-linecap:round;stroke-linejoin:round;stroke-miterlimit:4;stroke-dasharray:none;stroke-dashoffset:0;stroke-opacity:1;color-rendering:auto;image-rendering:auto;shape-rendering:auto;text-rendering:auto;enable-background:accumulate"
       d="M 186.93945 265.09766 L 185.22656 332.76953 L 225.64844 333.54688 L 232.35547 276.30664 L 242.90625 276.75781 L 235.37891 333.8457 L 272.46875 337.55664 L 282.87891 280.92578 L 315.05859 287.74609 L 301.60156 341.32227 L 332.86523 347.26758 L 348.78906 296.36523 L 360.12695 299.42578 L 343.15234 349.45117 L 366.56055 355.41406 L 386.33203 307.62891 L 405.81055 314.94922 L 385.58203 360.30664 L 405.95508 366.25977 L 428.2207 323.93359 L 452.30078 334.83203 L 431.14648 374.92969 L 461.32812 386.15234 L 485.20117 351.47461 L 504.97266 362.22266 L 481.18164 394.02344 L 462.45508 394.17188 L 462.62695 416.40234 L 490.0293 446.93359 L 489.81641 493.88281 L 403.97266 493.72461 L 403.86523 455.77539 C 403.62006 440.50135 395.11274 431.76307 384.96484 431.78906 L 374.51562 431.78906 C 365.88416 431.76316 355.05968 439.34399 355.02734 455.49609 L 355.10742 493.76953 L 301.30469 493.68359 L 301.30078 428.81641 L 291.41797 420.77539 L 126.30469 420.75 L 126.33008 430.57422 C 149.54098 436.96569 147.06584 444.44512 147.47656 459.75977 L 147.47461 700.86133 L 157.35352 700.89453 L 167.91797 691.66602 L 167.91016 663.2793 L 195.71484 640.50781 L 281.20508 640.60547 L 548.7207 640.57227 L 571.49609 662.95312 L 571.36328 693.24805 L 580.29492 701.18945 L 580.30859 717.66797 L 627.33008 717.74609 L 571.67969 607.23242 L 357.47461 607.22852 L 357.47266 592.70312 L 571.6875 592.69531 L 571.65039 493.89648 L 534.27148 493.93555 L 534.35156 446.69531 L 563.87891 416.58594 L 563.98047 393.35352 L 538.28125 393.55859 L 547.97266 382.03125 L 525.06641 365.2207 L 499.56641 393.56055 L 494.01562 393.66797 L 518.64648 360.66602 L 481.23828 339.14648 L 456.54492 376.37891 L 443.30273 371.12891 L 466.17969 331.3457 L 423.82031 312.05078 L 401.88086 356.52148 L 396.37109 354.93359 L 417.43359 309.52148 L 381.94922 296.39062 L 361.62891 345.66797 L 355.48438 343.64844 L 371.70898 293.39258 L 344.26562 285.25977 L 327.68555 337.64258 L 312.70312 334.99219 L 327.37109 281.18945 L 275.50586 270.19531 L 265.09961 328.19141 L 246.91406 326.63086 L 254.70117 268.91016 L 223.9375 266.28516 L 218.45898 324.80078 L 195.19727 324.07227 L 196.53711 265.4043 L 186.93945 265.09766 z M 571.65039 493.89648 L 571.69727 493.89648 L 571.65039 493.87891 L 571.65039 493.89648 z M 526.67383 375.48242 L 535.69336 381.75781 L 525.55859 393.66211 L 510.25 393.44727 L 526.67383 375.48242 z M 160.80664 439.76562 L 282.04492 439.76562 L 282.04492 530.85156 L 160.80664 530.85156 L 160.80664 439.76562 z M 172.91211 452.32422 L 172.91211 518.70508 L 267.44727 518.70508 L 267.44727 452.32422 L 172.91211 452.32422 z "
       id="path4331"
       inkscape:export-filename="C:\Users\Peter\Google Drive\Engine Driver\ED Icons\icon_monochrome_e_72.png"
       inkscape:export-xdpi="12.796057"
       inkscape:export-ydpi="12.796057" />
    <path
       style="color:#000000;clip-rule:nonzero;display:inline;overflow:visible;visibility:visible;opacity:1;isolation:auto;mix-blend-mode:normal;color-interpolation:sRGB;color-interpolation-filters:linearRGB;solid-color:#000000;solid-opacity:1;fill:#ffffff;fill-opacity:1;fill-rule:nonzero;stroke:none;stroke-width:0.1;stroke-linecap:round;stroke-linejoin:round;stroke-miterlimit:4;stroke-dasharray:none;stroke-dashoffset:0;stroke-opacity:1;color-rendering:auto;image-rendering:auto;shape-rendering:auto;text-rendering:auto;enable-background:accumulate"
       d="m 228.71431,656.60439 c 25.77802,-3.4e-4 46.67512,19.25455 46.67476,43.00774 3.7e-4,23.75321 -20.89673,43.01017 -46.67476,43.00983 -25.77805,3.4e-4 -46.67513,-19.25662 -46.67477,-43.00983 -3.5e-4,-23.75319 20.89673,-43.00808 46.67477,-43.00774 z"
       id="path4309"
       inkscape:export-filename="C:\Users\Peter\Google Drive\Engine Driver\ED Icons\icon_monochrome_e_72.png"
       inkscape:export-xdpi="12.796057"
       inkscape:export-ydpi="12.796057"
       inkscape:connector-curvature="0" />
    <path
       style="color:#000000;clip-rule:nonzero;display:inline;overflow:visible;visibility:visible;opacity:1;isolation:auto;mix-blend-mode:normal;color-interpolation:sRGB;color-interpolation-filters:linearRGB;solid-color:#000000;solid-opacity:1;fill:#ffffff;fill-opacity:1;fill-rule:nonzero;stroke:none;stroke-width:0.1;stroke-linecap:round;stroke-linejoin:round;stroke-miterlimit:4;stroke-dasharray:none;stroke-dashoffset:0;stroke-opacity:1;color-rendering:auto;image-rendering:auto;shape-rendering:auto;text-rendering:auto;enable-background:accumulate"
       d="m 341.35731,656.60439 c 25.77803,-3.4e-4 46.67511,19.25455 46.67476,43.00774 3.6e-4,23.75321 -20.89672,43.01017 -46.67476,43.00983 -25.77804,3.4e-4 -46.67513,-19.25662 -46.67476,-43.00983 -3.6e-4,-23.75319 20.89673,-43.00808 46.67476,-43.00774 z"
       id="path4307"
       inkscape:export-filename="C:\Users\Peter\Google Drive\Engine Driver\ED Icons\icon_monochrome_e_72.png"
       inkscape:export-xdpi="12.796057"
       inkscape:export-ydpi="12.796057"
       inkscape:connector-curvature="0" />
    <path
       style="color:#000000;clip-rule:nonzero;display:inline;overflow:visible;visibility:visible;opacity:1;isolation:auto;mix-blend-mode:normal;color-interpolation:sRGB;color-interpolation-filters:linearRGB;solid-color:#000000;solid-opacity:1;fill:#ffffff;fill-opacity:1;fill-rule:nonzero;stroke:none;stroke-width:0.1;stroke-linecap:round;stroke-linejoin:round;stroke-miterlimit:4;stroke-dasharray:none;stroke-dashoffset:0;stroke-opacity:1;color-rendering:auto;image-rendering:auto;shape-rendering:auto;text-rendering:auto;enable-background:accumulate"
       d="m 454.0003,656.60439 c 25.77803,-3.4e-4 46.67511,19.25455 46.67476,43.00774 3.6e-4,23.75321 -20.89671,43.01017 -46.67476,43.00983 -25.77712,-8.6e-4 -46.67305,-19.25746 -46.67268,-43.00983 -3.6e-4,-23.75236 20.89557,-43.00689 46.67268,-43.00774 z"
       id="path4305"
       inkscape:export-filename="C:\Users\Peter\Google Drive\Engine Driver\ED Icons\icon_monochrome_e_72.png"
       inkscape:export-xdpi="12.796057"
       inkscape:export-ydpi="12.796057"
       inkscape:connector-curvature="0" />
    <path
       style="color:#000000;clip-rule:nonzero;display:inline;overflow:visible;visibility:visible;opacity:1;isolation:auto;mix-blend-mode:normal;color-interpolation:sRGB;color-interpolation-filters:linearRGB;solid-color:#000000;solid-opacity:1;fill:#ffffff;fill-opacity:1;fill-rule:nonzero;stroke:none;stroke-width:0.1;stroke-linecap:round;stroke-linejoin:round;stroke-miterlimit:4;stroke-dasharray:none;stroke-dashoffset:0;stroke-opacity:1;color-rendering:auto;image-rendering:auto;shape-rendering:auto;text-rendering:auto;enable-background:accumulate"
       d="m 543.53146,695.15616 c 14.22322,6.5e-4 25.75302,10.62584 25.75373,23.73187 5.7e-4,13.10685 -11.5296,23.73328 -25.75373,23.73393 -14.22506,5.4e-4 -25.75848,-10.62625 -25.75791,-23.73393 7e-4,-13.10686 11.53376,-23.73239 25.75791,-23.73187 z"
       id="path4292"
       inkscape:export-filename="C:\Users\Peter\Google Drive\Engine Driver\ED Icons\icon_monochrome_e_72.png"
       inkscape:export-xdpi="12.796057"
       inkscape:export-ydpi="12.796057"
       inkscape:connector-curvature="0" />
    <a
       id="a4201"
       inkscape:export-xdpi="22.191423"
       inkscape:export-ydpi="22.191423">
      <g
         id="g4205" />
    </a>
    <g
       style="font-style:normal;font-weight:normal;font-size:173.76042175px;line-height:125%;font-family:sans-serif;letter-spacing:0px;word-spacing:0px;fill:#ffffff;fill-opacity:1;stroke:none;stroke-width:1px;stroke-linecap:butt;stroke-linejoin:miter;stroke-opacity:1"
       id="text4345" />
    <g
       transform="matrix(5.5313062,0,0,5.7351947,213.80829,530.62187)"
       id="android"
       style="fill:#ffffff"
       inkscape:export-xdpi="22.191423"
       inkscape:export-ydpi="22.191423">
      <g
         id="g50"
         style="fill:#ffffff" />
    </g>
  </g>
</svg>
