<?xml version="1.0" encoding="UTF-8" standalone="no"?>
<!-- Created with Inkscape (http://www.inkscape.org/) -->

<svg
   xmlns:dc="http://purl.org/dc/elements/1.1/"
   xmlns:cc="http://creativecommons.org/ns#"
   xmlns:rdf="http://www.w3.org/1999/02/22-rdf-syntax-ns#"
   xmlns:svg="http://www.w3.org/2000/svg"
   xmlns="http://www.w3.org/2000/svg"
   xmlns:sodipodi="http://sodipodi.sourceforge.net/DTD/sodipodi-0.dtd"
   xmlns:inkscape="http://www.inkscape.org/namespaces/inkscape"
   width="210mm"
   height="297mm"
   viewBox="0 0 744.09448819 1052.3622047"
   id="svg2"
   version="1.1"
   inkscape:version="0.91 r13725"
   sodipodi:docname="ED Monochrome5.svg"
   inkscape:export-filename="C:\Users\Peter\Google Drive\Engine Driver\ED Icons\ED Monochrome4-016.png"
   inkscape:export-xdpi="2.4678311"
   inkscape:export-ydpi="2.4678311">
  <defs
     id="defs4" />
  <sodipodi:namedview
     id="base"
     pagecolor="#ffffff"
     bordercolor="#666666"
     borderopacity="1.0"
     inkscape:pageopacity="0.0"
     inkscape:pageshadow="2"
     inkscape:zoom="1"
     inkscape:cx="344.37972"
     inkscape:cy="545.8513"
     inkscape:document-units="px"
     inkscape:current-layer="layer1"
     showgrid="false"
     showguides="false"
     inkscape:guide-bbox="true"
     inkscape:window-width="1600"
     inkscape:window-height="847"
     inkscape:window-x="-8"
     inkscape:window-y="-8"
     inkscape:window-maximized="1" />
  <metadata
     id="metadata7">
    <rdf:RDF>
      <cc:Work
         rdf:about="">
        <dc:format>image/svg+xml</dc:format>
        <dc:type
           rdf:resource="http://purl.org/dc/dcmitype/StillImage" />
        <dc:title></dc:title>
      </cc:Work>
    </rdf:RDF>
  </metadata>
  <g
     inkscape:label="Layer 1"
     inkscape:groupmode="layer"
     id="layer1">
    <rect
       style="color:#000000;clip-rule:nonzero;display:inline;overflow:visible;visibility:visible;opacity:1;isolation:auto;mix-blend-mode:normal;color-interpolation:sRGB;color-interpolation-filters:linearRGB;solid-color:#000000;solid-opacity:1;fill:#a9a9a9;fill-opacity:0.66274512;fill-rule:nonzero;stroke:none;stroke-width:0.1;stroke-linecap:round;stroke-linejoin:round;stroke-miterlimit:4;stroke-dasharray:none;stroke-dashoffset:0;stroke-opacity:1;color-rendering:auto;image-rendering:auto;shape-rendering:auto;text-rendering:auto;enable-background:accumulate"
       id="rect4630"
       width="505.58133"
       height="504.87424"
       x="125.86501"
       y="257.57419" />
    <a
       id="a4201"
       inkscape:export-xdpi="22.191423"
       inkscape:export-ydpi="22.191423">
      <g
         id="g4205" />
    </a>
    <g
       style="font-style:normal;font-weight:normal;font-size:173.76042175px;line-height:125%;font-family:sans-serif;letter-spacing:0px;word-spacing:0px;fill:#ffffff;fill-opacity:1;stroke:none;stroke-width:1px;stroke-linecap:butt;stroke-linejoin:miter;stroke-opacity:1"
       id="text4345" />
    <g
       transform="matrix(5.5313062,0,0,5.7351947,213.80829,530.62187)"
       id="android"
       style="fill:#ffffff"
       inkscape:export-xdpi="22.191423"
       inkscape:export-ydpi="22.191423">
      <g
         id="g50"
         style="fill:#ffffff" />
    </g>
    <path
       inkscape:connector-curvature="0"
       style="fill:#ffffff;fill-rule:evenodd;stroke:#000000;stroke-width:0.1;stroke-linecap:butt;stroke-linejoin:miter;stroke-miterlimit:4;stroke-dasharray:none;stroke-opacity:1"
       d="m 399.87541,419.63774 27.84331,-45.21304 -44.8125,-29.75 -28.125,55.6875 -2.78125,-1.46875 27.40625,-56.0625 -38.84375,-22.1875 -27.3125,61.0625 -4.03125,-1.6875 25.53125,-62.875 -27.625,-12.875 -25.875,64.9375 -16.4375,-5.84375 24.17188,-67.84375 L 238.5,276.9247 l -22,72.75 -20.09375,-4.90625 21.0625,-75.3125 -30.35263,-7.19118 -19.95987,77.53493 -29.39921,-3.8027 10.91952,-76.72557 -11.05049,-1.08492 -11.67356,87.52832 49.39124,6.14737 20.07322,-77.05362 8.70803,1.80362 -21.1875,76.03125 41.03125,10.09375 21.59375,-71.625 29.5625,10.84375 -24.28125,67.90625 36.65625,13.1875 25.46875,-64.03125 7.71875,3.65625 -25.53125,63.0625 23.6875,10.1875 26.71875,-59.90625 19.5625,11.21875 -27.625,56.34375 21.96875,11.5625 27.65625,-54.53125 25.84375,17.0625 -25.68584,41.96411 12.59736,-0.004 z"
       id="path4260"
       sodipodi:nodetypes="cccccccccccccccccccccccccccccccccccccccccccccc" />
    <path
       inkscape:connector-curvature="0"
       style="fill:#ffffff;fill-rule:evenodd;stroke:none;stroke-width:0.1;stroke-linecap:butt;stroke-linejoin:miter;stroke-miterlimit:4;stroke-dasharray:none;stroke-opacity:1"
       d="m 445.25001,401.53408 21.08984,16.57422 -1.09505,1.53385 13.35822,-0.0104 2.61574,-3.6758 -38.84375,-30.40625 -21.78469,34.07735 12.78432,0.0184 z"
       id="path4271"
       sodipodi:nodetypes="ccccccccc" />
    <path
       style="color:#000000;clip-rule:nonzero;display:inline;overflow:visible;visibility:visible;opacity:1;isolation:auto;mix-blend-mode:normal;color-interpolation:sRGB;color-interpolation-filters:linearRGB;solid-color:#000000;solid-opacity:1;fill:#ffffff;fill-opacity:1;fill-rule:nonzero;stroke:none;stroke-width:0.07781854;stroke-linecap:round;stroke-linejoin:round;stroke-miterlimit:4;stroke-dasharray:none;stroke-dashoffset:0;stroke-opacity:1;color-rendering:auto;image-rendering:auto;shape-rendering:auto;text-rendering:auto;enable-background:accumulate"
       d="m 148.87109,419.64062 c -12.63455,10e-6 -22.80664,8.84441 -22.80664,19.83204 l 0,304.11132 c 0,10.98764 10.17209,19.83204 22.80664,19.83204 l 460.46485,0 c 12.63456,0 22.80664,-8.8444 22.80664,-19.83204 l 0,-304.11132 c 0,-10.98763 -10.17208,-19.83204 -22.80664,-19.83204 z m 335.94141,0.12696 25.3125,22.21875 -25.63281,34.81055 46.36914,-0.32422 -0.084,19.61132 -24.34375,29.5586 -0.0664,35.08398 24.35547,-0.16992 0.13867,-28.99414 53.08398,0.002 0.0195,5.63867 c -8.27648,3.53576 -9.74256,7.67772 -10.37695,12.09376 l -13.62891,0.0312 0.17188,32.125 -22.58984,-0.20703 -0.0371,50.74024 79.41406,87.63867 -48.03711,0.10938 c 0.47512,1.77422 0.71739,3.60272 0.7207,5.43945 1.5e-4,11.69512 -9.48066,21.17593 -21.17578,21.17578 -11.69512,1.5e-4 -21.17593,-9.48066 -21.17578,-21.17578 0.004,-7.90823 4.41353,-15.15547 11.43555,-18.79297 l -3.28907,-3.01953 0.10938,-39.875 -8.22852,-8.79883 -190.36914,-0.0176 -0.0937,14.62305 -114.48828,0.15625 -0.14062,50.2793 -5.76172,4.67773 -28.96094,-0.0215 0.002,-187.90821 C 172.16416,525.89605 155.3868,520.30106 136.25,515.76562 l -0.004,-7.02343 169.84766,-0.0781 8.19531,5.85352 0,46.24023 44.3086,-0.14648 0.17578,-34.97266 c 1.52645,-12.65109 6.67453,-16.93494 13.75781,-16.82226 l 12.85742,0 c 8.16784,-0.16447 13.26076,6.1829 13.46289,17.02148 l 0.93164,34.81641 69.93164,0.0371 0.17578,-34.87891 -22.59179,-29.85547 -0.14063,-18.90039 30.98047,-0.2168 -6.82422,-0.0859 24.18555,-33.17383 -9.28125,-8.125 -27.375,34.90625 -20.875,-12.0625 27.08008,-38.36133 13.35547,0.0449 -24.7793,34.87891 2.53125,1.46875 z m -6.67383,57.07226 6.26172,0.0801 0.0918,-0.12304 z m 60.54688,229.54102 1.61328,1.48047 -0.125,11.9375 28.70703,-0.0644 -28.70508,0.13867 0.14321,-12.02019 z m -138.95703,-286.48047 -1.66602,2.71289 15.15625,8.625 7.2207,-11.32031 12.78321,-0.006 -16.62891,25.60547 -33.5625,-18.90625 4.10156,-6.70117 z m -100.97461,114.90625 -90.58399,0.0937 0.0899,86.34961 90.60546,0.36719 -0.0293,-33.35547 13.85156,-9.9043 c 12.60875,-8.35616 0.70568,-21.77739 -7.04688,-16.4414 l -6.85937,4.57226 z m -61.65039,12.12891 c 0.44324,0.0611 0.63281,0.46679 0.63281,0.46679 l 4.21484,7.85743 c 3.44121,-1.732 7.29437,-2.69922 11.37305,-2.69922 3.97834,0 7.73904,0.91981 11.10351,2.57226 l 4.14844,-7.73047 c 0,0 0.33178,-0.72138 1.16406,-0.38476 0,0 0.48341,0.26192 0.34766,1.08203 l -4.03711,7.90234 c 7.36643,4.27798 12.52599,12.14762 13.2461,21.33399 l -51.94922,0 c 0.72011,-9.07009 5.7674,-16.87865 12.99218,-21.19336 l -4.11523,-8.04297 c -0.12986,-0.82011 0.34766,-1.08203 0.34766,-1.08203 0.20659,-0.0842 0.3835,-0.1024 0.53125,-0.082 z m 3.94336,16.10351 c -1.23954,0 -2.24219,1.04093 -2.24219,2.32617 0,1.27911 1.00264,2.32618 2.24219,2.32618 1.24544,0 2.24399,-1.04707 2.25,-2.32618 0,-1.28524 -1.00455,-2.32617 -2.25,-2.32617 z m 24.32421,0 c -1.24545,0 -2.24804,1.04093 -2.24804,2.32617 0,1.27911 1.00259,2.32618 2.24804,2.32618 1.23364,0 2.23829,-1.04707 2.23829,-2.32618 0,-1.28524 -1.00465,-2.32617 -2.23829,-2.32617 z m 43.92579,1.22852 c 4.87199,0.10568 8.12723,6.8189 2.90624,10.53125 -7.09138,5.04228 -21.49804,14.80469 -21.49804,14.80469 -3.25148,2.23909 -6.91669,-8.9e-4 -7.86524,-1.60157 -0.94853,-1.60069 -2.16112,-5.4935 1.4668,-8.03711 7.03668,-4.93354 18.19816,-12.46274 21.44336,-14.59765 1.21205,-0.79737 2.42257,-1.124 3.54688,-1.09961 z m -90.17774,14.39648 c 3.19919,0 5.79688,2.68678 5.79688,6.00391 l 0,25.98633 -0.0176,0 c -0.19478,3.13352 -2.70406,5.61132 -5.7793,5.61132 -3.07526,0 -5.59038,-2.4778 -5.78516,-5.61132 l -0.0176,0 0,-25.98633 c 0,-3.31713 2.59171,-6.00391 5.80273,-6.00391 z m 8.22852,0.73438 51.94922,0 0,37.74218 -51.94922,0 z m 85.83789,99.22656 c 18.6951,-3.8e-4 33.85086,15.15451 33.85156,33.84961 3.8e-4,18.69586 -15.1557,33.85194 -33.85156,33.85156 -18.6951,-7e-4 -33.84999,-15.15646 -33.84961,-33.85156 7e-4,-18.69433 15.15528,-33.84891 33.84961,-33.84961 z m 82.82617,0 c 18.6951,-3.8e-4 33.85086,15.15451 33.85156,33.84961 3.8e-4,18.69586 -15.1557,33.85194 -33.85156,33.85156 -18.6951,-7e-4 -33.84999,-15.15646 -33.84961,-33.85156 7e-4,-18.69433 15.15528,-33.84891 33.84961,-33.84961 z m 82.82617,0 c 18.6951,-3.8e-4 33.85086,15.15451 33.85156,33.84961 3.8e-4,18.69586 -15.1557,33.85194 -33.85156,33.85156 -18.6951,-7e-4 -33.84999,-15.15646 -33.84961,-33.85156 7e-4,-18.69433 15.15528,-33.84891 33.84961,-33.84961 z m -232.76172,25.37305 c 11.69512,-1.5e-4 21.17593,9.48066 21.17578,21.17578 1.5e-4,11.69512 -9.48066,21.17593 -21.17578,21.17578 -11.69436,-9.3e-4 -21.17398,-9.48142 -21.17383,-21.17578 -1.5e-4,-11.69436 9.47947,-21.17485 21.17383,-21.17578 z"
       id="path4466"
       inkscape:connector-curvature="0"
       sodipodi:nodetypes="ssssssssscccccccccccccccccccccccccccccccccccccccccccccccccccccccccccccccccccccccccccccccccccccccsccscccccccccccssscssssssssccsssscccsccssccccccccccccccccccccccccccc" />
  </g>
</svg>
