<?xml version="1.0" encoding="UTF-8" standalone="no"?>
<!-- Created with Inkscape (http://www.inkscape.org/) -->

<svg
   xmlns:osb="http://www.openswatchbook.org/uri/2009/osb"
   xmlns:dc="http://purl.org/dc/elements/1.1/"
   xmlns:cc="http://creativecommons.org/ns#"
   xmlns:rdf="http://www.w3.org/1999/02/22-rdf-syntax-ns#"
   xmlns:svg="http://www.w3.org/2000/svg"
   xmlns="http://www.w3.org/2000/svg"
   xmlns:xlink="http://www.w3.org/1999/xlink"
   xmlns:sodipodi="http://sodipodi.sourceforge.net/DTD/sodipodi-0.dtd"
   xmlns:inkscape="http://www.inkscape.org/namespaces/inkscape"
   width="171.33333mm"
   height="171.33333mm"
   viewBox="0 0 607.0866 607.08659"
   id="svg2"
   version="1.1"
   inkscape:version="0.92.3 (2405546, 2018-03-11)"
   sodipodi:docname="esumc2knob_on.svg"
   inkscape:export-filename="C:\Users\uketmh\Documents\ModelRailway\EngineDriver\EngineDriver\src\main\res\drawable\esumc2knob_on.png"
   inkscape:export-xdpi="5.4000001"
   inkscape:export-ydpi="5.4000001">
  <sodipodi:namedview
     id="base"
     pagecolor="#ffffff"
     bordercolor="#666666"
     borderopacity="1.0"
     inkscape:pageopacity="0.0"
     inkscape:pageshadow="2"
     inkscape:zoom="1"
     inkscape:cx="481.61807"
     inkscape:cy="273.0875"
     inkscape:document-units="px"
     inkscape:current-layer="g4165"
     showgrid="false"
     fit-margin-top="1"
     fit-margin-left="1"
     fit-margin-right="1"
     fit-margin-bottom="1"
     units="mm"
     inkscape:window-width="1920"
     inkscape:window-height="1027"
     inkscape:window-x="-8"
     inkscape:window-y="-8"
     inkscape:window-maximized="1" />
  <defs
     id="defs4">
    <linearGradient
       inkscape:collect="always"
       id="linearGradient5606">
      <stop
         style="stop-color:#ffffff;stop-opacity:1;"
         offset="0"
         id="stop5602" />
      <stop
         style="stop-color:#ffffff;stop-opacity:0;"
         offset="1"
         id="stop5604" />
    </linearGradient>
    <linearGradient
       inkscape:collect="always"
       id="linearGradient5596">
      <stop
         style="stop-color:#ffffff;stop-opacity:1;"
         offset="0"
         id="stop5592" />
      <stop
         style="stop-color:#ffffff;stop-opacity:0;"
         offset="1"
         id="stop5594" />
    </linearGradient>
    <linearGradient
       id="linearGradient4149">
      <stop
         style="stop-color:#000000;stop-opacity:1;"
         offset="0"
         id="stop5589" />
    </linearGradient>
    <linearGradient
       osb:paint="solid"
       id="linearGradient4155">
      <stop
         id="stop4157"
         offset="0"
         style="stop-color:#000000;stop-opacity:1;" />
    </linearGradient>
    <linearGradient
       id="linearGradient4149-4">
      <stop
         id="stop4151"
         offset="0"
         style="stop-color:#000000;stop-opacity:1;" />
    </linearGradient>
    <linearGradient
       osb:paint="gradient"
       id="linearGradient4139">
      <stop
         id="stop4141"
         offset="0"
         style="stop-color:#2b2200;stop-opacity:1;" />
      <stop
         id="stop4143"
         offset="1"
         style="stop-color:#2b2200;stop-opacity:0;" />
    </linearGradient>
    <linearGradient
       spreadMethod="pad"
       gradientUnits="userSpaceOnUse"
       y2="395.0596"
       x2="928.63055"
       y1="-206.9404"
       x1="322.63055"
       id="linearGradient4185"
       xlink:href="#linearGradient4139"
       inkscape:collect="always" />
    <linearGradient
       inkscape:collect="always"
       xlink:href="#linearGradient5596"
       id="linearGradient5598"
       x1="-156.89746"
       y1="2.8421709e-014"
       x2="156.8972"
       y2="2.8421709e-014"
       gradientUnits="userSpaceOnUse" />
    <linearGradient
       inkscape:collect="always"
       xlink:href="#linearGradient5606"
       id="linearGradient5612"
       x1="478.64978"
       y1="19.259123"
       x2="584.58728"
       y2="19.259123"
       gradientUnits="userSpaceOnUse" />
    <linearGradient
       inkscape:collect="always"
       xlink:href="#linearGradient5596"
       id="linearGradient5619"
       gradientUnits="userSpaceOnUse"
       x1="-156.89746"
       y1="2.8421709e-014"
       x2="156.8972"
       y2="2.8421709e-014" />
  </defs>
  <metadata
     id="metadata7">
    <rdf:RDF>
      <cc:Work
         rdf:about="">
        <dc:format>image/svg+xml</dc:format>
        <dc:type
           rdf:resource="http://purl.org/dc/dcmitype/StillImage" />
        <dc:title />
      </cc:Work>
    </rdf:RDF>
  </metadata>
  <g
     transform="translate(-65.224067,-173.70181)"
     id="layer1"
     inkscape:groupmode="layer"
     inkscape:label="Layer 1">
    <g
       transform="matrix(0.70710678,-0.70710678,0.70710678,0.70710678,-256.86318,384.18552)"
       id="g4165">
      <rect
         inkscape:export-ydpi="14.4"
         inkscape:export-xdpi="14.4"
         inkscape:export-filename="C:\Users\uketmh\Documents\ModelRailway\JMRIDev\EngineDriver\res\drawable-xhdpi\flashlight_on.png"
         rx="95"
         ry="95"
         transform="matrix(0.70710678,0.70710678,-0.70710678,0.70710678,0,0)"
         y="-196.9404"
         x="335.63055"
         height="580"
         width="580"
         id="rect5645"
         style="fill:#438db8;fill-opacity:1;stroke:url(#linearGradient4185);stroke-width:20.00000007;stroke-miterlimit:4;stroke-dasharray:none" />
      <g
         id="g4746"
         inkscape:label="Gear128"
         transform="matrix(1.5437476,0,0,1.5437476,376.43659,508.9135)"
         style="fill-opacity:1;fill:url(#linearGradient5598)" />
      <g
         id="g5617"
         transform="translate(3.5655345,-0.72282334)"
         style="stroke-width:4.68750011;stroke-miterlimit:4;stroke-dasharray:none">
        <path
           inkscape:connector-curvature="0"
           d="m 151.55202,-3.19437 2.42819,1.30465 2.41699,1.41339 v 0.95266 l -2.41699,1.41339 -2.42819,1.30465 -0.0258,1.05141 2.36125,1.42223 2.34473,1.53028 -0.0468,0.95152 -2.48343,1.29308 -2.48928,1.18394 -0.0774,1.04888 2.28862,1.53637 2.26682,1.64349 -0.0934,0.94808 -2.54389,1.16967 -2.54437,1.06037 -0.12875,1.04381 2.21048,1.64683 2.18344,1.75273 -0.13978,0.94235 -2.59822,1.04344 -2.59334,0.93425 -0.17981,1.03624 2.12701,1.7533 2.09481,1.85776 -0.18585,0.93436 -2.64629,0.91469 -2.63606,0.80588 -0.23043,1.02617 2.03841,1.85556 2.00113,1.9583 -0.23147,0.92412 -2.68799,0.78374 -2.67242,0.67556 -0.28051,1.01363 1.94491,1.95334 1.90263,2.05414 -0.27654,0.91164 -2.7232,0.65091 -2.70235,0.54361 -0.32991,0.99865 1.84672,2.04642 1.79955,2.14502 -0.32094,0.89698 -2.75186,0.5165 -2.72577,0.41036 -0.37851,0.98125 1.74408,2.13458 1.69213,2.23073 -0.36457,0.88015 -2.77389,0.38086 -2.74262,0.27611 -0.4262,0.9615 1.63724,2.21758 1.58064,2.31108 -0.40732,0.8612 -2.78924,0.24429 -2.75286,0.14121 -0.47287,0.93942 1.52646,2.29525 1.46533,2.38585 -0.44908,0.84018 -2.79786,0.10713 -2.75648,0.006 -0.5184,0.9151 1.412,2.36738 1.3465,2.45488 -0.48977,0.81713 -2.79975,-0.03029 -2.75345,-0.12929 -0.56267,0.88855 1.29414,2.43381 1.22442,2.51799 -0.52927,0.79212 -2.79489,-0.16763 -2.7438,-0.26424 -0.60559,0.85987 1.17316,2.49438 1.09939,2.57504 -0.5675,0.76519 -2.7833,-0.30456 -2.72752,-0.39856 -0.64705,0.82912 1.04935,2.54894 0.97172,2.62588 -0.60437,0.73643 -2.765,-0.44077 -2.70468,-0.53191 -0.68696,0.79637 0.92302,2.59736 0.8417,2.6704 -0.63977,0.70588 -2.74005,-0.5759 -2.67532,-0.66399 -0.7252,0.76171 0.79445,2.63952 0.70966,2.70848 -0.67364,0.67364 -2.70848,-0.70966 -2.63952,-0.79445 -0.76171,0.7252 0.66399,2.67532 0.5759,2.74005 -0.70588,0.63977 -2.6704,-0.8417 -2.59736,-0.92302 -0.79637,0.68696 0.53191,2.70468 0.44077,2.765 -0.73643,0.60437 -2.62588,-0.97172 -2.54894,-1.04935 -0.82912,0.64705 0.39856,2.72752 0.30456,2.7833 -0.76519,0.5675 -2.57504,-1.09939 -2.49438,-1.17316 -0.85987,0.60559 0.26424,2.7438 0.16763,2.79489 -0.79212,0.52927 -2.51799,-1.22442 -2.43381,-1.29414 -0.88855,0.56267 0.12929,2.75345 0.03029,2.79975 -0.81713,0.48977 -2.45488,-1.3465 -2.36738,-1.412 -0.9151,0.5184 -0.006,2.75648 -0.10713,2.79786 -0.84018,0.44908 -2.38585,-1.46533 -2.29525,-1.52646 -0.93942,0.47287 -0.14121,2.75286 -0.24429,2.78924 -0.8612,0.40732 -2.31108,-1.58064 -2.21758,-1.63724 -0.9615,0.4262 -0.27611,2.74262 -0.38086,2.77389 -0.88015,0.36457 -2.23073,-1.69213 -2.13458,-1.74408 -0.98125,0.37851 -0.41036,2.72577 -0.5165,2.75186 -0.89698,0.32094 -2.14502,-1.79955 -2.04642,-1.84672 -0.99865,0.32991 -0.54361,2.70235 -0.65091,2.7232 -0.91164,0.27654 -2.05414,-1.90263 -1.95334,-1.94491 -1.01363,0.28051 -0.67556,2.67242 -0.78374,2.68799 -0.92412,0.23147 -1.9583,-2.00113 -1.85556,-2.03841 -1.02617,0.23043 -0.80588,2.63606 -0.91469,2.64629 -0.93436,0.18585 -1.85776,-2.09481 -1.7533,-2.12701 -1.03624,0.17981 -0.93425,2.59334 -1.04344,2.59822 -0.94235,0.13978 -1.75273,-2.18344 -1.64683,-2.21048 -1.04381,0.12875 -1.06037,2.54437 -1.16967,2.54389 -0.94808,0.0934 -1.64349,-2.26682 -1.53637,-2.28862 -1.04888,0.0774 -1.18394,2.48928 -1.29308,2.48343 -0.95152,0.0468 -1.53028,-2.34473 -1.42223,-2.36125 -1.05141,0.0258 -1.30465,2.42819 -1.41339,2.41699 h -0.95266 l -1.41339,-2.41699 -1.30465,-2.42819 -1.05141,-0.0258 -1.42223,2.36125 -1.53028,2.34473 -0.95152,-0.0468 -1.29308,-2.48343 -1.18394,-2.48928 -1.04888,-0.0774 -1.53637,2.28862 -1.64349,2.26682 -0.94808,-0.0934 -1.16967,-2.54389 -1.06037,-2.54437 -1.04381,-0.12875 -1.64683,2.21048 -1.75273,2.18344 -0.94235,-0.13978 -1.04344,-2.59822 -0.93425,-2.59334 -1.03624,-0.17981 -1.7533,2.12701 -1.85776,2.09481 -0.93436,-0.18585 -0.91469,-2.64629 -0.80588,-2.63606 -1.02617,-0.23043 -1.85556,2.03841 -1.9583,2.00113 -0.92412,-0.23147 -0.78374,-2.68799 -0.67556,-2.67242 -1.01363,-0.28051 -1.95334,1.94491 -2.05414,1.90263 -0.91164,-0.27654 -0.65091,-2.7232 -0.54361,-2.70235 -0.99865,-0.32991 -2.04642,1.84672 -2.14502,1.79955 -0.89698,-0.32094 -0.5165,-2.75186 -0.41036,-2.72577 -0.98125,-0.37851 -2.13458,1.74408 -2.23073,1.69213 -0.88015,-0.36457 -0.38086,-2.77389 -0.27611,-2.74262 -0.9615,-0.4262 -2.21758,1.63724 -2.31108,1.58064 -0.8612,-0.40732 -0.24429,-2.78924 -0.14121,-2.75286 -0.93942,-0.47287 -2.29525,1.52646 -2.38585,1.46533 -0.84018,-0.44908 -0.10713,-2.79786 -0.006,-2.75648 -0.9151,-0.5184 -2.36738,1.412 -2.45488,1.3465 -0.81713,-0.48977 0.03029,-2.79975 0.12929,-2.75345 -0.88855,-0.56267 -2.43381,1.29414 -2.51799,1.22442 -0.79212,-0.52927 0.16763,-2.79489 0.26424,-2.7438 -0.85987,-0.60559 -2.49438,1.17316 -2.57504,1.09939 -0.76519,-0.5675 0.30456,-2.7833 0.39856,-2.72752 -0.82912,-0.64705 -2.54894,1.04935 -2.62588,0.97172 -0.73643,-0.60437 0.44077,-2.765 0.53191,-2.70468 -0.79637,-0.68696 -2.59736,0.92302 -2.6704,0.8417 -0.70588,-0.63977 0.5759,-2.74005 0.66399,-2.67532 -0.76171,-0.7252 -2.63952,0.79445 -2.70848,0.70966 -0.67364,-0.67364 0.70966,-2.70848 0.79445,-2.63952 -0.7252,-0.76171 -2.67532,0.66399 -2.74005,0.5759 -0.63977,-0.70588 0.8417,-2.6704 0.92302,-2.59736 -0.68696,-0.79637 -2.70468,0.53191 -2.765,0.44077 -0.60437,-0.73643 0.97172,-2.62588 1.04935,-2.54894 -0.64705,-0.82912 -2.72752,0.39856 -2.7833,0.30456 -0.5675,-0.76519 1.09939,-2.57504 1.17316,-2.49438 -0.60559,-0.85987 -2.7438,0.26424 -2.79489,0.16763 -0.52927,-0.79212 1.22442,-2.51799 1.29414,-2.43381 -0.56267,-0.88855 -2.75345,0.12929 -2.79975,0.03029 -0.48977,-0.81713 1.3465,-2.45488 1.412,-2.36738 -0.5184,-0.9151 -2.75648,-0.006 -2.79786,-0.10713 -0.44908,-0.84018 1.46533,-2.38585 1.52646,-2.29525 -0.47287,-0.93942 -2.75286,-0.14121 -2.78924,-0.24429 -0.40732,-0.8612 1.58064,-2.31108 1.63724,-2.21758 -0.4262,-0.9615 -2.74262,-0.27611 -2.77389,-0.38086 -0.36457,-0.88015 1.69213,-2.23073 1.74408,-2.13458 -0.37851,-0.98125 -2.72577,-0.41036 -2.75186,-0.5165 -0.32094,-0.89698 1.79955,-2.14502 1.84672,-2.04642 -0.32991,-0.99865 -2.70235,-0.54361 -2.7232,-0.65091 -0.27654,-0.91164 1.90263,-2.05414 1.94491,-1.95334 -0.28051,-1.01363 -2.67242,-0.67556 -2.68799,-0.78374 -0.23147,-0.92412 2.00113,-1.9583 2.03841,-1.85556 -0.23043,-1.02617 -2.63606,-0.80588 -2.64629,-0.91469 -0.18585,-0.93436 2.09481,-1.85776 2.12701,-1.7533 -0.17981,-1.03624 -2.59334,-0.93425 -2.59822,-1.04344 -0.13978,-0.94235 2.18344,-1.75273 2.21048,-1.64683 -0.12875,-1.04381 -2.54437,-1.06037 -2.54389,-1.16967 -0.0934,-0.94808 2.26682,-1.64349 2.28862,-1.53637 -0.0774,-1.04888 -2.48928,-1.18394 -2.48343,-1.29308 -0.0468,-0.95152 2.34473,-1.53028 2.36125,-1.42223 -0.0258,-1.05141 -2.42819,-1.30465 -2.41699,-1.41339 v -0.95266 l 2.41699,-1.41339 2.42819,-1.30465 0.0258,-1.05141 -2.36125,-1.42223 -2.34473,-1.53028 0.0468,-0.95152 2.48343,-1.29308 2.48928,-1.18394 0.0774,-1.04888 -2.28862,-1.53637 -2.26682,-1.64349 0.0934,-0.94808 2.54389,-1.16967 2.54437,-1.06037 0.12875,-1.04381 -2.21048,-1.64683 -2.18344,-1.75273 0.13978,-0.94235 2.59822,-1.04344 2.59334,-0.93425 0.17981,-1.03624 -2.12701,-1.7533 -2.09481,-1.85776 0.18585,-0.93436 2.64629,-0.91469 2.63606,-0.80588 0.23043,-1.02617 -2.03841,-1.85556 -2.00113,-1.9583 0.23147,-0.92412 2.68799,-0.78374 2.67242,-0.67556 0.28051,-1.01363 -1.94491,-1.95334 -1.90263,-2.05414 0.27654,-0.91164 2.7232,-0.65091 2.70235,-0.54361 0.32991,-0.99865 -1.84672,-2.04642 -1.79955,-2.14502 0.32094,-0.89698 2.75186,-0.5165 2.72577,-0.41036 0.37851,-0.98125 -1.74408,-2.13458 -1.69213,-2.23073 0.36457,-0.88015 2.77389,-0.38086 2.74262,-0.27611 0.4262,-0.9615 -1.63724,-2.21758 -1.58064,-2.31108 0.40732,-0.8612 2.78924,-0.24429 2.75286,-0.14121 0.47287,-0.93942 -1.52646,-2.29525 -1.46533,-2.38585 0.44908,-0.84018 2.79786,-0.10713 2.75648,-0.006 0.5184,-0.9151 -1.412,-2.36738 -1.3465,-2.45488 0.48977,-0.81713 2.79975,0.03029 2.75345,0.12929 0.56267,-0.88855 -1.29414,-2.43381 -1.22442,-2.51799 0.52927,-0.79212 2.79489,0.16763 2.7438,0.26424 0.60559,-0.85987 -1.17316,-2.49438 -1.09939,-2.57504 0.5675,-0.76519 2.7833,0.30456 2.72752,0.39856 0.64705,-0.82912 -1.04935,-2.54894 -0.97172,-2.62588 0.60437,-0.73643 2.765,0.44077 2.70468,0.53191 0.68696,-0.79637 -0.92302,-2.59736 -0.8417,-2.6704 0.63977,-0.70588 2.74005,0.5759 2.67532,0.66399 0.7252,-0.76171 -0.79445,-2.63952 -0.70966,-2.70848 0.67364,-0.67364 2.70848,0.70966 2.63952,0.79445 0.76171,-0.7252 -0.66399,-2.67532 -0.5759,-2.74005 0.70588,-0.63977 2.6704,0.8417 2.59736,0.92302 0.79637,-0.68696 -0.53191,-2.70468 -0.44077,-2.765 0.73643,-0.60437 2.62588,0.97172 2.54894,1.04935 0.82912,-0.64705 -0.39856,-2.72752 -0.30456,-2.7833 0.76519,-0.5675 2.57504,1.09939 2.49438,1.17316 0.85987,-0.60559 -0.26424,-2.7438 -0.16763,-2.79489 0.79212,-0.52927 2.51799,1.22442 2.43381,1.29414 0.88855,-0.56267 -0.12929,-2.75345 -0.03029,-2.79975 0.81713,-0.48977 2.45488,1.3465 2.36738,1.412 0.9151,-0.5184 0.006,-2.75648 0.10713,-2.79786 0.84018,-0.44908 2.38585,1.46533 2.29525,1.52646 0.93942,-0.47287 0.14121,-2.75286 0.24429,-2.78924 0.8612,-0.40732 2.31108,1.58064 2.21758,1.63724 0.9615,-0.4262 0.27611,-2.74262 0.38086,-2.77389 0.88015,-0.36457 2.23073,1.69213 2.13458,1.74408 0.98125,-0.37851 0.41036,-2.72577 0.5165,-2.75186 0.89698,-0.32094 2.14502,1.79955 2.04642,1.84672 0.99865,-0.32991 0.54361,-2.70235 0.65091,-2.7232 0.91164,-0.27654 2.05414,1.90263 1.95334,1.94491 1.01363,-0.28051 0.67556,-2.67242 0.78374,-2.68799 0.92412,-0.23147 1.9583,2.00113 1.85556,2.03841 1.02617,-0.23043 0.80588,-2.63606 0.91469,-2.64629 0.93436,-0.18585 1.85776,2.09481 1.7533,2.12701 1.03624,-0.17981 0.93425,-2.59334 1.04344,-2.59822 0.94235,-0.13978 1.75273,2.18344 1.64683,2.21048 1.04381,-0.12875 1.06037,-2.54437 1.16967,-2.54389 0.94808,-0.0934 1.64349,2.26682 1.53637,2.28862 1.04888,-0.0774 1.18394,-2.48928 1.29308,-2.48343 0.95152,-0.0468 1.53028,2.34473 1.42223,2.36125 1.05141,-0.0258 1.30465,-2.42819 1.41339,-2.41699 H 0.4762 l 1.41339,2.41699 1.30465,2.42819 1.05141,0.0258 1.42223,-2.36125 1.53028,-2.34473 0.95152,0.0468 1.29308,2.48343 1.18394,2.48928 1.04888,0.0774 1.53637,-2.28862 1.64349,-2.26682 0.94808,0.0934 1.16967,2.54389 1.06037,2.54437 1.04381,0.12875 1.64683,-2.21048 1.75273,-2.18344 0.94235,0.13978 1.04344,2.59822 0.93425,2.59334 1.03624,0.17981 1.7533,-2.12701 1.85776,-2.09481 0.93436,0.18585 0.91469,2.64629 0.80588,2.63606 1.02617,0.23043 1.85556,-2.03841 1.9583,-2.00113 0.92412,0.23147 0.78374,2.68799 0.67556,2.67242 1.01363,0.28051 1.95334,-1.94491 2.05414,-1.90263 0.91164,0.27654 0.65091,2.7232 0.54361,2.70235 0.99865,0.32991 2.04642,-1.84672 2.14502,-1.79955 0.89698,0.32094 0.5165,2.75186 0.41036,2.72577 0.98125,0.37851 2.13458,-1.74408 2.23073,-1.69213 0.88015,0.36457 0.38086,2.77389 0.27611,2.74262 0.9615,0.4262 2.21758,-1.63724 2.31108,-1.58064 0.8612,0.40732 0.24429,2.78924 0.14121,2.75286 0.93942,0.47287 2.29525,-1.52646 2.38585,-1.46533 0.84018,0.44908 0.10713,2.79786 0.006,2.75648 0.9151,0.5184 2.36738,-1.412 2.45488,-1.3465 0.81713,0.48977 -0.03029,2.79975 -0.12929,2.75345 0.88855,0.56267 2.43381,-1.29414 2.51799,-1.22442 0.79212,0.52927 -0.16763,2.79489 -0.26424,2.7438 0.85987,0.60559 2.49438,-1.17316 2.57504,-1.09939 0.76519,0.5675 -0.30456,2.7833 -0.39856,2.72752 0.82912,0.64705 2.54894,-1.04935 2.62588,-0.97172 0.73643,0.60437 -0.44077,2.765 -0.53191,2.70468 0.79637,0.68696 2.59736,-0.92302 2.6704,-0.8417 0.70588,0.63977 -0.5759,2.74005 -0.66399,2.67532 0.76171,0.7252 2.63952,-0.79445 2.70848,-0.70966 0.67364,0.67364 -0.70966,2.70848 -0.79445,2.63952 0.7252,0.76171 2.67532,-0.66399 2.74005,-0.5759 0.63977,0.70588 -0.8417,2.6704 -0.92302,2.59736 0.68696,0.79637 2.70468,-0.53191 2.765,-0.44077 0.60437,0.73643 -0.97172,2.62588 -1.04935,2.54894 0.64705,0.82912 2.72752,-0.39856 2.7833,-0.30456 0.5675,0.76519 -1.09939,2.57504 -1.17316,2.49438 0.60559,0.85987 2.7438,-0.26424 2.79489,-0.16763 0.52927,0.79212 -1.22442,2.51799 -1.29414,2.43381 0.56267,0.88855 2.75345,-0.12929 2.79975,-0.03029 0.48977,0.81713 -1.3465,2.45488 -1.412,2.36738 0.5184,0.9151 2.75648,0.006 2.79786,0.10713 0.44908,0.84018 -1.46533,2.38585 -1.52646,2.29525 0.47287,0.93942 2.75286,0.14121 2.78924,0.24429 0.40732,0.8612 -1.58064,2.31108 -1.63724,2.21758 0.4262,0.9615 2.74262,0.27611 2.77389,0.38086 0.36457,0.88015 -1.69213,2.23073 -1.74408,2.13458 0.37851,0.98125 2.72577,0.41036 2.75186,0.5165 0.32094,0.89698 -1.79955,2.14502 -1.84672,2.04642 0.32991,0.99865 2.70235,0.54361 2.7232,0.65091 0.27654,0.91164 -1.90263,2.05414 -1.94491,1.95334 0.28051,1.01363 2.67242,0.67556 2.68799,0.78374 0.23147,0.92412 -2.00113,1.9583 -2.03841,1.85556 0.23043,1.02617 2.63606,0.80588 2.64629,0.91469 0.18585,0.93436 -2.09481,1.85776 -2.12701,1.7533 0.17981,1.03624 2.59334,0.93425 2.59822,1.04344 0.13978,0.94235 -2.18344,1.75273 -2.21048,1.64683 0.12875,1.04381 2.54437,1.06037 2.54389,1.16967 0.0934,0.94808 -2.26682,1.64349 -2.28862,1.53637 0.0774,1.04888 2.48928,1.18394 2.48343,1.29308 0.0468,0.95152 -2.34473,1.53028 -2.36125,1.42223 z"
           style="fill:url(#linearGradient5619);fill-opacity:1;stroke:#000000;stroke-width:3.03644204;stroke-miterlimit:4;stroke-dasharray:none"
           id="path4744"
           transform="matrix(1.5437476,0,0,1.5437476,376.43659,508.9135)" />
        <circle
           transform="rotate(45)"
           r="52.96875"
           cy="19.259123"
           cx="531.61853"
           id="path5600"
           style="fill:url(#linearGradient5612);fill-opacity:1;stroke-width:4.68750011;stroke-miterlimit:4;stroke-dasharray:none" />
      </g>
    </g>
  </g>
</svg>
