<?xml version="1.0" encoding="UTF-8" standalone="no"?>
<!-- Created with Inkscape (http://www.inkscape.org/) -->

<svg
   width="171.33333mm"
   height="171.33333mm"
   viewBox="0 0 607.0866 607.08659"
   id="svg2"
   version="1.1"
   inkscape:version="1.4.3 (0d15f75, 2025-12-25)"
   sodipodi:docname="glyph_preferences_device_sounds_0.svg"
   inkscape:export-filename="C:\Users\akers\StudioProjects\EngineDriver\EngineDriver\src\main\res\drawable-xhdpi\advanced_preferences.png"
   inkscape:export-xdpi="7.0892334"
   inkscape:export-ydpi="7.0892334"
   xmlns:inkscape="http://www.inkscape.org/namespaces/inkscape"
   xmlns:sodipodi="http://sodipodi.sourceforge.net/DTD/sodipodi-0.dtd"
   xmlns="http://www.w3.org/2000/svg"
   xmlns:svg="http://www.w3.org/2000/svg"
   xmlns:rdf="http://www.w3.org/1999/02/22-rdf-syntax-ns#"
   xmlns:cc="http://creativecommons.org/ns#"
   xmlns:dc="http://purl.org/dc/elements/1.1/">
  <defs
     id="defs4">
    <linearGradient
       id="linearGradient4155"
       inkscape:swatch="solid">
      <stop
         style="stop-color:#000000;stop-opacity:1;"
         offset="0"
         id="stop4157" />
    </linearGradient>
    <linearGradient
       id="linearGradient4149">
      <stop
         style="stop-color:#000000;stop-opacity:1;"
         offset="0"
         id="stop4151" />
    </linearGradient>
    <linearGradient
       id="linearGradient4139"
       inkscape:swatch="gradient">
      <stop
         style="stop-color:#2b2200;stop-opacity:1;"
         offset="0"
         id="stop4141" />
      <stop
         style="stop-color:#2b2200;stop-opacity:0;"
         offset="1"
         id="stop4143" />
    </linearGradient>
    <mask
       height="599"
       width="599"
       y="21"
       x="406"
       maskUnits="userSpaceOnUse"
       mask-type="alpha"
       id="mask0-5-8">
      <rect
         id="rect4-1-0"
         fill="#ffffff"
         transform="rotate(-45,406.51,320.148)"
         rx="56.537102"
         height="422.702"
         width="422.702"
         y="320.14801"
         x="406.51001" />
    </mask>
  </defs>
  <sodipodi:namedview
     id="base"
     pagecolor="#ffffff"
     bordercolor="#666666"
     borderopacity="1.0"
     inkscape:pageopacity="0.0"
     inkscape:pageshadow="2"
     inkscape:zoom="0.5"
     inkscape:cx="319"
     inkscape:cy="283"
     inkscape:document-units="px"
     inkscape:current-layer="layer1"
     showgrid="false"
     fit-margin-top="1"
     fit-margin-left="1"
     fit-margin-right="1"
     fit-margin-bottom="1"
     units="mm"
     inkscape:window-width="1600"
     inkscape:window-height="829"
     inkscape:window-x="-8"
     inkscape:window-y="114"
     inkscape:window-maximized="1"
     inkscape:showpageshadow="2"
     inkscape:pagecheckerboard="true"
     inkscape:deskcolor="#d1d1d1" />
  <metadata
     id="metadata7">
    <rdf:RDF>
      <cc:Work
         rdf:about="">
        <dc:format>image/svg+xml</dc:format>
        <dc:type
           rdf:resource="http://purl.org/dc/dcmitype/StillImage" />
      </cc:Work>
    </rdf:RDF>
  </metadata>
  <g
     inkscape:label="Layer 1"
     inkscape:groupmode="layer"
     id="layer1"
     transform="translate(-65.224067,-173.70181)">
    <text
       xml:space="preserve"
       style="font-weight:900;font-size:170.491px;font-family:Arial;-inkscape-font-specification:'Arial, Heavy';writing-mode:lr-tb;direction:ltr;fill:#000000;stroke:none;stroke-width:0"
       x="88.999626"
       y="258.27567"
       id="text12"
       transform="scale(0.71504514,1.3985131)"><tspan
         sodipodi:role="line"
         id="tspan12"
         style="stroke-width:0;stroke:none;fill:#000000"
         x="88.999626"
         y="258.27567" /></text>
    <path
       d="m 211.28736,449.22253 c -69.40712,0 -138.81427,8.6759 -138.81427,69.40714 V 683.4716 c 0,33.48903 27.2424,60.73125 60.73124,60.73125 l -26.02767,26.02766 v 8.6759 h 38.69457 l 34.70357,-34.70356 h 65.41613 l 34.70357,34.70356 h 34.70356 v -8.6759 l -26.02768,-26.02766 c 33.48904,0 60.73124,-27.24222 60.73124,-60.73125 V 518.62967 c 0,-60.73124 -62.11938,-69.40714 -138.81426,-69.40714 z m -78.08303,260.27674 c -14.40189,0 -26.02767,-11.6256 -26.02767,-26.02767 0,-14.40187 11.62578,-26.02767 26.02767,-26.02767 14.40208,0 26.02769,11.6258 26.02769,26.02767 0,14.40207 -11.62561,26.02767 -26.02769,26.02767 z m 60.73125,-121.46246 h -86.75892 v -69.40714 h 86.75892 z m 34.70355,0 v -69.40714 h 86.75893 v 69.40714 z m 60.73125,121.46246 c -14.40189,0 -26.02767,-11.6256 -26.02767,-26.02767 0,-14.40187 11.62578,-26.02767 26.02767,-26.02767 14.40208,0 26.02768,11.6258 26.02768,26.02767 0,14.40207 -11.6256,26.02767 -26.02768,26.02767 z"
       id="path2"
       style="stroke-width:17.3518" />
    <g
       id="g2"
       transform="matrix(14.596376,0,0,14.596376,352.37245,136.47518)">
      <path
         d="M 12,3 C 7.03,3 3,7.03 3,12 v 7 c 0,1.1 0.9,2 2,2 H 9 V 13 H 5 v -1 c 0,-3.87 3.13,-7 7,-7 3.87,0 7,3.13 7,7 v 1 h -4 v 8 h 4 c 1.1,0 2,-0.9 2,-2 V 12 C 21,7.03 16.97,3 12,3 Z"
         id="path1" />
    </g>
    <path
       d="M 566.83687,525.11537 V 698.70184 H 518.87066 V 584.95671 q -11.64229,8.84814 -22.58604,14.32002 -10.82732,5.47187 -27.24294,10.47805 v -38.88523 q 24.21595,-7.80033 37.60458,-18.74408 13.38863,-10.94375 20.95611,-27.0101 z"
       id="text1"
       style="font-weight:900;font-size:238.434px;font-family:Arial;-inkscape-font-specification:'Arial, Heavy';stroke-width:0;stroke:none;fill:#000000"
       aria-label="1" />
  </g>
</svg>
