<?xml version="1.0" encoding="UTF-8" standalone="no"?>
<!-- Created with Inkscape (http://www.inkscape.org/) -->

<svg
   width="171.33333mm"
   height="171.33333mm"
   viewBox="0 0 607.0866 607.08659"
   id="svg2"
   version="1.1"
   inkscape:version="1.4.3 (0d15f75, 2025-12-25)"
   sodipodi:docname="glyph_preferences_dccex_estop_pause_resume.svg"
   inkscape:export-filename="C:\Users\akers\StudioProjects\EngineDriver\EngineDriver\src\main\res\drawable-xhdpi\advanced_preferences.png"
   inkscape:export-xdpi="7.0892334"
   inkscape:export-ydpi="7.0892334"
   xmlns:inkscape="http://www.inkscape.org/namespaces/inkscape"
   xmlns:sodipodi="http://sodipodi.sourceforge.net/DTD/sodipodi-0.dtd"
   xmlns="http://www.w3.org/2000/svg"
   xmlns:svg="http://www.w3.org/2000/svg"
   xmlns:rdf="http://www.w3.org/1999/02/22-rdf-syntax-ns#"
   xmlns:cc="http://creativecommons.org/ns#"
   xmlns:dc="http://purl.org/dc/elements/1.1/">
  <defs
     id="defs4">
    <linearGradient
       id="linearGradient4155"
       inkscape:swatch="solid">
      <stop
         style="stop-color:#000000;stop-opacity:1;"
         offset="0"
         id="stop4157" />
    </linearGradient>
    <linearGradient
       id="linearGradient4149">
      <stop
         style="stop-color:#000000;stop-opacity:1;"
         offset="0"
         id="stop4151" />
    </linearGradient>
    <linearGradient
       id="linearGradient4139"
       inkscape:swatch="gradient">
      <stop
         style="stop-color:#2b2200;stop-opacity:1;"
         offset="0"
         id="stop4141" />
      <stop
         style="stop-color:#2b2200;stop-opacity:0;"
         offset="1"
         id="stop4143" />
    </linearGradient>
    <mask
       height="599"
       width="599"
       y="21"
       x="406"
       maskUnits="userSpaceOnUse"
       mask-type="alpha"
       id="mask0-5-8">
      <rect
         id="rect4-1-0"
         fill="#ffffff"
         transform="rotate(-45,406.51,320.148)"
         rx="56.537102"
         height="422.702"
         width="422.702"
         y="320.14801"
         x="406.51001" />
    </mask>
  </defs>
  <sodipodi:namedview
     id="base"
     pagecolor="#ffffff"
     bordercolor="#666666"
     borderopacity="1.0"
     inkscape:pageopacity="0.0"
     inkscape:pageshadow="2"
     inkscape:zoom="0.70710678"
     inkscape:cx="275.77165"
     inkscape:cy="413.65747"
     inkscape:document-units="px"
     inkscape:current-layer="layer1"
     showgrid="false"
     fit-margin-top="1"
     fit-margin-left="1"
     fit-margin-right="1"
     fit-margin-bottom="1"
     units="mm"
     inkscape:window-width="1600"
     inkscape:window-height="829"
     inkscape:window-x="-8"
     inkscape:window-y="114"
     inkscape:window-maximized="1"
     inkscape:showpageshadow="2"
     inkscape:pagecheckerboard="true"
     inkscape:deskcolor="#d1d1d1" />
  <metadata
     id="metadata7">
    <rdf:RDF>
      <cc:Work
         rdf:about="">
        <dc:format>image/svg+xml</dc:format>
        <dc:type
           rdf:resource="http://purl.org/dc/dcmitype/StillImage" />
      </cc:Work>
    </rdf:RDF>
  </metadata>
  <g
     inkscape:label="Layer 1"
     inkscape:groupmode="layer"
     id="layer1"
     transform="translate(-65.224067,-173.70181)">
    <g
       transform="matrix(10.33172,0,0,10.33172,427.56794,176.51431)"
       id="g12"
       style="fill:#000000">
      <path
         id="circle2"
         d="m 23.232,5.5 a 1.5,1.5 0 0 1 -1.5,1.5 1.5,1.5 0 0 1 -1.5,-1.5 1.5,1.5 0 0 1 1.5,-1.5 1.5,1.5 0 0 1 1.5,1.5 z" />
      <path
         id="circle4"
         d="m 19.232,2.5 a 1.5,1.5 0 0 1 -1.5,1.5 1.5,1.5 0 0 1 -1.5,-1.5 1.5,1.5 0 0 1 1.5,-1.5 1.5,1.5 0 0 1 1.5,1.5 z" />
      <path
         id="circle6"
         d="m 15.232,1.5 a 1.5,1.5 0 0 1 -1.5,1.5 1.5,1.5 0 0 1 -1.5,-1.5 1.5,1.5 0 0 1 1.5,-1.5 1.5,1.5 0 0 1 1.5,1.5 z" />
      <path
         id="circle8"
         d="M 11.232,3.5 A 1.5,1.5 0 0 1 9.7320004,5 a 1.5,1.5 0 0 1 -1.5,-1.5 1.5,1.5 0 0 1 1.5,-1.5 A 1.5,1.5 0 0 1 11.232,3.5 Z" />
      <path
         inkscape:connector-curvature="0"
         style="fill:#000000"
         d="M 20.232,5.5 V 12 c 0,0.276 -0.224,0.5 -0.5,0.5 -0.276,0 -0.5,-0.224 -0.5,-0.5 V 2.5 h -3 V 11 c 0,0.276 -0.224,0.5 -0.5,0.5 -0.276,0 -0.5,-0.224 -0.5,-0.5 V 1.5 h -3 V 11 c 0,0.276 -0.224,0.5 -0.5,0.5 -0.276,0 -0.5,-0.224 -0.5,-0.5 V 3.5 h -3 V 16 L 6.207,13.229 c -0.6,-0.925 -1.771,-1.235 -2.629,-0.705 -0.855,0.542 -1.067,1.724 -0.475,2.646 0,0 3.266,4.943 4.658,7.059 1.392,2.116 3.647,3.771 7.864,3.771 6.982,0 7.607,-5.392 7.607,-7 0,-1.608 0,-13.5 0,-13.5 z"
         id="path10" />
    </g>
    <path
       style="fill:#000000;stroke-width:1.06803"
       d="m 276.05549,774.45994 c -14.2249,-3.60653 -11.1316,-0.81282 -107.43012,-97.02529 -79.244801,-79.174 -89.622152,-89.89608 -92.382194,-95.45108 -8.544464,-17.19707 -7.845578,-36.54711 1.900867,-52.62866 2.345327,-3.86978 30.243877,-32.39973 91.563637,-93.63591 85.93591,-85.81877 88.38257,-88.16109 95.70015,-91.61922 17.67281,-8.35176 37.18249,-7.0368 53.08277,3.57778 3.12384,2.08539 43.08251,41.35672 92.66957,91.07554 78.9803,79.19012 87.47835,88.02125 90.37552,93.91756 3.48823,7.09924 6.13641,17.89266 6.16375,25.12208 0.0251,6.62823 -3.45397,19.238 -7.11701,25.79552 -2.42989,4.34997 -23.16625,25.70252 -89.87926,92.55007 -47.69636,47.79253 -89.02792,88.49168 -91.84793,90.44254 -11.48315,7.94395 -29.47795,11.25663 -42.79975,7.87907 z m 26.75608,-11.41663 c 1.57284,-0.61127 10.71483,-8.86027 20.31554,-18.33108 15.48338,-15.27389 17.21782,-17.30771 15.34938,-17.99889 -1.15854,-0.42857 -32.50826,-9.83528 -69.66601,-20.90379 -64.93093,-19.34155 -67.65549,-20.06172 -70.02515,-18.50905 -1.35608,0.88854 -2.4656,1.95805 -2.4656,2.37671 0,1.58533 67.78928,68.28075 69.40061,68.28075 0.92952,0 1.69005,0.39509 1.69005,0.87798 0,0.85303 7.4768,4.39202 11.51468,5.45024 3.29764,0.86421 20.80944,-0.047 23.8865,-1.24287 z m -15.56338,0.23832 c 0.72279,-0.28923 1.58639,-0.25367 1.91912,0.079 0.33271,0.33272 -0.25867,0.56937 -1.31418,0.52589 -1.16644,-0.0481 -1.40369,-0.2853 -0.60494,-0.60494 z m -4.00511,-1.00128 c 0.7228,-0.28923 1.58639,-0.25366 1.91912,0.079 0.33271,0.33271 -0.25867,0.56936 -1.31418,0.52588 -1.16644,-0.0481 -1.40369,-0.2853 -0.60494,-0.60494 z m -4.00511,-1.00127 c 0.7228,-0.28924 1.5864,-0.25367 1.91912,0.079 0.33271,0.33271 -0.25867,0.56937 -1.31418,0.52589 -1.16643,-0.0481 -1.40369,-0.2853 -0.60494,-0.60494 z m -5.00638,-1.00128 c 0.7228,-0.28923 1.58639,-0.25367 1.91912,0.079 0.33271,0.33272 -0.25867,0.56937 -1.31418,0.52589 -1.16644,-0.0481 -1.40369,-0.2853 -0.60494,-0.60494 z m -4.00511,-1.00128 c 0.7228,-0.28923 1.5864,-0.25366 1.91912,0.079 0.33271,0.33271 -0.25867,0.56936 -1.31418,0.52588 -1.16644,-0.0481 -1.40369,-0.2853 -0.60494,-0.60494 z m 81.06406,-45.12442 c 9.07332,-12.34154 16.15971,-23.47026 21.22807,-33.33732 4.8984,-9.53616 4.9608,-9.76768 2.76892,-10.27145 -1.23334,-0.28347 -31.99074,-5.58194 -68.34979,-11.77436 l -66.10735,-11.25896 -16.21076,16.15693 -16.21078,16.15694 5.21981,1.53804 c 2.87089,0.84593 33.606,10.05121 68.30024,20.45618 34.69425,10.40498 63.37572,18.95739 63.73663,19.00538 0.3609,0.048 2.89215,-2.95414 5.62501,-6.67138 z m 44.25862,-40.13198 c -2.62059,-0.40376 -2.5374,-0.48412 -4.54167,4.38776 l -1.62652,3.95367 4.15902,-4.0051 c 3.78157,-3.64163 3.96391,-4.03517 2.00917,-4.33633 z m -200.34303,-3.9242 c 6.20091,-5.06191 26.14552,-24.35445 26.14552,-25.29072 0,-0.41139 -3.71724,-1.31847 -8.26053,-2.01573 -4.54329,-0.69725 -9.00694,-1.54085 -9.91921,-1.87464 -1.3714,-0.50179 0.21713,-3.8151 9.17193,-19.13053 l 10.83061,-18.52362 h 14.85871 14.85871 l 5.20242,-10.34191 c 4.89385,-9.7285 8.95349,-19.9749 8.16651,-20.61198 -0.19378,-0.15687 -6.78282,0.16289 -14.64231,0.7106 -7.85948,0.5477 -14.51453,0.77128 -14.78897,0.49683 -0.399,-0.39901 17.97327,-41.52738 19.05391,-42.65428 0.16289,-0.16985 4.5899,-0.81128 9.83783,-1.42539 l 9.54168,-1.11657 0.64075,-3.41552 c 0.8384,-4.46903 -0.4984,-24.27266 -1.63847,-24.27266 -0.48516,0 -5.19411,0.93424 -10.46434,2.07608 -5.27024,1.14184 -10.13157,1.86528 -10.80295,1.60764 -1.70165,-0.65298 -3.9385,-35.90432 -2.34094,-36.89167 0.61251,-0.37856 4.23473,-1.49779 8.0494,-2.48718 3.81466,-0.9894 7.13528,-2.31886 7.37914,-2.95437 0.24387,-0.63552 -0.96803,-4.81544 -2.69312,-9.28874 -2.27099,-5.88887 -3.62065,-8.13326 -4.89092,-8.13326 -0.96491,0 -5.06626,1.12644 -9.11409,2.50319 -4.04783,1.37677 -7.6508,2.5032 -8.0066,2.5032 -1.23098,0 -13.29517,-28.16145 -12.40599,-28.95931 0.48823,-0.4381 4.38697,-2.04955 8.66386,-3.58101 l 7.77617,-2.78448 -1.86465,-3.11409 c -5.75927,-9.61839 -7.72546,-12.62623 -8.2536,-12.62623 -0.32348,0 -3.2555,1.08877 -6.51559,2.41947 -5.10041,2.08189 -6.14401,2.2252 -7.47965,1.0271 -1.36508,-1.2245 -9.52285,6.60208 -67.66339,64.9164 -76.739057,76.96843 -71.964424,70.97467 -71.964424,90.33941 0,18.86102 -1.983201,16.15968 50.745274,69.12067 31.26937,31.40726 45.60339,45.14891 47.23614,45.28404 1.28924,0.10669 3.426,0.62669 4.74836,1.15555 4.1641,1.66536 6.07391,1.194 10.80282,-2.66629 z m 251.0744,-44.55682 c 24.98328,-25.06613 43.19974,-44.13993 44.7057,-46.8097 7.53468,-13.35755 7.53496,-29.69434 7.2e-4,-43.05491 -2.99891,-5.31802 -167.88376,-171.10223 -176.86249,-177.82719 -6.40611,-4.7981 -16.34526,-8.4197 -23.03922,-8.39496 -7.2254,0.0267 -7.18917,1.00838 0.31191,8.45197 l 6.92502,6.87195 5.19361,-2.15837 5.19361,-2.15836 8.63784,7.92789 c 4.75083,4.36034 11.30316,10.6422 14.56077,13.95966 6.66236,6.78482 6.96755,5.73436 -2.79129,9.60747 -2.82445,1.12098 -3.6198,1.87867 -2.92902,2.79033 5.85638,7.72899 12.95703,15.77001 13.92576,15.77001 0.66715,0 4.06925,-0.89533 7.5602,-1.98963 3.49096,-1.0943 6.67106,-1.99545 7.06692,-2.00256 1.18923,-0.0214 23.98746,31.18452 23.29127,31.8807 -0.35406,0.35407 -3.8232,1.54583 -7.70919,2.64837 -3.88599,1.10254 -7.02111,2.4552 -6.96691,3.00589 0.0811,0.82411 4.57154,8.67745 13.82694,24.18182 l 1.28567,2.15372 8.30242,-1.87769 c 4.56633,-1.03274 9.04495,-1.88927 9.9525,-1.90341 2.10014,-0.0327 37.33391,49.96546 35.60488,50.52477 -0.66494,0.2151 -7.96761,1.15012 -16.22815,2.07782 -8.26053,0.92771 -15.19065,1.8404 -15.40025,2.02823 -0.2096,0.18782 1.36741,7.62055 3.50447,16.51717 l 3.88556,16.17567 8.51086,-0.58653 c 4.68096,-0.32259 12.91056,-0.89375 18.28799,-1.26924 l 9.77713,-0.6827 -0.265,30.93808 -0.26501,30.93808 -17.16108,-0.37377 -17.1611,-0.37377 -0.69005,5.38016 c -1.2157,9.47836 -5.47226,27.3158 -9.06226,37.97601 -1.91739,5.69353 -3.48616,10.46009 -3.48616,10.59234 0,0.13226 1.46438,0.4222 3.25416,0.6443 1.78978,0.22211 3.48658,0.47595 3.77066,0.56408 0.28409,0.0881 19.49036,-18.87654 42.68061,-42.1437 z m -63.05065,31.87383 c 3.63505,-9.38455 7.37979,-22.97491 9.34418,-33.91177 1.00991,-5.62271 1.72017,-10.33915 1.57836,-10.48096 -0.14182,-0.14181 -29.09031,-0.55392 -64.32999,-0.91579 l -64.07213,-0.65795 -3.78541,6.23147 c -2.08198,3.4273 -6.47039,9.85268 -9.75203,14.27862 -3.28163,4.42594 -5.78226,8.23152 -5.55695,8.45683 0.56055,0.56056 132.15321,23.23696 133.36623,22.98203 0.53316,-0.11205 1.97664,-2.80417 3.20774,-5.98248 z M 234.64581,629.54421 c 6.8266,-8.81954 12.73904,-17.26808 12.73904,-18.2034 0,-0.3138 -4.46813,-0.57055 -9.92917,-0.57055 h -9.92919 l -6.59188,11.48039 c -3.62554,6.31422 -6.5919,11.88353 -6.5919,12.37624 0,0.49271 2.8161,1.34657 6.25799,1.89745 3.44188,0.55089 6.57145,1.06434 6.95459,1.14101 0.38313,0.0767 3.57386,-3.57786 7.09052,-8.12114 z M 436.62618,582.6303 v -23.13359 l -8.26053,0.63369 c -4.5433,0.34853 -10.75876,0.87949 -13.81213,1.17992 l -5.5516,0.54625 0.71104,5.6829 c 0.39107,3.1256 0.74906,13.00475 0.79553,21.95366 l 0.0845,16.27074 h 13.0166 13.01659 z m -41.09633,8.86538 c -0.0406,-12.26254 -1.18515,-27.34575 -2.14804,-28.30865 -0.22484,-0.22484 -24.71785,1.37094 -54.42894,3.54619 -29.71107,2.17524 -54.32133,3.96196 -54.68946,3.97048 -0.36813,0.009 -1.66949,3.05687 -2.89192,6.77411 -1.22244,3.71724 -4.18791,10.99225 -6.58994,16.16668 -2.40203,5.17444 -4.36733,9.55925 -4.36733,9.744 0,0.40069 31.98928,0.8266 85.85949,1.14317 l 39.30011,0.23094 z M 268.45307,563.65121 c 0.84882,-0.434 2.11526,-3.02073 2.81432,-5.7483 1.55765,-6.0776 4.00022,-21.04637 3.51369,-21.53289 -0.33071,-0.33072 -13.7857,1.24587 -13.92307,1.63144 -0.0345,0.097 -2.6815,5.80841 -5.88214,12.69219 -3.20063,6.88378 -6.0306,13.05238 -6.28881,13.708 -0.35232,0.89456 1.86286,1.04812 8.8766,0.61533 5.14035,-0.31719 10.04058,-0.93179 10.88941,-1.36577 z m 80.56138,-5.35324 43.05491,-3.09858 -0.34381,-3.00383 c -0.47221,-4.12563 -5.94531,-25.25468 -7.10127,-27.41459 -0.88576,-1.65506 -2.45027,-1.57298 -27.78635,1.45789 -14.76625,1.76643 -35.56669,4.24294 -46.22319,5.50336 -10.98493,1.29925 -19.50407,2.75529 -19.67248,3.36229 -0.16336,0.58885 -1.04098,5.80166 -1.95025,11.58403 -0.90928,5.78238 -1.9152,11.78398 -2.2354,13.33689 l -0.58217,2.82347 9.89255,-0.72618 c 5.44091,-0.3994 29.26727,-2.12054 52.94746,-3.82475 z m -10.09339,-37.67151 c 23.08514,-2.74071 42.12117,-5.1313 42.30228,-5.3124 0.52389,-0.52389 -4.3259,-12.2429 -9.91366,-23.95534 -3.81796,-8.00278 -5.54301,-10.65569 -6.70846,-10.31677 -0.86289,0.25093 -17.95878,3.95184 -37.99085,8.22425 l -36.42195,7.76803 0.61918,6.55385 c 0.34056,3.60462 0.6224,10.19307 0.62632,14.64098 l 0.007,8.08712 2.75352,-0.3533 c 1.51443,-0.19431 21.64136,-2.5957 44.72651,-5.33642 z m 72.44509,-8.56957 c 4.00481,-0.37189 7.46848,-0.97874 7.69704,-1.34856 0.39339,-0.6365 -21.24745,-32.28109 -23.79242,-34.79077 -0.92158,-0.90881 -2.39551,-0.90865 -6.3728,6.7e-4 -2.84566,0.65061 -5.44237,1.45135 -5.77045,1.77944 -0.32808,0.32808 1.03712,4.15765 3.03378,8.51017 1.99667,4.35252 5.20346,11.96884 7.12621,16.92516 4.41918,11.39147 3.96493,10.78957 7.65769,10.14665 1.72671,-0.30063 6.41615,-0.85086 10.42095,-1.22276 z M 269.66327,493.5 c 2.93114,-0.74754 3.74956,-1.44331 3.73095,-3.17188 -0.032,-2.97818 -3.49643,-18.58425 -4.305,-19.39282 -0.35354,-0.35354 -3.01613,-0.005 -5.91688,0.7747 l -5.27408,1.4175 0.32364,9.49573 c 0.17801,5.22265 0.55495,10.31146 0.83765,11.30848 0.53991,1.90417 1.61639,1.86034 10.60372,-0.43171 z m 55.82117,-11.88913 c 18.44853,-3.90458 34.3093,-7.3288 35.24618,-7.60936 1.44791,-0.43362 0.93637,-1.81629 -3.41089,-9.21932 -2.81286,-4.79006 -6.37937,-10.56927 -7.92558,-12.8427 l -2.81132,-4.13351 -30.62336,8.77133 c -16.84286,4.82423 -30.86047,9.00842 -31.15026,9.29821 -0.28978,0.28978 0.46615,5.18667 1.67983,10.88196 2.87242,13.47892 2.67507,12.89164 4.16313,12.38858 0.70923,-0.23977 16.38375,-3.6306 34.83227,-7.53519 z m -7.25925,-33.69157 c 12.80383,-3.65548 23.27968,-6.95375 23.27968,-7.32951 0,-0.49894 -10.28898,-15.16007 -12.53377,-17.85981 -0.56653,-0.68134 -53.5505,16.29987 -53.5505,17.1628 0,0.51611 1.45126,4.87074 3.22503,9.67697 l 3.22502,8.73858 6.53743,-1.87136 c 3.59558,-1.02925 17.01329,-4.8622 29.81711,-8.51767 z m -61.83073,-11.64653 c 0.003,-1.49916 -7.04148,-14.74384 -7.84255,-14.74384 -1.38496,0 -10.17855,3.16564 -10.17855,3.66422 0,0.25968 1.52718,3.77752 3.39373,7.81742 l 3.39373,7.34528 5.61589,-1.65356 c 3.08872,-0.90946 5.61672,-2.00274 5.61775,-2.42952 z m 108.33719,-1.62834 c 1.40476,-0.49979 0.48908,-2.20946 -5.28304,-9.86386 -3.84029,-5.09262 -7.53371,-9.23897 -8.20761,-9.21413 -0.6739,0.0249 -2.41889,0.58806 -3.87775,1.25159 l -2.6525,1.20643 6.60523,9.23121 c 7.00513,9.79012 6.87208,9.71684 13.41567,7.38876 z m -66.471,-10.74993 c 13.59634,-4.20596 24.82315,-7.72537 24.94849,-7.8209 0.38135,-0.29066 -12.8929,-16.04905 -13.80766,-16.39161 -0.92134,-0.34503 -42.98644,14.67194 -44.26752,15.80321 -1.01186,0.89355 5.8994,16.0565 7.31854,16.0565 0.59816,0 12.21183,-3.44124 25.80815,-7.6472 z M 281.9641,400.91097 c 11.54539,-4.18075 21.19253,-7.79853 21.4381,-8.0395 0.66491,-0.65247 -14.22813,-15.39872 -15.552,-15.39872 -1.37386,0 -35.67368,13.90412 -36.63907,14.85238 -0.67147,0.65955 8.17249,16.1872 9.21961,16.1872 0.29796,0 9.98798,-3.4206 21.53336,-7.60136 z m -51.60096,-9.65006 c 0,-0.58605 -0.63621,-0.48875 -1.50191,0.22972 -0.82606,0.68557 -1.50192,1.40246 -1.50192,1.59309 0,0.19064 0.67586,0.0873 1.50192,-0.22972 0.82605,-0.31699 1.50191,-1.03389 1.50191,-1.59309 z m 85.34171,-14.04046 c -5.84074,-5.84074 -8.51103,-7.86946 -9.73826,-7.39852 -1.37078,0.52601 -0.23231,2.25541 6.01401,9.13561 6.83589,7.52959 7.93419,8.36403 9.73824,7.39853 1.89262,-1.0129 1.47628,-1.64533 -6.01399,-9.13562 z m -51.20357,1.05029 c 9.86054,-3.96672 17.92389,-7.45867 17.91855,-7.75989 -0.005,-0.30122 -3.13294,-3.36976 -6.95023,-6.81899 l -6.94052,-6.27131 -5.31542,2.40427 c -3.61067,1.63317 -8.00796,5.13976 -13.71088,10.93362 l -8.39547,8.52935 2.20567,3.09759 c 1.21312,1.70367 2.44291,3.09759 2.73286,3.09759 0.28995,0 8.5949,-3.24551 18.45544,-7.21223 z"
       id="path1" />
  </g>
</svg>
