<?xml version="1.0" encoding="UTF-8" standalone="no"?>
<!-- Created with Inkscape (http://www.inkscape.org/) -->

<svg
   width="171.33333mm"
   height="171.33333mm"
   viewBox="0 0 607.0866 607.08659"
   id="svg2"
   version="1.1"
   inkscape:version="1.4.3 (0d15f75, 2025-12-25)"
   sodipodi:docname="glyph_preferences_name.svg"
   inkscape:export-filename="C:\Users\akers\StudioProjects\EngineDriver\EngineDriver\src\main\res\drawable-xhdpi\advanced_preferences.png"
   inkscape:export-xdpi="7.0892334"
   inkscape:export-ydpi="7.0892334"
   xmlns:inkscape="http://www.inkscape.org/namespaces/inkscape"
   xmlns:sodipodi="http://sodipodi.sourceforge.net/DTD/sodipodi-0.dtd"
   xmlns="http://www.w3.org/2000/svg"
   xmlns:svg="http://www.w3.org/2000/svg"
   xmlns:rdf="http://www.w3.org/1999/02/22-rdf-syntax-ns#"
   xmlns:cc="http://creativecommons.org/ns#"
   xmlns:dc="http://purl.org/dc/elements/1.1/">
  <defs
     id="defs4">
    <linearGradient
       id="linearGradient4155"
       inkscape:swatch="solid">
      <stop
         style="stop-color:#000000;stop-opacity:1;"
         offset="0"
         id="stop4157" />
    </linearGradient>
    <linearGradient
       id="linearGradient4149">
      <stop
         style="stop-color:#000000;stop-opacity:1;"
         offset="0"
         id="stop4151" />
    </linearGradient>
    <linearGradient
       id="linearGradient4139"
       inkscape:swatch="gradient">
      <stop
         style="stop-color:#2b2200;stop-opacity:1;"
         offset="0"
         id="stop4141" />
      <stop
         style="stop-color:#2b2200;stop-opacity:0;"
         offset="1"
         id="stop4143" />
    </linearGradient>
  </defs>
  <sodipodi:namedview
     id="base"
     pagecolor="#ffffff"
     bordercolor="#666666"
     borderopacity="1.0"
     inkscape:pageopacity="0.0"
     inkscape:pageshadow="2"
     inkscape:zoom="0.70710678"
     inkscape:cx="304.05592"
     inkscape:cy="355.67471"
     inkscape:document-units="px"
     inkscape:current-layer="layer1"
     showgrid="false"
     fit-margin-top="1"
     fit-margin-left="1"
     fit-margin-right="1"
     fit-margin-bottom="1"
     units="mm"
     inkscape:window-width="1600"
     inkscape:window-height="829"
     inkscape:window-x="-8"
     inkscape:window-y="114"
     inkscape:window-maximized="1"
     inkscape:showpageshadow="2"
     inkscape:pagecheckerboard="0"
     inkscape:deskcolor="#d1d1d1" />
  <metadata
     id="metadata7">
    <rdf:RDF>
      <cc:Work
         rdf:about="">
        <dc:format>image/svg+xml</dc:format>
        <dc:type
           rdf:resource="http://purl.org/dc/dcmitype/StillImage" />
      </cc:Work>
    </rdf:RDF>
  </metadata>
  <g
     inkscape:label="Layer 1"
     inkscape:groupmode="layer"
     id="layer1"
     transform="translate(-65.224067,-173.70181)">
    <g
       id="g2"
       transform="matrix(29.884684,0,0,29.884684,9.5394067,118.01715)">
      <path
         d="M 20,7 H 15 V 4 C 15,2.9 14.1,2 13,2 H 11 C 9.9,2 9,2.9 9,4 V 7 H 4 C 2.9,7 2,7.9 2,9 v 11 c 0,1.1 0.9,2 2,2 h 16 c 1.1,0 2,-0.9 2,-2 V 9 C 22,7.9 21.1,7 20,7 Z M 9,12 c 0.83,0 1.5,0.67 1.5,1.5 C 10.5,14.33 9.83,15 9,15 8.17,15 7.5,14.33 7.5,13.5 7.5,12.67 8.17,12 9,12 Z m 3,6 H 6 v -0.75 c 0,-1 2,-1.5 3,-1.5 1,0 3,0.5 3,1.5 z M 13,9 H 11 V 4 h 2 z m 5,7.5 H 14 V 15 h 4 z m 0,-3 H 14 V 12 h 4 z"
         id="path1" />
    </g>
  </g>
</svg>
