<?xml version="1.0" encoding="UTF-8" standalone="no"?>
<!-- Created with Inkscape (http://www.inkscape.org/) -->

<svg
   width="171.33333mm"
   height="171.33333mm"
   viewBox="0 0 607.0866 607.08659"
   id="svg2"
   version="1.1"
   inkscape:version="1.4.3 (0d15f75, 2025-12-25)"
   sodipodi:docname="glyph_preferences_swipe_through_routes.svg"
   inkscape:export-filename="C:\Users\akers\StudioProjects\EngineDriver\EngineDriver\src\main\res\drawable-xhdpi\advanced_preferences.png"
   inkscape:export-xdpi="7.0892334"
   inkscape:export-ydpi="7.0892334"
   xmlns:inkscape="http://www.inkscape.org/namespaces/inkscape"
   xmlns:sodipodi="http://sodipodi.sourceforge.net/DTD/sodipodi-0.dtd"
   xmlns="http://www.w3.org/2000/svg"
   xmlns:svg="http://www.w3.org/2000/svg"
   xmlns:rdf="http://www.w3.org/1999/02/22-rdf-syntax-ns#"
   xmlns:cc="http://creativecommons.org/ns#"
   xmlns:dc="http://purl.org/dc/elements/1.1/">
  <defs
     id="defs4">
    <linearGradient
       id="linearGradient4155"
       inkscape:swatch="solid">
      <stop
         style="stop-color:#000000;stop-opacity:1;"
         offset="0"
         id="stop4157" />
    </linearGradient>
    <linearGradient
       id="linearGradient4149">
      <stop
         style="stop-color:#000000;stop-opacity:1;"
         offset="0"
         id="stop4151" />
    </linearGradient>
    <linearGradient
       id="linearGradient4139"
       inkscape:swatch="gradient">
      <stop
         style="stop-color:#2b2200;stop-opacity:1;"
         offset="0"
         id="stop4141" />
      <stop
         style="stop-color:#2b2200;stop-opacity:0;"
         offset="1"
         id="stop4143" />
    </linearGradient>
    <mask
       height="599"
       width="599"
       y="21"
       x="406"
       maskUnits="userSpaceOnUse"
       mask-type="alpha"
       id="mask0-5-8">
      <rect
         id="rect4-1-0"
         fill="#ffffff"
         transform="rotate(-45,406.51,320.148)"
         rx="56.537102"
         height="422.702"
         width="422.702"
         y="320.14801"
         x="406.51001" />
    </mask>
  </defs>
  <sodipodi:namedview
     id="base"
     pagecolor="#ffffff"
     bordercolor="#666666"
     borderopacity="1.0"
     inkscape:pageopacity="0.0"
     inkscape:pageshadow="2"
     inkscape:zoom="0.5"
     inkscape:cx="318"
     inkscape:cy="603"
     inkscape:document-units="px"
     inkscape:current-layer="layer1"
     showgrid="false"
     fit-margin-top="1"
     fit-margin-left="1"
     fit-margin-right="1"
     fit-margin-bottom="1"
     units="mm"
     inkscape:window-width="1600"
     inkscape:window-height="829"
     inkscape:window-x="-8"
     inkscape:window-y="114"
     inkscape:window-maximized="1"
     inkscape:showpageshadow="2"
     inkscape:pagecheckerboard="true"
     inkscape:deskcolor="#d1d1d1" />
  <metadata
     id="metadata7">
    <rdf:RDF>
      <cc:Work
         rdf:about="">
        <dc:format>image/svg+xml</dc:format>
        <dc:type
           rdf:resource="http://purl.org/dc/dcmitype/StillImage" />
      </cc:Work>
    </rdf:RDF>
  </metadata>
  <g
     inkscape:label="Layer 1"
     inkscape:groupmode="layer"
     id="layer1"
     transform="translate(-65.224067,-173.70181)">
    <text
       xml:space="preserve"
       style="font-weight:900;font-size:170.491px;font-family:Arial;-inkscape-font-specification:'Arial, Heavy';writing-mode:lr-tb;direction:ltr;fill:#000000;stroke:none;stroke-width:0;stroke-dasharray:none"
       x="88.999626"
       y="258.27567"
       id="text12"
       transform="scale(0.71504514,1.3985131)"><tspan
         sodipodi:role="line"
         id="tspan12"
         style="stroke-width:0;stroke:none;fill:#000000;stroke-dasharray:none"
         x="88.999626"
         y="258.27567" /></text>
    <path
       d="m 616.09814,261.54666 c -43.605,-51.47813 -137.17406,-86.90735 -246.18657,-86.90735 -109.0125,0 -202.58156,35.42922 -246.18656,86.90735 L 67.099067,204.92056 V 356.32681 H 218.50532 l -62.68219,-62.68202 c 30.28125,-39.06298 112.04063,-73.5836 214.08844,-73.5836 102.04782,0 183.80719,34.52062 214.08845,73.5836 l -62.68219,62.68202 H 672.72408 V 204.92056 Z"
       id="path2-9"
       style="stroke-width:0;stroke-dasharray:none;stroke:none;fill:#000000" />
    <g
       id="g409"
       transform="matrix(21.436145,0,0,21.436145,111.70426,327.87857)"
       style="fill:#000000;stroke:none;stroke-width:0;stroke-dasharray:none">
      <g
         id="g407"
         style="fill:#000000;stroke:none;stroke-width:0;stroke-dasharray:none">
        <path
           d="M 19,15.18 V 7 C 19,4.79 17.21,3 15,3 12.79,3 11,4.79 11,7 v 10 c 0,1.1 -0.9,2 -2,2 C 7.9,19 7,18.1 7,17 V 8.82 C 8.16,8.4 9,7.3 9,6 9,4.34 7.66,3 6,3 4.34,3 3,4.34 3,6 3,7.3 3.84,8.4 5,8.82 V 17 c 0,2.21 1.79,4 4,4 2.21,0 4,-1.79 4,-4 V 7 c 0,-1.1 0.9,-2 2,-2 1.1,0 2,0.9 2,2 v 8.18 c -1.16,0.41 -2,1.51 -2,2.82 0,1.66 1.34,3 3,3 1.66,0 3,-1.34 3,-3 0,-1.3 -0.84,-2.4 -2,-2.82 z"
           id="path405"
           style="fill:#000000;stroke:none;stroke-width:0;stroke-dasharray:none" />
      </g>
    </g>
  </g>
</svg>
