<?xml version="1.0" encoding="UTF-8" standalone="no"?>
<!-- Created with Inkscape (http://www.inkscape.org/) -->

<svg
   width="171.33333mm"
   height="171.33333mm"
   viewBox="0 0 607.0866 607.08659"
   id="svg2"
   version="1.1"
   inkscape:version="1.4.3 (0d15f75, 2025-12-25)"
   sodipodi:docname="glyph_preferences_background_alert.svg"
   inkscape:export-filename="C:\Users\akers\StudioProjects\EngineDriver\EngineDriver\src\main\res\drawable-xhdpi\advanced_preferences.png"
   inkscape:export-xdpi="7.0892334"
   inkscape:export-ydpi="7.0892334"
   xmlns:inkscape="http://www.inkscape.org/namespaces/inkscape"
   xmlns:sodipodi="http://sodipodi.sourceforge.net/DTD/sodipodi-0.dtd"
   xmlns="http://www.w3.org/2000/svg"
   xmlns:svg="http://www.w3.org/2000/svg"
   xmlns:rdf="http://www.w3.org/1999/02/22-rdf-syntax-ns#"
   xmlns:cc="http://creativecommons.org/ns#"
   xmlns:dc="http://purl.org/dc/elements/1.1/">
  <defs
     id="defs4">
    <linearGradient
       id="linearGradient4155"
       inkscape:swatch="solid">
      <stop
         style="stop-color:#000000;stop-opacity:1;"
         offset="0"
         id="stop4157" />
    </linearGradient>
    <linearGradient
       id="linearGradient4149">
      <stop
         style="stop-color:#000000;stop-opacity:1;"
         offset="0"
         id="stop4151" />
    </linearGradient>
    <linearGradient
       id="linearGradient4139"
       inkscape:swatch="gradient">
      <stop
         style="stop-color:#2b2200;stop-opacity:1;"
         offset="0"
         id="stop4141" />
      <stop
         style="stop-color:#2b2200;stop-opacity:0;"
         offset="1"
         id="stop4143" />
    </linearGradient>
    <mask
       height="599"
       width="599"
       y="21"
       x="406"
       maskUnits="userSpaceOnUse"
       mask-type="alpha"
       id="mask0-5-8">
      <rect
         id="rect4-1-0"
         fill="#ffffff"
         transform="rotate(-45,406.51,320.148)"
         rx="56.537102"
         height="422.702"
         width="422.702"
         y="320.14801"
         x="406.51001" />
    </mask>
  </defs>
  <sodipodi:namedview
     id="base"
     pagecolor="#ffffff"
     bordercolor="#666666"
     borderopacity="1.0"
     inkscape:pageopacity="0.0"
     inkscape:pageshadow="2"
     inkscape:zoom="0.70710678"
     inkscape:cx="275.06454"
     inkscape:cy="413.65747"
     inkscape:document-units="px"
     inkscape:current-layer="layer1"
     showgrid="false"
     fit-margin-top="1"
     fit-margin-left="1"
     fit-margin-right="1"
     fit-margin-bottom="1"
     units="mm"
     inkscape:window-width="1600"
     inkscape:window-height="829"
     inkscape:window-x="-8"
     inkscape:window-y="114"
     inkscape:window-maximized="1"
     inkscape:showpageshadow="2"
     inkscape:pagecheckerboard="true"
     inkscape:deskcolor="#d1d1d1" />
  <metadata
     id="metadata7">
    <rdf:RDF>
      <cc:Work
         rdf:about="">
        <dc:format>image/svg+xml</dc:format>
        <dc:type
           rdf:resource="http://purl.org/dc/dcmitype/StillImage" />
      </cc:Work>
    </rdf:RDF>
  </metadata>
  <g
     inkscape:label="Layer 1"
     inkscape:groupmode="layer"
     id="layer1"
     transform="translate(-65.224067,-173.70181)">
    <path
       d="m 105.56684,777.75458 q -15.867944,0 -27.167869,-11.29989 Q 67.099067,755.15481 67.099067,739.2868 V 566.18181 q 0,-15.86801 11.299904,-27.1679 11.299925,-11.29988 27.167869,-11.29988 h 38.46778 v -96.16944 q 0,-15.86801 11.2999,-27.1679 11.29993,-11.29988 27.16788,-11.29988 h 230.80666 q 15.86797,0 27.16787,11.29988 11.2999,11.29989 11.2999,27.1679 v 173.10499 q 0,15.86801 -11.2999,27.16789 -11.2999,11.29989 -27.16787,11.29989 h -38.46778 v 96.16944 q 0,15.86801 -11.2999,27.16789 -11.29991,11.29989 -27.16788,11.29989 z m 0,-38.46778 H 336.3735 V 604.64958 H 105.56684 Z M 374.84128,604.64958 h 38.46778 V 470.01236 H 182.5024 v 57.70167 h 153.8711 q 15.86797,0 27.16788,11.29988 11.2999,11.29989 11.2999,27.1679 z"
       id="path1"
       style="stroke-width:0.480847" />
    <path
       d="m 563.64466,439.05124 c 14.92155,-5e-5 27.13003,-12.20853 27.12999,-27.12999 l -54.25944,5.4e-4 c -10e-6,14.92142 12.07266,27.12976 27.12945,27.12945 z m 81.39009,-81.39009 5.7e-4,-67.82432 c -5.7e-4,-41.64512 -22.24651,-76.50653 -61.04235,-85.73064 l -1.8e-4,-9.22436 c 1.9e-4,-11.25885 -9.08833,-20.34737 -20.34817,-20.34817 -11.25878,2.2e-4 -20.3473,9.08874 -20.34752,20.34752 l 2.3e-4,9.22441 c -38.93176,9.22397 -61.04273,43.95027 -61.04242,85.73076 l 2.7e-4,67.82542 -27.13,27.13 -6e-5,13.56487 217.03995,-1e-5 2.1e-4,-13.56495 z"
       id="path1-9"
       style="fill:#000000;fill-opacity:1;stroke-width:13.565" />
  </g>
</svg>
