<?xml version="1.0" encoding="UTF-8" standalone="no"?>
<!-- Created with Inkscape (http://www.inkscape.org/) -->

<svg
   width="171.33333mm"
   height="171.33333mm"
   viewBox="0 0 607.0866 607.08659"
   id="svg2"
   version="1.1"
   inkscape:version="1.4.3 (0d15f75, 2025-12-25)"
   sodipodi:docname="glyph_preferences_throttle_screen_layout.svg"
   inkscape:export-filename="C:\Users\akers\StudioProjects\EngineDriver\EngineDriver\src\main\res\drawable-xhdpi\advanced_preferences.png"
   inkscape:export-xdpi="7.0892334"
   inkscape:export-ydpi="7.0892334"
   xmlns:inkscape="http://www.inkscape.org/namespaces/inkscape"
   xmlns:sodipodi="http://sodipodi.sourceforge.net/DTD/sodipodi-0.dtd"
   xmlns="http://www.w3.org/2000/svg"
   xmlns:svg="http://www.w3.org/2000/svg"
   xmlns:rdf="http://www.w3.org/1999/02/22-rdf-syntax-ns#"
   xmlns:cc="http://creativecommons.org/ns#"
   xmlns:dc="http://purl.org/dc/elements/1.1/">
  <defs
     id="defs4">
    <linearGradient
       id="linearGradient4155"
       inkscape:swatch="solid">
      <stop
         style="stop-color:#000000;stop-opacity:1;"
         offset="0"
         id="stop4157" />
    </linearGradient>
    <linearGradient
       id="linearGradient4149">
      <stop
         style="stop-color:#000000;stop-opacity:1;"
         offset="0"
         id="stop4151" />
    </linearGradient>
    <linearGradient
       id="linearGradient4139"
       inkscape:swatch="gradient">
      <stop
         style="stop-color:#2b2200;stop-opacity:1;"
         offset="0"
         id="stop4141" />
      <stop
         style="stop-color:#2b2200;stop-opacity:0;"
         offset="1"
         id="stop4143" />
    </linearGradient>
  </defs>
  <sodipodi:namedview
     id="base"
     pagecolor="#ffffff"
     bordercolor="#666666"
     borderopacity="1.0"
     inkscape:pageopacity="0.0"
     inkscape:pageshadow="2"
     inkscape:zoom="0.70710678"
     inkscape:cx="177.4838"
     inkscape:cy="388.20162"
     inkscape:document-units="px"
     inkscape:current-layer="g4165"
     showgrid="false"
     fit-margin-top="1"
     fit-margin-left="1"
     fit-margin-right="1"
     fit-margin-bottom="1"
     units="mm"
     inkscape:window-width="1920"
     inkscape:window-height="1094"
     inkscape:window-x="-11"
     inkscape:window-y="-11"
     inkscape:window-maximized="1"
     inkscape:showpageshadow="2"
     inkscape:pagecheckerboard="0"
     inkscape:deskcolor="#d1d1d1" />
  <metadata
     id="metadata7">
    <rdf:RDF>
      <cc:Work
         rdf:about="">
        <dc:format>image/svg+xml</dc:format>
        <dc:type
           rdf:resource="http://purl.org/dc/dcmitype/StillImage" />
      </cc:Work>
    </rdf:RDF>
  </metadata>
  <g
     inkscape:label="Layer 1"
     inkscape:groupmode="layer"
     id="layer1"
     transform="translate(-65.224067,-173.70181)">
    <g
       id="g4165"
       transform="matrix(0.70710678,-0.70710678,0.70710678,0.70710678,-256.86318,384.18552)">
      <g
         transform="matrix(1.0501336,1.0501336,-1.0501336,1.0501336,295.87072,-77.788171)"
         id="g72"
         style="font-variation-settings:normal;vector-effect:none;fill:#ffffff;fill-opacity:1;stroke-width:1;stroke-linecap:butt;stroke-linejoin:miter;stroke-miterlimit:4;stroke-dasharray:none;stroke-dashoffset:0;stroke-opacity:1;stop-color:#000000">
        <g
           id="g70"
           style="font-variation-settings:normal;vector-effect:none;fill:#ffffff;fill-opacity:1;stroke-width:1;stroke-linecap:butt;stroke-linejoin:miter;stroke-miterlimit:4;stroke-dasharray:none;stroke-dashoffset:0;stroke-opacity:1;stop-color:#000000;stop-opacity:1">
          <path
             inkscape:connector-curvature="0"
             d="m 243.28434,424.639 h -7.90273 c -4.58,0 -8.294,3.713 -8.294,8.294 0,4.58 3.713,8.294 8.294,8.294 h 7.90273 c 4.58,0 8.294,-3.713 8.294,-8.294 -0.001,-4.58 -3.714,-8.294 -8.294,-8.294 z"
             id="path68"
             sodipodi:nodetypes="ssssscs"
             style="font-variation-settings:normal;vector-effect:none;fill:#ffffff;fill-opacity:1;stroke-width:1;stroke-linecap:butt;stroke-linejoin:miter;stroke-miterlimit:4;stroke-dasharray:none;stroke-dashoffset:0;stroke-opacity:1;stop-color:#000000;stop-opacity:1" />
        </g>
      </g>
      <g
         id="g925"
         transform="matrix(1.0501336,1.0501336,-1.0501336,1.0501336,332.45038,-114.3678)"
         style="fill:#ffffff;fill-opacity:1">
        <g
           id="g923"
           style="fill:#ffffff;fill-opacity:1">
          <path
             sodipodi:nodetypes="ssssscs"
             id="path921"
             d="m 249.04985,424.639 h -19.51444 c -4.58,0 -8.294,3.713 -8.294,8.294 0,4.58 3.713,8.294 8.294,8.294 h 19.51444 c 4.58,0 8.294,-3.713 8.294,-8.294 -10e-4,-4.58 -3.714,-8.294 -8.294,-8.294 z"
             inkscape:connector-curvature="0"
             style="fill:#ffffff;fill-opacity:1" />
        </g>
      </g>
      <g
         transform="matrix(1.0501336,1.0501336,-1.0501336,1.0501336,369.03004,-150.94746)"
         id="g931"
         style="fill:#ffffff;fill-opacity:1">
        <g
           id="g929"
           style="fill:#ffffff;fill-opacity:1">
          <path
             inkscape:connector-curvature="0"
             d="m 254.81536,424.639 h -30.92423 c -4.58,0 -8.294,3.713 -8.294,8.294 0,4.58 3.713,8.294 8.294,8.294 h 30.92423 c 4.58,0 8.294,-3.713 8.294,-8.294 -10e-4,-4.58 -3.714,-8.294 -8.294,-8.294 z"
             id="path927"
             sodipodi:nodetypes="ssssscs"
             style="fill:#ffffff;fill-opacity:1" />
        </g>
      </g>
      <g
         id="g937"
         transform="matrix(1.0501336,1.0501336,-1.0501336,1.0501336,405.60968,-187.52695)"
         style="fill:#ffffff;fill-opacity:1">
        <g
           id="g935"
           style="fill:#ffffff;fill-opacity:1">
          <path
             sodipodi:nodetypes="ssssscs"
             id="path933"
             d="m 260.58088,424.639 h -42.16983 c -4.58,0 -8.294,3.713 -8.294,8.294 0,4.58 3.713,8.294 8.294,8.294 h 42.16983 c 4.58,0 8.294,-3.713 8.294,-8.294 -0.001,-4.58 -3.714,-8.294 -8.294,-8.294 z"
             inkscape:connector-curvature="0"
             style="fill:#ffffff;fill-opacity:1" />
        </g>
      </g>
      <g
         id="g925-5"
         transform="matrix(1.0501336,1.0501336,-1.0501336,1.0501336,442.18934,-224.10657)"
         style="fill:#ffffff;fill-opacity:1">
        <g
           id="g923-7"
           style="fill:#ffffff;fill-opacity:1">
          <path
             sodipodi:nodetypes="ssssscs"
             id="path921-6"
             d="m 266.34639,424.639 h -53.41542 c -4.58,0 -8.294,3.713 -8.294,8.294 0,4.58 3.713,8.294 8.294,8.294 h 53.41542 c 4.58,0 8.294,-3.713 8.294,-8.294 -0.001,-4.58 -3.714,-8.294 -8.294,-8.294 z"
             inkscape:connector-curvature="0"
             style="fill:#ffffff;fill-opacity:1" />
        </g>
      </g>
      <g
         transform="matrix(1.0501336,1.0501336,-1.0501336,1.0501336,478.76897,-260.68621)"
         id="g931-1"
         style="fill:#ffffff;fill-opacity:1">
        <g
           id="g929-9"
           style="fill:#ffffff;fill-opacity:1">
          <path
             inkscape:connector-curvature="0"
             d="m 272.1119,424.639 h -64.91495 c -4.58,0 -8.294,3.713 -8.294,8.294 0,4.58 3.713,8.294 8.294,8.294 h 64.91495 c 4.58,0 8.294,-3.713 8.294,-8.294 -10e-4,-4.58 -3.714,-8.294 -8.294,-8.294 z"
             id="path927-6"
             sodipodi:nodetypes="ssssscs"
             style="fill:#ffffff;fill-opacity:1" />
        </g>
      </g>
      <g
         id="g937-8"
         transform="matrix(1.0501336,1.0501336,-1.0501336,1.0501336,515.34861,-297.26585)"
         style="fill:#ffffff;fill-opacity:1">
        <g
           id="g935-1"
           style="fill:#ffffff;fill-opacity:1">
          <path
             sodipodi:nodetypes="ssssscs"
             id="path933-7"
             d="m 277.87742,424.639 h -76.1146 c -4.58,0 -8.294,3.713 -8.294,8.294 0,4.58 3.713,8.294 8.294,8.294 h 76.1146 c 4.58,0 8.294,-3.713 8.294,-8.294 -0.001,-4.58 -3.714,-8.294 -8.294,-8.294 z"
             inkscape:connector-curvature="0"
             style="fill:#ffffff;fill-opacity:1" />
        </g>
      </g>
      <g
         id="g925-5-9"
         transform="matrix(1.0501336,1.0501336,-1.0501336,1.0501336,551.92829,-333.84551)"
         style="fill:#ffffff;fill-opacity:1">
        <g
           id="g923-7-6"
           style="fill:#ffffff;fill-opacity:1">
          <path
             sodipodi:nodetypes="ssssscs"
             id="path921-6-7"
             d="m 283.64292,424.639 h -87.54279 c -4.58,0 -8.294,3.713 -8.294,8.294 0,4.58 3.713,8.294 8.294,8.294 h 87.54279 c 4.58,0 8.294,-3.713 8.294,-8.294 -10e-4,-4.58 -3.714,-8.294 -8.294,-8.294 z"
             inkscape:connector-curvature="0"
             style="fill:#ffffff;fill-opacity:1" />
        </g>
      </g>
      <g
         transform="matrix(1.0501336,1.0501336,-1.0501336,1.0501336,588.50792,-370.42514)"
         id="g931-1-8"
         style="fill:#ffffff;fill-opacity:1">
        <g
           id="g929-9-5"
           style="fill:#ffffff;fill-opacity:1">
          <path
             inkscape:connector-curvature="0"
             d="m 289.40844,424.639 h -99.02278 c -4.58,0 -8.294,3.713 -8.294,8.294 0,4.58 3.713,8.294 8.294,8.294 h 99.02278 c 4.58,0 8.294,-3.713 8.294,-8.294 -0.001,-4.58 -3.714,-8.294 -8.294,-8.294 z"
             id="path927-6-6"
             sodipodi:nodetypes="ssssscs"
             style="fill:#ffffff;fill-opacity:1" />
        </g>
      </g>
      <g
         id="g937-8-0"
         transform="matrix(1.0501336,1.0501336,-1.0501336,1.0501336,625.08758,-407.00478)"
         style="fill:#ffffff;fill-opacity:1">
        <g
           id="g935-1-5"
           style="fill:#ffffff;fill-opacity:1">
          <path
             sodipodi:nodetypes="ssssscs"
             id="path933-7-7"
             d="M 295.17395,424.639 H 184.49442 c -4.58,0 -8.294,3.713 -8.294,8.294 0,4.58 3.713,8.294 8.294,8.294 h 110.67953 c 4.58,0 8.294,-3.713 8.294,-8.294 -10e-4,-4.58 -3.714,-8.294 -8.294,-8.294 z"
             inkscape:connector-curvature="0"
             style="fill:#ffffff;fill-opacity:1" />
        </g>
      </g>
      <g
         transform="matrix(1.0501336,1.0501336,-1.0501336,1.0501336,441.20699,67.548112)"
         id="g72-1"
         style="fill:#ffffff;fill-opacity:1">
        <g
           id="g70-0"
           style="fill:#ffffff;fill-opacity:1">
          <path
             inkscape:connector-curvature="0"
             d="m 277.28434,408.639 h -41.90273 c -4.58,0 -8.294,11.713 -8.294,16.294 0,4.58 3.713,16.294 8.294,16.294 h 41.90273 c 4.58,0 8.294,-11.713 8.294,-16.294 -0.001,-4.58 -3.714,-16.294 -8.294,-16.294 z"
             id="path68-0"
             sodipodi:nodetypes="ssssscs"
             style="fill:#ffffff;fill-opacity:1" />
        </g>
      </g>
      <path
         inkscape:connector-curvature="0"
         d="m 355.02157,736.10475 -44.00346,-44.00347 c -4.80961,-4.80961 -21.01004,3.59043 -25.8207,8.40107 -4.80961,4.80961 -13.21172,21.01004 -8.40107,25.82068 l 44.00346,44.00347 c 4.80961,4.80961 21.01001,-3.5904 25.8207,-8.40108 4.80868,-4.81053 13.21069,-21.01106 8.40107,-25.82067 z"
         id="path68-0-2"
         sodipodi:nodetypes="ssssscs"
         style="fill:#ffffff;fill-opacity:1;stroke-width:1.4851" />
      <path
         inkscape:connector-curvature="0"
         d="m 406.7761,684.35024 -44.00348,-44.00348 c -4.80961,-4.80961 -21.01003,3.59042 -25.82069,8.40107 -4.80961,4.80961 -13.21172,21.01002 -8.40108,25.82069 l 44.00347,44.00344 c 4.80961,4.80962 21.01002,-3.59038 25.8207,-8.40106 4.80868,-4.81053 13.21069,-21.01105 8.40108,-25.82066 z"
         id="path68-0-2-9"
         sodipodi:nodetypes="ssssscs"
         style="fill:#ffffff;fill-opacity:1;stroke-width:1.4851" />
      <path
         inkscape:connector-curvature="0"
         d="m 458.5306,632.5957 -44.00347,-44.00346 c -4.80961,-4.80962 -21.01002,3.59041 -25.8207,8.40107 -4.80961,4.80963 -13.21171,21.01001 -8.40105,25.82068 l 44.00346,44.00345 c 4.80962,4.80962 21.01003,-3.59038 25.82069,-8.40105 4.80867,-4.81052 13.2107,-21.01106 8.40107,-25.82069 z"
         id="path68-0-2-1"
         sodipodi:nodetypes="ssssscs"
         style="fill:#ffffff;fill-opacity:1;stroke-width:1.4851" />
      <path
         inkscape:connector-curvature="0"
         d="m 510.28513,580.8412 -44.00348,-44.00347 c -4.80961,-4.80962 -21.01003,3.59042 -25.82069,8.40107 -4.80962,4.80962 -13.21171,21.01003 -8.40107,25.82069 l 44.00346,44.00345 c 4.80962,4.80961 21.01003,-3.59039 25.8207,-8.40106 4.80869,-4.81054 13.21069,-21.01106 8.40108,-25.82068 z"
         id="path68-0-2-9-5"
         sodipodi:nodetypes="ssssscs"
         style="fill:#ffffff;fill-opacity:1;stroke-width:1.4851" />
      <path
         inkscape:connector-curvature="0"
         d="m 562.03962,529.08668 -44.00347,-44.00347 c -4.80961,-4.80961 -21.01001,3.59041 -25.82066,8.40106 -4.80962,4.80962 -13.21175,21.01003 -8.40108,25.8207 l 44.00347,44.00345 c 4.80961,4.8096 21.01001,-3.5904 25.8207,-8.40107 4.80868,-4.81054 13.21066,-21.01105 8.40104,-25.82067 z"
         id="path68-0-2-18"
         sodipodi:nodetypes="ssssscs"
         style="fill:#ffffff;fill-opacity:1;stroke-width:1.4851" />
      <path
         inkscape:connector-curvature="0"
         d="M 613.79415,477.33217 569.79069,433.3287 c -4.80961,-4.80961 -21.01004,3.59043 -25.8207,8.40107 -4.80961,4.80961 -13.21171,21.01003 -8.40107,25.82069 l 44.00347,44.00345 c 4.80961,4.80961 21.01001,-3.5904 25.82068,-8.40107 4.80868,-4.81051 13.21069,-21.01106 8.40108,-25.82067 z"
         id="path68-0-2-9-9"
         sodipodi:nodetypes="ssssscs"
         style="fill:#ffffff;fill-opacity:1;stroke-width:1.4851" />
      <path
         inkscape:connector-curvature="0"
         d="M 689.64635,401.47999 448.04819,159.88183 c -4.80962,-4.80962 -21.01,3.59041 -25.82068,8.40108 -4.80961,4.80961 -13.21174,21.01001 -8.40107,25.82067 l 241.59814,241.59813 c 4.80961,4.80962 21.01002,-3.59039 25.82069,-8.40106 4.80868,-4.81053 13.21069,-21.01105 8.40108,-25.82066 z"
         id="path68-0-2-9-9-5"
         sodipodi:nodetypes="ssssscs"
         style="fill:#ffffff;fill-opacity:1;stroke-width:1.4851" />
    </g>
  </g>
</svg>
