<?xml version="1.0" encoding="UTF-8" standalone="no"?>
<!-- Created with Inkscape (http://www.inkscape.org/) -->

<svg
   width="171.33333mm"
   height="171.33333mm"
   viewBox="0 0 607.0866 607.08659"
   id="svg2"
   version="1.1"
   inkscape:version="1.4.3 (0d15f75, 2025-12-25)"
   sodipodi:docname="glyph_preferences_hide_ipls_button.svg"
   inkscape:export-filename="C:\Users\akers\StudioProjects\EngineDriver\EngineDriver\src\main\res\drawable-xhdpi\advanced_preferences.png"
   inkscape:export-xdpi="7.0892334"
   inkscape:export-ydpi="7.0892334"
   xmlns:inkscape="http://www.inkscape.org/namespaces/inkscape"
   xmlns:sodipodi="http://sodipodi.sourceforge.net/DTD/sodipodi-0.dtd"
   xmlns="http://www.w3.org/2000/svg"
   xmlns:svg="http://www.w3.org/2000/svg"
   xmlns:rdf="http://www.w3.org/1999/02/22-rdf-syntax-ns#"
   xmlns:cc="http://creativecommons.org/ns#"
   xmlns:dc="http://purl.org/dc/elements/1.1/">
  <defs
     id="defs4">
    <linearGradient
       id="linearGradient4155"
       inkscape:swatch="solid">
      <stop
         style="stop-color:#000000;stop-opacity:1;"
         offset="0"
         id="stop4157" />
    </linearGradient>
    <linearGradient
       id="linearGradient4149">
      <stop
         style="stop-color:#000000;stop-opacity:1;"
         offset="0"
         id="stop4151" />
    </linearGradient>
    <linearGradient
       id="linearGradient4139"
       inkscape:swatch="gradient">
      <stop
         style="stop-color:#2b2200;stop-opacity:1;"
         offset="0"
         id="stop4141" />
      <stop
         style="stop-color:#2b2200;stop-opacity:0;"
         offset="1"
         id="stop4143" />
    </linearGradient>
  </defs>
  <sodipodi:namedview
     id="base"
     pagecolor="#ffffff"
     bordercolor="#666666"
     borderopacity="1.0"
     inkscape:pageopacity="0.0"
     inkscape:pageshadow="2"
     inkscape:zoom="0.35355339"
     inkscape:cx="152.73506"
     inkscape:cy="388.90873"
     inkscape:document-units="px"
     inkscape:current-layer="g4165"
     showgrid="false"
     fit-margin-top="1"
     fit-margin-left="1"
     fit-margin-right="1"
     fit-margin-bottom="1"
     units="mm"
     inkscape:window-width="1600"
     inkscape:window-height="829"
     inkscape:window-x="-8"
     inkscape:window-y="114"
     inkscape:window-maximized="1"
     inkscape:showpageshadow="2"
     inkscape:pagecheckerboard="0"
     inkscape:deskcolor="#d1d1d1"
     showguides="true" />
  <metadata
     id="metadata7">
    <rdf:RDF>
      <cc:Work
         rdf:about="">
        <dc:format>image/svg+xml</dc:format>
        <dc:type
           rdf:resource="http://purl.org/dc/dcmitype/StillImage" />
        <dc:title />
      </cc:Work>
    </rdf:RDF>
  </metadata>
  <g
     inkscape:label="Layer 1"
     inkscape:groupmode="layer"
     id="layer1"
     transform="translate(-65.224067,-173.70181)">
    <g
       id="g4165"
       transform="matrix(0.70710678,-0.70710678,0.70710678,0.70710678,-256.86318,384.18552)">
      <a
         id="a4201"
         transform="rotate(45,967.05984,-403.32447)"
         style="stroke:none;fill:#000000">
        <g
           id="g4205"
           style="stroke:none;fill:#000000" />
      </a>
      <g
         transform="matrix(0.61871659,0.61871659,-0.61871659,0.61871659,382.8425,177.48605)"
         id="g14" />
      <g
         transform="matrix(0.61871659,0.61871659,-0.61871659,0.61871659,382.8425,177.48605)"
         id="g16" />
      <g
         transform="matrix(0.61871659,0.61871659,-0.61871659,0.61871659,382.8425,177.48605)"
         id="g18" />
      <g
         transform="matrix(0.61871659,0.61871659,-0.61871659,0.61871659,382.8425,177.48605)"
         id="g20" />
      <g
         transform="matrix(0.61871659,0.61871659,-0.61871659,0.61871659,382.8425,177.48605)"
         id="g22" />
      <g
         transform="matrix(0.61871659,0.61871659,-0.61871659,0.61871659,382.8425,177.48605)"
         id="g24" />
      <g
         transform="matrix(0.61871659,0.61871659,-0.61871659,0.61871659,382.8425,177.48605)"
         id="g26" />
      <g
         transform="matrix(0.61871659,0.61871659,-0.61871659,0.61871659,382.8425,177.48605)"
         id="g28" />
      <g
         transform="matrix(0.61871659,0.61871659,-0.61871659,0.61871659,382.8425,177.48605)"
         id="g30" />
      <g
         transform="matrix(0.61871659,0.61871659,-0.61871659,0.61871659,382.8425,177.48605)"
         id="g32" />
      <g
         transform="matrix(0.61871659,0.61871659,-0.61871659,0.61871659,382.8425,177.48605)"
         id="g34" />
      <g
         transform="matrix(0.61871659,0.61871659,-0.61871659,0.61871659,382.8425,177.48605)"
         id="g36" />
      <g
         transform="matrix(0.61871659,0.61871659,-0.61871659,0.61871659,382.8425,177.48605)"
         id="g38" />
      <g
         transform="matrix(0.61871659,0.61871659,-0.61871659,0.61871659,382.8425,177.48605)"
         id="g40" />
      <g
         transform="matrix(0.61871659,0.61871659,-0.61871659,0.61871659,382.8425,177.48605)"
         id="g42" />
      <path
         id="path152"
         style="fill:#000000;stroke:none;stroke-width:2.30849"
         d="M 384.19379 150.26029 L 347.11729 149.94696 L 346.73275 195.44582 C 336.61243 199.43684 327.11827 205.53611 318.90984 213.74454 L 82.138688 450.51569 C 50.186661 482.46772 50.185372 533.91434 82.137393 565.86637 L 318.90855 802.63753 C 325.6784 809.40738 333.32416 814.7421 341.47347 818.64324 L 341.47477 818.64454 L 341.1718 854.39003 L 378.24829 854.70336 L 384.19379 150.26029 z M 434.25923 213.74454 C 429.03252 208.51783 423.28462 204.14674 417.18534 200.63 L 416.96135 227.03127 L 416.96265 227.03257 C 421.45701 229.91523 425.71532 233.32521 429.6525 237.2624 L 647.51252 455.12242 C 676.91245 484.52235 676.91405 531.85972 647.51382 561.25965 L 429.6538 779.11966 C 424.34754 784.42593 418.45675 788.77479 412.19278 792.16558 L 411.97138 818.51247 C 420.01797 814.62331 427.56671 809.33134 434.26052 802.63753 L 671.03168 565.86637 C 702.98371 533.91434 702.98211 482.46772 671.03038 450.51569 L 434.25923 213.74454 z M 346.51264 221.50916 L 345.53511 337.46578 C 323.40771 342.14791 306.99812 349.22942 287.4448 362.47261 C 268.97134 374.98437 169.25515 474.04546 162.48059 486.61594 C 156.20792 498.25511 155.36284 517.79869 160.52034 531.94518 L 160.52163 531.94389 C 164.49948 542.85469 167.20671 546.31888 188.17493 567.31649 L 211.42089 590.59353 L 263.65633 538.35809 L 315.89048 486.12394 L 289.77276 460.00622 L 263.65504 433.8885 L 280.49587 417.04767 C 302.94544 394.59812 316.29159 385.69738 340.00005 377.36613 C 341.73088 376.75791 343.46891 376.19049 345.21271 375.66224 L 343.18772 615.53044 L 342.0082 616.70996 L 289.77276 668.9454 L 313.06922 692.17194 C 329.31482 708.36754 335.60435 713.99273 342.32801 717.38075 L 341.69358 792.54624 C 335.16249 789.10187 329.02443 784.62618 323.51657 779.11837 L 105.65655 561.25835 C 76.256621 531.85842 76.256621 484.52235 105.65655 455.12242 L 323.51657 237.2624 C 330.36105 230.41791 338.1767 225.16681 346.51264 221.50916 z M 497.9079 381.10278 C 475.61891 359.08048 447.24531 343.73572 416.03172 337.18353 L 415.71321 374.99544 C 442.54431 382.48725 467.02095 398.73672 484.61469 422.33414 C 509.87682 456.21666 516.84692 500.96213 503.00016 540.36625 C 494.66894 564.07467 485.76817 577.42089 463.31862 599.87042 L 446.4778 616.71125 L 420.36007 590.59353 L 413.94847 584.18192 L 412.9541 701.99392 C 421.55121 693.80988 434.1613 681.21996 454.07281 661.32061 C 512.7527 602.6753 522.59006 590.66746 533.89681 563.88281 C 546.83141 533.24189 550.14915 498.30593 543.27987 465.08682 C 536.40193 431.82578 520.1969 403.12509 497.9079 381.10278 z " />
    </g>
  </g>
</svg>
