<?xml version="1.0" encoding="UTF-8" standalone="no"?>
<!-- Created with Inkscape (http://www.inkscape.org/) -->

<svg
   width="171.33333mm"
   height="171.33333mm"
   viewBox="0 0 607.0866 607.08659"
   id="svg2"
   version="1.1"
   inkscape:version="1.4.3 (0d15f75, 2025-12-25)"
   sodipodi:docname="glyph_preferences_tts.svg"
   inkscape:export-filename="C:\Users\akers\StudioProjects\EngineDriver\EngineDriver\src\main\res\drawable-xhdpi\advanced_preferences.png"
   inkscape:export-xdpi="7.0892334"
   inkscape:export-ydpi="7.0892334"
   xmlns:inkscape="http://www.inkscape.org/namespaces/inkscape"
   xmlns:sodipodi="http://sodipodi.sourceforge.net/DTD/sodipodi-0.dtd"
   xmlns="http://www.w3.org/2000/svg"
   xmlns:svg="http://www.w3.org/2000/svg"
   xmlns:rdf="http://www.w3.org/1999/02/22-rdf-syntax-ns#"
   xmlns:cc="http://creativecommons.org/ns#"
   xmlns:dc="http://purl.org/dc/elements/1.1/">
  <defs
     id="defs4">
    <linearGradient
       id="linearGradient4155"
       inkscape:swatch="solid">
      <stop
         style="stop-color:#000000;stop-opacity:1;"
         offset="0"
         id="stop4157" />
    </linearGradient>
    <linearGradient
       id="linearGradient4149">
      <stop
         style="stop-color:#000000;stop-opacity:1;"
         offset="0"
         id="stop4151" />
    </linearGradient>
    <linearGradient
       id="linearGradient4139"
       inkscape:swatch="gradient">
      <stop
         style="stop-color:#2b2200;stop-opacity:1;"
         offset="0"
         id="stop4141" />
      <stop
         style="stop-color:#2b2200;stop-opacity:0;"
         offset="1"
         id="stop4143" />
    </linearGradient>
  </defs>
  <sodipodi:namedview
     id="base"
     pagecolor="#ffffff"
     bordercolor="#666666"
     borderopacity="1.0"
     inkscape:pageopacity="0.0"
     inkscape:pageshadow="2"
     inkscape:zoom="0.25"
     inkscape:cx="72"
     inkscape:cy="-38"
     inkscape:document-units="px"
     inkscape:current-layer="layer1"
     showgrid="false"
     fit-margin-top="1"
     fit-margin-left="1"
     fit-margin-right="1"
     fit-margin-bottom="1"
     units="mm"
     inkscape:window-width="1600"
     inkscape:window-height="829"
     inkscape:window-x="-8"
     inkscape:window-y="114"
     inkscape:window-maximized="1"
     inkscape:showpageshadow="2"
     inkscape:pagecheckerboard="0"
     inkscape:deskcolor="#d1d1d1" />
  <metadata
     id="metadata7">
    <rdf:RDF>
      <cc:Work
         rdf:about="">
        <dc:format>image/svg+xml</dc:format>
        <dc:type
           rdf:resource="http://purl.org/dc/dcmitype/StillImage" />
      </cc:Work>
    </rdf:RDF>
  </metadata>
  <g
     inkscape:label="Layer 1"
     inkscape:groupmode="layer"
     id="layer1"
     transform="translate(-65.224067,-173.70181)">
    <path
       d="m 127.8563,780.10694 q -23.51547,0 -40.261366,-16.74584 Q 70.849067,746.61527 70.849067,723.0997 V 267.04183 q 0,-23.51555 16.745867,-40.26139 16.745896,-16.74583 40.261366,-16.74583 h 232.30447 l -57.00722,57.00722 H 127.8563 V 723.0997 h 313.53978 v -57.00723 h 57.00724 v 57.00723 q 0,23.51557 -16.74587,40.2614 -16.74587,16.74584 -40.26137,16.74584 z m 57.00724,-114.01447 v -57.00723 h 199.52531 v 57.00723 z m 0,-85.51086 v -57.00722 h 142.51808 v 57.00722 z m 256.53254,0 L 327.38162,466.56716 H 241.87077 V 324.04907 h 85.51085 L 441.39608,210.03461 Z m 57.00724,-86.93618 V 296.97049 q 25.65325,14.96447 41.33024,40.61772 15.67699,25.65326 15.67699,57.71991 0,32.06663 -15.67699,57.71989 -15.67699,25.65325 -41.33024,40.61742 z m 0,122.56556 v -59.8576 q 49.88133,-17.81453 81.94791,-61.63895 32.06656,-43.82443 32.06656,-99.40632 0,-55.58222 -32.06656,-99.40634 -32.06658,-43.82442 -81.94791,-61.63926 v -59.85759 q 74.1094,19.24017 122.56554,80.16646 48.45616,60.9266 48.45616,140.73673 0,79.81011 -48.45616,140.73671 -48.45614,60.92629 -122.56554,80.16616 z"
       id="path1"
       style="stroke-width:0.71259" />
  </g>
</svg>
