<?xml version="1.0" encoding="UTF-8" standalone="no"?>
<!-- Created with Inkscape (http://www.inkscape.org/) -->

<svg
   width="171.33333mm"
   height="171.33333mm"
   viewBox="0 0 607.0866 607.08659"
   id="svg2"
   version="1.1"
   inkscape:version="1.4.2 (f4327f4, 2025-05-13)"
   sodipodi:docname="glyph_preferences_dccex_automation_ask.svg"
   inkscape:export-filename="C:\Users\akers\StudioProjects\EngineDriver\EngineDriver\src\main\res\drawable-xhdpi\advanced_preferences.png"
   inkscape:export-xdpi="7.0892334"
   inkscape:export-ydpi="7.0892334"
   xmlns:inkscape="http://www.inkscape.org/namespaces/inkscape"
   xmlns:sodipodi="http://sodipodi.sourceforge.net/DTD/sodipodi-0.dtd"
   xmlns="http://www.w3.org/2000/svg"
   xmlns:svg="http://www.w3.org/2000/svg"
   xmlns:rdf="http://www.w3.org/1999/02/22-rdf-syntax-ns#"
   xmlns:cc="http://creativecommons.org/ns#"
   xmlns:dc="http://purl.org/dc/elements/1.1/">
  <defs
     id="defs4">
    <inkscape:path-effect
       effect="simplify"
       id="path-effect3"
       is_visible="true"
       lpeversion="1.3"
       threshold="0.01"
       steps="1"
       smooth_angles="2.1135029"
       helper_size="10"
       simplify_individual_paths="false"
       simplify_just_coalesce="false" />
    <inkscape:path-effect
       effect="simplify"
       id="path-effect2"
       is_visible="true"
       lpeversion="1.3"
       threshold="0.01"
       steps="46.164384"
       smooth_angles="0"
       helper_size="0.058708415"
       simplify_individual_paths="false"
       simplify_just_coalesce="false" />
    <inkscape:path-effect
       effect="simplify"
       id="path-effect1"
       is_visible="true"
       lpeversion="1.3"
       threshold="38.55"
       steps="1"
       smooth_angles="360"
       helper_size="10"
       simplify_individual_paths="false"
       simplify_just_coalesce="false" />
    <linearGradient
       id="linearGradient4155"
       inkscape:swatch="solid">
      <stop
         style="stop-color:#000000;stop-opacity:1;"
         offset="0"
         id="stop4157" />
    </linearGradient>
    <linearGradient
       id="linearGradient4149">
      <stop
         style="stop-color:#000000;stop-opacity:1;"
         offset="0"
         id="stop4151" />
    </linearGradient>
    <linearGradient
       id="linearGradient4139"
       inkscape:swatch="gradient">
      <stop
         style="stop-color:#2b2200;stop-opacity:1;"
         offset="0"
         id="stop4141" />
      <stop
         style="stop-color:#2b2200;stop-opacity:0;"
         offset="1"
         id="stop4143" />
    </linearGradient>
    <mask
       height="599"
       width="599"
       y="21"
       x="406"
       maskUnits="userSpaceOnUse"
       mask-type="alpha"
       id="mask0-5-8">
      <rect
         id="rect4-1-0"
         fill="#ffffff"
         transform="rotate(-45,406.51,320.148)"
         rx="56.537102"
         height="422.702"
         width="422.702"
         y="320.14801"
         x="406.51001" />
    </mask>
    <mask
       maskUnits="userSpaceOnUse"
       id="mask2">
      <g
         id="g3"
         transform="matrix(0.72714393,-0.72714393,0.72714393,0.72714393,65.095388,222.47635)">
        <rect
           id="rect3"
           fill="#ffffff"
           rx="54.979168"
           height="411.05405"
           width="411.05405"
           y="301.92529"
           x="167.60298"
           style="stroke-width:0.972444" />
      </g>
    </mask>
  </defs>
  <sodipodi:namedview
     id="base"
     pagecolor="#ffffff"
     bordercolor="#666666"
     borderopacity="1.0"
     inkscape:pageopacity="0.0"
     inkscape:pageshadow="2"
     inkscape:zoom="2"
     inkscape:cx="379.75"
     inkscape:cy="146.75"
     inkscape:document-units="px"
     inkscape:current-layer="layer1"
     showgrid="false"
     fit-margin-top="1"
     fit-margin-left="1"
     fit-margin-right="1"
     fit-margin-bottom="1"
     units="mm"
     inkscape:window-width="1600"
     inkscape:window-height="829"
     inkscape:window-x="-8"
     inkscape:window-y="114"
     inkscape:window-maximized="1"
     inkscape:showpageshadow="2"
     inkscape:pagecheckerboard="true"
     inkscape:deskcolor="#d1d1d1" />
  <metadata
     id="metadata7">
    <rdf:RDF>
      <cc:Work
         rdf:about="">
        <dc:format>image/svg+xml</dc:format>
        <dc:type
           rdf:resource="http://purl.org/dc/dcmitype/StillImage" />
      </cc:Work>
    </rdf:RDF>
  </metadata>
  <g
     inkscape:label="Layer 1"
     inkscape:groupmode="layer"
     id="layer1"
     transform="translate(-65.224067,-173.70181)">
    <g
       id="g409"
       transform="matrix(16.644478,0,0,16.644478,17.329258,428.50357)"
       style="fill:#000000;stroke:none;stroke-width:0;stroke-dasharray:none">
      <g
         id="g407"
         style="fill:#000000;stroke:none;stroke-width:0;stroke-dasharray:none">
        <path
           d="M 19,15.18 V 7 C 19,4.79 17.21,3 15,3 12.79,3 11,4.79 11,7 v 10 c 0,1.1 -0.9,2 -2,2 C 7.9,19 7,18.1 7,17 V 8.82 C 8.16,8.4 9,7.3 9,6 9,4.34 7.66,3 6,3 4.34,3 3,4.34 3,6 3,7.3 3.84,8.4 5,8.82 V 17 c 0,2.21 1.79,4 4,4 2.21,0 4,-1.79 4,-4 V 7 c 0,-1.1 0.9,-2 2,-2 1.1,0 2,0.9 2,2 v 8.18 c -1.16,0.41 -2,1.51 -2,2.82 0,1.66 1.34,3 3,3 1.66,0 3,-1.34 3,-3 0,-1.3 -0.84,-2.4 -2,-2.82 z"
           id="path405"
           style="fill:#000000;stroke:none;stroke-width:0;stroke-dasharray:none" />
      </g>
    </g>
    <path
       d="m 322.07071,352.1366 h -56.49178 v -5.64918 q 0,-14.42027 3.27057,-23.34003 3.27058,-9.06842 9.66307,-16.50155 6.54116,-7.43313 29.13787,-26.16461 12.04167,-9.81173 12.04167,-17.98818 0,-8.17644 -4.90586,-12.63632 -4.75721,-4.60854 -14.56894,-4.60854 -10.55504,0 -17.54218,6.98714 -6.83848,6.98715 -8.7711,24.38067 l -57.68109,-7.13581 q 2.97326,-31.81379 23.04271,-51.13993 20.21811,-19.4748 61.84364,-19.4748 32.40844,0 52.32923,13.5283 27.05659,18.2855 27.05659,48.76133 0,12.63632 -6.98714,24.38066 -6.98714,11.74435 -28.54322,28.69189 -15.01492,11.893 -19.02881,19.17747 -3.86523,7.13581 -3.86523,18.73149 z m -58.4244,15.01492 h 60.50568 v 53.36987 h -60.50568 z"
       id="text1"
       style="font-weight:900;font-size:304.461px;font-family:Arial;-inkscape-font-specification:'Arial, Heavy';stroke-width:0;stroke-dasharray:none;stroke:none;fill:#000000"
       aria-label="?" />
    <g
       id="g1"
       transform="matrix(0.49940619,0,0,0.49940619,575.94986,344.53134)"
       style="stroke-width:21.08691869;stroke-dasharray:none">
      <rect
         id="rect2"
         stroke-linejoin="round"
         stroke-miterlimit="16"
         stroke-width="13.9679"
         stroke="#00353D"
         fill="#ffffff"
         rx="61.963062"
         height="425.02225"
         width="425.02225"
         y="-317.82132"
         x="-239.49803"
         style="stroke:#000000;stroke-opacity:0.956863;stroke-width:21.08691869;stroke-dasharray:none"
         transform="rotate(-45)" />
      <path
         id="path11"
         stroke-width="20.5195"
         stroke="#ffffff"
         d="M 570.647,491.57 C 763.91012,341.30531 699.49055,179.91321 631.59507,86.007008 M 681.32071,42.94782 C 784.24852,137.46691 956.34112,344.40891 784.486,549.38 L 736.2,597.1"
         style="fill:none;stroke:#000000;stroke-width:21.68445443;stroke-dasharray:none"
         transform="matrix(0.97244405,0,0,0.97244405,-779.87617,-366.46387)"
         mask="url(#mask2)"
         sodipodi:nodetypes="ccccc" />
    </g>
  </g>
</svg>
