<?xml version="1.0" encoding="UTF-8" standalone="no"?>
<!-- Created with Inkscape (http://www.inkscape.org/) -->

<svg
   width="171.33333mm"
   height="171.33333mm"
   viewBox="0 0 607.0866 607.08659"
   id="svg2"
   version="1.1"
   inkscape:version="1.4.3 (0d15f75, 2025-12-25)"
   sodipodi:docname="glyph_preferences_dccex_estop_pause_resume.svg"
   inkscape:export-filename="C:\Users\akers\StudioProjects\EngineDriver\EngineDriver\src\main\res\drawable-xhdpi\advanced_preferences.png"
   inkscape:export-xdpi="7.0892334"
   inkscape:export-ydpi="7.0892334"
   xmlns:inkscape="http://www.inkscape.org/namespaces/inkscape"
   xmlns:sodipodi="http://sodipodi.sourceforge.net/DTD/sodipodi-0.dtd"
   xmlns="http://www.w3.org/2000/svg"
   xmlns:svg="http://www.w3.org/2000/svg"
   xmlns:rdf="http://www.w3.org/1999/02/22-rdf-syntax-ns#"
   xmlns:cc="http://creativecommons.org/ns#"
   xmlns:dc="http://purl.org/dc/elements/1.1/">
  <defs
     id="defs4">
    <linearGradient
       id="linearGradient4155"
       inkscape:swatch="solid">
      <stop
         style="stop-color:#000000;stop-opacity:1;"
         offset="0"
         id="stop4157" />
    </linearGradient>
    <linearGradient
       id="linearGradient4149">
      <stop
         style="stop-color:#000000;stop-opacity:1;"
         offset="0"
         id="stop4151" />
    </linearGradient>
    <linearGradient
       id="linearGradient4139"
       inkscape:swatch="gradient">
      <stop
         style="stop-color:#2b2200;stop-opacity:1;"
         offset="0"
         id="stop4141" />
      <stop
         style="stop-color:#2b2200;stop-opacity:0;"
         offset="1"
         id="stop4143" />
    </linearGradient>
    <mask
       height="599"
       width="599"
       y="21"
       x="406"
       maskUnits="userSpaceOnUse"
       mask-type="alpha"
       id="mask0-5-8">
      <rect
         id="rect4-1-0"
         fill="#ffffff"
         transform="rotate(-45,406.51,320.148)"
         rx="56.537102"
         height="422.702"
         width="422.702"
         y="320.14801"
         x="406.51001" />
    </mask>
  </defs>
  <sodipodi:namedview
     id="base"
     pagecolor="#ffffff"
     bordercolor="#666666"
     borderopacity="1.0"
     inkscape:pageopacity="0.0"
     inkscape:pageshadow="2"
     inkscape:zoom="0.5"
     inkscape:cx="54"
     inkscape:cy="469"
     inkscape:document-units="px"
     inkscape:current-layer="layer1"
     showgrid="false"
     fit-margin-top="1"
     fit-margin-left="1"
     fit-margin-right="1"
     fit-margin-bottom="1"
     units="mm"
     inkscape:window-width="1600"
     inkscape:window-height="829"
     inkscape:window-x="-8"
     inkscape:window-y="114"
     inkscape:window-maximized="1"
     inkscape:showpageshadow="2"
     inkscape:pagecheckerboard="true"
     inkscape:deskcolor="#d1d1d1" />
  <metadata
     id="metadata7">
    <rdf:RDF>
      <cc:Work
         rdf:about="">
        <dc:format>image/svg+xml</dc:format>
        <dc:type
           rdf:resource="http://purl.org/dc/dcmitype/StillImage" />
      </cc:Work>
    </rdf:RDF>
  </metadata>
  <g
     inkscape:label="Layer 1"
     inkscape:groupmode="layer"
     id="layer1"
     transform="translate(-65.224067,-173.70181)">
    <g
       transform="matrix(10.33172,0,0,10.33172,427.56794,176.51431)"
       id="g12"
       style="fill:#000000">
      <path
         id="circle2"
         d="m 23.232,5.5 a 1.5,1.5 0 0 1 -1.5,1.5 1.5,1.5 0 0 1 -1.5,-1.5 1.5,1.5 0 0 1 1.5,-1.5 1.5,1.5 0 0 1 1.5,1.5 z" />
      <path
         id="circle4"
         d="m 19.232,2.5 a 1.5,1.5 0 0 1 -1.5,1.5 1.5,1.5 0 0 1 -1.5,-1.5 1.5,1.5 0 0 1 1.5,-1.5 1.5,1.5 0 0 1 1.5,1.5 z" />
      <path
         id="circle6"
         d="m 15.232,1.5 a 1.5,1.5 0 0 1 -1.5,1.5 1.5,1.5 0 0 1 -1.5,-1.5 1.5,1.5 0 0 1 1.5,-1.5 1.5,1.5 0 0 1 1.5,1.5 z" />
      <path
         id="circle8"
         d="M 11.232,3.5 A 1.5,1.5 0 0 1 9.7320004,5 a 1.5,1.5 0 0 1 -1.5,-1.5 1.5,1.5 0 0 1 1.5,-1.5 A 1.5,1.5 0 0 1 11.232,3.5 Z" />
      <path
         inkscape:connector-curvature="0"
         style="fill:#000000"
         d="M 20.232,5.5 V 12 c 0,0.276 -0.224,0.5 -0.5,0.5 -0.276,0 -0.5,-0.224 -0.5,-0.5 V 2.5 h -3 V 11 c 0,0.276 -0.224,0.5 -0.5,0.5 -0.276,0 -0.5,-0.224 -0.5,-0.5 V 1.5 h -3 V 11 c 0,0.276 -0.224,0.5 -0.5,0.5 -0.276,0 -0.5,-0.224 -0.5,-0.5 V 3.5 h -3 V 16 L 6.207,13.229 c -0.6,-0.925 -1.771,-1.235 -2.629,-0.705 -0.855,0.542 -1.067,1.724 -0.475,2.646 0,0 3.266,4.943 4.658,7.059 1.392,2.116 3.647,3.771 7.864,3.771 6.982,0 7.607,-5.392 7.607,-7 0,-1.608 0,-13.5 0,-13.5 z"
         id="path10" />
    </g>
    <path
       id="path1-9"
       style="fill:#000000;stroke:none;stroke-width:0;stroke-dasharray:none"
       d="m 302.05736,765.14937 c 1.58169,-0.61473 10.77564,-8.91052 20.43079,-18.43505 15.57117,-15.3605 17.35696,-17.53084 15.43637,-18.10097 -44.8288,-13.30759 -85.89453,-25.38193 -140.48338,-39.63636 -1.57756,-0.41193 -2.47958,1.96916 -2.47958,2.39019 0,1.59433 68.54773,67.63261 69.79425,68.66799 2.20976,1.83547 5.35816,4.14821 13.27957,6.36413 6.85619,1.91792 20.92743,-0.0473 24.02198,-1.24993 z m 70.10232,-82.69488 c 4.92622,-9.59025 4.98903,-9.82308 2.78461,-10.3297 -45.04562,-7.879 -135.21964,-23.16396 -135.21964,-23.16396 l -32.60542,32.49714 c 24.66453,7.30941 49.2962,14.72992 73.93698,22.11895 34.89112,10.464 63.73522,19.06491 64.09816,19.11318 0.90421,0.12024 17.32026,-21.38066 27.00531,-40.23561 z M 193.84164,671.67484 c 6.23608,-5.09061 26.29379,-24.49258 26.29379,-25.43416 -2.68763,-1.01727 -12.07478,-2.0014 -18.28284,-3.91244 6.50555,-12.00361 20.11598,-37.86769 20.11598,-37.86769 h 29.88597 c 5.24462,-9.89752 9.70985,-19.27687 13.44475,-31.12945 -0.53451,-0.43255 -28.88419,1.92829 -29.59821,1.21428 -0.40125,-0.40127 18.07516,-41.76289 19.16194,-42.89619 6.43605,-1.18031 12.98667,-1.79542 19.4894,-2.55638 2.45444,-13.08272 -0.65504,-27.8452 -1.0034,-27.8452 -1.47295,0 -19.6793,4.36021 -21.38784,3.7046 -1.71127,-0.65667 -3.96079,-36.10794 -2.35426,-37.10089 1.76368,-1.08983 14.89409,-3.85134 15.51611,-5.47241 0.24524,-0.63913 -0.9735,-4.84276 -2.70834,-9.34142 -2.28401,-5.92227 -3.64119,-8.17938 -4.91879,-8.17938 -2.48032,0 -16.19192,5.03477 -17.21771,5.03477 -1.23797,0 -13.37058,-28.32116 -12.47636,-29.12354 5.29457,-2.60845 10.97787,-4.41232 16.53332,-6.4016 -6.1635,-10.29283 -9.48872,-15.82959 -10.17568,-15.82959 -0.32532,0 -3.27397,1.09495 -6.55254,2.43319 -5.12934,2.09371 -6.17887,2.23783 -7.52208,1.03293 -1.37283,-1.23144 -9.57686,6.63952 -68.04714,65.28457 -77.17426,77.40495 -72.372554,71.37719 -72.372554,90.85175 0,18.968 -1.994443,16.25133 51.033074,69.5127 31.44671,31.58538 45.86201,45.40496 47.50403,45.54085 1.29655,0.10727 3.44543,0.63025 4.77528,1.16211 4.18772,1.6748 6.10837,1.20077 10.8641,-2.68141 z m 252.49838,-44.80952 c 25.12491,-25.2083 43.44462,-44.39027 44.95922,-47.07518 7.57745,-13.43331 7.57761,-29.86274 6.3e-4,-43.29909 -3.01592,-5.34818 -168.83577,-172.07262 -177.86549,-178.83572 -6.44241,-4.82531 -16.43788,-8.46745 -23.16983,-8.44257 -7.2664,0.0269 -7.23006,1.01415 0.31359,8.4999 l 6.96436,6.91092 10.44607,-4.34121 c 7.88342,7.22276 15.79683,14.42035 23.33026,22.01168 6.70015,6.8233 7.00709,5.76689 -2.80723,9.66197 -2.84046,1.12734 -3.64024,1.88932 -2.94551,2.80615 5.8896,7.77282 13.03053,15.85945 14.00467,15.85945 1.73195,0 13.61675,-3.9952 14.71016,-4.01484 1.19596,-0.0215 24.1234,31.36139 23.42329,32.06151 -1.00233,1.0026 -14.8984,4.27146 -14.75936,5.68634 0.0823,0.82878 4.59745,8.72666 13.90547,24.31895 l 1.29294,2.16594 c 6.11107,-1.28725 12.15897,-2.986 18.35831,-3.80254 2.11219,-0.0329 37.54568,50.24883 35.80688,50.81132 -1.78664,0.57788 -31.25556,3.63472 -31.8078,4.12933 -0.32615,0.29231 7.43205,32.87825 7.43205,32.87825 12.26178,-0.84169 24.52262,-1.69674 36.78339,-2.55287 l -0.53303,62.22709 -34.51694,-0.75178 c 0,0 -13.31343,52.56627 -13.31343,54.25447 0,0.13306 1.47268,0.42461 3.27255,0.64796 1.80002,0.22337 3.50639,0.47865 3.79213,0.56728 0.28558,0.0886 19.60078,-18.98359 42.92265,-42.38271 z m -52.42386,-12.5899 c -43.03662,-0.84329 -86.0867,-1.14066 -129.13029,-1.58267 -16.37696,26.95976 -20.31581,28.01795 -19.20271,29.13121 0.56373,0.56374 132.9028,23.36874 134.12265,23.11236 2.00991,-0.42226 15.64553,-49.22669 14.21035,-50.6609 z m -147.59982,-1.68891 c -6.90788,-0.27239 -13.34335,-0.57379 -19.97104,-0.57379 -4.27162,8.05381 -8.76239,15.55339 -13.25855,23.99193 5.03547,1.49622 8.88837,2.307 13.28751,3.05568 1.18452,0.23736 19.94208,-24.70457 19.94208,-26.47382 z m 190.31458,-52.13814 c -9.27119,0.6652 -27.78104,2.37324 -27.78104,2.37324 2.05455,16.41926 1.97391,29.11435 1.60068,44.15632 h 26.18068 z m -43.4897,3.71125 c -0.54844,-0.54849 -108.59821,7.53297 -109.73724,7.5593 -4.20794,11.02662 -9.47069,21.86576 -13.92778,32.87016 0,0.58045 47.21251,0.91968 125.86945,1.3819 -0.0728,-22.09633 -0.62607,-40.23293 -2.20443,-41.81136 z m -125.63719,0.46681 c 0,0 1.79946,-4.54557 2.50241,-7.28859 1.5665,-6.11207 4.35073,-19.65803 3.86137,-20.14731 -0.33257,-0.33261 -13.86386,1.25293 -14.00199,1.64068 -4.25244,9.20066 -8.53289,18.38836 -12.76435,27.59875 z m 124.31735,-8.49974 c -1.3556,-11.84339 -7.48727,-30.59095 -7.48727,-30.59095 -5.94922,-2.59716 -87.46635,9.21643 -94.21338,10.38209 0,0 -1.04691,5.83458 -1.9614,11.64974 -0.91434,5.81517 -1.92597,11.85081 -2.24794,13.41252 l -0.58556,2.83949 9.94864,-0.7303 c 32.1812,-2.3362 64.36426,-4.64646 96.54691,-6.96259 z m -10.90759,-40.11155 c -0.91767,-2.56739 -10.52131,-29.1455 -16.71634,-34.46647 l -74.83489,16.08297 c 0.84345,7.74073 1.2526,11.77039 1.2526,29.44803 25.29679,-3.12568 90.29863,-11.06453 90.29863,-11.06453 z m 38.0545,-4.63184 c 0.39554,-0.64012 -21.3679,-32.46417 -23.92737,-34.98808 -2.13294,-2.10335 -12.05502,1.63312 -12.21208,1.7902 -0.80156,0.80133 5.08053,12.33807 10.21761,25.57959 4.44413,11.45607 3.98736,10.85076 7.70102,10.20419 4.95571,-0.86279 17.64752,-1.65841 18.22082,-2.5859 z M 268.72103,494.07738 c 2.96678,-0.67266 3.77077,-1.45151 3.7521,-3.18988 -0.0316,-2.99507 -3.5162,-18.68965 -4.32943,-19.5028 -3.77031,-0.21611 -7.60973,1.22507 -11.2544,2.20463 0.0505,7.50475 0.67998,14.96454 1.36461,22.4299 3.4935,-0.55131 6.08306,-0.94786 10.46712,-1.94185 z m 91.58382,-19.60908 c 1.45622,-0.43609 0.9417,-1.82659 -3.43029,-9.27162 -4.04909,-6.89539 -5.96078,-9.96072 -10.79779,-17.07248 0,0 -41.80237,10.9626 -62.12394,18.17202 -0.29143,0.29142 0.46879,5.21609 1.68943,10.94368 2.88872,13.55536 2.69015,12.96475 4.18672,12.45884 1.91045,-0.6459 67.92297,-14.46594 70.47587,-15.23044 z m -19.33482,-33.60122 c 0,-0.50176 -10.34735,-15.24605 -12.60478,-17.96109 -0.56974,-0.6852 -53.85429,16.39232 -53.85429,17.26013 2.8437,6.54603 4.22375,12.38816 6.48671,18.51999 20.77935,-5.99796 40.78319,-11.81005 59.97236,-17.81903 z m -85.59312,-4.3415 c 0,-1.50766 -7.08129,-14.82746 -7.88692,-14.82746 -1.39278,0 -10.2363,3.1836 -10.2363,3.685 2.05316,5.172 4.49134,10.19576 6.82594,15.2487 3.73551,-1.31587 7.26789,-2.31355 11.29728,-4.10624 z m 108.9517,-1.63757 c 1.41271,-0.50262 0.49189,-2.22199 -5.31307,-9.91981 -3.86205,-5.1215 -7.57634,-9.29137 -8.25414,-9.26638 -2.32151,0.3903 -4.44134,1.50503 -6.56724,2.47195 l 6.64271,9.28356 c 7.0449,9.84566 6.91105,9.77197 13.49174,7.43068 z m -41.75803,-18.67615 c 0.38352,-0.29232 -12.96598,-16.14007 -13.88601,-16.48457 -0.92652,-0.347 -45.17411,15.89282 -45.17411,15.89282 0,0 6.45738,12.86997 8.01559,16.14757 1.48468,0 50.78401,-15.35734 51.04453,-15.55582 z m -19.91927,-23.33372 c 0.66862,-0.65618 -14.30877,-15.48606 -15.64016,-15.48606 -1.3817,0 -35.87602,13.98298 -36.84683,14.93662 -0.67527,0.66329 8.2187,16.279 9.27179,16.279 0.69411,0 42.61932,-15.14488 43.2152,-15.72956 z m 12.37251,-15.73979 c -5.87394,-5.87386 -8.55934,-7.91409 -9.79359,-7.44048 -1.37854,0.52899 -0.23353,2.2682 6.04814,9.18743 6.87465,7.57229 7.97916,8.41145 9.79343,7.44048 1.90334,-1.01864 1.4847,-1.65466 -6.04798,-9.18743 z M 281.55,370.39069 c 0,-0.30292 -3.15072,-3.38886 -6.98968,-6.85766 l -6.97987,-6.30686 c 0,0 -3.6916,1.37444 -5.34565,2.41789 -5.87448,3.70591 -15.34347,12.57535 -22.23166,19.57336 l 2.21824,3.11516 c 1.22001,1.71332 2.45663,3.11515 2.74822,3.11515 0.62695,0 36.59363,-14.31214 36.5804,-15.05704 z m -6.40048,406.24006 c -14.3056,-3.62698 -11.19476,-0.81743 -108.03939,-97.57557 -79.694227,-79.62301 -90.130427,-90.40591 -92.906126,-95.99242 -8.592933,-17.29459 -7.890073,-36.75437 1.911633,-52.92713 2.358641,-3.89173 30.415403,-32.58348 92.082943,-94.16695 86.42332,-86.30549 88.88374,-88.66109 96.24286,-92.13883 17.77307,-8.39913 37.39347,-7.07671 53.38392,3.59806 3.14154,2.09722 43.32674,41.59127 93.19509,91.59206 79.42822,79.63925 87.97443,88.52047 90.88798,94.45021 3.50813,7.13951 6.17123,17.99414 6.19876,25.26456 0.0253,6.66581 -3.47348,19.3471 -7.15739,25.94181 -2.44365,4.37465 -23.29766,25.8483 -90.38897,93.07496 -47.96691,48.06358 -89.53286,88.99355 -92.36889,90.95548 -11.5482,7.98901 -29.64514,11.32047 -43.04242,7.92376 z"
       sodipodi:nodetypes="ssssssssssccssssccccccccccccccccccssssssssscsssscccscccccscccccccccssscccsccccccccccccccccccccccccccscscccccccsccscsccccscsccscccsccccccccssccsscscccsssssssssscscscsccssssssssssssss" />
  </g>
</svg>
