<?xml version="1.0" encoding="UTF-8" standalone="no"?>
<!-- Created with Inkscape (http://www.inkscape.org/) -->

<svg
   width="171.33333mm"
   height="171.33333mm"
   viewBox="0 0 607.0866 607.08659"
   id="svg2"
   version="1.1"
   inkscape:version="1.4.3 (0d15f75, 2025-12-25)"
   sodipodi:docname="glyph_preferences_maximum_throttle_change.svg"
   inkscape:export-filename="C:\Users\akers\StudioProjects\EngineDriver\EngineDriver\src\main\res\drawable-xhdpi\advanced_preferences.png"
   inkscape:export-xdpi="7.0892334"
   inkscape:export-ydpi="7.0892334"
   xmlns:inkscape="http://www.inkscape.org/namespaces/inkscape"
   xmlns:sodipodi="http://sodipodi.sourceforge.net/DTD/sodipodi-0.dtd"
   xmlns="http://www.w3.org/2000/svg"
   xmlns:svg="http://www.w3.org/2000/svg"
   xmlns:rdf="http://www.w3.org/1999/02/22-rdf-syntax-ns#"
   xmlns:cc="http://creativecommons.org/ns#"
   xmlns:dc="http://purl.org/dc/elements/1.1/">
  <defs
     id="defs4">
    <linearGradient
       id="linearGradient4155"
       inkscape:swatch="solid">
      <stop
         style="stop-color:#000000;stop-opacity:1;"
         offset="0"
         id="stop4157" />
    </linearGradient>
    <linearGradient
       id="linearGradient4149">
      <stop
         style="stop-color:#000000;stop-opacity:1;"
         offset="0"
         id="stop4151" />
    </linearGradient>
    <linearGradient
       id="linearGradient4139"
       inkscape:swatch="gradient">
      <stop
         style="stop-color:#2b2200;stop-opacity:1;"
         offset="0"
         id="stop4141" />
      <stop
         style="stop-color:#2b2200;stop-opacity:0;"
         offset="1"
         id="stop4143" />
    </linearGradient>
  </defs>
  <sodipodi:namedview
     id="base"
     pagecolor="#ffffff"
     bordercolor="#666666"
     borderopacity="1.0"
     inkscape:pageopacity="0.0"
     inkscape:pageshadow="2"
     inkscape:zoom="0.25"
     inkscape:cx="-426"
     inkscape:cy="362"
     inkscape:document-units="px"
     inkscape:current-layer="g4165"
     showgrid="false"
     fit-margin-top="1"
     fit-margin-left="1"
     fit-margin-right="1"
     fit-margin-bottom="1"
     units="mm"
     inkscape:window-width="1600"
     inkscape:window-height="829"
     inkscape:window-x="-8"
     inkscape:window-y="114"
     inkscape:window-maximized="1"
     inkscape:showpageshadow="2"
     inkscape:pagecheckerboard="0"
     inkscape:deskcolor="#d1d1d1"
     showguides="true" />
  <metadata
     id="metadata7">
    <rdf:RDF>
      <cc:Work
         rdf:about="">
        <dc:format>image/svg+xml</dc:format>
        <dc:type
           rdf:resource="http://purl.org/dc/dcmitype/StillImage" />
        <dc:title />
      </cc:Work>
    </rdf:RDF>
  </metadata>
  <g
     inkscape:label="Layer 1"
     inkscape:groupmode="layer"
     id="layer1"
     transform="translate(-65.224067,-173.70181)">
    <g
       id="g4165"
       transform="matrix(0.70710678,-0.70710678,0.70710678,0.70710678,-256.86318,384.18552)">
      <path
         d="m 656.6033,529.31982 -55.25925,11.12362 A 202.98286,202.98286 0 0 1 461.40172,672.49154 L 212.735,423.82488 a 202.98286,202.98286 0 0 1 388.60905,-11.48246 l 55.25925,11.12362 a 253.72857,253.72857 0 0 0 -492.6685,-12.55892 50.745714,50.745714 0 0 0 12.91756,48.80037 l 248.48716,248.48737 a 50.745714,50.745714 0 0 0 49.15919,13.27643 253.72857,253.72857 0 0 0 182.46347,-192.15147 z M 358.23907,476.39293 a 50.745714,50.745714 0 0 0 50.77386,50.77393 L 662.88278,476.39293 409.01293,425.61897 a 50.745714,50.745714 0 0 0 -50.77386,50.77396 z"
         id="path2"
         style="stroke-width:25.3729" />
      <path
         d="m 98.740839,431.40944 31.668411,31.66841 -54.537063,78.97912 78.925993,-54.59019 31.56214,31.56214 L 76.643541,628.7457 56.983622,609.08579 140.65577,525.41365 41.733897,593.83606 23.933702,576.03586 92.409258,477.16714 8.7371153,560.83928 -10.975942,541.12622 Z m 59.297891,242.50845 -27.41762,-27.41762 -21.88408,14.33892 -24.601461,-24.60146 138.994121,-80.43944 26.24865,26.24865 -80.43945,138.99412 -25.18595,-25.18596 z m 18.67676,-28.77238 30.83329,-48.04902 -47.99587,30.88644 z m 104.27813,-31.48329 26.51433,26.51433 -19.93818,47.56833 47.14326,-20.36325 26.24864,26.24864 -77.36657,28.90753 -30.0654,83.09406 -27.04568,-27.04568 19.89407,-50.60606 -50.65918,19.84095 -26.88627,-26.88627 84.06472,-30.29218 z"
         id="text1"
         style="font-weight:900;font-size:214.499px;font-family:Arial;-inkscape-font-specification:'Arial, Heavy';stroke-width:7.74022"
         aria-label="MAX" />
      <path
         d="m 361.03361,740.78548 23.87715,23.87715 24.00184,-24.00184 20.13661,20.13661 -24.00184,24.00184 24.00184,24.00185 -20.19895,20.19895 -24.00184,-24.00185 -23.87716,23.87716 -20.13661,-20.13661 23.87715,-23.87716 -23.87715,-23.87715 z"
         id="path3"
         style="font-weight:900;font-size:180.563px;font-family:Arial;-inkscape-font-specification:'Arial, Heavy';stroke-width:7.09958" />
      <path
         d="m 294.75879,807.14862 67.37548,67.37549 -19.63787,19.63786 -67.37548,-67.37548 z"
         id="path4"
         style="font-weight:900;font-size:180.563px;font-family:Arial;-inkscape-font-specification:'Arial, Heavy';stroke-width:9.59247" />
    </g>
  </g>
</svg>
