<?xml version="1.0" encoding="UTF-8" standalone="no"?>
<!-- Created with Inkscape (http://www.inkscape.org/) -->

<svg
   width="171.33333mm"
   height="171.33333mm"
   viewBox="0 0 607.0866 607.08659"
   id="svg2"
   version="1.1"
   inkscape:version="1.4.2 (f4327f4, 2025-05-13)"
   sodipodi:docname="glyph_preferences_dccex_estop_pause_resume.svg"
   inkscape:export-filename="C:\Users\akers\StudioProjects\EngineDriver\EngineDriver\src\main\res\drawable-xhdpi\advanced_preferences.png"
   inkscape:export-xdpi="7.0892334"
   inkscape:export-ydpi="7.0892334"
   xmlns:inkscape="http://www.inkscape.org/namespaces/inkscape"
   xmlns:sodipodi="http://sodipodi.sourceforge.net/DTD/sodipodi-0.dtd"
   xmlns="http://www.w3.org/2000/svg"
   xmlns:svg="http://www.w3.org/2000/svg"
   xmlns:rdf="http://www.w3.org/1999/02/22-rdf-syntax-ns#"
   xmlns:cc="http://creativecommons.org/ns#"
   xmlns:dc="http://purl.org/dc/elements/1.1/">
  <defs
     id="defs4">
    <linearGradient
       id="linearGradient4155"
       inkscape:swatch="solid">
      <stop
         style="stop-color:#000000;stop-opacity:1;"
         offset="0"
         id="stop4157" />
    </linearGradient>
    <linearGradient
       id="linearGradient4149">
      <stop
         style="stop-color:#000000;stop-opacity:1;"
         offset="0"
         id="stop4151" />
    </linearGradient>
    <linearGradient
       id="linearGradient4139"
       inkscape:swatch="gradient">
      <stop
         style="stop-color:#2b2200;stop-opacity:1;"
         offset="0"
         id="stop4141" />
      <stop
         style="stop-color:#2b2200;stop-opacity:0;"
         offset="1"
         id="stop4143" />
    </linearGradient>
    <mask
       height="599"
       width="599"
       y="21"
       x="406"
       maskUnits="userSpaceOnUse"
       mask-type="alpha"
       id="mask0-5-8">
      <rect
         id="rect4-1-0"
         fill="#ffffff"
         transform="rotate(-45,406.51,320.148)"
         rx="56.537102"
         height="422.702"
         width="422.702"
         y="320.14801"
         x="406.51001" />
    </mask>
    <mask
       maskUnits="userSpaceOnUse"
       id="mask2">
      <g
         id="g3"
         transform="matrix(0.72714393,-0.72714393,0.72714393,0.72714393,65.095388,222.47635)">
        <rect
           id="rect3"
           fill="#ffffff"
           rx="54.979168"
           height="411.05405"
           width="411.05405"
           y="301.92529"
           x="167.60298"
           style="stroke-width:0.972444" />
      </g>
    </mask>
    <mask
       maskUnits="userSpaceOnUse"
       id="mask3">
      <g
         id="g4"
         transform="matrix(0.72714393,-0.72714393,0.72714393,0.72714393,65.095388,222.47635)">
        <rect
           id="rect4"
           fill="#ffffff"
           rx="54.979168"
           height="411.05405"
           width="411.05405"
           y="301.92529"
           x="167.60298"
           style="stroke-width:0.972444" />
      </g>
    </mask>
  </defs>
  <sodipodi:namedview
     id="base"
     pagecolor="#ffffff"
     bordercolor="#666666"
     borderopacity="1.0"
     inkscape:pageopacity="0.0"
     inkscape:pageshadow="2"
     inkscape:zoom="0.5"
     inkscape:cx="53"
     inkscape:cy="469"
     inkscape:document-units="px"
     inkscape:current-layer="layer1"
     showgrid="false"
     fit-margin-top="1"
     fit-margin-left="1"
     fit-margin-right="1"
     fit-margin-bottom="1"
     units="mm"
     inkscape:window-width="1600"
     inkscape:window-height="829"
     inkscape:window-x="-8"
     inkscape:window-y="114"
     inkscape:window-maximized="1"
     inkscape:showpageshadow="2"
     inkscape:pagecheckerboard="true"
     inkscape:deskcolor="#d1d1d1" />
  <metadata
     id="metadata7">
    <rdf:RDF>
      <cc:Work
         rdf:about="">
        <dc:format>image/svg+xml</dc:format>
        <dc:type
           rdf:resource="http://purl.org/dc/dcmitype/StillImage" />
      </cc:Work>
    </rdf:RDF>
  </metadata>
  <g
     inkscape:label="Layer 1"
     inkscape:groupmode="layer"
     id="layer1"
     transform="translate(-65.224067,-173.70181)">
    <g
       transform="matrix(10.33172,0,0,10.33172,427.56794,176.51431)"
       id="g12"
       style="fill:#000000">
      <path
         id="circle2"
         d="m 23.232,5.5 a 1.5,1.5 0 0 1 -1.5,1.5 1.5,1.5 0 0 1 -1.5,-1.5 1.5,1.5 0 0 1 1.5,-1.5 1.5,1.5 0 0 1 1.5,1.5 z" />
      <path
         id="circle4"
         d="m 19.232,2.5 a 1.5,1.5 0 0 1 -1.5,1.5 1.5,1.5 0 0 1 -1.5,-1.5 1.5,1.5 0 0 1 1.5,-1.5 1.5,1.5 0 0 1 1.5,1.5 z" />
      <path
         id="circle6"
         d="m 15.232,1.5 a 1.5,1.5 0 0 1 -1.5,1.5 1.5,1.5 0 0 1 -1.5,-1.5 1.5,1.5 0 0 1 1.5,-1.5 1.5,1.5 0 0 1 1.5,1.5 z" />
      <path
         id="circle8"
         d="M 11.232,3.5 A 1.5,1.5 0 0 1 9.7320004,5 a 1.5,1.5 0 0 1 -1.5,-1.5 1.5,1.5 0 0 1 1.5,-1.5 A 1.5,1.5 0 0 1 11.232,3.5 Z" />
      <path
         inkscape:connector-curvature="0"
         style="fill:#000000"
         d="M 20.232,5.5 V 12 c 0,0.276 -0.224,0.5 -0.5,0.5 -0.276,0 -0.5,-0.224 -0.5,-0.5 V 2.5 h -3 V 11 c 0,0.276 -0.224,0.5 -0.5,0.5 -0.276,0 -0.5,-0.224 -0.5,-0.5 V 1.5 h -3 V 11 c 0,0.276 -0.224,0.5 -0.5,0.5 -0.276,0 -0.5,-0.224 -0.5,-0.5 V 3.5 h -3 V 16 L 6.207,13.229 c -0.6,-0.925 -1.771,-1.235 -2.629,-0.705 -0.855,0.542 -1.067,1.724 -0.475,2.646 0,0 3.266,4.943 4.658,7.059 1.392,2.116 3.647,3.771 7.864,3.771 6.982,0 7.607,-5.392 7.607,-7 0,-1.608 0,-13.5 0,-13.5 z"
         id="path10" />
    </g>
    <g
       transform="matrix(0.65436227,0,0,0.65436227,124.07298,372.18223)"
       id="g14" />
    <g
       transform="matrix(0.65436227,0,0,0.65436227,124.07298,372.18223)"
       id="g16" />
    <g
       transform="matrix(0.65436227,0,0,0.65436227,124.07298,372.18223)"
       id="g18" />
    <g
       transform="matrix(0.65436227,0,0,0.65436227,124.07298,372.18223)"
       id="g20" />
    <g
       transform="matrix(0.65436227,0,0,0.65436227,124.07298,372.18223)"
       id="g22" />
    <g
       transform="matrix(0.65436227,0,0,0.65436227,124.07298,372.18223)"
       id="g24" />
    <g
       transform="matrix(0.65436227,0,0,0.65436227,124.07298,372.18223)"
       id="g26" />
    <g
       transform="matrix(0.65436227,0,0,0.65436227,124.07298,372.18223)"
       id="g28" />
    <g
       transform="matrix(0.65436227,0,0,0.65436227,124.07298,372.18223)"
       id="g30" />
    <g
       transform="matrix(0.65436227,0,0,0.65436227,124.07298,372.18223)"
       id="g32" />
    <g
       transform="matrix(0.65436227,0,0,0.65436227,124.07298,372.18223)"
       id="g34" />
    <g
       transform="matrix(0.65436227,0,0,0.65436227,124.07298,372.18223)"
       id="g36" />
    <g
       transform="matrix(0.65436227,0,0,0.65436227,124.07298,372.18223)"
       id="g38" />
    <g
       transform="matrix(0.65436227,0,0,0.65436227,124.07298,372.18223)"
       id="g40" />
    <g
       transform="matrix(0.65436227,0,0,0.65436227,124.07298,372.18223)"
       id="g42" />
    <g
       id="g1"
       transform="matrix(1.0222386,0,0,1.0222386,-11.218863,-7.5798288)">
      <rect
         id="rect2"
         stroke-linejoin="round"
         stroke-miterlimit="16"
         stroke-width="10.4458"
         stroke="#00353D"
         fill="#ffffff"
         rx="46.338757"
         height="317.85068"
         width="317.85068"
         y="438.80475"
         x="-341.3082"
         style="stroke:#000000;stroke-opacity:0.956863"
         transform="rotate(-45)" />
      <path
         id="path9"
         stroke-width="10.2598"
         stroke="#00353d"
         d="m 614.82312,101.55114 4.96788,8.47586 111.567,-45.0917 30.549,29.4829 -130.163,47.4038 13.282,29.483 146.765,-45.67 25.235,34.108 -158.054,45.092 2.656,39.888 186.611,-39.888 40.51,57.809 -223.136,26.592 -21.915,47.404 262.981,-19.077 v 71.684 l -284.896,-3.469 -23.908,41.045 238.45385,40.73883 -47.61224,76.50824 L 558.03,475.383"
         style="fill:none;stroke:#000000"
         transform="matrix(0.72723725,0,0,0.72723725,-219.57199,318.98289)"
         mask="url(#mask3)"
         sodipodi:nodetypes="ccccccccccccccccccccc" />
      <path
         id="path11"
         stroke-width="20.5195"
         stroke="#ffffff"
         d="M 570.647,491.57 C 763.5436,341.59029 699.73397,180.52534 631.98133,86.542019 M 681.49354,43.106572 C 784.44098,137.69847 956.24497,344.52359 784.486,549.38 L 736.2,597.1"
         style="fill:none;stroke:#000000"
         transform="matrix(0.72723725,0,0,0.72723725,-219.57199,318.98289)"
         mask="url(#mask2)"
         sodipodi:nodetypes="ccccc" />
    </g>
  </g>
</svg>
