<?xml version="1.0" encoding="UTF-8" standalone="no"?>
<!-- Created with Inkscape (http://www.inkscape.org/) -->

<svg
   width="171.33333mm"
   height="171.33333mm"
   viewBox="0 0 607.0866 607.08659"
   id="svg2"
   version="1.1"
   inkscape:version="1.4.3 (0d15f75, 2025-12-25)"
   sodipodi:docname="glyph_preferences_dccex_swap_throw_close.svg"
   inkscape:export-filename="C:\Users\akers\StudioProjects\EngineDriver\EngineDriver\src\main\res\drawable-xhdpi\advanced_preferences.png"
   inkscape:export-xdpi="7.0892334"
   inkscape:export-ydpi="7.0892334"
   xmlns:inkscape="http://www.inkscape.org/namespaces/inkscape"
   xmlns:sodipodi="http://sodipodi.sourceforge.net/DTD/sodipodi-0.dtd"
   xmlns="http://www.w3.org/2000/svg"
   xmlns:svg="http://www.w3.org/2000/svg"
   xmlns:rdf="http://www.w3.org/1999/02/22-rdf-syntax-ns#"
   xmlns:cc="http://creativecommons.org/ns#"
   xmlns:dc="http://purl.org/dc/elements/1.1/">
  <defs
     id="defs4">
    <linearGradient
       id="linearGradient4155"
       inkscape:swatch="solid">
      <stop
         style="stop-color:#000000;stop-opacity:1;"
         offset="0"
         id="stop4157" />
    </linearGradient>
    <linearGradient
       id="linearGradient4149">
      <stop
         style="stop-color:#000000;stop-opacity:1;"
         offset="0"
         id="stop4151" />
    </linearGradient>
    <linearGradient
       id="linearGradient4139"
       inkscape:swatch="gradient">
      <stop
         style="stop-color:#2b2200;stop-opacity:1;"
         offset="0"
         id="stop4141" />
      <stop
         style="stop-color:#2b2200;stop-opacity:0;"
         offset="1"
         id="stop4143" />
    </linearGradient>
    <mask
       height="599"
       width="599"
       y="21"
       x="406"
       maskUnits="userSpaceOnUse"
       mask-type="alpha"
       id="mask0-5-8">
      <rect
         id="rect4-1-0"
         fill="#ffffff"
         transform="rotate(-45,406.51,320.148)"
         rx="56.537102"
         height="422.702"
         width="422.702"
         y="320.14801"
         x="406.51001" />
    </mask>
  </defs>
  <sodipodi:namedview
     id="base"
     pagecolor="#ffffff"
     bordercolor="#666666"
     borderopacity="1.0"
     inkscape:pageopacity="0.0"
     inkscape:pageshadow="2"
     inkscape:zoom="0.35355339"
     inkscape:cx="516.18795"
     inkscape:cy="589.72705"
     inkscape:document-units="px"
     inkscape:current-layer="layer1"
     showgrid="false"
     fit-margin-top="1"
     fit-margin-left="1"
     fit-margin-right="1"
     fit-margin-bottom="1"
     units="mm"
     inkscape:window-width="1600"
     inkscape:window-height="829"
     inkscape:window-x="-8"
     inkscape:window-y="114"
     inkscape:window-maximized="1"
     inkscape:showpageshadow="2"
     inkscape:pagecheckerboard="true"
     inkscape:deskcolor="#d1d1d1" />
  <metadata
     id="metadata7">
    <rdf:RDF>
      <cc:Work
         rdf:about="">
        <dc:format>image/svg+xml</dc:format>
        <dc:type
           rdf:resource="http://purl.org/dc/dcmitype/StillImage" />
      </cc:Work>
    </rdf:RDF>
  </metadata>
  <g
     inkscape:label="Layer 1"
     inkscape:groupmode="layer"
     id="layer1"
     transform="translate(-65.224067,-173.70181)">
    <g
       id="g1"
       transform="matrix(0.66568684,0,0,0.66568684,329.35029,-34.263427)">
      <rect
         id="rect2"
         stroke-linejoin="round"
         stroke-miterlimit="16"
         stroke-width="10.9077"
         stroke="#00353D"
         fill="#ffffff"
         transform="rotate(-45)"
         rx="48.387859"
         height="331.90607"
         width="331.90607"
         y="433.22964"
         x="-350.60178"
         style="fill:none;stroke:#000000;stroke-opacity:0.956863" />
      <g
         transform="matrix(0.75939571,0,0,0.75939571,-242.84379,311.32488)"
         id="g15"
         mask="url(#mask0-5-8)"
         style="fill:none;stroke:#000000">
        <path
           style="fill:none;stroke:#000000"
           id="path7"
           fill="url(#paint0_linear)"
           d="m 558.03,10.9856 c 7.305,6.359 311.428,260.2244 19.227,487.4164 l 94.853,87.162 49.99,11.536 61.722,-42.127 C 1014.79,279.491 624.481,0.449243 615.806,-4.43481 Z" />
        <path
           id="path9"
           stroke-width="10.2598"
           stroke="#00353d"
           d="m 579.281,51.6391 91.645,-38.7324 33.869,26.0143 -101.607,42.7791 16.603,28.3269 111.567,-45.0917 30.549,29.4829 -130.163,47.4038 13.282,29.483 146.765,-45.67 25.235,34.108 -158.054,45.092 2.656,39.888 186.611,-39.888 40.51,57.809 -223.136,26.592 -21.915,47.404 262.981,-19.077 v 71.684 l -284.896,-3.469 -23.908,41.045 284.233,48.56 -44.495,83.246 -279.583,-83.246"
           style="fill:none;stroke:#000000" />
        <path
           id="path11"
           stroke-width="20.5195"
           stroke="#ffffff"
           d="M 570.647,491.57 C 862.849,264.379 565.999,11.7512 558.694,5.39221 M 616.47,-10.0282 c 8.675,4.88406 398.99,283.9262 168.016,559.4082 L 736.2,597.1"
           style="fill:none;stroke:#000000" />
        <path
           id="path13"
           stroke-width="10.2598"
           stroke="#00353d"
           d="M 570.647,491.57 C 862.849,264.379 565.999,11.7512 558.694,5.39221 M 616.47,-10.0282 c 8.675,4.88406 398.99,283.9262 168.016,559.4082 l -44.441,45.157"
           style="fill:none;stroke:#000000" />
      </g>
    </g>
    <g
       id="g302"
       transform="matrix(21.040013,0,0,21.040013,88.970602,337.65945)"
       style="fill:#000000;stroke:none" />
    <path
       id="path300-8"
       style="fill:#000000;stroke:none;stroke-width:21.04"
       d="m 184.05057,665.67325 -29.66642,29.66642 -84.16005,-84.16005 84.16005,-84.16005 29.66642,29.66642 -33.24322,33.45362 c 31.77042,-6.94321 78.47925,1.6832 108.77687,28.61441 v 76.58565 C 244.22501,641.05644 194.99138,622.33083 150.80735,632.21963 Z m 193.14382,0 29.66642,29.66642 84.16005,-84.16005 -84.16005,-84.16005 -29.66642,29.66642 33.24322,33.45362 c -31.77042,-6.94321 -78.47925,1.6832 -108.77687,28.61441 V 481.36274 l 33.45363,33.45362 29.66641,-29.87682 -84.16005,-84.16005 -84.16005,84.16005 29.66642,29.66642 33.45362,-33.24322 v 298.13698 h 42.08002 v -84.16005 c 15.35921,-54.28323 64.59284,-73.00884 108.77687,-63.12004 z" />
  </g>
</svg>
