<?xml version="1.0" encoding="UTF-8" standalone="no"?>
<!-- Created with Inkscape (http://www.inkscape.org/) -->

<svg
   width="171.33333mm"
   height="171.33333mm"
   viewBox="0 0 607.0866 607.08659"
   id="svg2"
   version="1.1"
   inkscape:version="1.4.3 (0d15f75, 2025-12-25)"
   sodipodi:docname="glyph_preferences_maximum_throttle.svg"
   inkscape:export-filename="C:\Users\akers\StudioProjects\EngineDriver\EngineDriver\src\main\res\drawable-xhdpi\advanced_preferences.png"
   inkscape:export-xdpi="7.0892334"
   inkscape:export-ydpi="7.0892334"
   xmlns:inkscape="http://www.inkscape.org/namespaces/inkscape"
   xmlns:sodipodi="http://sodipodi.sourceforge.net/DTD/sodipodi-0.dtd"
   xmlns="http://www.w3.org/2000/svg"
   xmlns:svg="http://www.w3.org/2000/svg"
   xmlns:rdf="http://www.w3.org/1999/02/22-rdf-syntax-ns#"
   xmlns:cc="http://creativecommons.org/ns#"
   xmlns:dc="http://purl.org/dc/elements/1.1/">
  <defs
     id="defs4">
    <linearGradient
       id="linearGradient4155"
       inkscape:swatch="solid">
      <stop
         style="stop-color:#000000;stop-opacity:1;"
         offset="0"
         id="stop4157" />
    </linearGradient>
    <linearGradient
       id="linearGradient4149">
      <stop
         style="stop-color:#000000;stop-opacity:1;"
         offset="0"
         id="stop4151" />
    </linearGradient>
    <linearGradient
       id="linearGradient4139"
       inkscape:swatch="gradient">
      <stop
         style="stop-color:#2b2200;stop-opacity:1;"
         offset="0"
         id="stop4141" />
      <stop
         style="stop-color:#2b2200;stop-opacity:0;"
         offset="1"
         id="stop4143" />
    </linearGradient>
  </defs>
  <sodipodi:namedview
     id="base"
     pagecolor="#ffffff"
     bordercolor="#666666"
     borderopacity="1.0"
     inkscape:pageopacity="0.0"
     inkscape:pageshadow="2"
     inkscape:zoom="0.70710678"
     inkscape:cx="234.75945"
     inkscape:cy="270.8219"
     inkscape:document-units="px"
     inkscape:current-layer="g4165"
     showgrid="false"
     fit-margin-top="1"
     fit-margin-left="1"
     fit-margin-right="1"
     fit-margin-bottom="1"
     units="mm"
     inkscape:window-width="1600"
     inkscape:window-height="829"
     inkscape:window-x="-8"
     inkscape:window-y="114"
     inkscape:window-maximized="1"
     inkscape:showpageshadow="2"
     inkscape:pagecheckerboard="0"
     inkscape:deskcolor="#d1d1d1" />
  <metadata
     id="metadata7">
    <rdf:RDF>
      <cc:Work
         rdf:about="">
        <dc:format>image/svg+xml</dc:format>
        <dc:type
           rdf:resource="http://purl.org/dc/dcmitype/StillImage" />
        <dc:title />
      </cc:Work>
    </rdf:RDF>
  </metadata>
  <g
     inkscape:label="Layer 1"
     inkscape:groupmode="layer"
     id="layer1"
     transform="translate(-65.224067,-173.70181)">
    <g
       id="g4165"
       transform="matrix(0.70710678,-0.70710678,0.70710678,0.70710678,-256.86318,384.18552)">
      <path
         d="m 656.6033,529.31982 -55.25925,11.12362 A 202.98286,202.98286 0 0 1 461.40172,672.49154 L 212.735,423.82488 a 202.98286,202.98286 0 0 1 388.60905,-11.48246 l 55.25925,11.12362 a 253.72857,253.72857 0 0 0 -492.6685,-12.55892 50.745714,50.745714 0 0 0 12.91756,48.80037 l 248.48716,248.48737 a 50.745714,50.745714 0 0 0 49.15919,13.27643 253.72857,253.72857 0 0 0 182.46347,-192.15147 z M 358.23907,476.39293 a 50.745714,50.745714 0 0 0 50.77386,50.77393 L 662.88278,476.39293 409.01293,425.61897 a 50.745714,50.745714 0 0 0 -50.77386,50.77396 z"
         id="path2"
         style="stroke-width:25.3729" />
      <path
         d="m 378.82863,232.7759 h 62.42256 l 24.08924,93.42436 23.98451,-93.42436 h 62.21309 V 386.31863 H 512.78577 V 269.22397 l -30.05919,117.09466 h -35.0865 L 417.68563,269.22397 v 117.09466 h -38.857 z m 297.44978,128.19666 h -54.04369 l -7.43624,25.34607 H 566.30579 L 624.01523,232.7759 h 51.7395 l 57.70945,153.54273 h -49.64479 z m -9.9499,-33.20126 -16.96721,-55.19578 -16.86247,55.19578 z m 71.74407,-94.9954 h 52.26318 l 27.23132,47.23586 26.39343,-47.23586 h 51.7395 l -47.75954,74.36244 52.26318,79.18029 h -53.31054 l -30.26866,-49.33057 -30.37339,49.33057 h -52.99633 l 52.99633,-80.01817 z"
         id="text1"
         style="font-weight:900;font-size:214.499px;font-family:Arial;-inkscape-font-specification:'Arial, Heavy';stroke-width:9.09021"
         transform="matrix(0.69972309,0.69972309,-0.71456839,0.71456839,0,0)"
         aria-label="MAX" />
    </g>
  </g>
</svg>
