<?xml version="1.0" encoding="UTF-8" standalone="no"?>
<!-- Created with Inkscape (http://www.inkscape.org/) -->

<svg
   width="171.33333mm"
   height="171.33333mm"
   viewBox="0 0 607.0866 607.08659"
   id="svg2"
   version="1.1"
   inkscape:version="1.4.3 (0d15f75, 2025-12-25)"
   sodipodi:docname="glyph_preferences_select_loco_while_moving.svg"
   inkscape:export-filename="C:\Users\akers\StudioProjects\EngineDriver\EngineDriver\src\main\res\drawable-xhdpi\advanced_preferences.png"
   inkscape:export-xdpi="7.0892334"
   inkscape:export-ydpi="7.0892334"
   xmlns:inkscape="http://www.inkscape.org/namespaces/inkscape"
   xmlns:sodipodi="http://sodipodi.sourceforge.net/DTD/sodipodi-0.dtd"
   xmlns="http://www.w3.org/2000/svg"
   xmlns:svg="http://www.w3.org/2000/svg"
   xmlns:rdf="http://www.w3.org/1999/02/22-rdf-syntax-ns#"
   xmlns:cc="http://creativecommons.org/ns#"
   xmlns:dc="http://purl.org/dc/elements/1.1/">
  <defs
     id="defs4">
    <linearGradient
       id="linearGradient4155"
       inkscape:swatch="solid">
      <stop
         style="stop-color:#000000;stop-opacity:1;"
         offset="0"
         id="stop4157" />
    </linearGradient>
    <linearGradient
       id="linearGradient4149">
      <stop
         style="stop-color:#000000;stop-opacity:1;"
         offset="0"
         id="stop4151" />
    </linearGradient>
    <linearGradient
       id="linearGradient4139"
       inkscape:swatch="gradient">
      <stop
         style="stop-color:#2b2200;stop-opacity:1;"
         offset="0"
         id="stop4141" />
      <stop
         style="stop-color:#2b2200;stop-opacity:0;"
         offset="1"
         id="stop4143" />
    </linearGradient>
    <mask
       height="599"
       width="599"
       y="21"
       x="406"
       maskUnits="userSpaceOnUse"
       mask-type="alpha"
       id="mask0-5-8">
      <rect
         id="rect4-1-0"
         fill="#ffffff"
         transform="rotate(-45,406.51,320.148)"
         rx="56.537102"
         height="422.702"
         width="422.702"
         y="320.14801"
         x="406.51001" />
    </mask>
  </defs>
  <sodipodi:namedview
     id="base"
     pagecolor="#ffffff"
     bordercolor="#666666"
     borderopacity="1.0"
     inkscape:pageopacity="0.0"
     inkscape:pageshadow="2"
     inkscape:zoom="0.5"
     inkscape:cx="667"
     inkscape:cy="529"
     inkscape:document-units="px"
     inkscape:current-layer="layer1"
     showgrid="false"
     fit-margin-top="1"
     fit-margin-left="1"
     fit-margin-right="1"
     fit-margin-bottom="1"
     units="mm"
     inkscape:window-width="1600"
     inkscape:window-height="829"
     inkscape:window-x="1592"
     inkscape:window-y="115"
     inkscape:window-maximized="1"
     inkscape:showpageshadow="2"
     inkscape:pagecheckerboard="true"
     inkscape:deskcolor="#d1d1d1" />
  <metadata
     id="metadata7">
    <rdf:RDF>
      <cc:Work
         rdf:about="">
        <dc:format>image/svg+xml</dc:format>
        <dc:type
           rdf:resource="http://purl.org/dc/dcmitype/StillImage" />
      </cc:Work>
    </rdf:RDF>
  </metadata>
  <g
     inkscape:label="Layer 1"
     inkscape:groupmode="layer"
     id="layer1"
     transform="translate(-65.224067,-173.70181)">
    <path
       id="rect1-5-4"
       style="stroke-width:9.67996"
       d="M 160.81245 280.44681 L 151.16279 324.92496 L 248.78547 324.92496 C 252.51345 306.80134 260.86351 292.19643 272.77778 280.44681 L 160.81245 280.44681 z M 141.10114 371.3074 L 131.44965 415.78739 L 246.59553 415.78739 L 246.59553 371.3074 L 141.10114 371.3074 z M 121.38801 462.168 L 111.74018 506.64982 L 246.59553 506.64982 L 246.59553 462.168 L 121.38801 462.168 z M 101.67854 553.03043 L 92.027046 597.51224 L 246.59553 597.51224 L 246.59553 553.03043 L 101.67854 553.03043 z M 81.9654 643.89286 L 72.315742 688.37284 L 275.84663 688.37284 C 263.68602 676.22621 254.64085 660.96026 250.02876 643.89286 L 81.9654 643.89286 z " />
    <path
       d="m 474.2905,272.13932 c -97.6582,0 -195.31641,12.20728 -195.31641,97.65821 v 231.93823 c 0,47.12022 38.33098,85.45094 85.45093,85.45094 l -36.62183,36.62182 v 12.20728 h 54.44458 l 48.8291,-48.8291 h 92.04273 l 48.82911,48.8291 h 48.8291 V 723.80852 L 584.15598,687.1867 c 47.12022,0 85.45093,-38.33072 85.45093,-85.45094 V 369.79753 c 0,-85.45093 -87.40409,-97.65821 -195.31641,-97.65821 z M 364.42502,638.35759 c -20.26395,0 -36.62183,-16.35762 -36.62183,-36.62183 0,-20.26394 16.35788,-36.62182 36.62183,-36.62182 20.26421,0 36.62183,16.35788 36.62183,36.62182 0,20.26421 -16.35762,36.62183 -36.62183,36.62183 z M 449.87595,467.45573 H 327.80319 v -97.6582 h 122.07276 z m 48.8291,0 v -97.6582 h 122.07276 v 97.6582 z m 85.45093,170.90186 c -20.26395,0 -36.62182,-16.35762 -36.62182,-36.62183 0,-20.26394 16.35787,-36.62182 36.62182,-36.62182 20.26421,0 36.62183,16.35788 36.62183,36.62182 0,20.26421 -16.35762,36.62183 -36.62183,36.62183 z"
       id="path2"
       style="stroke-width:24.4145" />
  </g>
</svg>
