<?xml version="1.0" encoding="UTF-8" standalone="no"?>
<!-- Created with Inkscape (http://www.inkscape.org/) -->

<svg
   width="171.33333mm"
   height="171.33333mm"
   viewBox="0 0 607.0866 607.08659"
   id="svg2"
   version="1.1"
   inkscape:version="1.4.2 (f4327f4, 2025-05-13)"
   sodipodi:docname="glyph_preferences_feedback_on_alert.svg"
   inkscape:export-filename="C:\Users\akers\StudioProjects\EngineDriver\EngineDriver\src\main\res\drawable-xhdpi\advanced_preferences.png"
   inkscape:export-xdpi="7.0892334"
   inkscape:export-ydpi="7.0892334"
   xmlns:inkscape="http://www.inkscape.org/namespaces/inkscape"
   xmlns:sodipodi="http://sodipodi.sourceforge.net/DTD/sodipodi-0.dtd"
   xmlns="http://www.w3.org/2000/svg"
   xmlns:svg="http://www.w3.org/2000/svg"
   xmlns:rdf="http://www.w3.org/1999/02/22-rdf-syntax-ns#"
   xmlns:cc="http://creativecommons.org/ns#"
   xmlns:dc="http://purl.org/dc/elements/1.1/">
  <defs
     id="defs4">
    <linearGradient
       id="linearGradient4155"
       inkscape:swatch="solid">
      <stop
         style="stop-color:#000000;stop-opacity:1;"
         offset="0"
         id="stop4157" />
    </linearGradient>
    <linearGradient
       id="linearGradient4149">
      <stop
         style="stop-color:#000000;stop-opacity:1;"
         offset="0"
         id="stop4151" />
    </linearGradient>
    <linearGradient
       id="linearGradient4139"
       inkscape:swatch="gradient">
      <stop
         style="stop-color:#2b2200;stop-opacity:1;"
         offset="0"
         id="stop4141" />
      <stop
         style="stop-color:#2b2200;stop-opacity:0;"
         offset="1"
         id="stop4143" />
    </linearGradient>
    <mask
       height="599"
       width="599"
       y="21"
       x="406"
       maskUnits="userSpaceOnUse"
       mask-type="alpha"
       id="mask0-5-8">
      <rect
         id="rect4-1-0"
         fill="#ffffff"
         transform="rotate(-45,406.51,320.148)"
         rx="56.537102"
         height="422.702"
         width="422.702"
         y="320.14801"
         x="406.51001" />
    </mask>
  </defs>
  <sodipodi:namedview
     id="base"
     pagecolor="#ffffff"
     bordercolor="#666666"
     borderopacity="1.0"
     inkscape:pageopacity="0.0"
     inkscape:pageshadow="2"
     inkscape:zoom="0.70710678"
     inkscape:cx="275.06454"
     inkscape:cy="413.65747"
     inkscape:document-units="px"
     inkscape:current-layer="layer1"
     showgrid="false"
     fit-margin-top="1"
     fit-margin-left="1"
     fit-margin-right="1"
     fit-margin-bottom="1"
     units="mm"
     inkscape:window-width="1600"
     inkscape:window-height="829"
     inkscape:window-x="1592"
     inkscape:window-y="115"
     inkscape:window-maximized="1"
     inkscape:showpageshadow="2"
     inkscape:pagecheckerboard="true"
     inkscape:deskcolor="#d1d1d1" />
  <metadata
     id="metadata7">
    <rdf:RDF>
      <cc:Work
         rdf:about="">
        <dc:format>image/svg+xml</dc:format>
        <dc:type
           rdf:resource="http://purl.org/dc/dcmitype/StillImage" />
      </cc:Work>
    </rdf:RDF>
  </metadata>
  <g
     inkscape:label="Layer 1"
     inkscape:groupmode="layer"
     id="layer1"
     transform="translate(-65.224067,-173.70181)">
    <path
       d="m 563.64466,439.05124 c 14.92155,-5e-5 27.13003,-12.20853 27.12999,-27.12999 l -54.25944,5.4e-4 c -10e-6,14.92142 12.07266,27.12976 27.12945,27.12945 z m 81.39009,-81.39009 5.7e-4,-67.82432 c -5.7e-4,-41.64512 -22.24651,-76.50653 -61.04235,-85.73064 l -1.8e-4,-9.22436 c 1.9e-4,-11.25885 -9.08833,-20.34737 -20.34817,-20.34817 -11.25878,2.2e-4 -20.3473,9.08874 -20.34752,20.34752 l 2.3e-4,9.22441 c -38.93176,9.22397 -61.04273,43.95027 -61.04242,85.73076 l 2.7e-4,67.82542 -27.13,27.13 -6e-5,13.56487 217.03995,-1e-5 2.1e-4,-13.56495 z"
       id="path1-9"
       style="fill:#000000;fill-opacity:1;stroke-width:0;stroke-dasharray:none;stroke:none" />
    <path
       d="m 228.47966,653.23204 h 35.28579 v 35.28581 h -35.28579 z m 0,-141.14318 h 35.28579 v 105.85738 h -35.28579 z m 17.46655,-88.21449 c -97.38879,0 -176.25264,79.04018 -176.25264,176.42898 0,97.38879 78.86385,176.42898 176.25264,176.42898 97.56514,0 176.60532,-79.04019 176.60532,-176.42898 0,-97.3888 -79.04018,-176.42898 -176.60532,-176.42898 z m 0.16937,317.57217 c -77.9816,0 -141.14318,-63.16158 -141.14318,-141.14319 0,-77.98161 63.16158,-141.14319 141.14318,-141.14319 77.98162,0 141.14319,63.16158 141.14319,141.14319 0,77.98161 -63.16157,141.14319 -141.14319,141.14319 z"
       id="path2-4"
       style="stroke-width:0;fill:#000000;stroke:none;stroke-dasharray:none" />
  </g>
</svg>
