<?xml version="1.0" encoding="UTF-8" standalone="no"?>
<!-- Created with Inkscape (http://www.inkscape.org/) -->

<svg
   width="171.33333mm"
   height="171.33333mm"
   viewBox="0 0 607.0866 607.08659"
   id="svg2"
   version="1.1"
   inkscape:version="1.4.3 (0d15f75, 2025-12-25)"
   sodipodi:docname="glyph_preferences_default_address_range.svg"
   inkscape:export-filename="C:\Users\akers\StudioProjects\EngineDriver\EngineDriver\src\main\res\drawable-xhdpi\advanced_preferences.png"
   inkscape:export-xdpi="7.0892334"
   inkscape:export-ydpi="7.0892334"
   xmlns:inkscape="http://www.inkscape.org/namespaces/inkscape"
   xmlns:sodipodi="http://sodipodi.sourceforge.net/DTD/sodipodi-0.dtd"
   xmlns="http://www.w3.org/2000/svg"
   xmlns:svg="http://www.w3.org/2000/svg"
   xmlns:rdf="http://www.w3.org/1999/02/22-rdf-syntax-ns#"
   xmlns:cc="http://creativecommons.org/ns#"
   xmlns:dc="http://purl.org/dc/elements/1.1/">
  <defs
     id="defs4">
    <linearGradient
       id="linearGradient4155"
       inkscape:swatch="solid">
      <stop
         style="stop-color:#000000;stop-opacity:1;"
         offset="0"
         id="stop4157" />
    </linearGradient>
    <linearGradient
       id="linearGradient4149">
      <stop
         style="stop-color:#000000;stop-opacity:1;"
         offset="0"
         id="stop4151" />
    </linearGradient>
    <linearGradient
       id="linearGradient4139"
       inkscape:swatch="gradient">
      <stop
         style="stop-color:#2b2200;stop-opacity:1;"
         offset="0"
         id="stop4141" />
      <stop
         style="stop-color:#2b2200;stop-opacity:0;"
         offset="1"
         id="stop4143" />
    </linearGradient>
  </defs>
  <sodipodi:namedview
     id="base"
     pagecolor="#ffffff"
     bordercolor="#666666"
     borderopacity="1.0"
     inkscape:pageopacity="0.0"
     inkscape:pageshadow="2"
     inkscape:zoom="0.70710678"
     inkscape:cx="465.27626"
     inkscape:cy="413.65747"
     inkscape:document-units="px"
     inkscape:current-layer="layer1"
     showgrid="false"
     fit-margin-top="1"
     fit-margin-left="1"
     fit-margin-right="1"
     fit-margin-bottom="1"
     units="mm"
     inkscape:window-width="1600"
     inkscape:window-height="829"
     inkscape:window-x="-8"
     inkscape:window-y="114"
     inkscape:window-maximized="1"
     inkscape:showpageshadow="2"
     inkscape:pagecheckerboard="0"
     inkscape:deskcolor="#d1d1d1" />
  <metadata
     id="metadata7">
    <rdf:RDF>
      <cc:Work
         rdf:about="">
        <dc:format>image/svg+xml</dc:format>
        <dc:type
           rdf:resource="http://purl.org/dc/dcmitype/StillImage" />
      </cc:Work>
    </rdf:RDF>
  </metadata>
  <g
     inkscape:label="Layer 1"
     inkscape:groupmode="layer"
     id="layer1"
     transform="translate(-65.224067,-173.70181)">
    <g
       id="text1"
       style="font-weight:900;font-size:185.079px;font-family:Arial;-inkscape-font-specification:'Arial, Heavy';stroke-width:0"
       transform="scale(0.77622721,1.2882826)"
       aria-label="1-127&#10;1-10239">
      <path
         d="m 161.0734,187.39326 v 134.74257 h -37.23269 v -88.29208 q -9.03706,6.86817 -17.5319,11.11559 -8.404466,4.24742 -21.146721,8.13335 v -30.18378 q 18.797081,-6.05483 29.189701,-14.54967 10.39262,-8.49483 16.26671,-20.96598 z m 36.50972,72.20612 h 53.4994 v 28.46674 h -53.4994 z M 346.15239,187.39326 V 322.13583 H 308.9197 v -88.29208 q -9.03706,6.86817 -17.5319,11.11559 -8.40446,4.24742 -21.14672,8.13335 v -30.18378 q 18.79709,-6.05483 29.18971,-14.54967 10.39262,-8.49483 16.26671,-20.96598 z M 493.90833,322.13583 H 383.47545 q 1.89778,-16.35708 11.47707,-30.726 9.66965,-14.4593 36.14824,-34.06972 16.17633,-12.01929 20.69486,-18.25486 4.51853,-6.23557 4.51853,-11.83855 0,-6.05483 -4.51853,-10.30225 -4.42816,-4.33779 -11.20595,-4.33779 -7.04891,0 -11.56744,4.42816 -4.42816,4.42816 -5.96446,15.63412 l -36.8712,-2.98223 q 2.16889,-15.54375 7.95261,-24.21932 5.78372,-8.76595 16.26671,-13.37485 10.57336,-4.69928 29.1897,-4.69928 19.42968,0 30.18378,4.42816 10.84448,4.42816 16.98968,13.64597 6.23557,9.12743 6.23557,20.51412 0,12.10966 -7.13928,23.13488 -7.04891,11.02521 -25.75562,24.21932 -11.11558,7.6815 -14.91115,10.7541 -3.70519,3.0726 -8.76595,8.04298 h 57.47571 z m 16.35709,-132.4833 h 107.45065 v 24.85192 q -14.00745,12.65188 -23.40599,27.38229 -11.3867,17.89338 -17.98375,39.85343 -5.24149,17.08005 -7.04891,40.39566 h -36.69046 q 4.33779,-32.44304 13.64596,-54.4031 9.30817,-21.96006 29.46082,-46.99271 h -65.42832 z"
         id="path2" />
      <path
         d="M 161.0734,418.74201 V 553.48458 H 123.84071 V 465.1925 q -9.03706,6.86816 -17.5319,11.11558 -8.404466,4.24742 -21.146721,8.13336 v -30.18378 q 18.797081,-6.05484 29.189701,-14.54967 10.39262,-8.49484 16.26671,-20.96598 z m 36.50972,72.20611 h 53.4994 v 28.46674 h -53.4994 z M 346.15239,418.74201 V 553.48458 H 308.9197 V 465.1925 q -9.03706,6.86816 -17.5319,11.11558 -8.40446,4.24742 -21.14672,8.13336 v -30.18378 q 18.79709,-6.05484 29.18971,-14.54967 10.39262,-8.49484 16.26671,-20.96598 z m 40.03418,67.95869 q 0,-37.77491 13.55559,-52.8668 13.64596,-15.09189 41.4801,-15.09189 13.37485,0 21.96006,3.34371 8.58521,3.25334 14.00744,8.58521 5.42224,5.24149 8.49484,11.11558 3.16297,5.78372 5.06075,13.55559 3.7052,14.82078 3.7052,30.90675 0,36.05787 -12.20003,52.77643 -12.20003,16.71856 -42.02233,16.71856 -16.71856,0 -27.02081,-5.33186 -10.30225,-5.33187 -16.89931,-15.63412 -4.78964,-7.32002 -7.50076,-19.9719 -2.62074,-12.74226 -2.62074,-28.10526 z m 36.50972,0.0904 q 0,25.30377 4.42816,34.61194 4.51853,9.2178 13.01337,9.2178 5.60297,0 9.66965,-3.88593 4.15705,-3.97631 6.05483,-12.47114 1.98815,-8.49484 1.98815,-26.47859 0,-26.38822 -4.51853,-35.42528 -4.42815,-9.12743 -13.37484,-9.12743 -9.12744,0 -13.19411,9.30817 -4.06668,9.21781 -4.06668,34.25046 z m 194.65829,66.69351 H 506.92171 q 1.89778,-16.35708 11.47706,-30.72601 9.66966,-14.45929 36.14824,-34.06972 16.17634,-12.01929 20.69487,-18.25486 4.51853,-6.23557 4.51853,-11.83855 0,-6.05483 -4.51853,-10.30224 -4.42816,-4.33779 -11.20595,-4.33779 -7.04891,0 -11.56744,4.42816 -4.42816,4.42816 -5.96446,15.63411 l -36.8712,-2.98223 q 2.16889,-15.54374 7.95261,-24.21932 5.78372,-8.76595 16.26671,-13.37485 10.57336,-4.69927 29.1897,-4.69927 19.42968,0 30.18378,4.42816 10.84448,4.42816 16.98968,13.64596 6.23557,9.12743 6.23557,20.51413 0,12.10966 -7.13928,23.13487 -7.04891,11.02521 -25.75562,24.21932 -11.11559,7.6815 -14.91115,10.7541 -3.7052,3.0726 -8.76595,8.04299 h 57.4757 z m 51.42086,-94.16617 -34.79268,-6.23557 q 4.33779,-16.62819 16.62819,-25.48451 12.38077,-8.85632 34.97342,-8.85632 25.93637,0 37.5038,9.66965 11.56744,9.66966 11.56744,24.30969 0,8.58521 -4.69927,15.54375 -4.69927,6.95854 -14.18819,12.20003 7.68151,1.89778 11.74818,4.42816 6.59706,4.06668 10.21188,10.7541 3.7052,6.59706 3.7052,15.81486 0,11.56743 -6.05483,22.23117 -6.05483,10.57336 -17.44153,16.35707 -11.3867,5.69335 -29.91267,5.69335 -18.07412,0 -28.55711,-4.24742 -10.39262,-4.24741 -17.17042,-12.38077 -6.68742,-8.22372 -10.30224,-20.6045 l 36.78083,-4.88001 q 2.1689,11.11559 6.68743,15.45337 4.6089,4.24742 11.6578,4.24742 7.41039,0 12.29041,-5.42223 4.97038,-5.42224 4.97038,-14.4593 0,-9.2178 -4.78964,-14.27856 -4.69927,-5.06075 -12.83263,-5.06075 -4.33779,0 -11.92892,2.1689 l 1.89778,-26.29785 q 3.07261,0.45185 4.78965,0.45185 7.22964,0 12.01929,-4.6089 4.88001,-4.6089 4.88001,-10.93484 0,-6.05483 -3.61482,-9.66966 -3.61483,-3.61482 -9.94077,-3.61482 -6.50668,0 -10.57336,3.97631 -4.06668,3.88593 -5.51261,13.73633 z m 89.37651,64.43424 36.6001,-4.6089 q 1.44593,7.6815 4.88001,10.84447 3.43408,3.16297 8.40446,3.16297 8.85632,0 13.82671,-8.94669 3.61482,-6.59705 5.42223,-27.92451 -6.59705,6.77779 -13.55559,9.94076 -6.95853,3.16297 -16.08596,3.16297 -17.80301,0 -30.09342,-12.65188 -12.20003,-12.65189 -12.20003,-31.99119 0,-13.19411 6.23558,-24.03859 6.23557,-10.84447 17.17041,-16.35707 10.93484,-5.60298 27.47266,-5.60298 19.88154,0 31.90083,6.86816 12.01929,6.7778 19.15856,21.68895 7.22965,14.82078 7.22965,39.22084 0,35.87713 -15.09189,52.59569 -15.09189,16.62819 -41.84159,16.62819 -15.81485,0 -24.94228,-3.61482 -9.12744,-3.7052 -15.18227,-10.7541 -6.05483,-7.04891 -9.30817,-17.62227 z m 67.77795,-59.10238 q 0,-10.7541 -5.42223,-16.80893 -5.42224,-6.1452 -13.19411,-6.1452 -7.32002,0 -12.20003,5.51261 -4.78964,5.5126 -4.78964,16.53782 0,11.11558 4.97038,16.98967 5.06075,5.87409 12.56151,5.87409 7.77188,0 12.923,-5.69335 5.15112,-5.69334 5.15112,-16.26671 z"
         id="path3" />
    </g>
  </g>
</svg>
