<?xml version="1.0" encoding="UTF-8" standalone="no"?>
<!-- Created with Inkscape (http://www.inkscape.org/) -->

<svg
   width="171.33333mm"
   height="171.33333mm"
   viewBox="0 0 607.0866 607.08659"
   id="svg2"
   version="1.1"
   inkscape:version="1.4.3 (0d15f75, 2025-12-25)"
   sodipodi:docname="glyph_preferences_dccex_estop_pause_resume.svg"
   inkscape:export-filename="C:\Users\akers\StudioProjects\EngineDriver\EngineDriver\src\main\res\drawable-xhdpi\advanced_preferences.png"
   inkscape:export-xdpi="7.0892334"
   inkscape:export-ydpi="7.0892334"
   xmlns:inkscape="http://www.inkscape.org/namespaces/inkscape"
   xmlns:sodipodi="http://sodipodi.sourceforge.net/DTD/sodipodi-0.dtd"
   xmlns="http://www.w3.org/2000/svg"
   xmlns:svg="http://www.w3.org/2000/svg"
   xmlns:rdf="http://www.w3.org/1999/02/22-rdf-syntax-ns#"
   xmlns:cc="http://creativecommons.org/ns#"
   xmlns:dc="http://purl.org/dc/elements/1.1/">
  <defs
     id="defs4">
    <linearGradient
       id="linearGradient4155"
       inkscape:swatch="solid">
      <stop
         style="stop-color:#000000;stop-opacity:1;"
         offset="0"
         id="stop4157" />
    </linearGradient>
    <linearGradient
       id="linearGradient4149">
      <stop
         style="stop-color:#000000;stop-opacity:1;"
         offset="0"
         id="stop4151" />
    </linearGradient>
    <linearGradient
       id="linearGradient4139"
       inkscape:swatch="gradient">
      <stop
         style="stop-color:#2b2200;stop-opacity:1;"
         offset="0"
         id="stop4141" />
      <stop
         style="stop-color:#2b2200;stop-opacity:0;"
         offset="1"
         id="stop4143" />
    </linearGradient>
    <mask
       height="599"
       width="599"
       y="21"
       x="406"
       maskUnits="userSpaceOnUse"
       mask-type="alpha"
       id="mask0-5-8">
      <rect
         id="rect4-1-0"
         fill="#ffffff"
         transform="rotate(-45,406.51,320.148)"
         rx="56.537102"
         height="422.702"
         width="422.702"
         y="320.14801"
         x="406.51001" />
    </mask>
  </defs>
  <sodipodi:namedview
     id="base"
     pagecolor="#ffffff"
     bordercolor="#666666"
     borderopacity="1.0"
     inkscape:pageopacity="0.0"
     inkscape:pageshadow="2"
     inkscape:zoom="0.70710678"
     inkscape:cx="275.77164"
     inkscape:cy="413.65747"
     inkscape:document-units="px"
     inkscape:current-layer="layer1"
     showgrid="false"
     fit-margin-top="1"
     fit-margin-left="1"
     fit-margin-right="1"
     fit-margin-bottom="1"
     units="mm"
     inkscape:window-width="1600"
     inkscape:window-height="829"
     inkscape:window-x="-8"
     inkscape:window-y="114"
     inkscape:window-maximized="1"
     inkscape:showpageshadow="2"
     inkscape:pagecheckerboard="true"
     inkscape:deskcolor="#d1d1d1" />
  <metadata
     id="metadata7">
    <rdf:RDF>
      <cc:Work
         rdf:about="">
        <dc:format>image/svg+xml</dc:format>
        <dc:type
           rdf:resource="http://purl.org/dc/dcmitype/StillImage" />
      </cc:Work>
    </rdf:RDF>
  </metadata>
  <g
     inkscape:label="Layer 1"
     inkscape:groupmode="layer"
     id="layer1"
     transform="translate(-65.224067,-173.70181)">
    <g
       transform="matrix(10.33172,0,0,10.33172,427.56794,176.51431)"
       id="g12"
       style="fill:#000000">
      <circle
         style="fill:#000000"
         cx="21.732"
         cy="5.5"
         r="1.5"
         id="circle2" />
      <circle
         style="fill:#000000"
         cx="17.732"
         cy="2.5"
         r="1.5"
         id="circle4" />
      <circle
         style="fill:#000000"
         cx="13.732"
         cy="1.5"
         r="1.5"
         id="circle6" />
      <circle
         style="fill:#000000"
         cx="9.7320004"
         cy="3.5"
         r="1.5"
         id="circle8" />
      <path
         inkscape:connector-curvature="0"
         style="fill:#000000"
         d="M 20.232,5.5 V 12 c 0,0.276 -0.224,0.5 -0.5,0.5 -0.276,0 -0.5,-0.224 -0.5,-0.5 V 2.5 h -3 V 11 c 0,0.276 -0.224,0.5 -0.5,0.5 -0.276,0 -0.5,-0.224 -0.5,-0.5 V 1.5 h -3 V 11 c 0,0.276 -0.224,0.5 -0.5,0.5 -0.276,0 -0.5,-0.224 -0.5,-0.5 V 3.5 h -3 V 16 L 6.207,13.229 c -0.6,-0.925 -1.771,-1.235 -2.629,-0.705 -0.855,0.542 -1.067,1.724 -0.475,2.646 0,0 3.266,4.943 4.658,7.059 1.392,2.116 3.647,3.771 7.864,3.771 6.982,0 7.607,-5.392 7.607,-7 0,-1.608 0,-13.5 0,-13.5 z"
         id="path10" />
    </g>
    <g
       id="g5370"
       transform="matrix(0.75939571,0,0,0.75939571,-244.27118,312.94517)"
       style="fill:none;stroke:#ffffff">
      <rect
         id="rect2"
         stroke-linejoin="round"
         stroke-miterlimit="16"
         stroke-width="14.3637"
         stroke="#00353D"
         fill="#ffffff"
         transform="rotate(-45)"
         rx="63.718899"
         height="437.06601"
         width="437.06601"
         y="506.54724"
         x="57.163441"
         style="fill:none;stroke:#ffffff;stroke-opacity:0.956863" />
      <g
         transform="translate(1.8796397,-2.1336634)"
         id="g15"
         mask="url(#mask0-5-8)"
         style="fill:none;stroke:#ffffff">
        <path
           style="fill:none;stroke:#ffffff"
           id="path7"
           fill="url(#paint0_linear)"
           d="m 558.03,10.9856 c 7.305,6.359 311.428,260.2244 19.227,487.4164 l 94.853,87.162 49.99,11.536 61.722,-42.127 C 1014.79,279.491 624.481,0.449243 615.806,-4.43481 Z" />
        <path
           id="path9"
           stroke-width="10.2598"
           stroke="#00353d"
           d="m 579.281,51.6391 91.645,-38.7324 33.869,26.0143 -101.607,42.7791 16.603,28.3269 111.567,-45.0917 30.549,29.4829 -130.163,47.4038 13.282,29.483 146.765,-45.67 25.235,34.108 -158.054,45.092 2.656,39.888 186.611,-39.888 40.51,57.809 -223.136,26.592 -21.915,47.404 262.981,-19.077 v 71.684 l -284.896,-3.469 -23.908,41.045 284.233,48.56 -44.495,83.246 -279.583,-83.246"
           style="fill:none;stroke:#ffffff" />
        <path
           id="path11"
           stroke-width="20.5195"
           stroke="#ffffff"
           d="M 570.647,491.57 C 862.849,264.379 565.999,11.7512 558.694,5.39221 M 616.47,-10.0282 c 8.675,4.88406 398.99,283.9262 168.016,559.4082 L 736.2,597.1"
           style="fill:none;stroke:#ffffff" />
        <path
           id="path13"
           stroke-width="10.2598"
           stroke="#00353d"
           d="M 570.647,491.57 C 862.849,264.379 565.999,11.7512 558.694,5.39221 M 616.47,-10.0282 c 8.675,4.88406 398.99,283.9262 168.016,559.4082 l -44.441,45.157"
           style="fill:none;stroke:#ffffff" />
      </g>
    </g>
  </g>
</svg>
