<?xml version="1.0" encoding="UTF-8" standalone="no"?>
<!-- Created with Inkscape (http://www.inkscape.org/) -->

<svg
   width="171.33333mm"
   height="171.33333mm"
   viewBox="0 0 607.0866 607.08659"
   id="svg2"
   version="1.1"
   inkscape:version="1.4.3 (0d15f75, 2025-12-25)"
   sodipodi:docname="glyph_preferences_dccex_automation_ask.svg"
   inkscape:export-filename="C:\Users\akers\StudioProjects\EngineDriver\EngineDriver\src\main\res\drawable-xhdpi\advanced_preferences.png"
   inkscape:export-xdpi="7.0892334"
   inkscape:export-ydpi="7.0892334"
   xmlns:inkscape="http://www.inkscape.org/namespaces/inkscape"
   xmlns:sodipodi="http://sodipodi.sourceforge.net/DTD/sodipodi-0.dtd"
   xmlns="http://www.w3.org/2000/svg"
   xmlns:svg="http://www.w3.org/2000/svg"
   xmlns:rdf="http://www.w3.org/1999/02/22-rdf-syntax-ns#"
   xmlns:cc="http://creativecommons.org/ns#"
   xmlns:dc="http://purl.org/dc/elements/1.1/">
  <defs
     id="defs4">
    <inkscape:path-effect
       effect="simplify"
       id="path-effect3"
       is_visible="true"
       lpeversion="1.3"
       threshold="0.01"
       steps="1"
       smooth_angles="2.1135029"
       helper_size="10"
       simplify_individual_paths="false"
       simplify_just_coalesce="false" />
    <inkscape:path-effect
       effect="simplify"
       id="path-effect2"
       is_visible="true"
       lpeversion="1.3"
       threshold="0.01"
       steps="46.164384"
       smooth_angles="0"
       helper_size="0.058708415"
       simplify_individual_paths="false"
       simplify_just_coalesce="false" />
    <inkscape:path-effect
       effect="simplify"
       id="path-effect1"
       is_visible="true"
       lpeversion="1.3"
       threshold="38.55"
       steps="1"
       smooth_angles="360"
       helper_size="10"
       simplify_individual_paths="false"
       simplify_just_coalesce="false" />
    <linearGradient
       id="linearGradient4155"
       inkscape:swatch="solid">
      <stop
         style="stop-color:#000000;stop-opacity:1;"
         offset="0"
         id="stop4157" />
    </linearGradient>
    <linearGradient
       id="linearGradient4149">
      <stop
         style="stop-color:#000000;stop-opacity:1;"
         offset="0"
         id="stop4151" />
    </linearGradient>
    <linearGradient
       id="linearGradient4139"
       inkscape:swatch="gradient">
      <stop
         style="stop-color:#2b2200;stop-opacity:1;"
         offset="0"
         id="stop4141" />
      <stop
         style="stop-color:#2b2200;stop-opacity:0;"
         offset="1"
         id="stop4143" />
    </linearGradient>
    <mask
       height="599"
       width="599"
       y="21"
       x="406"
       maskUnits="userSpaceOnUse"
       mask-type="alpha"
       id="mask0-5-8">
      <rect
         id="rect4-1-0"
         fill="#ffffff"
         transform="rotate(-45,406.51,320.148)"
         rx="56.537102"
         height="422.702"
         width="422.702"
         y="320.14801"
         x="406.51001" />
    </mask>
  </defs>
  <sodipodi:namedview
     id="base"
     pagecolor="#ffffff"
     bordercolor="#666666"
     borderopacity="1.0"
     inkscape:pageopacity="0.0"
     inkscape:pageshadow="2"
     inkscape:zoom="0.70710678"
     inkscape:cx="729.7342"
     inkscape:cy="366.98842"
     inkscape:document-units="px"
     inkscape:current-layer="layer1"
     showgrid="false"
     fit-margin-top="1"
     fit-margin-left="1"
     fit-margin-right="1"
     fit-margin-bottom="1"
     units="mm"
     inkscape:window-width="1600"
     inkscape:window-height="829"
     inkscape:window-x="-8"
     inkscape:window-y="114"
     inkscape:window-maximized="1"
     inkscape:showpageshadow="2"
     inkscape:pagecheckerboard="true"
     inkscape:deskcolor="#d1d1d1" />
  <metadata
     id="metadata7">
    <rdf:RDF>
      <cc:Work
         rdf:about="">
        <dc:format>image/svg+xml</dc:format>
        <dc:type
           rdf:resource="http://purl.org/dc/dcmitype/StillImage" />
      </cc:Work>
    </rdf:RDF>
  </metadata>
  <g
     inkscape:label="Layer 1"
     inkscape:groupmode="layer"
     id="layer1"
     transform="translate(-65.224067,-173.70181)">
    <g
       id="g409"
       transform="matrix(16.644478,0,0,16.644478,17.329258,428.50357)"
       style="fill:#000000;stroke:none;stroke-width:0;stroke-dasharray:none">
      <g
         id="g407"
         style="fill:#000000;stroke:none;stroke-width:0;stroke-dasharray:none">
        <path
           d="M 19,15.18 V 7 C 19,4.79 17.21,3 15,3 12.79,3 11,4.79 11,7 v 10 c 0,1.1 -0.9,2 -2,2 C 7.9,19 7,18.1 7,17 V 8.82 C 8.16,8.4 9,7.3 9,6 9,4.34 7.66,3 6,3 4.34,3 3,4.34 3,6 3,7.3 3.84,8.4 5,8.82 V 17 c 0,2.21 1.79,4 4,4 2.21,0 4,-1.79 4,-4 V 7 c 0,-1.1 0.9,-2 2,-2 1.1,0 2,0.9 2,2 v 8.18 c -1.16,0.41 -2,1.51 -2,2.82 0,1.66 1.34,3 3,3 1.66,0 3,-1.34 3,-3 0,-1.3 -0.84,-2.4 -2,-2.82 z"
           id="path405"
           style="fill:#000000;stroke:none;stroke-width:0;stroke-dasharray:none" />
      </g>
    </g>
    <path
       id="path1"
       style="fill:#000000;stroke:none;stroke-width:0;stroke-dasharray:none"
       d="m 536.77486,449.69494 c 0.9997,-0.38854 6.8107,-5.63186 12.9132,-11.6518 9.8417,-9.70855 10.9441,-11.00131 9.7565,-11.44065 -0.7364,-0.27241 -20.6632,-6.2516 -44.2819,-13.28709 -41.27204,-12.29408 -43.00385,-12.75184 -44.51008,-11.76492 -0.86197,0.56478 -1.56721,1.2446 -1.56721,1.51071 0,1.00769 43.08899,43.40134 44.11319,43.40134 0.5908,0 1.0742,0.25114 1.0742,0.55808 0,0.54221 4.7525,2.7917 7.3191,3.46434 2.0961,0.54931 13.2271,-0.0299 15.183,-0.79001 z m 44.3079,-52.26698 c 3.1136,-6.06148 3.1533,-6.20864 1.76,-6.52885 -0.7839,-0.18018 -20.3343,-3.54805 -43.4452,-7.48415 l -42.01985,-7.15654 -10.30406,10.26984 -10.30407,10.26985 3.31787,0.97763 c 1.82483,0.5377 21.36101,6.38885 43.41371,13.00257 22.0528,6.61373 40.2836,12.0499 40.513,12.08041 0.5715,0.076 10.9472,-13.51356 17.0686,-25.43076 z m 14.6389,-4.3189 c -1.6657,-0.25664 -1.6128,-0.30772 -2.8868,2.789 l -1.0338,2.51307 2.6436,-2.54576 c 2.4036,-2.31473 2.5195,-2.56488 1.277,-2.75631 z m -127.34413,-2.49434 c 3.94149,-3.2175 16.61889,-15.48044 16.61889,-16.07556 0,-0.26149 -2.36279,-0.83806 -5.25064,-1.28126 -2.88786,-0.44319 -5.72509,-0.97941 -6.30496,-1.19158 -0.8717,-0.31895 0.13802,-2.42499 5.82996,-12.15995 l 6.88427,-11.77418 h 9.44465 9.44466 l 3.3068,-6.57364 c 3.1107,-6.18373 5.6911,-12.69666 5.1909,-13.10161 -0.1232,-0.0997 -4.3114,0.10354 -9.3071,0.45168 -4.9957,0.34814 -9.22588,0.49025 -9.40033,0.3158 -0.25361,-0.25362 11.42433,-26.39607 12.11123,-27.11237 0.1036,-0.10796 2.9175,-0.51567 6.2532,-0.90602 l 6.065,-0.70973 0.4073,-2.171 c 0.5329,-2.84066 -0.3168,-15.42845 -1.0415,-15.42845 -0.3083,0 -3.3015,0.59383 -6.6514,1.31962 -3.3499,0.72579 -6.4399,1.18563 -6.8667,1.02186 -1.0816,-0.41505 -2.5034,-22.82189 -1.488,-23.44948 0.3894,-0.24062 2.6918,-0.95204 5.1165,-1.58093 2.4247,-0.62889 4.5354,-1.47393 4.6904,-1.87788 0.155,-0.40396 -0.6153,-3.06085 -1.7118,-5.90421 -1.4436,-3.74315 -2.3014,-5.16975 -3.1089,-5.16975 -0.6133,0 -3.2202,0.716 -5.7932,1.5911 -2.5729,0.87512 -4.86304,1.59111 -5.08919,1.59111 -0.78245,0 -8.45082,-17.90028 -7.88563,-18.40742 0.31033,-0.27847 2.78849,-1.30276 5.50701,-2.2762 l 4.94281,-1.76991 -1.1853,-1.97941 c -3.66073,-6.11374 -4.9105,-8.02562 -5.2462,-8.02562 -0.20562,0 -2.0693,0.69206 -4.14151,1.53789 -3.24198,1.32332 -3.90533,1.41441 -4.7543,0.65286 -0.86769,-0.77833 -6.05302,4.19648 -43.00893,41.26286 -48.7777,48.9235 -45.7428,45.11368 -45.7428,57.4225 0,11.98865 -1.26058,10.27159 32.25526,43.93523 19.87577,19.96342 28.98691,28.69803 30.02474,28.78392 0.81948,0.0678 2.17767,0.39835 3.0182,0.73451 2.64683,1.05855 3.86077,0.75894 6.86661,-1.69478 z m 159.59063,-28.32168 c 15.8801,-15.93281 27.459,-28.0567 28.4163,-29.75369 4.7893,-8.49047 4.7894,-18.87463 4e-4,-27.36702 -1.9062,-3.3803 -106.712,-108.75784 -112.4192,-113.03243 -4.0719,-3.04982 -10.3895,-5.35182 -14.6444,-5.33609 -4.5927,0.017 -4.5697,0.64095 0.1982,5.37233 l 4.4018,4.36802 3.3012,-1.37193 3.3012,-1.37192 5.4905,5.03922 c 3.0198,2.77156 7.1846,6.7645 9.2553,8.87318 4.2348,4.31264 4.4288,3.64494 -1.7743,6.10681 -1.7953,0.71253 -2.3008,1.19414 -1.8617,1.77362 3.7225,4.91278 8.2359,10.0239 8.8516,10.0239 0.4241,0 2.5865,-0.5691 4.8055,-1.26467 2.219,-0.69557 4.2403,-1.26837 4.492,-1.27289 0.7559,-0.0136 15.2471,19.82184 14.8046,20.26435 -0.225,0.22506 -2.4301,0.98258 -4.9002,1.68339 -2.4701,0.70081 -4.4628,1.5606 -4.4284,1.91064 0.052,0.52383 2.9058,5.51565 8.7889,15.3707 l 0.8172,1.36897 5.2772,-1.19351 c 2.9025,-0.65644 5.7493,-1.20088 6.3261,-1.20987 1.335,-0.0208 23.7306,31.75958 22.6316,32.1151 -0.4227,0.13672 -5.0645,0.73105 -10.3151,1.32072 -5.2507,0.58968 -9.6556,1.16982 -9.7889,1.28921 -0.1332,0.11938 0.8692,4.84386 2.2276,10.49882 l 2.4698,10.28175 5.4097,-0.37281 c 2.9754,-0.20505 8.2064,-0.5681 11.6244,-0.80677 l 6.2147,-0.43395 -0.1685,19.6652 -0.1684,19.66519 -10.9081,-0.23758 -10.9082,-0.23758 -0.4386,3.4198 c -0.7727,6.02474 -3.4783,17.36276 -5.7602,24.13872 -1.2188,3.61898 -2.2159,6.64875 -2.2159,6.73281 0,0.0841 0.9308,0.26837 2.0684,0.40954 1.1377,0.14118 2.2162,0.30253 2.3968,0.35855 0.1805,0.056 12.3886,-11.99851 27.1291,-26.78783 z m -34.1375,-1.29538 c 0.6419,-3.57397 1.0934,-6.57188 1.0032,-6.66202 -0.09,-0.0901 -18.4907,-0.35209 -40.8901,-0.58211 l -40.7262,-0.41821 -2.4061,3.96092 c -1.3234,2.17849 -4.1128,6.26266 -6.1987,9.07593 -2.0859,2.81326 -3.6754,5.2322 -3.5322,5.37542 0.3563,0.35631 84.0007,14.77012 84.7717,14.60808 1.1641,-0.24457 5.8237,-13.3615 7.9784,-25.35801 z m -100.38406,3.84115 c 4.3392,-5.60597 8.09736,-10.97612 8.09736,-11.57064 0,-0.19946 -2.84012,-0.36266 -6.31132,-0.36266 h -6.3113 l -4.19,7.29729 c -2.30451,4.01351 -4.19001,7.55353 -4.19001,7.86672 0,0.31318 1.79,0.85592 3.97777,1.20607 2.18776,0.35017 4.17701,0.67653 4.42055,0.72526 0.24353,0.0488 2.27165,-2.27419 4.50695,-5.16204 z m 128.38496,-29.81993 v -14.70442 l -5.2507,0.4028 c -2.8878,0.22153 -6.8386,0.55903 -8.7794,0.74999 l -3.5288,0.34721 0.452,3.61223 c 0.2486,1.98673 0.4761,8.26622 0.5057,13.95442 l 0.054,10.34218 h 8.2737 8.2737 z m -27.4875,-12.35874 c -0.1429,-0.14291 -15.7114,0.87142 -34.5967,2.25407 -18.8853,1.38265 -34.5283,2.51835 -34.7623,2.52376 -0.234,0.006 -1.0612,1.94304 -1.8382,4.30583 -0.777,2.3628 -2.662,6.98702 -4.1888,10.27604 -1.5268,3.28904 -2.776,6.07616 -2.776,6.19359 0,0.25469 20.3334,0.52541 54.575,0.72663 l 24.9803,0.14679 c -0.046,-13.9659 -0.3957,-25.42907 -1.3933,-26.42671 z m -79.4085,0.29505 c 0.5395,-0.27586 1.3445,-1.92007 1.7888,-3.65379 0.9901,-3.86311 2.5427,-13.37772 2.2334,-13.68697 -0.2102,-0.21022 -8.7626,0.79191 -8.8499,1.03699 -0.022,0.0617 -1.7044,3.69201 -3.7389,8.06755 -2.0344,4.37554 -3.8332,8.29649 -3.9973,8.71322 -0.224,0.56861 1.1841,0.66622 5.6422,0.39113 3.2674,-0.20162 6.3821,-0.59228 6.9217,-0.86813 z m 51.2073,-3.40268 27.367,-1.96955 c -0.8568,-7.48557 -4.5235,-18.94464 -4.7323,-19.33489 -0.5631,-1.052 -1.5575,-0.99983 -17.6619,0.92668 -9.3859,1.1228 -22.6073,2.69695 -29.3809,3.49811 -6.9823,0.82584 -12.3974,1.75134 -12.5044,2.13717 -0.1038,0.37429 -0.6617,3.68772 -1.2397,7.36317 -0.5779,3.67546 -1.2173,7.49026 -1.4208,8.47733 l -0.3701,1.79469 6.288,-0.46158 c 3.4584,-0.25387 18.6032,-1.34788 33.6551,-2.43113 z m -6.4157,-23.94517 c 14.6736,-1.74208 26.7735,-3.26161 26.8886,-3.37673 0.333,-0.333 -2.7497,-7.78196 -6.3014,-15.22675 -2.4268,-5.08681 -3.5233,-6.77308 -4.2641,-6.55765 -0.5485,0.1595 -11.4152,2.51191 -24.1482,5.22758 l -23.1509,4.9376 0.3936,4.16583 c 0.2165,2.29121 0.3956,6.47903 0.3981,9.30626 v 5.14042 l 1.7502,-0.22457 c 0.9626,-0.12351 13.7559,-1.64991 28.4296,-3.39199 z m 46.0483,-5.44708 c 2.5456,-0.23639 4.7472,-0.62212 4.8925,-0.85719 0.25,-0.40458 -13.5055,-20.51885 -15.1232,-22.11408 -0.5858,-0.57767 -1.5227,-0.57757 -4.0508,4.2e-4 -1.8087,0.41355 -3.4593,0.92253 -3.6678,1.13107 -0.2086,0.20854 0.6592,2.64273 1.9283,5.40933 1.2692,2.76659 3.3075,7.60776 4.5297,10.75815 2.8089,7.24077 2.5202,6.85818 4.8674,6.44952 1.0976,-0.19109 4.0783,-0.54083 6.6239,-0.77722 z m -90.0707,-11.79533 c 1.8631,-0.47516 2.3833,-0.91742 2.3715,-2.01615 -0.02,-1.89302 -2.2224,-11.81272 -2.7364,-12.32667 -0.2247,-0.22472 -1.9171,-0.003 -3.7609,0.49242 l -3.3524,0.90101 0.2057,6.03578 c 0.1132,3.31967 0.3528,6.55428 0.5325,7.18801 0.3431,1.21035 1.0274,1.18249 6.74,-0.2744 z m 35.4817,-7.5571 c 11.7264,-2.48187 21.808,-4.65841 22.4035,-4.83674 0.9204,-0.27563 0.5952,-1.15449 -2.1681,-5.86009 -1.7879,-3.04471 -4.0549,-6.71815 -5.0377,-8.16321 l -1.787,-2.62739 -19.4651,5.57533 c -10.7058,3.06643 -19.6159,5.72603 -19.8001,5.91023 -0.1842,0.18419 0.2963,3.29681 1.0678,6.91691 1.8258,8.56761 1.7003,8.19432 2.6462,7.87456 0.4508,-0.15241 10.414,-2.30772 22.1405,-4.7896 z m -4.6142,-21.4154 c 8.1385,-2.32353 14.7972,-4.42001 14.7972,-4.65886 0,-0.31714 -6.54,-9.63621 -7.9668,-11.35224 -0.3601,-0.43308 -34.0384,10.3607 -34.0384,10.9092 0,0.32806 0.9225,3.09599 2.05,6.15098 l 2.0499,5.55451 4.1554,-1.18949 c 2.2854,-0.65423 10.8142,-3.09057 18.9527,-5.4141 z m -39.3016,-7.40289 c 0,-0.95291 -4.4757,-9.37164 -4.9849,-9.37164 -0.8803,0 -6.46981,2.01218 -6.46981,2.32909 0,0.16506 0.97072,2.40111 2.15715,4.969 l 2.15716,4.66888 3.5696,-1.05105 c 1.9633,-0.57808 3.5702,-1.27301 3.5708,-1.54428 z m 68.8625,-1.03502 c 0.8929,-0.31768 0.3109,-1.4044 -3.3581,-6.26978 -2.441,-3.23702 -4.7886,-5.87257 -5.217,-5.85678 -0.4283,0.0158 -1.5375,0.37379 -2.4648,0.79555 l -1.686,0.76684 4.1985,5.86764 c 4.4527,6.22291 4.3681,6.17633 8.5274,4.69653 z m -42.251,-6.83299 c 8.6422,-2.67344 15.7783,-4.91048 15.858,-4.9712 0.2424,-0.18476 -8.1951,-10.20127 -8.7766,-10.41901 -0.5856,-0.21932 -27.3235,9.32593 -28.1378,10.045 -0.6431,0.56797 3.7499,10.20601 4.6519,10.20601 0.3802,0 7.7622,-2.18736 16.4045,-4.8608 z m -10.3586,-14.60904 c 7.3386,-2.65741 13.4706,-4.95698 13.6267,-5.11015 0.4226,-0.41473 -9.0438,-9.7879 -9.8853,-9.7879 -0.8733,0 -22.6753,8.83789 -23.2889,9.44063 -0.4268,0.41923 5.1946,10.28908 5.8602,10.28908 0.1894,0 6.3487,-2.17424 13.6873,-4.83166 z m 21.4467,-15.05842 c -3.7126,-3.71255 -5.4099,-5.00207 -6.19,-4.70273 -0.8713,0.33435 -0.1476,1.43361 3.8227,5.80688 4.3451,4.78604 5.0432,5.31643 6.1899,4.70273 1.203,-0.64383 0.9384,-1.04582 -3.8226,-5.80688 z m -32.5466,0.6676 c 6.2677,-2.52137 11.393,-4.74096 11.3896,-4.93243 0,-0.19146 -1.9914,-2.14192 -4.4178,-4.33436 l -4.4116,-3.98623 -3.3787,1.52822 c -2.295,1.0381 -5.0901,3.26699 -8.715,6.94975 l -5.33643,5.42152 1.40203,1.96892 c 0.7711,1.0829 1.5527,1.96892 1.737,1.96892 0.1843,0 5.4632,-2.06294 11.7309,-4.58431 z m 7.3442,251.83003 c -9.0418,-2.29242 -7.0756,-0.51665 -68.28588,-61.67226 -50.37043,-50.32542 -56.96659,-57.14071 -58.72096,-60.67164 -5.43113,-10.93098 -4.98689,-23.23046 1.20824,-33.45239 1.49077,-2.45975 19.22394,-20.59426 58.20067,-59.51786 54.62353,-54.54905 56.17863,-56.0379 60.82993,-58.23599 11.2334,-5.30864 23.6344,-4.47281 33.7411,2.27414 1.9856,1.32554 27.3845,26.2876 58.9036,57.89041 50.2023,50.33568 55.6039,55.94902 57.4454,59.69689 2.2173,4.5125 3.9005,11.37313 3.9179,15.96837 0.016,4.2131 -2.1954,12.22826 -4.5238,16.39642 -1.5445,2.76498 -14.7252,16.33732 -57.13,58.82767 -30.3173,30.3784 -56.5889,56.24803 -58.3814,57.48806 -7.299,5.04942 -18.7371,7.15506 -27.2048,5.00818 z" />
    <path
       d="m 322.07071,352.1366 h -56.49178 v -5.64918 q 0,-14.42027 3.27057,-23.34003 3.27058,-9.06842 9.66307,-16.50155 6.54116,-7.43313 29.13787,-26.16461 12.04167,-9.81173 12.04167,-17.98818 0,-8.17644 -4.90586,-12.63632 -4.75721,-4.60854 -14.56894,-4.60854 -10.55504,0 -17.54218,6.98714 -6.83848,6.98715 -8.7711,24.38067 l -57.68109,-7.13581 q 2.97326,-31.81379 23.04271,-51.13993 20.21811,-19.4748 61.84364,-19.4748 32.40844,0 52.32923,13.5283 27.05659,18.2855 27.05659,48.76133 0,12.63632 -6.98714,24.38066 -6.98714,11.74435 -28.54322,28.69189 -15.01492,11.893 -19.02881,19.17747 -3.86523,7.13581 -3.86523,18.73149 z m -58.4244,15.01492 h 60.50568 v 53.36987 h -60.50568 z"
       id="text1"
       style="font-weight:900;font-size:304.461px;font-family:Arial;-inkscape-font-specification:'Arial, Heavy';stroke-width:0;stroke-dasharray:none;stroke:none;fill:#000000"
       aria-label="?" />
  </g>
</svg>
