<?xml version="1.0" encoding="UTF-8" standalone="no"?>
<!-- Created with Inkscape (http://www.inkscape.org/) -->

<svg
   width="171.33333mm"
   height="171.33333mm"
   viewBox="0 0 607.0866 607.08659"
   id="svg2"
   version="1.1"
   inkscape:version="1.4.3 (0d15f75, 2025-12-25)"
   sodipodi:docname="glyph_preferences_maximum_throttle_change.svg"
   inkscape:export-filename="C:\Users\akers\StudioProjects\EngineDriver\EngineDriver\src\main\res\drawable-xhdpi\advanced_preferences.png"
   inkscape:export-xdpi="7.0892334"
   inkscape:export-ydpi="7.0892334"
   xmlns:inkscape="http://www.inkscape.org/namespaces/inkscape"
   xmlns:sodipodi="http://sodipodi.sourceforge.net/DTD/sodipodi-0.dtd"
   xmlns="http://www.w3.org/2000/svg"
   xmlns:svg="http://www.w3.org/2000/svg"
   xmlns:rdf="http://www.w3.org/1999/02/22-rdf-syntax-ns#"
   xmlns:cc="http://creativecommons.org/ns#"
   xmlns:dc="http://purl.org/dc/elements/1.1/">
  <defs
     id="defs4">
    <linearGradient
       id="linearGradient4155"
       inkscape:swatch="solid">
      <stop
         style="stop-color:#000000;stop-opacity:1;"
         offset="0"
         id="stop4157" />
    </linearGradient>
    <linearGradient
       id="linearGradient4149">
      <stop
         style="stop-color:#000000;stop-opacity:1;"
         offset="0"
         id="stop4151" />
    </linearGradient>
    <linearGradient
       id="linearGradient4139"
       inkscape:swatch="gradient">
      <stop
         style="stop-color:#2b2200;stop-opacity:1;"
         offset="0"
         id="stop4141" />
      <stop
         style="stop-color:#2b2200;stop-opacity:0;"
         offset="1"
         id="stop4143" />
    </linearGradient>
  </defs>
  <sodipodi:namedview
     id="base"
     pagecolor="#ffffff"
     bordercolor="#666666"
     borderopacity="1.0"
     inkscape:pageopacity="0.0"
     inkscape:pageshadow="2"
     inkscape:zoom="0.70710678"
     inkscape:cx="264.45794"
     inkscape:cy="283.54982"
     inkscape:document-units="px"
     inkscape:current-layer="g4165"
     showgrid="false"
     fit-margin-top="1"
     fit-margin-left="1"
     fit-margin-right="1"
     fit-margin-bottom="1"
     units="mm"
     inkscape:window-width="1600"
     inkscape:window-height="829"
     inkscape:window-x="-8"
     inkscape:window-y="114"
     inkscape:window-maximized="1"
     inkscape:showpageshadow="2"
     inkscape:pagecheckerboard="0"
     inkscape:deskcolor="#d1d1d1"
     showguides="true" />
  <metadata
     id="metadata7">
    <rdf:RDF>
      <cc:Work
         rdf:about="">
        <dc:format>image/svg+xml</dc:format>
        <dc:type
           rdf:resource="http://purl.org/dc/dcmitype/StillImage" />
        <dc:title />
      </cc:Work>
    </rdf:RDF>
  </metadata>
  <g
     inkscape:label="Layer 1"
     inkscape:groupmode="layer"
     id="layer1"
     transform="translate(-65.224067,-173.70181)">
    <g
       id="g4165"
       transform="matrix(0.70710678,-0.70710678,0.70710678,0.70710678,-256.86318,384.18552)">
      <path
         d="m 656.6033,529.31982 -55.25925,11.12362 A 202.98286,202.98286 0 0 1 461.40172,672.49154 L 212.735,423.82488 a 202.98286,202.98286 0 0 1 388.60905,-11.48246 l 55.25925,11.12362 a 253.72857,253.72857 0 0 0 -492.6685,-12.55892 50.745714,50.745714 0 0 0 12.91756,48.80037 l 248.48716,248.48737 a 50.745714,50.745714 0 0 0 49.15919,13.27643 253.72857,253.72857 0 0 0 182.46347,-192.15147 z M 358.23907,476.39293 a 50.745714,50.745714 0 0 0 50.77386,50.77393 L 662.88278,476.39293 409.01293,425.61897 a 50.745714,50.745714 0 0 0 -50.77386,50.77396 z"
         id="path2"
         style="stroke-width:25.3729" />
      <path
         d="m 156.01908,493.45587 27.5154,27.51539 -56.13983,77.37645 77.33037,-56.18591 27.42306,27.42306 -109.71687,109.71678 -17.08179,-17.08169 83.67233,-83.67214 -96.9222,70.42228 -15.4658,-15.46587 70.46855,-96.87583 -83.6722,83.67214 -17.127805,-17.12787 z m 39.50833,222.71888 -23.82205,-23.82205 -21.38934,14.83366 -21.37526,-21.3752 135.15472,-84.2789 22.80638,22.80638 -84.2789,135.15467 -21.88304,-21.88305 z m 19.33873,-28.11041 31.96214,-46.92017 -46.874,32.00831 z m 99.50495,-36.25647 23.03721,23.03721 -21.7499,45.75661 45.38729,-22.11922 22.80637,22.80637 -74.18909,32.08501 -33.54251,79.61695 -23.49889,-23.49889 21.90787,-48.59226 -48.63841,21.86172 -23.36039,-23.36039 80.53884,-33.81806 z"
         id="text1"
         style="font-weight:900;font-size:214.499px;font-family:Arial;-inkscape-font-specification:'Arial, Heavy';stroke-width:7.21486"
         aria-label="MAX" />
      <path
         d="m 360.80734,787.88675 23.87715,23.87715 24.00184,-24.00184 20.13661,20.13661 -24.00184,24.00184 24.00184,24.00185 -20.19895,20.19895 -24.00184,-24.00185 -23.87716,23.87716 -20.13661,-20.13661 23.87715,-23.87716 -23.87715,-23.87715 z"
         id="path3"
         style="font-weight:900;font-size:180.563px;font-family:Arial;-inkscape-font-specification:'Arial, Heavy';stroke-width:7.09958" />
      <path
         d="M 22.196085,449.7116 89.57131,517.08709 69.933515,536.72495 2.5582888,469.34947 Z"
         id="path4"
         style="font-weight:900;font-size:180.563px;font-family:Arial;-inkscape-font-specification:'Arial, Heavy';stroke-width:9.59247" />
    </g>
  </g>
</svg>
