<?xml version="1.0" encoding="UTF-8" standalone="no"?>
<!-- Created with Inkscape (http://www.inkscape.org/) -->

<svg
   width="171.33333mm"
   height="171.33333mm"
   viewBox="0 0 607.0866 607.08659"
   id="svg2"
   version="1.1"
   inkscape:version="1.4.3 (0d15f75, 2025-12-25)"
   sodipodi:docname="glyph_preferences_allow_mobile_data.svg"
   inkscape:export-filename="C:\Users\akers\StudioProjects\EngineDriver\EngineDriver\src\main\res\drawable-xhdpi\advanced_preferences.png"
   inkscape:export-xdpi="7.0892334"
   inkscape:export-ydpi="7.0892334"
   xmlns:inkscape="http://www.inkscape.org/namespaces/inkscape"
   xmlns:sodipodi="http://sodipodi.sourceforge.net/DTD/sodipodi-0.dtd"
   xmlns="http://www.w3.org/2000/svg"
   xmlns:svg="http://www.w3.org/2000/svg"
   xmlns:rdf="http://www.w3.org/1999/02/22-rdf-syntax-ns#"
   xmlns:cc="http://creativecommons.org/ns#"
   xmlns:dc="http://purl.org/dc/elements/1.1/">
  <defs
     id="defs4">
    <linearGradient
       id="linearGradient4155"
       inkscape:swatch="solid">
      <stop
         style="stop-color:#000000;stop-opacity:1;"
         offset="0"
         id="stop4157" />
    </linearGradient>
    <linearGradient
       id="linearGradient4149">
      <stop
         style="stop-color:#000000;stop-opacity:1;"
         offset="0"
         id="stop4151" />
    </linearGradient>
    <linearGradient
       id="linearGradient4139"
       inkscape:swatch="gradient">
      <stop
         style="stop-color:#2b2200;stop-opacity:1;"
         offset="0"
         id="stop4141" />
      <stop
         style="stop-color:#2b2200;stop-opacity:0;"
         offset="1"
         id="stop4143" />
    </linearGradient>
    <mask
       height="599"
       width="599"
       y="21"
       x="406"
       maskUnits="userSpaceOnUse"
       mask-type="alpha"
       id="mask0-5-8">
      <rect
         id="rect4-1-0"
         fill="#ffffff"
         transform="rotate(-45,406.51,320.148)"
         rx="56.537102"
         height="422.702"
         width="422.702"
         y="320.14801"
         x="406.51001" />
    </mask>
  </defs>
  <sodipodi:namedview
     id="base"
     pagecolor="#ffffff"
     bordercolor="#666666"
     borderopacity="1.0"
     inkscape:pageopacity="0.0"
     inkscape:pageshadow="2"
     inkscape:zoom="0.70710678"
     inkscape:cx="275.77165"
     inkscape:cy="413.65747"
     inkscape:document-units="px"
     inkscape:current-layer="layer1"
     showgrid="false"
     fit-margin-top="1"
     fit-margin-left="1"
     fit-margin-right="1"
     fit-margin-bottom="1"
     units="mm"
     inkscape:window-width="1600"
     inkscape:window-height="829"
     inkscape:window-x="-8"
     inkscape:window-y="114"
     inkscape:window-maximized="1"
     inkscape:showpageshadow="2"
     inkscape:pagecheckerboard="true"
     inkscape:deskcolor="#d1d1d1" />
  <metadata
     id="metadata7">
    <rdf:RDF>
      <cc:Work
         rdf:about="">
        <dc:format>image/svg+xml</dc:format>
        <dc:type
           rdf:resource="http://purl.org/dc/dcmitype/StillImage" />
      </cc:Work>
    </rdf:RDF>
  </metadata>
  <g
     inkscape:label="Layer 1"
     inkscape:groupmode="layer"
     id="layer1"
     transform="translate(-65.224067,-173.70181)">
    <path
       d="M 145.55128,779.31037 653.16902,270.10616 V 779.31037 Z M 526.26459,715.85815 H 589.7168 V 423.97796 l -63.45221,63.45221 z M 305.76813,496.94801 q -19.03566,0 -33.31241,-14.27692 -14.27675,-14.27658 -14.27675,-33.31225 0,-19.03566 14.27675,-33.31258 14.27675,-14.27658 33.31241,-14.27658 19.03567,0 33.31242,14.27658 14.27674,14.27692 14.27674,33.31258 0,19.03567 -14.27674,33.31225 -14.27675,14.27692 -33.31242,14.27692 z M 204.24458,392.25185 163.00064,351.00791 q 30.13981,-30.13998 66.62483,-44.41656 36.48503,-14.27691 76.14266,-14.27691 39.65764,0 76.14266,14.27691 36.48503,14.27658 66.62483,44.41656 l -41.24394,41.24394 q -21.41511,-21.41504 -47.58916,-32.12273 -26.17403,-10.70769 -53.93439,-10.70769 -27.76033,0 -53.93438,10.70769 -26.17403,10.70769 -47.58917,32.12273 z M 123.34301,309.76397 82.099067,270.10616 q 46.796023,-46.79592 104.696153,-70.19372 57.90017,-23.39813 118.97291,-23.39813 61.07278,0 119.76608,23.39813 58.6933,23.3978 105.48929,70.19372 l -41.24394,39.65781 q -38.07133,-38.07133 -86.05708,-56.31376 -47.98571,-18.24277 -97.95435,-18.24277 -49.9686,0 -97.16121,18.24277 -47.19258,18.24243 -85.26391,56.31376 z"
       id="path1"
       style="stroke-width:0.793153" />
  </g>
</svg>
