<?xml version="1.0" encoding="UTF-8" standalone="no"?>
<!-- Created with Inkscape (http://www.inkscape.org/) -->

<svg
   width="171.33333mm"
   height="171.33333mm"
   viewBox="0 0 607.0866 607.08659"
   id="svg2"
   version="1.1"
   inkscape:version="1.4.3 (0d15f75, 2025-12-25)"
   sodipodi:docname="glyph_preferences_dccex_swap_throw_close.svg"
   inkscape:export-filename="C:\Users\akers\StudioProjects\EngineDriver\EngineDriver\src\main\res\drawable-xhdpi\advanced_preferences.png"
   inkscape:export-xdpi="7.0892334"
   inkscape:export-ydpi="7.0892334"
   xmlns:inkscape="http://www.inkscape.org/namespaces/inkscape"
   xmlns:sodipodi="http://sodipodi.sourceforge.net/DTD/sodipodi-0.dtd"
   xmlns="http://www.w3.org/2000/svg"
   xmlns:svg="http://www.w3.org/2000/svg"
   xmlns:rdf="http://www.w3.org/1999/02/22-rdf-syntax-ns#"
   xmlns:cc="http://creativecommons.org/ns#"
   xmlns:dc="http://purl.org/dc/elements/1.1/">
  <defs
     id="defs4">
    <linearGradient
       id="linearGradient4155"
       inkscape:swatch="solid">
      <stop
         style="stop-color:#000000;stop-opacity:1;"
         offset="0"
         id="stop4157" />
    </linearGradient>
    <linearGradient
       id="linearGradient4149">
      <stop
         style="stop-color:#000000;stop-opacity:1;"
         offset="0"
         id="stop4151" />
    </linearGradient>
    <linearGradient
       id="linearGradient4139"
       inkscape:swatch="gradient">
      <stop
         style="stop-color:#2b2200;stop-opacity:1;"
         offset="0"
         id="stop4141" />
      <stop
         style="stop-color:#2b2200;stop-opacity:0;"
         offset="1"
         id="stop4143" />
    </linearGradient>
    <mask
       height="599"
       width="599"
       y="21"
       x="406"
       maskUnits="userSpaceOnUse"
       mask-type="alpha"
       id="mask0-5-8">
      <rect
         id="rect4-1-0"
         fill="#ffffff"
         transform="rotate(-45,406.51,320.148)"
         rx="56.537102"
         height="422.702"
         width="422.702"
         y="320.14801"
         x="406.51001" />
    </mask>
  </defs>
  <sodipodi:namedview
     id="base"
     pagecolor="#ffffff"
     bordercolor="#666666"
     borderopacity="1.0"
     inkscape:pageopacity="0.0"
     inkscape:pageshadow="2"
     inkscape:zoom="11.313708"
     inkscape:cx="427.53444"
     inkscape:cy="217.47953"
     inkscape:document-units="px"
     inkscape:current-layer="layer1"
     showgrid="false"
     fit-margin-top="1"
     fit-margin-left="1"
     fit-margin-right="1"
     fit-margin-bottom="1"
     units="mm"
     inkscape:window-width="1600"
     inkscape:window-height="829"
     inkscape:window-x="-8"
     inkscape:window-y="114"
     inkscape:window-maximized="1"
     inkscape:showpageshadow="2"
     inkscape:pagecheckerboard="true"
     inkscape:deskcolor="#d1d1d1" />
  <metadata
     id="metadata7">
    <rdf:RDF>
      <cc:Work
         rdf:about="">
        <dc:format>image/svg+xml</dc:format>
        <dc:type
           rdf:resource="http://purl.org/dc/dcmitype/StillImage" />
      </cc:Work>
    </rdf:RDF>
  </metadata>
  <g
     inkscape:label="Layer 1"
     inkscape:groupmode="layer"
     id="layer1"
     transform="translate(-65.224067,-173.70181)">
    <g
       id="g302"
       transform="matrix(21.040013,0,0,21.040013,88.970602,337.65945)"
       style="fill:#000000;stroke:none" />
    <path
       id="path300-8"
       style="fill:#000000;stroke:none;stroke-width:0;stroke-dasharray:none"
       d="m 184.05057,665.67325 -29.66642,29.66642 -84.16005,-84.16005 84.16005,-84.16005 29.66642,29.66642 -33.24322,33.45362 c 31.77042,-6.94321 78.47925,1.6832 108.77687,28.61441 v 76.58565 C 244.22501,641.05644 194.99138,622.33083 150.80735,632.21963 Z m 193.14382,0 29.66642,29.66642 84.16005,-84.16005 -84.16005,-84.16005 -29.66642,29.66642 33.24322,33.45362 c -31.77042,-6.94321 -78.47925,1.6832 -108.77687,28.61441 V 481.36274 l 33.45363,33.45362 29.66641,-29.87682 -84.16005,-84.16005 -84.16005,84.16005 29.66642,29.66642 33.45362,-33.24322 v 298.13698 h 42.08002 v -84.16005 c 15.35921,-54.28323 64.59284,-73.00884 108.77687,-63.12004 z" />
    <path
       id="path1"
       style="fill:#000000;stroke:none;stroke-width:0;stroke-dasharray:none"
       d="m 536.77486,449.69494 c 0.9997,-0.38854 6.8107,-5.63186 12.9132,-11.6518 9.8417,-9.70855 10.9704,-11.0803 9.7565,-11.44065 -28.33387,-8.41101 -54.28931,-16.04255 -88.79198,-25.05201 -0.99709,-0.26036 -1.56721,1.2446 -1.56721,1.51071 0,1.00769 43.32533,42.74693 44.11319,43.40134 1.39667,1.1601 3.3866,2.62186 8.3933,4.02242 4.33343,1.21222 13.2271,-0.0299 15.183,-0.79001 z m 44.3079,-52.26698 c 3.1136,-6.06148 3.1533,-6.20864 1.76,-6.52885 -28.47091,-4.97989 -85.46505,-14.64069 -85.46505,-14.64069 l -20.60813,20.53969 c 15.58912,4.61989 31.15747,9.30999 46.73158,13.9802 22.0528,6.61373 40.2836,12.0499 40.513,12.08041 0.5715,0.076 10.9472,-13.51356 17.0686,-25.43076 z m -112.70523,-6.81324 c 3.94149,-3.2175 16.61889,-15.48044 16.61889,-16.07556 -1.69871,-0.64296 -7.63182,-1.26498 -11.5556,-2.47284 4.11181,-7.58684 12.71423,-23.93413 12.71423,-23.93413 h 18.88931 c 3.31484,-6.25569 6.13707,-12.18387 8.4977,-19.67525 -0.33783,-0.27339 -18.25614,1.21877 -18.70743,0.76748 -0.25361,-0.25362 11.42433,-26.39607 12.11123,-27.11237 4.06788,-0.74601 8.20817,-1.13479 12.3182,-1.61575 1.55132,-8.26888 -0.41402,-17.59945 -0.6342,-17.59945 -0.93097,0 -12.43822,2.75585 -13.5181,2.34148 -1.0816,-0.41505 -2.5034,-22.82189 -1.488,-23.44948 1.11473,-0.68882 9.41375,-2.43422 9.8069,-3.45881 0.155,-0.40396 -0.6153,-3.06085 -1.7118,-5.90421 -1.4436,-3.74315 -2.3014,-5.16975 -3.1089,-5.16975 -1.56768,0 -10.23404,3.18221 -10.88239,3.18221 -0.78245,0 -8.45082,-17.90028 -7.88563,-18.40742 3.34641,-1.64866 6.93852,-2.78879 10.44982,-4.04611 -3.89562,-6.50554 -5.99731,-10.00503 -6.4315,-10.00503 -0.20562,0 -2.0693,0.69206 -4.14151,1.53789 -3.24198,1.32332 -3.90533,1.41441 -4.7543,0.65286 -0.86769,-0.77833 -6.05302,4.19648 -43.00893,41.26286 -48.7777,48.9235 -45.7428,45.11368 -45.7428,57.4225 0,11.98865 -1.26058,10.27159 32.25526,43.93523 19.87577,19.96342 28.98691,28.69803 30.02474,28.78392 0.81948,0.0678 2.17767,0.39835 3.0182,0.73451 2.64683,1.05855 3.86077,0.75894 6.86661,-1.69478 z m 159.59063,-28.32168 c 15.8801,-15.93281 27.459,-28.0567 28.4163,-29.75369 4.7893,-8.49047 4.7894,-18.87463 4e-4,-27.36702 -1.9062,-3.3803 -106.712,-108.75784 -112.4192,-113.03243 -4.0719,-3.04982 -10.3895,-5.35182 -14.6444,-5.33609 -4.5927,0.017 -4.56973,0.64099 0.1982,5.37233 l 4.4018,4.36802 6.6024,-2.74385 c 4.98268,4.56512 9.98432,9.11433 14.7458,13.9124 4.2348,4.31264 4.4288,3.64494 -1.7743,6.10681 -1.7953,0.71253 -2.3008,1.19414 -1.8617,1.77362 3.7225,4.91278 8.2359,10.0239 8.8516,10.0239 1.09467,0 8.60641,-2.52515 9.2975,-2.53756 0.7559,-0.0136 15.2471,19.82184 14.8046,20.26435 -0.63352,0.63369 -9.41648,2.69976 -9.3286,3.59403 0.052,0.52383 2.9058,5.51565 8.7889,15.3707 l 0.8172,1.36897 c 3.86248,-0.8136 7.68503,-1.88729 11.6033,-2.40338 1.335,-0.0208 23.7306,31.75958 22.6316,32.1151 -1.12924,0.36525 -19.75496,2.29731 -20.104,2.60993 -0.20614,0.18475 4.6974,20.78057 4.6974,20.78057 7.75001,-0.53199 15.49943,-1.07242 23.2488,-1.61353 l -0.3369,39.33039 -21.8163,-0.47516 c 0,0 -8.4147,33.22431 -8.4147,34.29133 0,0.0841 0.9308,0.26837 2.0684,0.40954 1.1377,0.14118 2.2162,0.30253 2.3968,0.35855 0.1805,0.056 12.3886,-11.99851 27.1291,-26.78783 z m -33.1343,-7.9574 c -27.20113,-0.533 -54.41077,-0.72095 -81.6163,-1.00032 -10.351,17.03981 -12.84053,17.70864 -12.137,18.41227 0.3563,0.35631 84.0007,14.77012 84.7717,14.60808 1.27036,-0.26689 9.8887,-31.11354 8.9816,-32.02003 z m -93.2899,-1.06747 c -4.3661,-0.17216 -8.43361,-0.36266 -12.62262,-0.36266 -2.69986,5.09038 -5.53823,9.83046 -8.38001,15.16401 3.18265,0.94568 5.61786,1.45813 8.39832,1.93133 0.74867,0.15002 12.60431,-15.61443 12.60431,-16.73268 z m 120.2876,-32.95371 c -5.85982,0.42044 -17.5589,1.5 -17.5589,1.5 1.29857,10.37773 1.2476,18.40161 1.0117,27.90883 h 16.5474 z m -27.4875,2.34568 c -0.34664,-0.34667 -68.63908,4.76119 -69.359,4.77783 -2.65961,6.96933 -5.98591,13.82017 -8.803,20.77546 0,0.36687 29.84049,0.58128 79.5553,0.87342 -0.046,-13.9659 -0.3957,-25.42907 -1.3933,-26.42671 z m -79.4085,0.29505 c 0,0 1.13734,-2.87301 1.58164,-4.60673 0.9901,-3.86311 2.74986,-12.42478 2.44056,-12.73403 -0.2102,-0.21022 -8.7626,0.79191 -8.8499,1.03699 -2.68774,5.81524 -5.39318,11.62229 -8.06766,17.44368 z m 78.5743,-5.37223 c -0.8568,-7.48557 -4.7323,-19.33489 -4.7323,-19.33489 -3.76018,-1.64153 -55.28277,5.82521 -59.5472,6.56196 0,0 -0.6617,3.68772 -1.2397,7.36317 -0.5779,3.67546 -1.2173,7.49026 -1.4208,8.47733 l -0.3701,1.79469 6.288,-0.46158 c 20.34,-1.47659 40.68118,-2.93678 61.0221,-4.40068 z m -6.8941,-25.35235 c -0.58001,-1.62271 -6.64995,-18.4213 -10.5655,-21.7844 l -47.2991,10.16518 c 0.5331,4.8925 0.7917,7.43943 0.7917,18.61251 15.98874,-1.97557 57.0729,-6.99329 57.0729,-6.99329 z m 24.0522,-2.92754 c 0.25,-0.40458 -13.5055,-20.51885 -15.1232,-22.11408 -1.34812,-1.32941 -7.61933,1.03221 -7.7186,1.13149 -0.50662,0.50648 3.21113,7.79823 6.458,16.16748 2.8089,7.24077 2.5202,6.85818 4.8674,6.44952 3.13224,-0.54532 11.15405,-1.04819 11.5164,-1.63441 z m -94.9632,-10.93814 c 1.87514,-0.42515 2.3833,-0.91742 2.3715,-2.01615 -0.02,-1.89302 -2.2224,-11.81272 -2.7364,-12.32667 -2.38301,-0.13659 -4.8097,0.7743 -7.1133,1.39343 0.0319,4.74335 0.42978,9.45828 0.8625,14.17673 2.20805,-0.34845 3.84477,-0.59909 6.6157,-1.22734 z m 57.8852,-12.39384 c 0.9204,-0.27563 0.5952,-1.15449 -2.1681,-5.86009 -2.55921,-4.35821 -3.76749,-6.29564 -6.8247,-10.7906 0,0 -26.42103,6.92887 -39.2652,11.48556 -0.1842,0.18419 0.2963,3.29681 1.0678,6.91691 1.8258,8.56761 1.7003,8.19432 2.6462,7.87456 1.20749,-0.40824 42.93045,-9.14314 44.544,-9.62634 z m -12.2205,-21.23752 c 0,-0.31714 -6.54,-9.63621 -7.9668,-11.35224 -0.3601,-0.43308 -34.0384,10.3607 -34.0384,10.9092 1.79735,4.13739 2.66961,7.82989 4.0999,11.70549 13.13351,-3.79099 25.77686,-7.4645 37.9053,-11.26245 z m -54.0988,-2.74403 c 0,-0.95291 -4.4757,-9.37164 -4.9849,-9.37164 -0.8803,0 -6.46981,2.01218 -6.46981,2.32909 1.29769,3.26894 2.83873,6.44419 4.31431,9.63788 2.36101,-0.83169 4.59364,-1.46227 7.1404,-2.59533 z m 68.8625,-1.03502 c 0.8929,-0.31768 0.3109,-1.4044 -3.3581,-6.26978 -2.441,-3.23702 -4.7886,-5.87257 -5.217,-5.85678 -1.4673,0.24669 -2.80713,0.95125 -4.1508,1.56239 l 4.1985,5.86764 c 4.4527,6.22291 4.3681,6.17633 8.5274,4.69653 z m -26.393,-11.80419 c 0.2424,-0.18476 -8.1951,-10.20127 -8.7766,-10.41901 -0.5856,-0.21932 -28.55212,10.045 -28.55212,10.045 0,0 4.08136,8.13441 5.06622,10.20601 0.93839,0 32.09784,-9.70655 32.2625,-9.832 z m -12.5899,-14.74799 c 0.4226,-0.41473 -9.0438,-9.7879 -9.8853,-9.7879 -0.8733,0 -22.6753,8.83789 -23.2889,9.44063 -0.4268,0.41923 5.1946,10.28908 5.8602,10.28908 0.43871,0 26.93738,-9.57226 27.314,-9.94181 z m 7.82,-9.94827 c -3.7126,-3.71255 -5.4099,-5.00207 -6.19,-4.70273 -0.8713,0.33435 -0.1476,1.43361 3.8227,5.80688 4.3451,4.78604 5.0432,5.31643 6.1899,4.70273 1.203,-0.64383 0.9384,-1.04582 -3.8226,-5.80688 z m -21.157,-4.26483 c 0,-0.19146 -1.9914,-2.14192 -4.4178,-4.33436 l -4.4116,-3.98623 c 0,0 -2.33326,0.86871 -3.3787,1.52822 -3.71294,2.34231 -9.69778,7.9482 -14.05143,12.37127 l 1.40203,1.96892 c 0.7711,1.0829 1.5527,1.96892 1.737,1.96892 0.39626,0 23.12886,-9.04593 23.1205,-9.51674 z m -4.0454,256.76246 c -9.0418,-2.29242 -7.0756,-0.51665 -68.28588,-61.67226 -50.37043,-50.32542 -56.96659,-57.14071 -58.72096,-60.67164 -5.43113,-10.93098 -4.98689,-23.23046 1.20824,-33.45239 1.49077,-2.45975 19.22394,-20.59426 58.20067,-59.51786 54.62353,-54.54905 56.17863,-56.0379 60.82993,-58.23599 11.2334,-5.30864 23.6344,-4.47281 33.7411,2.27414 1.9856,1.32554 27.3845,26.2876 58.9036,57.89041 50.2023,50.33568 55.6039,55.94902 57.4454,59.69689 2.2173,4.5125 3.9005,11.37313 3.9179,15.96837 0.016,4.2131 -2.1954,12.22826 -4.5238,16.39642 -1.5445,2.76498 -14.7252,16.33732 -57.13,58.82767 -30.3173,30.3784 -56.5889,56.24803 -58.3814,57.48806 -7.299,5.04942 -18.7371,7.15506 -27.2048,5.00818 z"
       sodipodi:nodetypes="ssssssssssccssssccccccccccccccccccssssssssscsssscccscccccscccccccccssscccsccccccccccccccccccccccccccscscccccccsccscsccccscsccscccsccccccccssccsscscccsssssssssscscscsccssssssssssssss" />
  </g>
</svg>
