<?xml version="1.0" encoding="UTF-8" standalone="no"?>
<!-- Created with Inkscape (http://www.inkscape.org/) -->

<svg
   width="171.33333mm"
   height="171.33333mm"
   viewBox="0 0 607.0866 607.08659"
   id="svg2"
   version="1.1"
   inkscape:version="1.4.3 (0d15f75, 2025-12-25)"
   sodipodi:docname="glyph_preferences_auto_server_ip_connect.svg"
   inkscape:export-filename="C:\Users\akers\StudioProjects\EngineDriver\EngineDriver\src\main\res\drawable-xhdpi\advanced_preferences.png"
   inkscape:export-xdpi="7.0892334"
   inkscape:export-ydpi="7.0892334"
   xmlns:inkscape="http://www.inkscape.org/namespaces/inkscape"
   xmlns:sodipodi="http://sodipodi.sourceforge.net/DTD/sodipodi-0.dtd"
   xmlns="http://www.w3.org/2000/svg"
   xmlns:svg="http://www.w3.org/2000/svg"
   xmlns:rdf="http://www.w3.org/1999/02/22-rdf-syntax-ns#"
   xmlns:cc="http://creativecommons.org/ns#"
   xmlns:dc="http://purl.org/dc/elements/1.1/">
  <defs
     id="defs4">
    <linearGradient
       id="linearGradient4155"
       inkscape:swatch="solid">
      <stop
         style="stop-color:#000000;stop-opacity:1;"
         offset="0"
         id="stop4157" />
    </linearGradient>
    <linearGradient
       id="linearGradient4149">
      <stop
         style="stop-color:#000000;stop-opacity:1;"
         offset="0"
         id="stop4151" />
    </linearGradient>
    <linearGradient
       id="linearGradient4139"
       inkscape:swatch="gradient">
      <stop
         style="stop-color:#2b2200;stop-opacity:1;"
         offset="0"
         id="stop4141" />
      <stop
         style="stop-color:#2b2200;stop-opacity:0;"
         offset="1"
         id="stop4143" />
    </linearGradient>
    <mask
       height="599"
       width="599"
       y="21"
       x="406"
       maskUnits="userSpaceOnUse"
       mask-type="alpha"
       id="mask0-5-8">
      <rect
         id="rect4-1-0"
         fill="#ffffff"
         transform="rotate(-45,406.51,320.148)"
         rx="56.537102"
         height="422.702"
         width="422.702"
         y="320.14801"
         x="406.51001" />
    </mask>
  </defs>
  <sodipodi:namedview
     id="base"
     pagecolor="#ffffff"
     bordercolor="#666666"
     borderopacity="1.0"
     inkscape:pageopacity="0.0"
     inkscape:pageshadow="2"
     inkscape:zoom="0.5"
     inkscape:cx="320"
     inkscape:cy="603"
     inkscape:document-units="px"
     inkscape:current-layer="layer1"
     showgrid="false"
     fit-margin-top="1"
     fit-margin-left="1"
     fit-margin-right="1"
     fit-margin-bottom="1"
     units="mm"
     inkscape:window-width="1600"
     inkscape:window-height="829"
     inkscape:window-x="-8"
     inkscape:window-y="114"
     inkscape:window-maximized="1"
     inkscape:showpageshadow="2"
     inkscape:pagecheckerboard="true"
     inkscape:deskcolor="#d1d1d1" />
  <metadata
     id="metadata7">
    <rdf:RDF>
      <cc:Work
         rdf:about="">
        <dc:format>image/svg+xml</dc:format>
        <dc:type
           rdf:resource="http://purl.org/dc/dcmitype/StillImage" />
      </cc:Work>
    </rdf:RDF>
  </metadata>
  <g
     inkscape:label="Layer 1"
     inkscape:groupmode="layer"
     id="layer1"
     transform="translate(-65.224067,-173.70181)">
    <path
       id="path7"
       style="fill:#000000;stroke:none;stroke-width:0.510938"
       d="m 544.47408,656.88932 h 61.3125 v -40.875 h -61.3125 z m 0,-61.3125 h 61.3125 v -40.875 h -61.3125 z m 0,-61.3125 h 61.3125 v -40.875 h -61.3125 z m -20.4375,204.375 h 102.1875 z m 0,0 h 102.1875 v -286.125 h -102.1875 z m 0,40.875 q -16.86099,0 -28.868,-12.007 -12.007,-12.007 -12.007,-28.868 v -286.125 q 0,-16.861 12.007,-28.868 12.00701,-12.007 28.868,-12.007 h 102.1875 q 16.861,0 28.868,12.007 12.007,12.007 12.007,28.868 v 286.125 q 0,16.861 -12.007,28.868 -12.007,12.007 -28.868,12.007 z" />
    <path
       id="path3"
       style="stroke-width:0.614842;stroke:none;fill:#000000"
       d="m 240.48343,777.77336 q -14.75612,0 -25.82318,-11.06722 -11.06713,-11.06697 -11.06713,-25.82309 0,-14.75606 11.06713,-25.82334 11.06706,-11.06691 25.82318,-11.06691 14.75613,0 25.82326,11.06691 11.06705,11.06728 11.06705,25.82334 0,14.75612 -11.06705,25.82309 -11.06713,11.06722 -25.82326,11.06722 z m -78.69926,-81.15862 -31.97161,-31.97161 q 23.36383,-23.36398 51.64644,-34.43096 28.28254,-11.0672 59.02443,-11.0672 30.74189,0 59.02451,11.0672 28.28253,11.06698 51.64636,34.43096 l -31.97153,31.97161 q -16.60062,-16.60062 -36.89031,-24.90105 -20.28962,-8.30035 -41.80903,-8.30035 -21.51933,0 -41.80903,8.30035 -20.2896,8.30043 -36.89023,24.90105 z M 99.07068,632.67153 67.099072,601.92948 q 36.275448,-36.27538 81.158618,-54.41299 44.88323,-18.13777 92.22574,-18.13777 47.34259,0 92.8406,18.13777 45.49803,18.13761 81.77348,54.41299 l -31.97161,30.74205 q -29.51224,-29.51225 -66.70991,-43.65344 -37.19775,-14.14151 -75.93256,-14.14151 -38.73481,0 -75.3177,14.14151 -36.58281,14.14119 -66.09505,43.65344 z" />
    <path
       d="m 97.490877,230.88722 33.715263,-4.24563 q 1.33196,7.07605 4.49537,9.98971 3.1634,2.91366 7.74202,2.91366 8.15826,0 12.73687,-8.2415 3.32991,-6.07707 4.99486,-25.7235 -6.07707,6.24357 -12.48714,9.15723 -6.41006,2.91367 -14.81806,2.91367 -16.39977,0 -27.72144,-11.65466 -11.238417,-11.65466 -11.238417,-29.46964 0,-12.15414 5.744077,-22.14385 5.74409,-9.9897 15.81704,-15.0678 10.07295,-5.16135 25.30726,-5.16135 18.31446,0 29.38639,6.32681 11.07192,6.24357 17.64848,19.97942 6.6598,13.65259 6.6598,36.12944 0,33.04928 -13.90234,48.45007 -13.90234,15.31755 -38.54362,15.31755 -14.56832,0 -22.97632,-3.3299 -8.40801,-3.41315 -13.98559,-9.90646 -5.57759,-6.49331 -8.574503,-16.23327 z m 62.435663,-54.4439 q 0,-9.90646 -4.99485,-15.48405 -4.99485,-5.66083 -12.15414,-5.66083 -6.74305,0 -11.23842,5.0781 -4.41212,5.0781 -4.41212,15.2343 0,10.23945 4.57861,15.65054 4.66187,5.41109 11.57141,5.41109 7.15929,0 11.9044,-5.24459 4.74511,-5.2446 4.74511,-14.98456 z m 51.2805,54.4439 33.71526,-4.24563 q 1.33196,7.07605 4.49537,9.98971 3.16341,2.91366 7.74202,2.91366 8.15826,0 12.73688,-8.2415 3.3299,-6.07707 4.99485,-25.7235 -6.07707,6.24357 -12.48713,9.15723 -6.41006,2.91367 -14.81807,2.91367 -16.39977,0 -27.72143,-11.65466 -11.23842,-11.65466 -11.23842,-29.46964 0,-12.15414 5.74408,-22.14385 5.74408,-9.9897 15.81703,-15.0678 10.07296,-5.16135 25.30726,-5.16135 18.31446,0 29.38639,6.32681 11.07192,6.24357 17.64848,19.97942 6.65981,13.65259 6.65981,36.12944 0,33.04928 -13.90235,48.45007 -13.90234,15.31755 -38.54362,15.31755 -14.56832,0 -22.97632,-3.3299 -8.408,-3.41315 -13.98559,-9.90646 -5.57759,-6.49331 -8.5745,-16.23327 z m 62.43567,-54.4439 q 0,-9.90646 -4.99485,-15.48405 -4.99486,-5.66083 -12.15415,-5.66083 -6.74305,0 -11.23842,5.0781 -4.41212,5.0781 -4.41212,15.2343 0,10.23945 4.57862,15.65054 4.66186,5.41109 11.57141,5.41109 7.15929,0 11.9044,-5.24459 4.74511,-5.2446 4.74511,-14.98456 z m 51.28049,54.4439 33.71526,-4.24563 q 1.33197,7.07605 4.49537,9.98971 3.16341,2.91366 7.74203,2.91366 8.15826,0 12.73687,-8.2415 3.3299,-6.07707 4.99486,-25.7235 -6.07708,6.24357 -12.48714,9.15723 -6.41006,2.91367 -14.81806,2.91367 -16.39977,0 -27.72144,-11.65466 -11.23842,-11.65466 -11.23842,-29.46964 0,-12.15414 5.74408,-22.14385 5.74408,-9.9897 15.81704,-15.0678 10.07295,-5.16135 25.30725,-5.16135 18.31447,0 29.38639,6.32681 11.07193,6.24357 17.64848,19.97942 6.65981,13.65259 6.65981,36.12944 0,33.04928 -13.90234,48.45007 -13.90234,15.31755 -38.54362,15.31755 -14.56832,0 -22.97633,-3.3299 -8.408,-3.41315 -13.98559,-9.90646 -5.57758,-6.49331 -8.5745,-16.23327 z m 62.43567,-54.4439 q 0,-9.90646 -4.99485,-15.48405 -4.99485,-5.66083 -12.15414,-5.66083 -6.74306,0 -11.23842,5.0781 -4.41213,5.0781 -4.41213,15.2343 0,10.23945 4.57862,15.65054 4.66186,5.41109 11.57141,5.41109 7.15929,0 11.9044,-5.24459 4.74511,-5.2446 4.74511,-14.98456 z m 53.11195,47.86734 h 36.21269 v 33.96501 h -36.21269 z m 56.77484,0 h 36.21269 v 33.96501 h -36.21269 z m 56.77481,0 h 36.21269 v 33.96501 h -36.21269 z m 54.9434,6.57656 33.71526,-4.24563 q 1.33196,7.07605 4.49537,9.98971 3.1634,2.91366 7.74202,2.91366 8.15826,0 12.73688,-8.2415 3.3299,-6.07707 4.99485,-25.7235 -6.07707,6.24357 -12.48713,9.15723 -6.41007,2.91367 -14.81807,2.91367 -16.39977,0 -27.72144,-11.65466 -11.23842,-11.65466 -11.23842,-29.46964 0,-12.15414 5.74409,-22.14385 5.74408,-9.9897 15.81703,-15.0678 10.07296,-5.16135 25.30726,-5.16135 18.31446,0 29.38639,6.32681 11.07192,6.24357 17.64848,19.97942 6.6598,13.65259 6.6598,36.12944 0,33.04928 -13.90234,48.45007 -13.90234,15.31755 -38.54362,15.31755 -14.56832,0 -22.97632,-3.3299 -8.40801,-3.41315 -13.98559,-9.90646 -5.57759,-6.49331 -8.5745,-16.23327 z m 62.43567,-54.4439 q 0,-9.90646 -4.99486,-15.48405 -4.99485,-5.66083 -12.15414,-5.66083 -6.74305,0 -11.23842,5.0781 -4.41212,5.0781 -4.41212,15.2343 0,10.23945 4.57861,15.65054 4.66187,5.41109 11.57142,5.41109 7.15929,0 11.9044,-5.24459 4.74511,-5.2446 4.74511,-14.98456 z m 51.28048,54.4439 33.71527,-4.24563 q 1.33196,7.07605 4.49536,9.98971 3.16341,2.91366 7.74203,2.91366 8.15826,0 12.73687,-8.2415 3.32991,-6.07707 4.99486,-25.7235 -6.07708,6.24357 -12.48714,9.15723 -6.41006,2.91367 -14.81806,2.91367 -16.39977,0 -27.72144,-11.65466 -11.23842,-11.65466 -11.23842,-29.46964 0,-12.15414 5.74408,-22.14385 5.74408,-9.9897 15.81704,-15.0678 10.07295,-5.16135 25.30726,-5.16135 18.31446,0 29.38638,6.32681 11.07193,6.24357 17.64849,19.97942 6.6598,13.65259 6.6598,36.12944 0,33.04928 -13.90234,48.45007 -13.90234,15.31755 -38.54362,15.31755 -14.56832,0 -22.97633,-3.3299 -8.408,-3.41315 -13.98559,-9.90646 -5.57758,-6.49331 -8.5745,-16.23327 z m 62.43567,-54.4439 q 0,-9.90646 -4.99485,-15.48405 -4.99485,-5.66083 -12.15414,-5.66083 -6.74306,0 -11.23842,5.0781 -4.41212,5.0781 -4.41212,15.2343 0,10.23945 4.57861,15.65054 4.66186,5.41109 11.57141,5.41109 7.15929,0 11.9044,-5.24459 4.74511,-5.2446 4.74511,-14.98456 z m 51.28052,54.4439 33.71526,-4.24563 q 1.33196,7.07605 4.49537,9.98971 3.16341,2.91366 7.74202,2.91366 8.15826,0 12.73688,-8.2415 3.3299,-6.07707 4.99485,-25.7235 -6.07707,6.24357 -12.48713,9.15723 -6.41006,2.91367 -14.81807,2.91367 -16.39976,0 -27.72143,-11.65466 -11.23842,-11.65466 -11.23842,-29.46964 0,-12.15414 5.74408,-22.14385 5.74408,-9.9897 15.81703,-15.0678 10.07296,-5.16135 25.30726,-5.16135 18.31446,0 29.38639,6.32681 11.07192,6.24357 17.64848,19.97942 6.65981,13.65259 6.65981,36.12944 0,33.04928 -13.90235,48.45007 -13.90234,15.31755 -38.54361,15.31755 -14.56833,0 -22.97633,-3.3299 -8.408,-3.41315 -13.98559,-9.90646 -5.57759,-6.49331 -8.5745,-16.23327 z m 62.43567,-54.4439 q 0,-9.90646 -4.99485,-15.48405 -4.99486,-5.66083 -12.15415,-5.66083 -6.74305,0 -11.23842,5.0781 -4.41212,5.0781 -4.41212,15.2343 0,10.23945 4.57862,15.65054 4.66186,5.41109 11.57141,5.41109 7.15929,0 11.9044,-5.24459 4.74511,-5.2446 4.74511,-14.98456 z"
       id="text12"
       style="font-weight:900;font-size:170.491px;font-family:Arial;-inkscape-font-specification:'Arial, Heavy';stroke-width:0;stroke:none;fill:#000000"
       transform="scale(0.71504514,1.3985131)"
       aria-label="999...999" />
  </g>
</svg>
