<?xml version="1.0" encoding="UTF-8" standalone="no"?>
<!-- Created with Inkscape (http://www.inkscape.org/) -->

<svg
   width="171.33333mm"
   height="171.33333mm"
   viewBox="0 0 607.0866 607.08659"
   id="svg2"
   version="1.1"
   inkscape:version="1.4.3 (0d15f75, 2025-12-25)"
   sodipodi:docname="glyph_preferences_auto_server_name_connect - Copy.svg"
   inkscape:export-filename="C:\Users\akers\StudioProjects\EngineDriver\EngineDriver\src\main\res\drawable-xhdpi\advanced_preferences.png"
   inkscape:export-xdpi="7.0892334"
   inkscape:export-ydpi="7.0892334"
   xmlns:inkscape="http://www.inkscape.org/namespaces/inkscape"
   xmlns:sodipodi="http://sodipodi.sourceforge.net/DTD/sodipodi-0.dtd"
   xmlns="http://www.w3.org/2000/svg"
   xmlns:svg="http://www.w3.org/2000/svg"
   xmlns:rdf="http://www.w3.org/1999/02/22-rdf-syntax-ns#"
   xmlns:cc="http://creativecommons.org/ns#"
   xmlns:dc="http://purl.org/dc/elements/1.1/">
  <defs
     id="defs4">
    <linearGradient
       id="linearGradient4155"
       inkscape:swatch="solid">
      <stop
         style="stop-color:#000000;stop-opacity:1;"
         offset="0"
         id="stop4157" />
    </linearGradient>
    <linearGradient
       id="linearGradient4149">
      <stop
         style="stop-color:#000000;stop-opacity:1;"
         offset="0"
         id="stop4151" />
    </linearGradient>
    <linearGradient
       id="linearGradient4139"
       inkscape:swatch="gradient">
      <stop
         style="stop-color:#2b2200;stop-opacity:1;"
         offset="0"
         id="stop4141" />
      <stop
         style="stop-color:#2b2200;stop-opacity:0;"
         offset="1"
         id="stop4143" />
    </linearGradient>
    <mask
       height="599"
       width="599"
       y="21"
       x="406"
       maskUnits="userSpaceOnUse"
       mask-type="alpha"
       id="mask0-5-8">
      <rect
         id="rect4-1-0"
         fill="#ffffff"
         transform="rotate(-45,406.51,320.148)"
         rx="56.537102"
         height="422.702"
         width="422.702"
         y="320.14801"
         x="406.51001" />
    </mask>
  </defs>
  <sodipodi:namedview
     id="base"
     pagecolor="#ffffff"
     bordercolor="#666666"
     borderopacity="1.0"
     inkscape:pageopacity="0.0"
     inkscape:pageshadow="2"
     inkscape:zoom="0.5"
     inkscape:cx="320"
     inkscape:cy="603"
     inkscape:document-units="px"
     inkscape:current-layer="layer1"
     showgrid="false"
     fit-margin-top="1"
     fit-margin-left="1"
     fit-margin-right="1"
     fit-margin-bottom="1"
     units="mm"
     inkscape:window-width="1600"
     inkscape:window-height="829"
     inkscape:window-x="-8"
     inkscape:window-y="114"
     inkscape:window-maximized="1"
     inkscape:showpageshadow="2"
     inkscape:pagecheckerboard="true"
     inkscape:deskcolor="#d1d1d1" />
  <metadata
     id="metadata7">
    <rdf:RDF>
      <cc:Work
         rdf:about="">
        <dc:format>image/svg+xml</dc:format>
        <dc:type
           rdf:resource="http://purl.org/dc/dcmitype/StillImage" />
      </cc:Work>
    </rdf:RDF>
  </metadata>
  <g
     inkscape:label="Layer 1"
     inkscape:groupmode="layer"
     id="layer1"
     transform="translate(-65.224067,-173.70181)">
    <path
       id="path7"
       style="fill:#000000;stroke:none;stroke-width:0.510938"
       d="m 544.47408,656.88932 h 61.3125 v -40.875 h -61.3125 z m 0,-61.3125 h 61.3125 v -40.875 h -61.3125 z m 0,-61.3125 h 61.3125 v -40.875 h -61.3125 z m -20.4375,204.375 h 102.1875 z m 0,0 h 102.1875 v -286.125 h -102.1875 z m 0,40.875 q -16.86099,0 -28.868,-12.007 -12.007,-12.007 -12.007,-28.868 v -286.125 q 0,-16.861 12.007,-28.868 12.00701,-12.007 28.868,-12.007 h 102.1875 q 16.861,0 28.868,12.007 12.007,12.007 12.007,28.868 v 286.125 q 0,16.861 -12.007,28.868 -12.007,12.007 -28.868,12.007 z" />
    <path
       id="path3"
       style="stroke-width:0.614842;stroke:none;fill:#000000"
       d="m 240.48343,777.77336 q -14.75612,0 -25.82318,-11.06722 -11.06713,-11.06697 -11.06713,-25.82309 0,-14.75606 11.06713,-25.82334 11.06706,-11.06691 25.82318,-11.06691 14.75613,0 25.82326,11.06691 11.06705,11.06728 11.06705,25.82334 0,14.75612 -11.06705,25.82309 -11.06713,11.06722 -25.82326,11.06722 z m -78.69926,-81.15862 -31.97161,-31.97161 q 23.36383,-23.36398 51.64644,-34.43096 28.28254,-11.0672 59.02443,-11.0672 30.74189,0 59.02451,11.0672 28.28253,11.06698 51.64636,34.43096 l -31.97153,31.97161 q -16.60062,-16.60062 -36.89031,-24.90105 -20.28962,-8.30035 -41.80903,-8.30035 -21.51933,0 -41.80903,8.30035 -20.2896,8.30043 -36.89023,24.90105 z M 99.07068,632.67153 67.099072,601.92948 q 36.275448,-36.27538 81.158618,-54.41299 44.88323,-18.13777 92.22574,-18.13777 47.34259,0 92.8406,18.13777 45.49803,18.13761 81.77348,54.41299 l -31.97161,30.74205 q -29.51224,-29.51225 -66.70991,-43.65344 -37.19775,-14.14151 -75.93256,-14.14151 -38.73481,0 -75.3177,14.14151 -36.58281,14.14119 -66.09505,43.65344 z" />
    <text
       xml:space="preserve"
       style="font-weight:900;font-size:170.491px;font-family:Arial;-inkscape-font-specification:'Arial, Heavy';writing-mode:lr-tb;direction:ltr;fill:#000000;stroke:none;stroke-width:0"
       x="88.999626"
       y="258.27567"
       id="text12"
       transform="scale(0.71504514,1.3985131)"><tspan
         sodipodi:role="line"
         id="tspan12"
         style="stroke-width:0;stroke:none;fill:#000000"
         x="88.999626"
         y="258.27567" /></text>
    <path
       d="m 82.263957,156.13264 h 47.607713 l 24.80563,43.02822 24.04237,-43.02822 h 47.13069 l -43.50525,67.73844 47.60772,72.12712 H 181.39105 L 153.81864,251.06186 126.15083,295.9982 H 77.875269 l 48.275561,-72.89037 z m 147.498073,0 h 47.98934 l 28.24025,47.22609 28.24025,-47.22609 h 47.70312 l -54.38156,81.28612 v 58.57944 h -43.31444 v -58.57944 z m 162.57225,0 h 122.31081 v 27.95403 l -78.42393,81.85856 h 81.28612 V 295.9982 H 384.79719 v -29.0035 l 77.56528,-80.99991 h -70.02819 z m 141.10584,0 h 122.31081 v 27.95403 l -78.42394,81.85856 h 81.28613 v 30.05297 h -132.7101 v -29.0035 l 77.56528,-80.99991 h -70.02818 z m 130.51577,0 h 47.98934 l 28.24025,47.22609 28.24025,-47.22609 h 47.70313 l -54.38157,81.28612 v 58.57944 h -43.31443 v -58.57944 z"
       id="text13"
       style="font-weight:900;font-size:195.392px;font-family:Arial;-inkscape-font-specification:'Arial, Heavy';stroke-width:0;stroke:none;fill:#000000"
       transform="scale(0.8194813,1.2202841)"
       aria-label="XYZZY" />
  </g>
</svg>
