<?xml version="1.0" encoding="UTF-8" standalone="no"?>
<!-- Created with Inkscape (http://www.inkscape.org/) -->

<svg
   width="171.33333mm"
   height="171.33333mm"
   viewBox="0 0 607.0866 607.08659"
   id="svg2"
   version="1.1"
   inkscape:version="1.4.3 (0d15f75, 2025-12-25)"
   sodipodi:docname="glyph_preferences_adecrease_loco_number_height.svg"
   inkscape:export-filename="C:\Users\akers\StudioProjects\EngineDriver\EngineDriver\src\main\res\drawable-xhdpi\advanced_preferences.png"
   inkscape:export-xdpi="7.0892334"
   inkscape:export-ydpi="7.0892334"
   xmlns:inkscape="http://www.inkscape.org/namespaces/inkscape"
   xmlns:sodipodi="http://sodipodi.sourceforge.net/DTD/sodipodi-0.dtd"
   xmlns="http://www.w3.org/2000/svg"
   xmlns:svg="http://www.w3.org/2000/svg"
   xmlns:rdf="http://www.w3.org/1999/02/22-rdf-syntax-ns#"
   xmlns:cc="http://creativecommons.org/ns#"
   xmlns:dc="http://purl.org/dc/elements/1.1/">
  <defs
     id="defs4">
    <linearGradient
       id="linearGradient4155"
       inkscape:swatch="solid">
      <stop
         style="stop-color:#000000;stop-opacity:1;"
         offset="0"
         id="stop4157" />
    </linearGradient>
    <linearGradient
       id="linearGradient4149">
      <stop
         style="stop-color:#000000;stop-opacity:1;"
         offset="0"
         id="stop4151" />
    </linearGradient>
    <linearGradient
       id="linearGradient4139"
       inkscape:swatch="gradient">
      <stop
         style="stop-color:#2b2200;stop-opacity:1;"
         offset="0"
         id="stop4141" />
      <stop
         style="stop-color:#2b2200;stop-opacity:0;"
         offset="1"
         id="stop4143" />
    </linearGradient>
    <mask
       height="599"
       width="599"
       y="21"
       x="406"
       maskUnits="userSpaceOnUse"
       mask-type="alpha"
       id="mask0-5-8">
      <rect
         id="rect4-1-0"
         fill="#ffffff"
         transform="rotate(-45,406.51,320.148)"
         rx="56.537102"
         height="422.702"
         width="422.702"
         y="320.14801"
         x="406.51001" />
    </mask>
  </defs>
  <sodipodi:namedview
     id="base"
     pagecolor="#ffffff"
     bordercolor="#666666"
     borderopacity="1.0"
     inkscape:pageopacity="0.0"
     inkscape:pageshadow="2"
     inkscape:zoom="0.5"
     inkscape:cx="355"
     inkscape:cy="193"
     inkscape:document-units="px"
     inkscape:current-layer="layer1"
     showgrid="false"
     fit-margin-top="1"
     fit-margin-left="1"
     fit-margin-right="1"
     fit-margin-bottom="1"
     units="mm"
     inkscape:window-width="1600"
     inkscape:window-height="829"
     inkscape:window-x="-8"
     inkscape:window-y="114"
     inkscape:window-maximized="1"
     inkscape:showpageshadow="2"
     inkscape:pagecheckerboard="true"
     inkscape:deskcolor="#d1d1d1" />
  <metadata
     id="metadata7">
    <rdf:RDF>
      <cc:Work
         rdf:about="">
        <dc:format>image/svg+xml</dc:format>
        <dc:type
           rdf:resource="http://purl.org/dc/dcmitype/StillImage" />
      </cc:Work>
    </rdf:RDF>
  </metadata>
  <g
     inkscape:label="Layer 1"
     inkscape:groupmode="layer"
     id="layer1"
     transform="translate(-65.224067,-173.70181)">
    <path
       id="text1"
       style="font-weight:900;font-size:235.415px;font-family:Arial;-inkscape-font-specification:'Arial, Heavy';stroke-width:10.5088"
       d="M 160.0489 204.61001 C 155.83399 220.71885 149.99749 234.25926 142.54035 245.23196 C 140.63264 248.03904 138.52744 250.74272 136.22505 253.34354 L 192.82844 268.00113 L 192.82844 204.61001 L 160.0489 204.61001 z M 293.40278 204.61001 C 280.04478 204.61001 269.57237 207.64585 261.98555 213.71585 C 254.46357 219.66912 248.62706 228.30606 244.477 239.62894 C 240.83924 249.45177 238.19702 262.68326 236.5522 279.32254 L 275.83747 289.49588 C 276.99548 276.53169 279.05731 267.37934 282.02278 262.04105 C 285.26501 256.32124 289.41424 253.46255 294.47212 253.46255 C 299.33547 253.46255 303.35589 256.26402 306.53328 261.8671 C 309.77552 267.35345 311.39656 274.00646 311.39656 281.82742 C 311.39656 287.02556 310.56059 292.43457 308.88801 298.05423 L 347.82905 308.13968 C 349.86736 298.8303 350.88691 289.24237 350.88691 279.37564 C 350.88691 264.66755 348.65038 251.41875 344.1761 239.62894 C 339.76665 227.7224 333.67071 218.91014 325.88936 213.19034 C 318.17284 207.47053 307.34439 204.61001 293.40278 204.61001 z M 425.29549 204.61001 C 409.08431 204.61001 396.53821 210.32922 387.65449 221.76883 C 378.83563 233.20844 372.86848 249.66841 369.75593 271.14688 L 407.20467 283.22818 C 408.24219 270.50452 410.21928 261.63323 413.13728 256.6138 C 416.0553 251.47765 419.84847 248.90872 424.51729 248.90872 C 429.05641 248.90872 432.62418 251.24328 435.21797 255.91251 C 437.81176 260.58174 439.10896 266.82689 439.10896 274.64786 C 439.10896 282.81901 437.35727 289.88172 433.85567 295.83499 C 430.41889 301.78826 426.10684 304.76505 420.91926 304.76505 C 419.68722 304.76505 417.96957 304.47345 415.76485 303.8898 L 414.89876 325.50723 L 476.47163 341.45206 C 474.70074 338.17676 472.68497 335.28546 470.42732 332.78018 C 467.50932 329.51173 463.29569 326.65304 457.78389 324.20169 C 464.59258 317.4313 469.68297 309.55105 473.05489 300.56277 C 476.42681 291.57451 478.11226 281.53502 478.11226 270.44559 C 478.11226 251.5352 473.96304 235.83557 465.66292 223.34537 C 457.36281 210.85519 443.90591 204.61001 425.29549 204.61001 z M 569.73824 204.61001 L 502.62276 348.2233 L 534.40437 356.45389 L 569.73824 281.65164 L 569.73824 362.37186 L 557.25594 362.37186 L 622.165 379.18094 L 622.165 362.37186 L 604.26827 362.37186 L 604.26827 204.61001 L 569.73824 204.61001 z M 82.593452 270.82095 L 74.95063 300.33389 L 111.12312 309.70157 L 111.12312 331.90494 C 120.26622 326.88552 127.8544 321.63323 133.88496 316.14688 C 134.04252 316.00506 134.19955 315.8625 134.35737 315.71841 L 152.75398 320.48099 L 152.75398 465.67813 L 192.82844 465.67813 L 192.82844 330.85941 L 275.44929 352.25528 C 261.19164 372.5496 251.15985 390.51199 245.35224 406.14505 C 238.4787 424.70525 234.36168 444.54986 232.99995 465.67813 L 351.8592 465.67813 L 351.8592 407.54581 L 289.99702 407.54581 C 293.62831 401.12561 296.77382 395.93237 299.43245 391.96353 C 302.15593 387.99469 307.50575 381.04825 315.48164 371.12613 C 317.36826 368.73073 319.17284 366.36344 320.89424 364.02347 L 445.21187 396.21524 C 445.21182 396.21582 445.21192 396.2165 445.21187 396.21707 C 444.55509 404.19046 442.87705 410.82628 440.1783 416.12613 C 436.67668 423.12998 432.26619 426.63272 426.94893 426.63272 C 421.89105 426.63272 417.70963 423.88849 414.40254 418.40213 C 411.16031 412.79906 408.76094 402.81862 407.20467 388.46073 L 367.61726 397.91629 C 370.21104 413.90841 373.90762 427.21628 378.70613 437.83878 C 383.56948 448.34455 389.72982 456.33925 397.18696 461.8256 C 404.70894 467.31195 414.95411 470.05619 427.92305 470.05619 C 441.21621 470.05619 451.94806 466.37813 460.11848 459.02408 C 468.28891 451.55331 474.54586 440.98969 478.89046 427.33219 C 481.06563 420.43595 482.69693 413.3925 483.78304 406.20365 L 497.56538 409.7742 L 497.56538 417.70267 L 528.18428 417.70267 L 569.73824 428.46378 L 569.73824 465.67813 L 604.26827 465.67813 L 604.26827 437.40482 L 644.81881 447.90592 L 652.46163 418.39298 L 82.593452 270.82095 z " />
    <path
       d="M 192.82811,579.12294 V 724.13877 H 152.7541 v -95.02379 q -9.72671,7.39182 -18.8698,11.96307 -9.04583,4.57126 -22.76048,8.75347 v -32.4851 q 20.23154,-6.51647 31.41724,-15.65898 11.18571,-9.14252 17.50807,-22.5645 z M 351.85967,724.13877 H 232.99938 q 2.0426,-17.60421 12.35291,-33.06867 10.40757,-15.56172 38.90681,-36.66732 17.41079,-12.93569 22.27414,-19.64667 4.86336,-6.711 4.86336,-12.74117 0,-6.51647 -4.86336,-11.08773 -4.76608,-4.66852 -12.06111,-4.66852 -7.58682,0 -12.45017,4.76578 -4.76609,4.76578 -6.41963,16.82612 l -39.68494,-3.20961 q 2.33441,-16.72886 8.5595,-26.06589 6.22509,-9.4343 17.50806,-14.3946 11.38024,-5.05755 31.41724,-5.05755 20.91241,0 32.48719,4.76577 11.67203,4.76578 18.2862,14.68638 6.71142,9.82334 6.71142,22.07821 0,13.03293 -7.6841,24.89875 -7.58682,11.86582 -27.7211,26.0659 -11.96383,8.26716 -16.04906,11.57403 -3.98794,3.30686 -9.43488,8.6562 h 61.86181 z m 55.34492,-101.34574 -37.44779,-6.71099 q 4.66882,-17.89599 17.89712,-27.42755 13.32558,-9.53155 37.64234,-9.53155 27.91564,0 40.3658,10.40689 12.45018,10.40691 12.45018,26.16316 0,9.23978 -5.05788,16.72885 -5.05788,7.48909 -15.27092,13.13021 8.2677,2.04248 12.64471,4.76578 7.10049,4.37673 10.99118,11.57404 3.98794,7.10002 3.98794,17.02063 0,12.44939 -6.51689,23.92615 -6.51689,11.37952 -18.77253,17.6042 -12.25564,6.12744 -32.19538,6.12744 -19.45341,0 -30.73637,-4.57126 -11.18571,-4.57126 -18.48074,-13.32473 -7.19776,-8.85073 -11.08843,-22.17546 l 39.58766,-5.25208 q 2.33441,11.96308 7.19776,16.63159 4.96063,4.57127 12.54745,4.57127 7.97589,0 13.22832,-5.83566 5.34968,-5.83564 5.34968,-15.56171 0,-9.92062 -5.15516,-15.36721 -5.05788,-5.44661 -13.81191,-5.44661 -4.66882,0 -12.83925,2.33427 l 2.04261,-28.30289 q 3.30708,0.4863 5.15515,0.4863 7.78136,0 12.93652,-4.9603 5.25241,-4.9603 5.25241,-11.76856 0,-6.51647 -3.89068,-10.40691 -3.89068,-3.89043 -10.69937,-3.89043 -7.00322,0 -11.38024,4.27947 -4.37701,4.18222 -5.93329,14.78365 z m 162.53318,74.69628 h -72.17213 v -32.58236 l 72.17213,-85.78401 h 34.52979 v 87.63196 h 17.89712 v 30.73441 h -17.89712 v 26.64946 h -34.52979 z m 0,-30.73441 V 621.91768 L 531.6091,666.7549 Z"
       id="text1-9"
       style="font-weight:900;font-size:235.415px;font-family:Arial;-inkscape-font-specification:'Arial, Heavy';stroke-width:7.83223"
       aria-label="1234" />
  </g>
</svg>
