<?xml version="1.0" encoding="UTF-8" standalone="no"?>
<!-- Created with Inkscape (http://www.inkscape.org/) -->

<svg
   width="171.33333mm"
   height="171.33333mm"
   viewBox="0 0 607.0866 607.08659"
   id="svg2"
   version="1.1"
   inkscape:version="1.4.3 (0d15f75, 2025-12-25)"
   sodipodi:docname="in_device_sounds_button_icon.svg"
   inkscape:export-filename="C:\Users\akers\StudioProjects\EngineDriver\EngineDriver\src\main\res\drawable-xhdpi\in_device_sounds_outline.png"
   inkscape:export-xdpi="14.4"
   inkscape:export-ydpi="14.4"
   xmlns:inkscape="http://www.inkscape.org/namespaces/inkscape"
   xmlns:sodipodi="http://sodipodi.sourceforge.net/DTD/sodipodi-0.dtd"
   xmlns="http://www.w3.org/2000/svg"
   xmlns:svg="http://www.w3.org/2000/svg"
   xmlns:rdf="http://www.w3.org/1999/02/22-rdf-syntax-ns#"
   xmlns:cc="http://creativecommons.org/ns#"
   xmlns:dc="http://purl.org/dc/elements/1.1/">
  <defs
     id="defs4">
    <rect
       x="462"
       y="280"
       width="171.11284"
       height="353.11285"
       id="rect2420" />
    <linearGradient
       id="linearGradient4155"
       inkscape:swatch="solid">
      <stop
         style="stop-color:#000000;stop-opacity:1;"
         offset="0"
         id="stop4157" />
    </linearGradient>
    <linearGradient
       id="linearGradient4149">
      <stop
         style="stop-color:#000000;stop-opacity:1;"
         offset="0"
         id="stop4151" />
    </linearGradient>
    <linearGradient
       id="linearGradient4139"
       inkscape:swatch="gradient">
      <stop
         style="stop-color:#2b2200;stop-opacity:1;"
         offset="0"
         id="stop4141" />
      <stop
         style="stop-color:#2b2200;stop-opacity:0;"
         offset="1"
         id="stop4143" />
    </linearGradient>
  </defs>
  <sodipodi:namedview
     id="base"
     pagecolor="#ffffff"
     bordercolor="#666666"
     borderopacity="1.0"
     inkscape:pageopacity="0.0"
     inkscape:pageshadow="2"
     inkscape:zoom="0.70710678"
     inkscape:cx="364.15999"
     inkscape:cy="406.5864"
     inkscape:document-units="px"
     inkscape:current-layer="g4165"
     showgrid="false"
     fit-margin-top="1"
     fit-margin-left="1"
     fit-margin-right="1"
     fit-margin-bottom="1"
     units="mm"
     inkscape:window-width="1600"
     inkscape:window-height="829"
     inkscape:window-x="-8"
     inkscape:window-y="114"
     inkscape:window-maximized="1"
     inkscape:pagecheckerboard="true"
     inkscape:showpageshadow="2"
     inkscape:deskcolor="#d1d1d1" />
  <metadata
     id="metadata7">
    <rdf:RDF>
      <cc:Work
         rdf:about="">
        <dc:format>image/svg+xml</dc:format>
        <dc:type
           rdf:resource="http://purl.org/dc/dcmitype/StillImage" />
      </cc:Work>
    </rdf:RDF>
  </metadata>
  <g
     inkscape:label="Layer 1"
     inkscape:groupmode="layer"
     id="layer1"
     transform="translate(-65.224067,-173.70181)">
    <g
       id="g4165"
       transform="matrix(0.70710678,-0.70710678,0.70710678,0.70710678,-256.86318,384.18552)">
      <path
         style="fill:#ffffff;stroke-width:2.68873"
         d="m 124.93121,501.38508 c -6.00702,-16.47664 -5.02268,-39.23788 2.2832,-52.79421 7.89043,-14.64103 124.03154,-130.0197 145.54787,-144.59235 23.32016,-15.79441 42.79935,-24.06346 69.52261,-29.51292 105.78802,-21.57243 206.80059,44.32214 228.45254,149.02877 8.00076,38.69082 4.13606,79.38111 -10.92907,115.06907 -13.16914,31.19651 -24.62699,45.18269 -92.97238,113.4878 -62.33419,62.29616 -63.22986,63.08803 -77.06711,68.04193 -16.82646,6.02392 -30.90851,5.91278 -47.5986,-0.37573 -10.61103,-3.99803 -16.39584,-8.63806 -39.56246,-31.73338 l -27.13416,-27.05068 60.8391,-60.83911 60.83915,-60.83914 30.41956,30.41956 30.41954,30.41958 19.61365,-19.61368 c 26.14735,-26.14732 36.51383,-41.6926 46.21733,-69.30617 16.12754,-45.89459 8.00965,-98.01125 -21.41355,-137.47476 -39.14542,-52.50337 -107.54264,-73.77093 -168.43449,-52.37331 -27.61361,9.70354 -43.15884,20.06998 -69.3062,46.21733 l -19.61365,19.61365 30.41956,30.41958 30.41954,30.41956 -60.8391,60.8391 -60.83914,60.83912 -27.07339,-27.11142 c -24.42202,-24.45624 -27.57683,-28.49063 -32.20989,-41.19861 z"
         id="path152-1"
         inkscape:export-filename="C:\Users\akers\StudioProjects\EngineDriver\EngineDriver\src\main\res\drawable\in_device_sounds_button_icon.png"
         inkscape:export-xdpi="2.7931037"
         inkscape:export-ydpi="2.7931037" />
      <rect
         style="fill:none;fill-opacity:1;stroke:none;stroke-width:20.00000007;stroke-miterlimit:4;stroke-dasharray:none"
         id="rect5645"
         width="580"
         height="580"
         x="335.63055"
         y="-196.9404"
         transform="matrix(0.70710678,0.70710678,-0.70710678,0.70710678,0,0)"
         ry="95"
         rx="95"
         inkscape:export-filename="C:\Users\akers\StudioProjects\EngineDriver\EngineDriver\src\main\res\drawable\in_device_sounds_button_icon.png"
         inkscape:export-xdpi="2.7931037"
         inkscape:export-ydpi="2.7931037" />
      <g
         transform="matrix(0.61871659,0.61871659,-0.61871659,0.61871659,382.8425,177.48605)"
         id="g14" />
      <g
         transform="matrix(0.61871659,0.61871659,-0.61871659,0.61871659,382.8425,177.48605)"
         id="g16" />
      <g
         transform="matrix(0.61871659,0.61871659,-0.61871659,0.61871659,382.8425,177.48605)"
         id="g18" />
      <g
         transform="matrix(0.61871659,0.61871659,-0.61871659,0.61871659,382.8425,177.48605)"
         id="g20" />
      <g
         transform="matrix(0.61871659,0.61871659,-0.61871659,0.61871659,382.8425,177.48605)"
         id="g22" />
      <g
         transform="matrix(0.61871659,0.61871659,-0.61871659,0.61871659,382.8425,177.48605)"
         id="g24" />
      <g
         transform="matrix(0.61871659,0.61871659,-0.61871659,0.61871659,382.8425,177.48605)"
         id="g26" />
      <g
         transform="matrix(0.61871659,0.61871659,-0.61871659,0.61871659,382.8425,177.48605)"
         id="g28" />
      <g
         transform="matrix(0.61871659,0.61871659,-0.61871659,0.61871659,382.8425,177.48605)"
         id="g30" />
      <g
         transform="matrix(0.61871659,0.61871659,-0.61871659,0.61871659,382.8425,177.48605)"
         id="g32" />
      <g
         transform="matrix(0.61871659,0.61871659,-0.61871659,0.61871659,382.8425,177.48605)"
         id="g34" />
      <g
         transform="matrix(0.61871659,0.61871659,-0.61871659,0.61871659,382.8425,177.48605)"
         id="g36" />
      <g
         transform="matrix(0.61871659,0.61871659,-0.61871659,0.61871659,382.8425,177.48605)"
         id="g38" />
      <g
         transform="matrix(0.61871659,0.61871659,-0.61871659,0.61871659,382.8425,177.48605)"
         id="g40" />
      <g
         transform="matrix(0.61871659,0.61871659,-0.61871659,0.61871659,382.8425,177.48605)"
         id="g42" />
      <path
         style="fill:#000000;stroke-width:2.68873"
         d="m 124.93121,567.67658 c -6.00702,-16.47664 -5.02268,-39.23788 2.2832,-52.79421 7.89043,-14.64103 124.03154,-130.0197 145.54787,-144.59235 23.32016,-15.79441 42.79935,-24.06346 69.52261,-29.51292 105.78802,-21.57243 206.80059,44.32214 228.45254,149.02877 8.00076,38.69082 4.13606,79.38111 -10.92907,115.06907 -13.16914,31.19651 -24.62699,45.18269 -92.97238,113.4878 -62.33419,62.29616 -63.22986,63.08803 -77.06711,68.04193 -16.82646,6.02392 -30.90851,5.91278 -47.5986,-0.37573 -10.61103,-3.99803 -16.39584,-8.63806 -39.56246,-31.73338 l -27.13416,-27.05068 60.8391,-60.83911 60.83915,-60.83914 30.41956,30.41956 30.41954,30.41958 19.61365,-19.61368 c 26.14735,-26.14732 36.51383,-41.6926 46.21733,-69.30617 16.12754,-45.89459 8.00965,-98.01125 -21.41355,-137.47476 -39.14542,-52.50337 -107.54264,-73.77093 -168.43449,-52.37331 -27.61361,9.70354 -43.15884,20.06998 -69.3062,46.21733 l -19.61365,19.61365 30.41956,30.41958 30.41954,30.41956 -60.8391,60.8391 -60.83914,60.83912 -27.07339,-27.11142 c -24.42202,-24.45624 -27.57683,-28.49063 -32.20989,-41.19861 z"
         id="path152-6"
         inkscape:export-filename="C:\Users\akers\StudioProjects\EngineDriver\EngineDriver\src\main\res\drawable\in_device_sounds_button_icon.png"
         inkscape:export-xdpi="2.7931037"
         inkscape:export-ydpi="2.7931037" />
      <path
         style="fill:#808080;stroke-width:2.68873"
         d="m 124.93121,535.85666 c -6.00702,-16.47664 -5.02268,-39.23788 2.2832,-52.79421 7.89043,-14.64103 124.03154,-130.0197 145.54787,-144.59235 23.32016,-15.79441 42.79935,-24.06346 69.52261,-29.51292 105.78802,-21.57243 206.80059,44.32214 228.45254,149.02877 8.00076,38.69082 4.13606,79.38111 -10.92907,115.06907 -13.16914,31.19651 -24.62699,45.18269 -92.97238,113.4878 -62.33419,62.29616 -63.22986,63.08803 -77.06711,68.04193 -16.82646,6.02392 -30.90851,5.91278 -47.5986,-0.37573 -10.61103,-3.99803 -16.39584,-8.63806 -39.56246,-31.73338 l -27.13416,-27.05068 60.8391,-60.83911 60.83915,-60.83914 30.41956,30.41956 30.41954,30.41958 19.61365,-19.61368 c 26.14735,-26.14732 36.51383,-41.6926 46.21733,-69.30617 16.12754,-45.89459 8.00965,-98.01125 -21.41355,-137.47476 -39.14542,-52.50337 -107.54264,-73.77093 -168.43449,-52.37331 -27.61361,9.70354 -43.15884,20.06998 -69.3062,46.21733 l -19.61365,19.61365 30.41956,30.41958 30.41954,30.41956 -60.8391,60.8391 -60.83914,60.83912 -27.07339,-27.11142 c -24.42202,-24.45624 -27.57683,-28.49063 -32.20989,-41.19861 z"
         id="path152"
         inkscape:export-filename="C:\Users\akers\StudioProjects\EngineDriver\EngineDriver\src\main\res\drawable\in_device_sounds_button_icon.png"
         inkscape:export-xdpi="2.7931037"
         inkscape:export-ydpi="2.7931037" />
    </g>
  </g>
</svg>
