<?xml version="1.0" encoding="UTF-8" standalone="no"?>
<svg
   width="171.33333mm"
   height="171.33333mm"
   viewBox="0 0 607.0866 607.08659"
   id="svg2"
   version="1.1"
   inkscape:version="1.4.3 (0d15f75, 2025-12-25)"
   sodipodi:docname="neon_toolbar_button_web.svg"
   inkscape:export-filename="C:\Users\akers\StudioProjects\EngineDriver\EngineDriver\src\main\res\drawable-xhdpi\throttle_outline.png"
   inkscape:export-xdpi="14.4"
   inkscape:export-ydpi="14.4"
   xmlns:inkscape="http://www.inkscape.org/namespaces/inkscape"
   xmlns:sodipodi="http://sodipodi.sourceforge.net/DTD/sodipodi-0.dtd"
   xmlns:xlink="http://www.w3.org/1999/xlink"
   xmlns="http://www.w3.org/2000/svg"
   xmlns:svg="http://www.w3.org/2000/svg"
   xmlns:rdf="http://www.w3.org/1999/02/22-rdf-syntax-ns#"
   xmlns:cc="http://creativecommons.org/ns#"
   xmlns:dc="http://purl.org/dc/elements/1.1/">
  <defs
     id="defs4">
    <linearGradient
       id="linearGradient4155"
       inkscape:swatch="solid">
      <stop
         style="stop-color:#000000;stop-opacity:1;"
         offset="0"
         id="stop4157" />
    </linearGradient>
    <linearGradient
       id="linearGradient4149">
      <stop
         style="stop-color:#000000;stop-opacity:1;"
         offset="0"
         id="stop4151" />
    </linearGradient>
    <linearGradient
       id="linearGradient4139"
       inkscape:swatch="gradient">
      <stop
         style="stop-color:#2b2200;stop-opacity:1;"
         offset="0"
         id="stop4141" />
      <stop
         style="stop-color:#2b2200;stop-opacity:0;"
         offset="1"
         id="stop4143" />
    </linearGradient>
    <linearGradient
       inkscape:collect="always"
       xlink:href="#linearGradient895-5"
       id="linearGradient897-5"
       x1="325.63055"
       y1="93.059601"
       x2="925.63055"
       y2="93.059601"
       gradientUnits="userSpaceOnUse"
       gradientTransform="matrix(1.0329351,0,0,1.0329351,-20.36728,-2.8269769)" />
    <linearGradient
       inkscape:collect="always"
       id="linearGradient895-5">
      <stop
         style="stop-color:#0000ff;stop-opacity:1;"
         offset="0"
         id="stop891-4" />
      <stop
         style="stop-color:#00005e;stop-opacity:1;"
         offset="1"
         id="stop893-7" />
    </linearGradient>
    <linearGradient
       inkscape:collect="always"
       xlink:href="#linearGradient8256-7"
       id="linearGradient8258-3"
       x1="324.38055"
       y1="93.059616"
       x2="926.88055"
       y2="93.059616"
       gradientUnits="userSpaceOnUse"
       gradientTransform="matrix(1.0007898,0,0,1.0007898,-0.25620884,0.16444677)" />
    <linearGradient
       inkscape:collect="always"
       id="linearGradient8256-7">
      <stop
         style="stop-color:#ffffff;stop-opacity:1;"
         offset="0"
         id="stop8254-8" />
      <stop
         style="stop-color:#0000a1;stop-opacity:1;"
         offset="1"
         id="stop8252-9" />
    </linearGradient>
  </defs>
  <sodipodi:namedview
     id="base"
     pagecolor="#ffffff"
     bordercolor="#666666"
     borderopacity="1.0"
     inkscape:pageopacity="0.0"
     inkscape:pageshadow="2"
     inkscape:zoom="0.5"
     inkscape:cx="549"
     inkscape:cy="295"
     inkscape:document-units="px"
     inkscape:current-layer="g4165"
     showgrid="false"
     fit-margin-top="1"
     fit-margin-left="1"
     fit-margin-right="1"
     fit-margin-bottom="1"
     units="mm"
     inkscape:window-width="1600"
     inkscape:window-height="829"
     inkscape:window-x="-8"
     inkscape:window-y="114"
     inkscape:window-maximized="1"
     inkscape:document-rotation="0"
     showguides="true"
     inkscape:guide-bbox="true"
     inkscape:lockguides="false"
     inkscape:showpageshadow="0"
     inkscape:pagecheckerboard="0"
     inkscape:deskcolor="#d1d1d1">
    <sodipodi:guide
       position="301.87501,70.836598"
       orientation="-0.98711267,-0.1600268"
       id="guide872"
       inkscape:locked="false" />
    <sodipodi:guide
       position="301.87501,70.836597"
       orientation="-0.9865772,0.16329553"
       id="guide874"
       inkscape:locked="false" />
    <sodipodi:guide
       position="301.87501,70.836597"
       orientation="1,0"
       id="guide889"
       inkscape:locked="false" />
  </sodipodi:namedview>
  <metadata
     id="metadata7">
    <rdf:RDF>
      <cc:Work
         rdf:about="">
        <dc:format>image/svg+xml</dc:format>
        <dc:type
           rdf:resource="http://purl.org/dc/dcmitype/StillImage" />
        <dc:title />
      </cc:Work>
    </rdf:RDF>
  </metadata>
  <g
     inkscape:label="Layer 1"
     inkscape:groupmode="layer"
     id="layer1"
     transform="translate(-65.224067,-173.70181)">
    <g
       id="g4165"
       transform="matrix(0.70710678,-0.70710678,0.70710678,0.70710678,-256.86318,384.18552)">
      <rect
         style="fill:url(#linearGradient897-5);fill-opacity:1;stroke:url(#linearGradient8258-3);stroke-width:3.87351;stroke-miterlimit:4;stroke-dasharray:none;stroke-opacity:1"
         id="rect5645-2"
         width="599.10236"
         height="599.10236"
         x="326.31729"
         y="-206.25366"
         ry="98.128838"
         rx="98.128838"
         inkscape:export-filename="C:\Users\uketmh\Documents\ModelRailway\JMRIDev\EngineDriver\res\drawable-xhdpi\flashlight_on.png"
         inkscape:export-xdpi="14.4"
         inkscape:export-ydpi="14.4"
         transform="rotate(45)" />
      <g
         transform="matrix(0.61871659,0.61871659,-0.61871659,0.61871659,382.8425,177.48605)"
         id="g14" />
      <g
         transform="matrix(0.61871659,0.61871659,-0.61871659,0.61871659,382.8425,177.48605)"
         id="g16" />
      <g
         transform="matrix(0.61871659,0.61871659,-0.61871659,0.61871659,382.8425,177.48605)"
         id="g18" />
      <g
         transform="matrix(0.61871659,0.61871659,-0.61871659,0.61871659,382.8425,177.48605)"
         id="g20" />
      <g
         transform="matrix(0.61871659,0.61871659,-0.61871659,0.61871659,382.8425,177.48605)"
         id="g22" />
      <g
         transform="matrix(0.61871659,0.61871659,-0.61871659,0.61871659,382.8425,177.48605)"
         id="g24" />
      <g
         transform="matrix(0.61871659,0.61871659,-0.61871659,0.61871659,382.8425,177.48605)"
         id="g26" />
      <g
         transform="matrix(0.61871659,0.61871659,-0.61871659,0.61871659,382.8425,177.48605)"
         id="g28" />
      <g
         transform="matrix(0.61871659,0.61871659,-0.61871659,0.61871659,382.8425,177.48605)"
         id="g30" />
      <g
         transform="matrix(0.61871659,0.61871659,-0.61871659,0.61871659,382.8425,177.48605)"
         id="g32" />
      <g
         transform="matrix(0.61871659,0.61871659,-0.61871659,0.61871659,382.8425,177.48605)"
         id="g34" />
      <g
         transform="matrix(0.61871659,0.61871659,-0.61871659,0.61871659,382.8425,177.48605)"
         id="g36" />
      <g
         transform="matrix(0.61871659,0.61871659,-0.61871659,0.61871659,382.8425,177.48605)"
         id="g38" />
      <g
         transform="matrix(0.61871659,0.61871659,-0.61871659,0.61871659,382.8425,177.48605)"
         id="g40" />
      <g
         transform="matrix(0.61871659,0.61871659,-0.61871659,0.61871659,382.8425,177.48605)"
         id="g42" />
      <path
         d="m 537.64658,346.43421 c -89.41993,-89.41994 -234.40342,-89.25804 -323.82338,0.16187 -89.41991,89.41995 -89.58183,234.40344 -0.1619,323.82338 89.58186,89.58186 234.72727,89.58186 324.14721,0.16188 89.41994,-89.41997 89.41994,-234.56535 -0.16189,-324.14723 z m 15.06525,209.45642 -47.78773,-47.78777 c 15.06523,-25.43275 27.0527,-52.32351 35.3144,-80.02434 19.60103,40.01225 23.65075,85.53211 12.47333,127.81211 z M 504.76201,379.64264 c -5.99363,32.88458 -17.00932,64.9591 -33.20843,95.08973 l -61.88117,-61.8812 c 30.13048,-16.19926 62.20519,-27.21475 95.0896,-33.20853 z M 218.035,415.60498 c 7.77565,-12.95942 17.00917,-25.43274 28.18674,-36.61034 11.17742,-11.17738 23.65007,-20.41191 36.61032,-28.1867 l 54.75352,54.75352 c -11.98744,9.39556 -23.6509,19.11511 -34.66641,30.13063 -11.01549,11.01548 -20.73593,22.67812 -30.13064,34.66643 z m -19.1151,45.68192 47.78792,47.78793 c -15.0654,25.43294 -27.05286,52.3237 -35.31441,80.02435 -19.6012,-40.01208 -23.813,-85.3702 -12.47351,-127.81228 z m 177.38204,-81.8062 -47.78792,-47.78791 c 42.44205,-11.33947 87.8,-7.12751 127.81228,12.47352 -27.70083,8.2617 -54.59161,20.24919 -80.02436,35.31439 z M 246.86972,637.53493 c 5.99381,-32.88443 17.00914,-64.95898 33.20857,-95.08961 l 61.88119,61.88119 c -30.1308,16.19927 -62.20518,27.21478 -95.08976,33.20842 z m 134.45389,-58.64136 -75.81255,-75.81255 c 9.23314,-12.14986 18.79115,-23.97492 29.80664,-34.99041 11.01552,-11.01551 23.00242,-20.7354 34.99041,-29.80665 l 75.81256,75.81255 c -9.07125,11.98799 -18.79114,23.97492 -29.80665,34.99041 -11.01547,11.01552 -22.84054,20.57352 -34.99041,29.80665 z m -86.01801,94.11782 c 27.70068,-8.26153 54.59144,-20.249 80.02436,-35.31439 l 47.78777,47.78774 c -42.28018,11.17757 -87.80003,7.12785 -127.81213,-12.47335 z m 118.74054,-61.39528 c 11.98743,-9.39558 23.65092,-19.11514 34.66641,-30.13066 11.01551,-11.0155 20.73419,-22.67982 30.13062,-34.6664 l 54.75352,54.75351 c -7.77564,12.95942 -17.00931,25.43292 -28.18671,36.61032 -11.17758,11.17758 -23.65007,20.41195 -36.61032,28.18673 z"
         id="path2-8"
         style="fill:#ffffff;fill-opacity:1;stroke:none;stroke-width:22.9091" />
    </g>
  </g>
</svg>
