<?xml version="1.0" encoding="UTF-8" standalone="no"?>
<svg
   width="171.33333mm"
   height="171.33333mm"
   viewBox="0 0 607.0866 607.08659"
   id="svg2"
   version="1.1"
   inkscape:version="1.4.3 (0d15f75, 2025-12-25)"
   sodipodi:docname="neon_toolbar_button_web.svg"
   inkscape:export-filename="C:\Users\akers\StudioProjects\EngineDriver\EngineDriver\src\main\res\drawable-xhdpi\throttle_outline.png"
   inkscape:export-xdpi="14.4"
   inkscape:export-ydpi="14.4"
   xmlns:inkscape="http://www.inkscape.org/namespaces/inkscape"
   xmlns:sodipodi="http://sodipodi.sourceforge.net/DTD/sodipodi-0.dtd"
   xmlns:xlink="http://www.w3.org/1999/xlink"
   xmlns="http://www.w3.org/2000/svg"
   xmlns:svg="http://www.w3.org/2000/svg"
   xmlns:rdf="http://www.w3.org/1999/02/22-rdf-syntax-ns#"
   xmlns:cc="http://creativecommons.org/ns#"
   xmlns:dc="http://purl.org/dc/elements/1.1/">
  <defs
     id="defs4">
    <linearGradient
       id="linearGradient4155"
       inkscape:swatch="solid">
      <stop
         style="stop-color:#000000;stop-opacity:1;"
         offset="0"
         id="stop4157" />
    </linearGradient>
    <linearGradient
       id="linearGradient4149">
      <stop
         style="stop-color:#000000;stop-opacity:1;"
         offset="0"
         id="stop4151" />
    </linearGradient>
    <linearGradient
       id="linearGradient4139"
       inkscape:swatch="gradient">
      <stop
         style="stop-color:#2b2200;stop-opacity:1;"
         offset="0"
         id="stop4141" />
      <stop
         style="stop-color:#2b2200;stop-opacity:0;"
         offset="1"
         id="stop4143" />
    </linearGradient>
    <linearGradient
       inkscape:collect="always"
       xlink:href="#linearGradient895-5"
       id="linearGradient897-5"
       x1="325.63055"
       y1="93.059601"
       x2="925.63055"
       y2="93.059601"
       gradientUnits="userSpaceOnUse"
       gradientTransform="matrix(1.0329351,0,0,1.0329351,-20.36728,-2.8269769)" />
    <linearGradient
       inkscape:collect="always"
       id="linearGradient895-5">
      <stop
         style="stop-color:#0000ff;stop-opacity:1;"
         offset="0"
         id="stop891-4" />
      <stop
         style="stop-color:#00005e;stop-opacity:1;"
         offset="1"
         id="stop893-7" />
    </linearGradient>
    <linearGradient
       inkscape:collect="always"
       xlink:href="#linearGradient8256-7"
       id="linearGradient8258-3"
       x1="324.38055"
       y1="93.059616"
       x2="926.88055"
       y2="93.059616"
       gradientUnits="userSpaceOnUse"
       gradientTransform="matrix(1.0007898,0,0,1.0007898,-0.25620884,0.16444677)" />
    <linearGradient
       inkscape:collect="always"
       id="linearGradient8256-7">
      <stop
         style="stop-color:#ffffff;stop-opacity:1;"
         offset="0"
         id="stop8254-8" />
      <stop
         style="stop-color:#0000a1;stop-opacity:1;"
         offset="1"
         id="stop8252-9" />
    </linearGradient>
  </defs>
  <sodipodi:namedview
     id="base"
     pagecolor="#ffffff"
     bordercolor="#666666"
     borderopacity="1.0"
     inkscape:pageopacity="0.0"
     inkscape:pageshadow="2"
     inkscape:zoom="0.5"
     inkscape:cx="549"
     inkscape:cy="295"
     inkscape:document-units="px"
     inkscape:current-layer="g4165"
     showgrid="false"
     fit-margin-top="1"
     fit-margin-left="1"
     fit-margin-right="1"
     fit-margin-bottom="1"
     units="mm"
     inkscape:window-width="1600"
     inkscape:window-height="829"
     inkscape:window-x="-8"
     inkscape:window-y="114"
     inkscape:window-maximized="1"
     inkscape:document-rotation="0"
     showguides="true"
     inkscape:guide-bbox="true"
     inkscape:lockguides="false"
     inkscape:showpageshadow="0"
     inkscape:pagecheckerboard="0"
     inkscape:deskcolor="#d1d1d1">
    <sodipodi:guide
       position="301.87501,70.836598"
       orientation="-0.98711267,-0.1600268"
       id="guide872"
       inkscape:locked="false" />
    <sodipodi:guide
       position="301.87501,70.836597"
       orientation="-0.9865772,0.16329553"
       id="guide874"
       inkscape:locked="false" />
    <sodipodi:guide
       position="301.87501,70.836597"
       orientation="1,0"
       id="guide889"
       inkscape:locked="false" />
  </sodipodi:namedview>
  <metadata
     id="metadata7">
    <rdf:RDF>
      <cc:Work
         rdf:about="">
        <dc:format>image/svg+xml</dc:format>
        <dc:type
           rdf:resource="http://purl.org/dc/dcmitype/StillImage" />
        <dc:title />
      </cc:Work>
    </rdf:RDF>
  </metadata>
  <g
     inkscape:label="Layer 1"
     inkscape:groupmode="layer"
     id="layer1"
     transform="translate(-65.224067,-173.70181)">
    <g
       id="g4165"
       transform="matrix(0.70710678,-0.70710678,0.70710678,0.70710678,-256.86318,384.18552)">
      <rect
         style="fill:url(#linearGradient897-5);fill-opacity:1;stroke:url(#linearGradient8258-3);stroke-width:3.87351;stroke-miterlimit:4;stroke-dasharray:none;stroke-opacity:1"
         id="rect5645-2"
         width="599.10236"
         height="599.10236"
         x="326.31729"
         y="-206.25366"
         ry="98.128838"
         rx="98.128838"
         inkscape:export-filename="C:\Users\uketmh\Documents\ModelRailway\JMRIDev\EngineDriver\res\drawable-xhdpi\flashlight_on.png"
         inkscape:export-xdpi="14.4"
         inkscape:export-ydpi="14.4"
         transform="rotate(45)" />
      <g
         transform="matrix(0.61871659,0.61871659,-0.61871659,0.61871659,382.8425,177.48605)"
         id="g14" />
      <g
         transform="matrix(0.61871659,0.61871659,-0.61871659,0.61871659,382.8425,177.48605)"
         id="g16" />
      <g
         transform="matrix(0.61871659,0.61871659,-0.61871659,0.61871659,382.8425,177.48605)"
         id="g18" />
      <g
         transform="matrix(0.61871659,0.61871659,-0.61871659,0.61871659,382.8425,177.48605)"
         id="g20" />
      <g
         transform="matrix(0.61871659,0.61871659,-0.61871659,0.61871659,382.8425,177.48605)"
         id="g22" />
      <g
         transform="matrix(0.61871659,0.61871659,-0.61871659,0.61871659,382.8425,177.48605)"
         id="g24" />
      <g
         transform="matrix(0.61871659,0.61871659,-0.61871659,0.61871659,382.8425,177.48605)"
         id="g26" />
      <g
         transform="matrix(0.61871659,0.61871659,-0.61871659,0.61871659,382.8425,177.48605)"
         id="g28" />
      <g
         transform="matrix(0.61871659,0.61871659,-0.61871659,0.61871659,382.8425,177.48605)"
         id="g30" />
      <g
         transform="matrix(0.61871659,0.61871659,-0.61871659,0.61871659,382.8425,177.48605)"
         id="g32" />
      <g
         transform="matrix(0.61871659,0.61871659,-0.61871659,0.61871659,382.8425,177.48605)"
         id="g34" />
      <g
         transform="matrix(0.61871659,0.61871659,-0.61871659,0.61871659,382.8425,177.48605)"
         id="g36" />
      <g
         transform="matrix(0.61871659,0.61871659,-0.61871659,0.61871659,382.8425,177.48605)"
         id="g38" />
      <g
         transform="matrix(0.61871659,0.61871659,-0.61871659,0.61871659,382.8425,177.48605)"
         id="g40" />
      <g
         transform="matrix(0.61871659,0.61871659,-0.61871659,0.61871659,382.8425,177.48605)"
         id="g42" />
      <g
         transform="matrix(0.66291262,0.66291262,-0.66291262,0.66291262,376.7307,168.63325)"
         id="g6"
         style="fill:#ffffff;fill-opacity:1">
        <g
           id="g4"
           style="fill:#ffffff;fill-opacity:1">
          <path
             inkscape:connector-curvature="0"
             d="M 379.853,0 H 132.147 c -24.085,0 -43.68,19.595 -43.68,43.68 v 424.64 c 0,24.085 19.595,43.68 43.68,43.68 h 247.706 c 24.085,0 43.68,-19.595 43.68,-43.68 V 43.68 C 423.533,19.595 403.938,0 379.853,0 Z m 27.093,468.32 c 0,14.939 -12.154,27.093 -27.093,27.093 H 132.147 c -14.939,0 -27.093,-12.154 -27.093,-27.093 V 43.68 c 0,-14.939 12.154,-27.093 27.093,-27.093 h 247.706 c 14.939,0 27.093,12.154 27.093,27.093 z"
             id="path2"
             style="fill:#ffffff;fill-opacity:1" />
        </g>
      </g>
      <path
         inkscape:connector-curvature="0"
         d="M 584.13842,449.98505 431.62596,297.47259 c -3.03614,-3.03614 -13.26289,2.2665 -16.2997,5.3033 -3.03614,3.03614 -8.34011,13.26289 -5.3033,16.2997 l 152.51246,152.51245 c 3.03614,3.03614 13.26289,-2.26649 16.2997,-5.3033 3.03547,-3.0368 8.33944,-13.26355 5.3033,-16.29969 z"
         id="path68-0-2-9-9-5"
         sodipodi:nodetypes="ssssscs"
         style="fill:#ffffff;fill-opacity:1;stroke-width:0.9375" />
      <path
         d="m 435.82599,448.40038 c -49.21728,-49.21728 -129.01709,-49.12817 -178.23439,0.0891 -49.21727,49.21729 -49.30639,129.0171 -0.0891,178.23438 49.3064,49.30641 129.19533,49.30641 178.41261,0.0891 49.21729,-49.2173 49.21729,-129.10622 -0.0891,-178.41263 z m 8.29201,115.2861 -26.30267,-26.30267 c 8.292,-13.99835 14.88997,-28.79919 19.43726,-44.0459 10.78853,22.02299 13.01752,47.0774 6.86541,70.34857 z M 417.72612,466.6785 c -3.29894,18.09988 -9.36204,35.7539 -18.27812,52.33798 l -34.05979,-34.05979 c 16.584,-8.91617 34.23812,-14.97917 52.33791,-18.27819 z m -157.81631,19.7939 c 4.27976,-7.13294 9.36194,-13.99834 15.51415,-20.15055 6.15212,-6.15211 13.01714,-11.23485 20.15055,-15.51414 l 30.13667,30.13667 c -6.59796,5.17138 -13.0176,10.52108 -19.08061,16.58409 -6.06299,6.06299 -11.41318,12.48217 -16.58409,19.08061 z m -10.52108,25.14362 26.30277,26.30276 c -8.29209,13.99845 -14.89007,28.79929 -19.43727,44.0459 -10.78862,-22.0229 -13.10682,-46.98828 -6.8655,-70.34866 z m 97.63217,-45.02664 -26.30277,-26.30277 c 23.36037,-6.24131 48.32567,-3.92302 70.34867,6.86551 -15.24671,4.54729 -30.04755,11.14527 -44.0459,19.43726 z m -71.24029,142.03463 c 3.29902,-18.09979 9.36193,-35.75382 18.2782,-52.33791 l 34.05979,34.05979 c -16.58418,8.91618 -34.23811,14.97918 -52.33799,18.27812 z m 74.00425,-32.27656 -41.7277,-41.7277 c 5.08198,-6.68736 10.34277,-13.19594 16.40576,-19.25894 6.06301,-6.063 12.66068,-11.41289 19.25894,-16.40576 l 41.7277,41.7277 c -4.99287,6.59826 -10.34276,13.19594 -16.40576,19.25894 -6.06299,6.063 -12.57157,11.32378 -19.25894,16.40576 z m -47.34484,51.80302 c 15.24662,-4.54719 30.04746,-11.14517 44.0459,-19.43725 l 26.30268,26.30267 c -23.27127,6.1522 -48.32568,3.92321 -70.34858,-6.86542 z m 65.35552,-33.79234 c 6.59796,-5.17138 13.01761,-10.52109 19.08061,-16.58409 6.063,-6.063 11.41223,-12.48312 16.58408,-19.08061 l 30.13667,30.13667 c -4.27976,7.13294 -9.36203,13.99844 -15.51414,20.15055 -6.15221,6.15221 -13.01714,11.23486 -20.15055,15.51415 z"
         id="path2-8"
         style="fill:#ffffff;stroke:none;stroke-width:12.6093" />
    </g>
  </g>
</svg>
