<?xml version="1.0" encoding="UTF-8" standalone="no"?>
<!-- Created with Inkscape (http://www.inkscape.org/) -->

<svg
   width="171.33333mm"
   height="171.33333mm"
   viewBox="0 0 607.0866 607.08659"
   id="svg2"
   version="1.1"
   inkscape:version="1.4.3 (0d15f75, 2025-12-25)"
   sodipodi:docname="neon_toolbar_button_esu_mc2_knob_on.svg"
   inkscape:export-filename="..\EngineDriver\src\main\res\drawable-xhdpi\dcc_ex_outline.png"
   inkscape:export-xdpi="14.231907"
   inkscape:export-ydpi="14.231907"
   xml:space="preserve"
   xmlns:inkscape="http://www.inkscape.org/namespaces/inkscape"
   xmlns:sodipodi="http://sodipodi.sourceforge.net/DTD/sodipodi-0.dtd"
   xmlns:xlink="http://www.w3.org/1999/xlink"
   xmlns="http://www.w3.org/2000/svg"
   xmlns:svg="http://www.w3.org/2000/svg"
   xmlns:rdf="http://www.w3.org/1999/02/22-rdf-syntax-ns#"
   xmlns:cc="http://creativecommons.org/ns#"
   xmlns:dc="http://purl.org/dc/elements/1.1/"><defs
     id="defs4"><rect
       x="462"
       y="280"
       width="171.11284"
       height="353.11285"
       id="rect2420" /><linearGradient
       id="linearGradient4155"
       inkscape:swatch="solid"><stop
         style="stop-color:#000000;stop-opacity:1;"
         offset="0"
         id="stop4157" /></linearGradient><linearGradient
       id="linearGradient4149"><stop
         style="stop-color:#000000;stop-opacity:1;"
         offset="0"
         id="stop4151" /></linearGradient><linearGradient
       id="linearGradient4139"
       inkscape:swatch="gradient"><stop
         style="stop-color:#2b2200;stop-opacity:1;"
         offset="0"
         id="stop4141" /><stop
         style="stop-color:#2b2200;stop-opacity:0;"
         offset="1"
         id="stop4143" /></linearGradient><rect
       x="720.49402"
       y="801.32397"
       width="243.95853"
       height="98.689613"
       id="rect4023" /><linearGradient
       gradientUnits="userSpaceOnUse"
       y2="597.09998"
       x2="707.41602"
       y1="-4.4348102"
       x1="707.41602"
       id="paint0_linear"><stop
         id="stop33"
         stop-color="#D3D3D3" /><stop
         id="stop35"
         stop-color="white"
         offset="1" /></linearGradient><mask
       height="599"
       width="599"
       y="21"
       x="406"
       maskUnits="userSpaceOnUse"
       mask-type="alpha"
       id="mask0-5"><rect
         id="rect4-1"
         fill="#ffffff"
         transform="rotate(-45,406.51,320.148)"
         rx="56.537102"
         height="422.702"
         width="422.702"
         y="320.14801"
         x="406.51001" /></mask><linearGradient
       inkscape:collect="always"
       xlink:href="#linearGradient895-5"
       id="linearGradient897-5"
       x1="325.63055"
       y1="93.059601"
       x2="925.63055"
       y2="93.059601"
       gradientUnits="userSpaceOnUse"
       gradientTransform="matrix(1.0329351,0,0,1.0329351,-20.36728,-2.8269769)" /><linearGradient
       inkscape:collect="always"
       id="linearGradient895-5"><stop
         style="stop-color:#0000ff;stop-opacity:1;"
         offset="0"
         id="stop891-4" /><stop
         style="stop-color:#00005e;stop-opacity:1;"
         offset="1"
         id="stop893-7" /></linearGradient><linearGradient
       inkscape:collect="always"
       xlink:href="#linearGradient8256-7"
       id="linearGradient8258-3"
       x1="324.38055"
       y1="93.059616"
       x2="926.88055"
       y2="93.059616"
       gradientUnits="userSpaceOnUse"
       gradientTransform="matrix(1.0007898,0,0,1.0007898,-0.25620884,0.16444677)" /><linearGradient
       inkscape:collect="always"
       id="linearGradient8256-7"><stop
         style="stop-color:#ffffff;stop-opacity:1;"
         offset="0"
         id="stop8254-8" /><stop
         style="stop-color:#0000a1;stop-opacity:1;"
         offset="1"
         id="stop8252-9" /></linearGradient><linearGradient
       inkscape:collect="always"
       xlink:href="#linearGradient1"
       id="linearGradient2"
       x1="566.78656"
       y1="704.36694"
       x2="988.7403"
       y2="704.36694"
       gradientUnits="userSpaceOnUse"
       gradientTransform="matrix(0.80647275,0.80647275,-0.86733965,0.86733965,359.35219,-729.21757)" /><linearGradient
       id="linearGradient1"
       inkscape:collect="always"><stop
         style="stop-color:#ffffff;stop-opacity:1;"
         offset="0"
         id="stop1" /><stop
         style="stop-color:#ffffff;stop-opacity:0;"
         offset="1"
         id="stop2" /></linearGradient><linearGradient
       inkscape:collect="always"
       xlink:href="#linearGradient1"
       id="linearGradient5612"
       x1="478.64978"
       y1="19.259123"
       x2="584.58728"
       y2="19.259123"
       gradientUnits="userSpaceOnUse"
       gradientTransform="translate(2.0101015,-3.0323436)" /></defs><sodipodi:namedview
     id="base"
     pagecolor="#ffffff"
     bordercolor="#666666"
     borderopacity="1.0"
     inkscape:pageopacity="0.0"
     inkscape:pageshadow="2"
     inkscape:zoom="0.5"
     inkscape:cx="433"
     inkscape:cy="355"
     inkscape:document-units="px"
     inkscape:current-layer="g4165"
     showgrid="false"
     fit-margin-top="1"
     fit-margin-left="1"
     fit-margin-right="1"
     fit-margin-bottom="1"
     units="mm"
     inkscape:window-width="1600"
     inkscape:window-height="829"
     inkscape:window-x="-8"
     inkscape:window-y="114"
     inkscape:window-maximized="1"
     inkscape:pagecheckerboard="0"
     inkscape:showpageshadow="0"
     inkscape:deskcolor="#d1d1d1" /><metadata
     id="metadata7"><rdf:RDF><cc:Work
         rdf:about=""><dc:format>image/svg+xml</dc:format><dc:type
           rdf:resource="http://purl.org/dc/dcmitype/StillImage" /></cc:Work></rdf:RDF></metadata><g
     inkscape:label="Layer 1"
     inkscape:groupmode="layer"
     id="layer1"
     transform="translate(-65.224067,-173.70181)"><g
       id="g4165"
       transform="matrix(0.70710678,-0.70710678,0.70710678,0.70710678,-256.86318,384.18552)"><rect
         style="fill:url(#linearGradient897-5);fill-opacity:1;stroke:url(#linearGradient8258-3);stroke-width:3.87351;stroke-miterlimit:4;stroke-dasharray:none;stroke-opacity:1"
         id="rect5645-2"
         width="599.10236"
         height="599.10236"
         x="326.31729"
         y="-206.25366"
         ry="98.128838"
         rx="98.128838"
         inkscape:export-filename="C:\Users\uketmh\Documents\ModelRailway\JMRIDev\EngineDriver\res\drawable-xhdpi\flashlight_on.png"
         inkscape:export-xdpi="14.4"
         inkscape:export-ydpi="14.4"
         transform="rotate(45)" /><g
         transform="matrix(0.61871659,0.61871659,-0.61871659,0.61871659,382.8425,177.48605)"
         id="g14" /><g
         transform="matrix(0.61871659,0.61871659,-0.61871659,0.61871659,382.8425,177.48605)"
         id="g16" /><g
         transform="matrix(0.61871659,0.61871659,-0.61871659,0.61871659,382.8425,177.48605)"
         id="g18" /><g
         transform="matrix(0.61871659,0.61871659,-0.61871659,0.61871659,382.8425,177.48605)"
         id="g20" /><g
         transform="matrix(0.61871659,0.61871659,-0.61871659,0.61871659,382.8425,177.48605)"
         id="g22" /><g
         transform="matrix(0.61871659,0.61871659,-0.61871659,0.61871659,382.8425,177.48605)"
         id="g24" /><g
         transform="matrix(0.61871659,0.61871659,-0.61871659,0.61871659,382.8425,177.48605)"
         id="g26" /><g
         transform="matrix(0.61871659,0.61871659,-0.61871659,0.61871659,382.8425,177.48605)"
         id="g28" /><g
         transform="matrix(0.61871659,0.61871659,-0.61871659,0.61871659,382.8425,177.48605)"
         id="g30" /><g
         transform="matrix(0.61871659,0.61871659,-0.61871659,0.61871659,382.8425,177.48605)"
         id="g32" /><g
         transform="matrix(0.61871659,0.61871659,-0.61871659,0.61871659,382.8425,177.48605)"
         id="g34" /><g
         transform="matrix(0.61871659,0.61871659,-0.61871659,0.61871659,382.8425,177.48605)"
         id="g36" /><g
         transform="matrix(0.61871659,0.61871659,-0.61871659,0.61871659,382.8425,177.48605)"
         id="g38" /><g
         transform="matrix(0.61871659,0.61871659,-0.61871659,0.61871659,382.8425,177.48605)"
         id="g40" /><g
         transform="matrix(0.61871659,0.61871659,-0.61871659,0.61871659,382.8425,177.48605)"
         id="g42" /><text
         xml:space="preserve"
         id="text4021"
         style="font-size:14.6667px;line-height:2px;font-family:'Adobe Gothic Std';-inkscape-font-specification:'Adobe Gothic Std';letter-spacing:0px;word-spacing:0px;writing-mode:lr-tb;white-space:pre;shape-inside:url(#rect4023);fill:none;stroke:#000000;stroke-width:1px;stroke-linecap:butt;stroke-linejoin:miter;stroke-opacity:1"
         transform="matrix(0.66291262,0.66291262,-0.66291262,0.66291262,601.21104,-47.474098)" /><path
         id="path2"
         style="fill:url(#linearGradient2);stroke:#000000;stroke-width:0.9375;stroke-dasharray:none;stroke-opacity:1"
         d="m 543.0757,310.34585 -26.42452,-4.4478 -14.23813,-22.14712 -27.15488,0.98705 -16.90642,-16.90642 -24.57346,5.38867 -21.82613,-14.55955 -25.61983,11.13913 -24.6365,-9.6906 -23.23788,15.81448 -26.42536,-4.44735 -19.92079,19.92079 -24.56227,0.8934 -14.73681,20.8379 -26.95442,5.93142 -11.51242,25.40544 -25.62006,11.13935 -6.38159,26.74259 -23.24147,15.89032 -0.9875,27.15572 -18.18219,18.18219 3.61341,24.24527 -16.18476,22.94704 9.30327,24.87646 -11.51263,25.40565 14.16319,22.14861 -6.38393,26.81839 18.52343,18.52343 -0.89532,24.63805 19.78337,13.22054 3.98484,26.59362 24.63648,9.69059 9.26676,24.83996 26.42471,4.44756 14.23813,22.14713 27.15487,-0.98662 16.94316,16.94315 24.53693,-5.42562 21.8257,14.55955 25.61985,-11.13912 24.63671,9.69039 23.23787,-15.81406 26.42537,4.44693 19.92079,-19.92079 24.63872,-0.89639 14.6973,-20.79796 26.95399,-5.93143 11.51285,-25.40546 25.58056,-11.10025 6.38394,-26.8184 23.23809,-15.81427 0.99048,-27.23217 18.22125,-18.22125 -3.65227,-24.20642 16.18479,-22.94703 -9.26676,-24.83995 11.51261,-25.40522 -14.20011,-22.18555 6.38392,-26.8184 -18.52341,-18.52341 0.89574,-24.63807 -19.78359,-13.22076 -3.94813,-26.55647 -24.63668,-9.69079 z" /><circle
         r="52.96875"
         cy="16.226768"
         cx="533.6286"
         id="path5600"
         style="fill:url(#linearGradient5612);fill-opacity:1;stroke-width:4.6875;stroke-miterlimit:4;stroke-dasharray:none"
         transform="rotate(45)" /></g></g></svg>
