<?xml version="1.0" encoding="UTF-8" standalone="no"?>
<!-- Created with Inkscape (http://www.inkscape.org/) -->

<svg
   width="171.33333mm"
   height="171.33333mm"
   viewBox="0 0 607.0866 607.08659"
   id="svg2"
   version="1.1"
   inkscape:version="1.2.2 (732a01da63, 2022-12-09)"
   sodipodi:docname="original_toolbar_button_web_view.svg"
   inkscape:export-filename="C:\Users\akers\StudioProjects\EngineDriver\EngineDriver\src\main\res\drawable\web_view.png"
   inkscape:export-xdpi="5.4000001"
   inkscape:export-ydpi="5.4000001"
   xmlns:inkscape="http://www.inkscape.org/namespaces/inkscape"
   xmlns:sodipodi="http://sodipodi.sourceforge.net/DTD/sodipodi-0.dtd"
   xmlns:xlink="http://www.w3.org/1999/xlink"
   xmlns="http://www.w3.org/2000/svg"
   xmlns:svg="http://www.w3.org/2000/svg"
   xmlns:rdf="http://www.w3.org/1999/02/22-rdf-syntax-ns#"
   xmlns:cc="http://creativecommons.org/ns#"
   xmlns:dc="http://purl.org/dc/elements/1.1/">
  <defs
     id="defs4">
    <linearGradient
       id="linearGradient4155"
       inkscape:swatch="solid">
      <stop
         style="stop-color:#000000;stop-opacity:1;"
         offset="0"
         id="stop4157" />
    </linearGradient>
    <linearGradient
       id="linearGradient4149">
      <stop
         style="stop-color:#000000;stop-opacity:1;"
         offset="0"
         id="stop4151" />
    </linearGradient>
    <linearGradient
       id="linearGradient4139"
       inkscape:swatch="gradient">
      <stop
         style="stop-color:#2b2200;stop-opacity:1;"
         offset="0"
         id="stop4141" />
      <stop
         style="stop-color:#2b2200;stop-opacity:0;"
         offset="1"
         id="stop4143" />
    </linearGradient>
    <linearGradient
       inkscape:collect="always"
       xlink:href="#linearGradient895"
       id="linearGradient897"
       x1="366.55923"
       y1="-167.54758"
       x2="771.93915"
       y2="235.0571"
       gradientUnits="userSpaceOnUse"
       gradientTransform="matrix(1.0361471,0,0,1.0361471,-21.439308,-2.1883964)" />
    <linearGradient
       inkscape:collect="always"
       id="linearGradient895">
      <stop
         style="stop-color:#f000ff;stop-opacity:1;"
         offset="0"
         id="stop891" />
      <stop
         style="stop-color:#36003a;stop-opacity:1;"
         offset="1"
         id="stop893" />
    </linearGradient>
    <linearGradient
       inkscape:collect="always"
       xlink:href="#linearGradient8256"
       id="linearGradient8258"
       x1="358.23788"
       y1="-175.91824"
       x2="776.63855"
       y2="239.61804"
       gradientUnits="userSpaceOnUse"
       gradientTransform="matrix(1.0039019,0,0,1.0039019,-1.2657001,0.81232933)" />
    <linearGradient
       inkscape:collect="always"
       id="linearGradient8256">
      <stop
         style="stop-color:#ffffff;stop-opacity:1;"
         offset="0"
         id="stop8254" />
      <stop
         style="stop-color:#230025;stop-opacity:1;"
         offset="1"
         id="stop8252" />
    </linearGradient>
  </defs>
  <sodipodi:namedview
     id="base"
     pagecolor="#ffffff"
     bordercolor="#666666"
     borderopacity="1.0"
     inkscape:pageopacity="0.0"
     inkscape:pageshadow="2"
     inkscape:zoom="0.35355339"
     inkscape:cx="156.97771"
     inkscape:cy="531.7443"
     inkscape:document-units="px"
     inkscape:current-layer="g4165"
     showgrid="false"
     fit-margin-top="1"
     fit-margin-left="1"
     fit-margin-right="1"
     fit-margin-bottom="1"
     units="mm"
     inkscape:window-width="1600"
     inkscape:window-height="829"
     inkscape:window-x="1912"
     inkscape:window-y="177"
     inkscape:window-maximized="1"
     inkscape:showpageshadow="0"
     inkscape:pagecheckerboard="0"
     inkscape:deskcolor="#d1d1d1" />
  <metadata
     id="metadata7">
    <rdf:RDF>
      <cc:Work
         rdf:about="">
        <dc:format>image/svg+xml</dc:format>
        <dc:type
           rdf:resource="http://purl.org/dc/dcmitype/StillImage" />
        <dc:title />
      </cc:Work>
    </rdf:RDF>
  </metadata>
  <g
     inkscape:label="Layer 1"
     inkscape:groupmode="layer"
     id="layer1"
     transform="translate(-65.224067,-173.70181)">
    <g
       id="g4165"
       transform="matrix(0.70710678,-0.70710678,0.70710678,0.70710678,-256.86318,384.18552)">
      <rect
         style="fill:url(#linearGradient897);fill-opacity:1;stroke:url(#linearGradient8258);stroke-width:3.88556;stroke-miterlimit:4;stroke-dasharray:none;stroke-opacity:1"
         id="rect5645"
         width="600.96533"
         height="600.96533"
         x="326.32333"
         y="-206.24765"
         ry="98.433975"
         rx="98.433975"
         inkscape:export-filename="C:\Users\uketmh\Documents\ModelRailway\JMRIDev\EngineDriver\res\drawable-xhdpi\flashlight_on.png"
         inkscape:export-xdpi="14.4"
         inkscape:export-ydpi="14.4"
         transform="rotate(45)" />
      <g
         transform="matrix(0.61871659,0.61871659,-0.61871659,0.61871659,382.8425,177.48605)"
         id="g14" />
      <g
         transform="matrix(0.61871659,0.61871659,-0.61871659,0.61871659,382.8425,177.48605)"
         id="g16" />
      <g
         transform="matrix(0.61871659,0.61871659,-0.61871659,0.61871659,382.8425,177.48605)"
         id="g18" />
      <g
         transform="matrix(0.61871659,0.61871659,-0.61871659,0.61871659,382.8425,177.48605)"
         id="g20" />
      <g
         transform="matrix(0.61871659,0.61871659,-0.61871659,0.61871659,382.8425,177.48605)"
         id="g22" />
      <g
         transform="matrix(0.61871659,0.61871659,-0.61871659,0.61871659,382.8425,177.48605)"
         id="g24" />
      <g
         transform="matrix(0.61871659,0.61871659,-0.61871659,0.61871659,382.8425,177.48605)"
         id="g26" />
      <g
         transform="matrix(0.61871659,0.61871659,-0.61871659,0.61871659,382.8425,177.48605)"
         id="g28" />
      <g
         transform="matrix(0.61871659,0.61871659,-0.61871659,0.61871659,382.8425,177.48605)"
         id="g30" />
      <g
         transform="matrix(0.61871659,0.61871659,-0.61871659,0.61871659,382.8425,177.48605)"
         id="g32" />
      <g
         transform="matrix(0.61871659,0.61871659,-0.61871659,0.61871659,382.8425,177.48605)"
         id="g34" />
      <g
         transform="matrix(0.61871659,0.61871659,-0.61871659,0.61871659,382.8425,177.48605)"
         id="g36" />
      <g
         transform="matrix(0.61871659,0.61871659,-0.61871659,0.61871659,382.8425,177.48605)"
         id="g38" />
      <g
         transform="matrix(0.61871659,0.61871659,-0.61871659,0.61871659,382.8425,177.48605)"
         id="g40" />
      <g
         transform="matrix(0.61871659,0.61871659,-0.61871659,0.61871659,382.8425,177.48605)"
         id="g42" />
      <g
         transform="matrix(0.66291262,0.66291262,-0.66291262,0.66291262,376.7307,168.63325)"
         id="g6"
         style="fill:#ffffff;fill-opacity:1">
        <g
           id="g4"
           style="fill:#ffffff;fill-opacity:1">
          <path
             inkscape:connector-curvature="0"
             d="M 379.853,0 H 132.147 c -24.085,0 -43.68,19.595 -43.68,43.68 v 424.64 c 0,24.085 19.595,43.68 43.68,43.68 h 247.706 c 24.085,0 43.68,-19.595 43.68,-43.68 V 43.68 C 423.533,19.595 403.938,0 379.853,0 Z m 27.093,468.32 c 0,14.939 -12.154,27.093 -27.093,27.093 H 132.147 c -14.939,0 -27.093,-12.154 -27.093,-27.093 V 43.68 c 0,-14.939 12.154,-27.093 27.093,-27.093 h 247.706 c 14.939,0 27.093,12.154 27.093,27.093 z"
             id="path2"
             style="fill:#ffffff;fill-opacity:1" />
        </g>
      </g>
      <path
         inkscape:connector-curvature="0"
         id="path2-9"
         d="m 336.0451,748.85813 c -9.90325,9.90325 -26.01733,9.90325 -35.92058,0 L 135.91709,584.65069 c -9.90326,-9.90325 -9.90326,-26.01733 0,-35.92058 L 417.4163,267.2309 c 9.90325,-9.90326 26.01733,-9.90326 35.92058,0 l 164.20744,164.20743 c 9.90325,9.90325 9.90325,26.01733 0,35.92058 z"
         style="fill:#000000;fill-opacity:1;stroke-width:0.9375" />
      <path
         id="path62"
         style="fill:#ffffff;fill-opacity:1;stroke-width:0.9375"
         d="m 323.96549,714.7334 c -3.43588,3.43587 -9.02622,3.43653 -12.46276,0 L 171.03619,574.26685 c -3.43588,-3.43588 -3.43654,-9.02622 0,-12.46276 l 96.37821,-96.37822 c 3.43588,-3.43587 9.02688,-3.43587 12.46276,0 l 140.46655,140.46655 c 3.43587,3.43588 3.43587,9.02688 0,12.46276 z M 431.33944,594.89669 290.87289,454.43014 c -9.49887,-9.49887 -24.95534,-9.49887 -34.45422,0 l -96.37888,96.37888 c -9.49887,9.49888 -9.49887,24.95535 0,34.45422 l 140.46655,140.46655 c 9.49887,9.49887 24.95534,9.49888 34.45422,0 l 96.37888,-96.37888 c 9.49954,-9.49954 9.49954,-24.95468 0,-34.45422 z"
         inkscape:connector-curvature="0" />
      <g
         transform="matrix(0.66291262,0.66291262,-0.66291262,0.66291262,388.59484,176.60809)"
         id="g72"
         style="fill:#ffffff;fill-opacity:1">
        <g
           id="g70"
           style="fill:#ffffff;fill-opacity:1">
          <path
             inkscape:connector-curvature="0"
             d="M 330.307,424.639 H 153.534 c -4.58,0 -8.294,3.713 -8.294,8.294 0,4.58 3.713,8.294 8.294,8.294 h 176.773 c 4.58,0 8.294,-3.713 8.294,-8.294 -10e-4,-4.58 -3.714,-8.294 -8.294,-8.294 z"
             id="path68"
             sodipodi:nodetypes="ssssscs"
             style="fill:#ffffff;fill-opacity:1" />
        </g>
      </g>
      <g
         id="g925"
         transform="matrix(0.66291262,0.66291262,-0.66291262,0.66291262,411.6863,153.51664)"
         style="fill:#ffffff;fill-opacity:1">
        <g
           id="g923"
           style="fill:#ffffff;fill-opacity:1">
          <path
             sodipodi:nodetypes="ssssscs"
             id="path921"
             d="M 330.307,424.639 H 153.534 c -4.58,0 -8.294,3.713 -8.294,8.294 0,4.58 3.713,8.294 8.294,8.294 h 176.773 c 4.58,0 8.294,-3.713 8.294,-8.294 -10e-4,-4.58 -3.714,-8.294 -8.294,-8.294 z"
             inkscape:connector-curvature="0"
             style="fill:#ffffff;fill-opacity:1" />
        </g>
      </g>
      <g
         transform="matrix(0.66291262,0.66291262,-0.66291262,0.66291262,434.77775,130.42519)"
         id="g931"
         style="fill:#ffffff;fill-opacity:1">
        <g
           id="g929"
           style="fill:#ffffff;fill-opacity:1">
          <path
             inkscape:connector-curvature="0"
             d="M 330.307,424.639 H 153.534 c -4.58,0 -8.294,3.713 -8.294,8.294 0,4.58 3.713,8.294 8.294,8.294 h 176.773 c 4.58,0 8.294,-3.713 8.294,-8.294 -10e-4,-4.58 -3.714,-8.294 -8.294,-8.294 z"
             id="path927"
             sodipodi:nodetypes="ssssscs"
             style="fill:#ffffff;fill-opacity:1" />
        </g>
      </g>
      <g
         id="g937"
         transform="matrix(0.66291262,0.66291262,-0.66291262,0.66291262,457.8692,107.33374)"
         style="fill:#ffffff;fill-opacity:1">
        <g
           id="g935"
           style="fill:#ffffff;fill-opacity:1">
          <path
             sodipodi:nodetypes="ssssscs"
             id="path933"
             d="M 330.307,424.639 H 153.534 c -4.58,0 -8.294,3.713 -8.294,8.294 0,4.58 3.713,8.294 8.294,8.294 h 176.773 c 4.58,0 8.294,-3.713 8.294,-8.294 -10e-4,-4.58 -3.714,-8.294 -8.294,-8.294 z"
             inkscape:connector-curvature="0"
             style="fill:#ffffff;fill-opacity:1" />
        </g>
      </g>
    </g>
  </g>
</svg>
