<?xml version="1.0" encoding="UTF-8" standalone="no"?>
<!-- Created with Inkscape (http://www.inkscape.org/) -->

<svg
   width="171.33333mm"
   height="171.33333mm"
   viewBox="0 0 607.0866 607.08659"
   id="svg2"
   version="1.1"
   inkscape:version="1.2.2 (732a01da63, 2022-12-09)"
   sodipodi:docname="original_toolbar_button_esu_mc2_knob_on.svg"
   inkscape:export-filename="C:\Users\uketmh\Documents\ModelRailway\JMRIDev\EngineDriver\res\drawable-mdpi\flashlight_off.png"
   inkscape:export-xdpi="7.2000008"
   inkscape:export-ydpi="7.2000008"
   xmlns:inkscape="http://www.inkscape.org/namespaces/inkscape"
   xmlns:sodipodi="http://sodipodi.sourceforge.net/DTD/sodipodi-0.dtd"
   xmlns:xlink="http://www.w3.org/1999/xlink"
   xmlns="http://www.w3.org/2000/svg"
   xmlns:svg="http://www.w3.org/2000/svg"
   xmlns:rdf="http://www.w3.org/1999/02/22-rdf-syntax-ns#"
   xmlns:cc="http://creativecommons.org/ns#"
   xmlns:dc="http://purl.org/dc/elements/1.1/">
  <defs
     id="defs4">
    <linearGradient
       id="linearGradient4155"
       inkscape:swatch="solid">
      <stop
         style="stop-color:#000000;stop-opacity:1;"
         offset="0"
         id="stop4157" />
    </linearGradient>
    <linearGradient
       id="linearGradient4149">
      <stop
         style="stop-color:#000000;stop-opacity:1;"
         offset="0"
         id="stop4151" />
    </linearGradient>
    <linearGradient
       id="linearGradient4139"
       inkscape:swatch="gradient">
      <stop
         id="stop4143"
         offset="0"
         style="stop-color:#2b2200;stop-opacity:0;" />
      <stop
         id="stop4141"
         offset="1"
         style="stop-color:#2b2200;stop-opacity:1;" />
    </linearGradient>
    <linearGradient
       inkscape:collect="always"
       xlink:href="#linearGradient895"
       id="linearGradient897"
       x1="366.55923"
       y1="-167.54758"
       x2="771.93915"
       y2="235.0571"
       gradientUnits="userSpaceOnUse"
       gradientTransform="matrix(1.0360497,0,0,1.0360497,-278.26997,381.97776)" />
    <linearGradient
       inkscape:collect="always"
       id="linearGradient895">
      <stop
         style="stop-color:#438db8;stop-opacity:1;"
         offset="0.40000001"
         id="stop891" />
      <stop
         style="stop-color:#1e4558;stop-opacity:1;"
         offset="1"
         id="stop893" />
    </linearGradient>
    <linearGradient
       inkscape:collect="always"
       xlink:href="#linearGradient8256"
       id="linearGradient8258"
       x1="358.23788"
       y1="-175.91824"
       x2="776.63855"
       y2="239.61804"
       gradientUnits="userSpaceOnUse"
       gradientTransform="matrix(1.0038075,0,0,1.0038075,-258.09826,384.9782)" />
    <linearGradient
       inkscape:collect="always"
       id="linearGradient8256">
      <stop
         style="stop-color:#ffffff;stop-opacity:1;"
         offset="0"
         id="stop8254" />
      <stop
         style="stop-color:#002125;stop-opacity:1;"
         offset="1"
         id="stop8252" />
    </linearGradient>
    <linearGradient
       inkscape:collect="always"
       xlink:href="#linearGradient5596"
       id="linearGradient5619"
       gradientUnits="userSpaceOnUse"
       x1="-156.89746"
       y1="2.8421709e-14"
       x2="156.8972"
       y2="2.8421709e-14"
       gradientTransform="matrix(1.0915944,-1.0915944,1.0915944,1.0915944,371.18397,474.82851)" />
    <linearGradient
       inkscape:collect="always"
       id="linearGradient5596">
      <stop
         style="stop-color:#ffffff;stop-opacity:1;"
         offset="0"
         id="stop5592" />
      <stop
         style="stop-color:#ffffff;stop-opacity:0;"
         offset="1"
         id="stop5594" />
    </linearGradient>
    <linearGradient
       inkscape:collect="always"
       xlink:href="#linearGradient5596"
       id="linearGradient5612"
       x1="478.64978"
       y1="19.259123"
       x2="584.58728"
       y2="19.259123"
       gradientUnits="userSpaceOnUse"
       gradientTransform="translate(-254.85308,381.15318)" />
  </defs>
  <sodipodi:namedview
     id="base"
     pagecolor="#ffffff"
     bordercolor="#666666"
     borderopacity="1.0"
     inkscape:pageopacity="0.0"
     inkscape:pageshadow="2"
     inkscape:zoom="0.5"
     inkscape:cx="271"
     inkscape:cy="328"
     inkscape:document-units="px"
     inkscape:current-layer="layer1"
     showgrid="false"
     fit-margin-top="1"
     fit-margin-left="1"
     fit-margin-right="1"
     fit-margin-bottom="1"
     units="mm"
     inkscape:window-width="1600"
     inkscape:window-height="829"
     inkscape:window-x="1592"
     inkscape:window-y="177"
     inkscape:window-maximized="1"
     inkscape:showpageshadow="0"
     inkscape:pagecheckerboard="0"
     inkscape:deskcolor="#d1d1d1" />
  <metadata
     id="metadata7">
    <rdf:RDF>
      <cc:Work
         rdf:about="">
        <dc:format>image/svg+xml</dc:format>
        <dc:type
           rdf:resource="http://purl.org/dc/dcmitype/StillImage" />
        <dc:title />
      </cc:Work>
    </rdf:RDF>
  </metadata>
  <g
     inkscape:label="Layer 1"
     inkscape:groupmode="layer"
     id="layer1"
     transform="translate(-65.224067,-173.70181)">
    <rect
       style="fill:url(#linearGradient897);fill-opacity:1;stroke:url(#linearGradient8258);stroke-width:3.88519;stroke-miterlimit:4;stroke-dasharray:none;stroke-opacity:1"
       id="rect5645"
       width="600.90881"
       height="600.90881"
       x="69.459938"
       y="177.93768"
       ry="98.424713"
       rx="98.424713"
       inkscape:export-filename="C:\Users\uketmh\Documents\ModelRailway\JMRIDev\EngineDriver\res\drawable-xhdpi\flashlight_on.png"
       inkscape:export-xdpi="14.4"
       inkscape:export-ydpi="14.4" />
    <path
       inkscape:connector-curvature="0"
       d="m 533.13036,305.90822 4.07474,-1.22645 4.18122,-1.09552 1.03992,1.03991 -1.09552,4.18123 -1.22645,4.07474 1.11957,1.17586 4.13002,-1.02503 4.22994,-0.88905 0.98762,1.08973 -1.29938,4.12242 -1.4249,4.00966 1.06046,1.22945 4.17534,-0.82115 4.26847,-0.68043 0.93296,1.13688 -1.50009,4.0537 -1.61992,3.93491 0.99887,1.27996 4.21061,-0.61528 4.29671,-0.47015 0.87608,1.18124 -1.69719,3.97522 -1.81105,3.85069 0.93488,1.32744 4.23572,-0.40794 4.3146,-0.25876 0.81708,1.22281 -1.89021,3.88715 -1.99782,3.7572 0.86863,1.37169 4.25064,-0.19959 4.32209,-0.0468 0.75608,1.26144 -2.07866,3.78972 -2.17976,3.65464 0.80026,1.41267 4.25532,0.009 4.31918,0.16539 0.69327,1.29701 -2.26209,3.68316 -2.35648,3.54327 0.73,1.45026 4.24973,0.21799 4.30587,0.37711 0.6288,1.32947 -2.4401,3.56773 -2.5275,3.42338 0.65795,1.4843 4.23392,0.42627 4.28218,0.58794 0.56281,1.35872 -2.61223,3.44371 -2.69243,3.29523 0.58434,1.51481 4.2079,0.63349 4.24818,0.79735 0.49545,1.3847 -2.77805,3.31139 -2.85087,3.15916 0.50928,1.54164 4.17176,0.83921 4.20393,1.00483 0.42693,1.40735 -2.93719,3.17107 -3.00259,3.01532 0.43303,1.5648 4.12555,1.04289 4.14957,1.2099 0.35734,1.42661 -3.08928,3.0231 -3.14679,2.86452 0.35573,1.58414 4.06941,1.24405 4.0852,1.41205 0.28693,1.44243 -3.23388,2.86791 -3.28356,2.70667 0.27757,1.59968 4.00346,1.44224 4.011,1.61082 0.2158,1.45475 -3.3707,2.70578 -3.41241,2.54228 0.19875,1.61138 3.92787,1.63694 3.92712,1.80567 0.14416,1.46361 -3.49941,2.53712 -3.53304,2.37178 0.11944,1.6192 3.84282,1.8277 3.83379,1.9962 0.0722,1.4689 -3.61968,2.36238 -3.64517,2.19555 0.0399,1.6231 3.7485,2.01407 3.73121,2.1819 v 1.47068 l -3.73121,2.18191 -3.7485,2.01407 -0.0399,1.6231 3.64517,2.19556 3.61968,2.36237 -0.0722,1.4689 -3.83379,1.99621 -3.84282,1.82769 -0.11944,1.6192 3.53304,2.37177 3.4994,2.53713 -0.14415,1.46361 -3.92712,1.80566 -3.92787,1.63695 -0.19875,1.61138 3.41241,2.54228 3.37069,2.70578 -0.2158,1.45476 -4.01099,1.61081 -4.00346,1.44223 -0.27757,1.59969 3.28356,2.70667 3.23388,2.86791 -0.28693,1.44242 -4.0852,1.41205 -4.06941,1.24407 -0.35572,1.58413 3.14678,2.86452 3.08928,3.02309 -0.35735,1.42662 -4.14956,1.2099 -4.12555,1.04289 -0.43303,1.5648 3.00259,3.01532 2.93718,3.17108 -0.42692,1.40734 -4.20393,1.00483 -4.17176,0.83921 -0.50928,1.54165 2.85087,3.15915 2.77805,3.31138 -0.49546,1.38472 -4.24817,0.79734 -4.2079,0.63349 -0.58434,1.51481 2.69243,3.29522 2.61223,3.44371 -0.56281,1.35873 -4.28218,0.58794 -4.23392,0.42626 -0.65794,1.48431 2.52749,3.42338 2.4401,3.56772 -0.6288,1.32948 -4.30587,0.37711 -4.24974,0.218 -0.72999,1.45024 2.35647,3.54328 2.2621,3.68316 -0.69327,1.29701 -4.31918,0.16538 -4.25532,0.009 -0.80026,1.41266 2.17976,3.65465 2.07866,3.78972 -0.75608,1.26143 -4.32209,-0.0467 -4.25064,-0.1996 -0.86863,1.3717 1.99782,3.7572 1.89021,3.88715 -0.81708,1.22281 -4.3146,-0.25876 -4.23573,-0.40793 -0.93487,1.32743 1.81105,3.85069 1.69719,3.97522 -0.87608,1.18124 -4.29671,-0.47016 -4.21061,-0.61527 -0.99887,1.27996 1.61992,3.93491 1.5001,4.0537 -0.93297,1.13687 -4.26847,-0.68042 -4.17534,-0.82115 -1.06046,1.22944 1.4249,4.00967 1.29938,4.12242 -0.98762,1.08972 -4.22994,-0.88905 -4.13002,-1.02502 -1.11957,1.17586 1.22645,4.07474 1.09552,4.18122 -1.03992,1.03992 -4.18122,-1.09552 -4.07474,-1.22645 -1.17586,1.11957 1.02502,4.13002 0.88906,4.22994 -1.08973,0.98762 -4.12242,-1.29938 -4.00966,-1.4249 -1.22945,1.06046 0.82115,4.17534 0.68043,4.26847 -1.13688,0.93297 -4.0537,-1.5001 -3.93491,-1.61992 -1.27997,0.99887 0.61528,4.21062 0.47016,4.2967 -1.18124,0.87608 -3.97522,-1.69719 -3.85069,-1.81105 -1.32744,0.93488 0.40794,4.23571 0.25876,4.31461 -1.22281,0.81707 -3.88715,-1.89021 -3.7572,-1.99781 -1.37169,0.86863 0.19959,4.25064 0.0468,4.32209 -1.26144,0.75609 -3.78971,-2.07867 -3.65465,-2.17976 -1.41267,0.80027 -0.009,4.25531 -0.16538,4.31918 -1.29702,0.69328 -3.68316,-2.2621 -3.54327,-2.35648 -1.45025,0.73 -0.21799,4.24972 -0.37711,4.30587 -1.32948,0.62881 -3.56772,-2.4401 -3.42338,-2.52749 -1.48431,0.65794 -0.42627,4.23393 -0.58793,4.28217 -1.35873,0.5628 -3.4437,-2.61222 -3.29523,-2.69243 -1.51481,0.58433 -0.63349,4.20791 -0.79735,4.24818 -1.38471,0.49545 -3.31138,-2.77805 -3.15915,-2.85086 -1.54165,0.50927 -0.83921,4.17176 -1.00483,4.20393 -1.40735,0.42693 -3.17107,-2.93719 -3.01532,-3.00259 -1.5648,0.43303 -1.04289,4.12555 -1.2099,4.14957 -1.42661,0.35734 -3.0231,-3.08928 -2.86452,-3.14678 -1.58413,0.35572 -1.24407,4.06941 -1.41205,4.08519 -1.44242,0.28693 -2.86791,-3.23387 -2.70667,-3.28356 -1.59969,0.27757 -1.44223,4.00346 -1.61082,4.01099 -1.45475,0.21581 -2.70578,-3.3707 -2.54228,-3.41241 -1.61138,0.19875 -1.63694,3.92787 -1.80567,3.92712 -1.46361,0.14416 -2.53712,-3.49941 -2.37178,-3.53304 -1.6192,0.11943 -1.8277,3.84283 -1.9962,3.83379 -1.4689,0.0722 -2.36238,-3.61967 -2.19555,-3.64518 -1.6231,0.0399 -2.01407,3.7485 -2.1819,3.73122 -1.47069,0 -2.1819,-3.73122 -2.01407,-3.7485 -1.6231,-0.0399 -2.19555,3.64518 -2.36238,3.61967 -1.4689,-0.0722 -1.9962,-3.83379 -1.8277,-3.84283 -1.6192,-0.11943 -2.37178,3.53304 -2.53712,3.49941 -1.46361,-0.14416 -1.80567,-3.92712 -1.63694,-3.92787 -1.61138,-0.19875 -2.54228,3.41241 -2.70578,3.3707 -1.45475,-0.21581 -1.61082,-4.01099 -1.44223,-4.00346 -1.59969,-0.27757 -2.70667,3.28356 -2.86791,3.23387 -1.44242,-0.28693 -1.41205,-4.08519 -1.24407,-4.06941 -1.58414,-0.35572 -2.86451,3.14678 -3.0231,3.08928 -1.42661,-0.35734 -1.2099,-4.14957 -1.04289,-4.12555 -1.5648,-0.43303 -3.01532,3.00259 -3.17107,2.93719 -1.40735,-0.42693 -1.00483,-4.20393 -0.83921,-4.17176 -1.54165,-0.50927 -3.15915,2.85086 -3.31138,2.77805 -1.38471,-0.49545 -0.79735,-4.24818 -0.63349,-4.20791 -1.51481,-0.58433 -3.29523,2.69243 -3.4437,2.61222 -1.35873,-0.5628 -0.58794,-4.28218 -0.42626,-4.23392 -1.48431,-0.65794 -3.42338,2.52749 -3.56772,2.4401 -1.32948,-0.62881 -0.37711,-4.30587 -0.21799,-4.24972 -1.45025,-0.73 -3.54327,2.35648 -3.68317,2.26209 -1.29701,-0.69327 -0.16538,-4.31918 -0.009,-4.25532 -1.41267,-0.80026 -3.65464,2.17976 -3.78973,2.07867 -1.26143,-0.75609 0.0468,-4.32209 0.19959,-4.25064 -1.37169,-0.86863 -3.7572,1.99781 -3.88715,1.89021 -1.22281,-0.81707 0.25876,-4.31461 0.40794,-4.23571 -1.32744,-0.93488 -3.85069,1.81105 -3.97522,1.69719 -1.18124,-0.87608 0.47015,-4.29671 0.61528,-4.21061 -1.27996,-0.99887 -3.93491,1.61992 -4.0537,1.5001 -1.13688,-0.93297 0.68043,-4.26847 0.82115,-4.17534 -1.22945,-1.06046 -4.00966,1.4249 -4.12242,1.29938 -1.08973,-0.98762 0.88906,-4.22994 1.02502,-4.13003 -1.17585,-1.11957 -4.07475,1.22645 -4.18122,1.09552 -1.03991,-1.03992 1.09552,-4.18122 1.22645,-4.07474 -1.11957,-1.17586 -4.13003,1.02503 -4.22994,0.88905 -0.98762,-1.08972 1.29938,-4.12242 1.4249,-4.00967 -1.06046,-1.22944 -4.17534,0.82115 -4.26847,0.68042 -0.93297,-1.13687 1.5001,-4.0537 1.61992,-3.93491 -0.99887,-1.27996 -4.21062,0.61527 -4.2967,0.47016 -0.87609,-1.18124 1.6972,-3.97522 1.81105,-3.85069 -0.93488,-1.32744 -4.23572,0.40794 -4.3146,0.25876 -0.81708,-1.22281 1.89021,-3.88715 1.99782,-3.7572 -0.86863,-1.3717 -4.25064,0.1996 -4.32209,0.0467 -0.75609,-1.26143 2.07867,-3.78972 2.17976,-3.65464 -0.80027,-1.41267 -4.25531,-0.009 -4.31918,-0.16538 -0.69327,-1.29701 2.26209,-3.68317 2.35648,-3.54327 -0.73,-1.45025 -4.24973,-0.21799 -4.30587,-0.37711 -0.6288,-1.32948 2.4401,-3.56772 2.52749,-3.42338 -0.65794,-1.48431 -4.23392,-0.42626 -4.28218,-0.58794 -0.56281,-1.35873 2.61223,-3.44371 2.69243,-3.29522 -0.58434,-1.51481 -4.2079,-0.63349 -4.24818,-0.79735 -0.49545,-1.38471 2.77805,-3.31138 2.85086,-3.15915 -0.50927,-1.54165 -4.17176,-0.83921 -4.20393,-1.00483 -0.42693,-1.40735 2.93719,-3.17107 3.00259,-3.01532 -0.43303,-1.5648 -4.12555,-1.04289 -4.14957,-1.20991 -0.35735,-1.4266 3.08929,-3.0231 3.14678,-2.86452 -0.35572,-1.58413 -4.06941,-1.24407 -4.0852,-1.41205 -0.28693,-1.44242 3.23388,-2.86791 3.28356,-2.70667 -0.27757,-1.59969 -4.00346,-1.44223 -4.011,-1.61082 -0.2158,-1.45475 3.3707,-2.70578 3.41241,-2.54228 -0.19875,-1.61138 -3.92787,-1.63695 -3.92712,-1.80566 -0.14416,-1.46362 3.49941,-2.53712 3.53304,-2.37177 -0.11944,-1.6192 -3.84283,-1.8277 -3.83378,-1.9962 -0.0722,-1.4689 3.61968,-2.36238 3.64517,-2.19555 -0.0399,-1.6231 -3.7485,-2.01407 -3.73121,-2.18191 v -1.47068 l 3.73121,-2.1819 3.7485,-2.01407 0.0399,-1.6231 -3.64517,-2.19555 -3.61968,-2.36238 0.0722,-1.4689 3.83378,-1.9962 3.84283,-1.8277 0.11944,-1.6192 -3.53304,-2.37178 -3.49941,-2.53712 0.14416,-1.46361 3.92712,-1.80567 3.92787,-1.63694 0.19875,-1.61138 -3.41241,-2.54228 -3.3707,-2.70578 0.2158,-1.45475 4.011,-1.61082 4.00346,-1.44224 0.27757,-1.59968 -3.28356,-2.70667 -3.23388,-2.86791 0.28693,-1.44243 4.0852,-1.41205 4.06941,-1.24406 0.35572,-1.58414 -3.14678,-2.86451 -3.08928,-3.0231 0.35734,-1.42661 4.14957,-1.2099 4.12555,-1.04289 0.43303,-1.5648 -3.00259,-3.01532 -2.93719,-3.17107 0.42693,-1.40735 4.20393,-1.00483 4.17176,-0.83921 0.50927,-1.54165 -2.85086,-3.15915 -2.77805,-3.31139 0.49545,-1.3847 4.24818,-0.79735 4.2079,-0.63349 0.58434,-1.51481 -2.69243,-3.29523 -2.61223,-3.44371 0.56281,-1.35872 4.28217,-0.58793 4.23393,-0.42628 0.65794,-1.48431 -2.52749,-3.42337 -2.4401,-3.56773 0.6288,-1.32947 4.30587,-0.37711 4.24973,-0.21799 0.73,-1.45026 -2.35648,-3.54327 -2.2621,-3.68315 0.69328,-1.29702 4.31918,-0.16539 4.25531,-0.009 0.80027,-1.41268 -2.17976,-3.65464 -2.07867,-3.78971 0.75609,-1.26145 4.32209,0.0468 4.25064,0.19959 0.86863,-1.37169 -1.99782,-3.7572 -1.89021,-3.88715 0.81708,-1.22281 4.3146,0.25876 4.23572,0.40794 0.93488,-1.32744 -1.81105,-3.85069 -1.6972,-3.97522 0.87609,-1.18124 4.2967,0.47016 4.21061,0.61527 0.99888,-1.27996 -1.61992,-3.93491 -1.5001,-4.05371 0.93297,-1.13687 4.26847,0.68043 4.17534,0.82115 1.06046,-1.22945 -1.4249,-4.00966 -1.29938,-4.12242 0.98762,-1.08973 4.22994,0.88905 4.13002,1.02503 1.11957,-1.17586 -1.22645,-4.07474 -1.09552,-4.18123 1.03992,-1.03991 4.18122,1.09552 4.07474,1.22645 1.17586,-1.11957 -1.02502,-4.13003 -0.88906,-4.22993 1.08973,-0.98762 4.12242,1.29938 4.00966,1.4249 1.22945,-1.06046 -0.82115,-4.17534 -0.68043,-4.26847 1.13688,-0.93297 4.0537,1.5001 3.93491,1.61992 1.27996,-0.99887 -0.61528,-4.21062 -0.47015,-4.2967 1.18124,-0.87609 3.97522,1.69719 3.85069,1.81106 1.32743,-0.93487 -0.40793,-4.23573 -0.25876,-4.3146 1.22281,-0.81708 3.88715,1.89021 3.7572,1.99782 1.37169,-0.86863 -0.19959,-4.25064 -0.0468,-4.32209 1.26144,-0.75608 3.78972,2.07866 3.65464,2.17976 1.41267,-0.80027 0.009,-4.25531 0.16538,-4.31918 1.29701,-0.69327 3.68316,2.2621 3.54328,2.35646 1.45024,-0.72998 0.218,-4.24974 0.37711,-4.30587 1.32948,-0.6288 3.56772,2.4401 3.42338,2.52749 1.48431,-0.65794 0.42626,-4.23392 0.58794,-4.28218 1.35873,-0.56281 3.4437,2.61222 3.29523,2.69243 1.51481,-0.58433 0.63349,-4.2079 0.79734,-4.24818 1.38472,-0.49545 3.31138,2.77805 3.15914,2.85087 1.54166,-0.50928 0.83921,-4.17176 1.00483,-4.20393 1.40734,-0.42692 3.17108,2.93718 3.01532,3.00259 1.5648,-0.43303 1.04289,-4.12555 1.2099,-4.14957 1.42661,-0.35734 3.0231,3.08928 2.86451,3.14678 1.58414,-0.35572 1.24407,-4.06941 1.41205,-4.0852 1.44242,-0.28693 2.86791,3.23388 2.70667,3.28355 1.59969,-0.27756 1.44223,-4.00347 1.61081,-4.01098 1.45475,-0.2158 2.70579,3.37069 2.54228,3.41241 1.61138,-0.19875 1.63694,-3.92787 1.80567,-3.92712 1.46361,-0.14416 2.53712,3.4994 2.37178,3.53305 1.6192,-0.11944 1.82769,-3.84282 1.99621,-3.83379 1.4689,-0.0722 2.36237,3.61968 2.19556,3.64517 1.6231,-0.0399 2.01407,-3.7485 2.1819,-3.73122 1.47069,0 2.1819,3.73122 2.01407,3.7485 1.6231,0.0399 2.19555,-3.64518 2.36238,-3.61967 1.4689,0.0722 1.9962,3.83378 1.8277,3.84283 1.6192,0.11944 2.37178,-3.53305 2.53712,-3.4994 1.46361,0.14416 1.80567,3.92712 1.63694,3.92787 1.61138,0.19875 2.54228,-3.41241 2.70578,-3.3707 1.45475,0.2158 1.61082,4.01099 1.44223,4.00347 1.59969,0.27756 2.70667,-3.28355 2.86791,-3.23388 1.44242,0.28693 1.41205,4.0852 1.24406,4.06941 1.58414,0.35573 2.86452,-3.14679 3.0231,-3.08928 1.42661,0.35734 1.2099,4.14957 1.04289,4.12555 1.5648,0.43303 3.01532,-3.00259 3.17107,-2.93719 1.40735,0.42693 1.00483,4.20393 0.83921,4.17176 1.54164,0.50928 3.15916,-2.85087 3.31138,-2.77805 1.38471,0.49545 0.79735,4.24818 0.63349,4.2079 1.51481,0.58433 3.29523,-2.69243 3.4437,-2.61222 1.35873,0.56281 0.58794,4.28218 0.42626,4.23392 1.48431,0.65795 3.42338,-2.5275 3.56772,-2.4401 1.32948,0.6288 0.37711,4.30587 0.21799,4.24973 1.45025,0.72999 3.54327,-2.35647 3.68317,-2.26209 1.29701,0.69327 0.16538,4.31918 0.009,4.25531 1.41266,0.80027 3.65465,-2.17976 3.78972,-2.07866 1.26143,0.75608 -0.0468,4.32209 -0.19959,4.25064 1.37169,0.86863 3.7572,-1.99782 3.88715,-1.89021 1.22281,0.81708 -0.25876,4.3146 -0.40794,4.23572 1.32744,0.93488 3.85069,-1.81106 3.97522,-1.69719 1.18124,0.87609 -0.47015,4.2967 -0.61528,4.21062 1.27996,0.99887 3.93491,-1.61992 4.0537,-1.50009 1.13688,0.93296 -0.68043,4.26847 -0.82115,4.17534 1.22945,1.06046 4.00966,-1.4249 4.12242,-1.29938 1.08973,0.98762 -0.88906,4.22993 -1.02502,4.13003 z"
       style="fill:url(#linearGradient5619);fill-opacity:1;stroke:#000000;stroke-width:4.6875;stroke-miterlimit:4;stroke-dasharray:none"
       id="path4744" />
    <circle
       r="52.96875"
       cy="400.41229"
       cx="276.76541"
       id="path5600"
       style="fill:url(#linearGradient5612);fill-opacity:1;stroke-width:4.6875;stroke-miterlimit:4;stroke-dasharray:none" />
  </g>
</svg>
