<?xml version="1.0" encoding="UTF-8" standalone="no"?>
<!-- Created with Inkscape (http://www.inkscape.org/) -->

<svg
   width="171.33333mm"
   height="171.33333mm"
   viewBox="0 0 607.0866 607.08659"
   id="svg2"
   version="1.1"
   inkscape:version="1.2.2 (732a01da63, 2022-12-09)"
   sodipodi:docname="original_toolbar_button_throttle_switch_button.svg"
   inkscape:export-filename="C:\Users\uketmh\Documents\ModelRailway\JMRIDev\EngineDriver\res\drawable-hdpi\flashlight_on.png"
   inkscape:export-xdpi="10.8"
   inkscape:export-ydpi="10.8"
   xmlns:inkscape="http://www.inkscape.org/namespaces/inkscape"
   xmlns:sodipodi="http://sodipodi.sourceforge.net/DTD/sodipodi-0.dtd"
   xmlns:xlink="http://www.w3.org/1999/xlink"
   xmlns="http://www.w3.org/2000/svg"
   xmlns:svg="http://www.w3.org/2000/svg"
   xmlns:rdf="http://www.w3.org/1999/02/22-rdf-syntax-ns#"
   xmlns:cc="http://creativecommons.org/ns#"
   xmlns:dc="http://purl.org/dc/elements/1.1/">
  <defs
     id="defs4">
    <linearGradient
       id="linearGradient4155"
       inkscape:swatch="solid">
      <stop
         style="stop-color:#000000;stop-opacity:1;"
         offset="0"
         id="stop4157" />
    </linearGradient>
    <linearGradient
       id="linearGradient4149">
      <stop
         style="stop-color:#000000;stop-opacity:1;"
         offset="0"
         id="stop4151" />
    </linearGradient>
    <linearGradient
       id="linearGradient4139"
       inkscape:swatch="gradient">
      <stop
         style="stop-color:#2b2200;stop-opacity:1;"
         offset="0"
         id="stop4141" />
      <stop
         style="stop-color:#2b2200;stop-opacity:0;"
         offset="1"
         id="stop4143" />
    </linearGradient>
    <linearGradient
       inkscape:collect="always"
       xlink:href="#linearGradient895"
       id="linearGradient897"
       x1="366.55923"
       y1="-167.54758"
       x2="771.93915"
       y2="235.0571"
       gradientUnits="userSpaceOnUse"
       gradientTransform="matrix(1.0361471,0,0,1.0361471,-21.439295,-2.1883873)" />
    <linearGradient
       inkscape:collect="always"
       id="linearGradient895">
      <stop
         style="stop-color:#ff8f00;stop-opacity:1;"
         offset="0"
         id="stop891" />
      <stop
         style="stop-color:#3a2100;stop-opacity:1;"
         offset="1"
         id="stop893" />
    </linearGradient>
    <linearGradient
       inkscape:collect="always"
       xlink:href="#linearGradient8256"
       id="linearGradient8258"
       x1="358.23788"
       y1="-175.91824"
       x2="776.63855"
       y2="239.61804"
       gradientUnits="userSpaceOnUse"
       gradientTransform="matrix(1.0039019,0,0,1.0039019,-1.2656873,0.81233841)" />
    <linearGradient
       inkscape:collect="always"
       id="linearGradient8256">
      <stop
         style="stop-color:#ffffff;stop-opacity:1;"
         offset="0"
         id="stop8254" />
      <stop
         style="stop-color:#251500;stop-opacity:1;"
         offset="1"
         id="stop8252" />
    </linearGradient>
  </defs>
  <sodipodi:namedview
     id="base"
     pagecolor="#ffffff"
     bordercolor="#666666"
     borderopacity="1.0"
     inkscape:pageopacity="0.0"
     inkscape:pageshadow="2"
     inkscape:zoom="0.70710678"
     inkscape:cx="267.99347"
     inkscape:cy="302.6417"
     inkscape:document-units="px"
     inkscape:current-layer="g4165"
     showgrid="false"
     fit-margin-top="1"
     fit-margin-left="1"
     fit-margin-right="1"
     fit-margin-bottom="1"
     units="mm"
     inkscape:window-width="1600"
     inkscape:window-height="829"
     inkscape:window-x="1912"
     inkscape:window-y="177"
     inkscape:window-maximized="1"
     inkscape:showpageshadow="0"
     inkscape:pagecheckerboard="0"
     inkscape:deskcolor="#d1d1d1" />
  <metadata
     id="metadata7">
    <rdf:RDF>
      <cc:Work
         rdf:about="">
        <dc:format>image/svg+xml</dc:format>
        <dc:type
           rdf:resource="http://purl.org/dc/dcmitype/StillImage" />
        <dc:title />
      </cc:Work>
    </rdf:RDF>
  </metadata>
  <g
     inkscape:label="Layer 1"
     inkscape:groupmode="layer"
     id="layer1"
     transform="translate(-65.224067,-173.70181)">
    <g
       id="g4165"
       transform="matrix(0.70710678,-0.70710678,0.70710678,0.70710678,-256.86318,384.18552)">
      <rect
         style="fill:url(#linearGradient897);fill-opacity:1;stroke:url(#linearGradient8258);stroke-width:3.88556;stroke-miterlimit:4;stroke-dasharray:none;stroke-opacity:1"
         id="rect5645"
         width="600.96533"
         height="600.96533"
         x="326.32333"
         y="-206.24763"
         ry="98.433975"
         rx="98.433975"
         inkscape:export-filename="C:\Users\uketmh\Documents\ModelRailway\JMRIDev\EngineDriver\res\drawable-xhdpi\flashlight_on.png"
         inkscape:export-xdpi="14.4"
         inkscape:export-ydpi="14.4"
         transform="rotate(45)" />
      <g
         style="fill:#230200;fill-opacity:1"
         transform="matrix(11.877185,11.877185,-11.877185,11.877185,375.55103,217.83495)"
         id="g4" />
      <g
         style="fill:#230200;fill-opacity:1"
         transform="matrix(11.877185,11.877185,-11.877185,11.877185,375.55103,217.83495)"
         id="g8" />
      <g
         style="fill:#230200;fill-opacity:1"
         transform="matrix(11.877185,11.877185,-11.877185,11.877185,375.55103,217.83495)"
         id="g12" />
      <g
         style="fill:#ffffff;fill-opacity:1"
         transform="matrix(11.877185,11.877185,-11.877185,11.877185,375.55103,217.83495)"
         id="g16">
        <path
           id="path14"
           style="fill:#ffffff;fill-opacity:1"
           d="m 22.808,17.748 -2.25,-2.5 C 20.415,15.09 20.213,15 20,15 c -0.213,0 -0.415,0.09 -0.558,0.248 l -2.25,2.5 C 17.066,17.889 17,18.068 17,18.25 c 0,0.104 0.021,0.207 0.065,0.305 C 17.186,18.826 17.454,19 17.75,19 H 19 v 1 c 0,0.551 -0.449,1 -1,1 -0.552,0 -1,0.448 -1,1 0,0.552 0.448,1 1,1 1.654,0 3,-1.346 3,-3 v -1 h 1.25 c 0.296,0 0.564,-0.174 0.685,-0.445 0.12,-0.27 0.071,-0.586 -0.127,-0.807 z M 6.25,5 H 5 V 4 C 5,3.449 5.449,3 6,3 6.552,3 7,2.552 7,2 7,1.448 6.552,1 6,1 4.346,1 3,2.346 3,4 V 5 H 1.75 C 1.453,5 1.185,5.174 1.065,5.445 0.945,5.715 0.994,6.031 1.192,6.252 l 2.25,2.5 C 3.585,8.91 3.787,9 4,9 4.213,9 4.415,8.91 4.558,8.752 l 2.25,-2.5 C 6.934,6.111 7,5.932 7,5.75 7,5.646 6.979,5.543 6.935,5.445 6.814,5.174 6.546,5 6.25,5 Z M 13,15 v 6 c 0,0.55 -0.45,1 -1,1 H 3 C 2.45,22 2,21.55 2,21 v -6 h 9 C 8.79,15 7,13.21 7,11 H 2 c -1.1,0 -2,0.9 -2,2 v 9 c 0,1.1 0.9,2 2,2 h 11 c 1.1,0 2,-0.9 2,-2 V 15 Z M 22,0 H 11 C 9.895,0 9,0.895 9,2 v 9 c 0,1.105 0.895,2 2,2 h 11 c 1.105,0 2,-0.895 2,-2 V 2 C 24,0.895 23.105,0 22,0 Z m -1,11 h -9 c -0.551,0 -1,-0.448 -1,-1 V 4 h 11 v 6 c 0,0.552 -0.449,1 -1,1 z" />
      </g>
    </g>
  </g>
</svg>
