<?xml version="1.0" encoding="UTF-8" standalone="no"?>
<!-- Created with Inkscape (http://www.inkscape.org/) -->

<svg
   width="171.33333mm"
   height="171.33333mm"
   viewBox="0 0 607.0866 607.08659"
   id="svg2"
   version="1.1"
   inkscape:version="1.2.2 (732a01da63, 2022-12-09)"
   sodipodi:docname="toolbar_button_web_view_ultra.svg"
   inkscape:export-filename="C:\Users\akers\StudioProjects\EngineDriver\EngineDriver\src\main\res\drawable\web_view_outline.png"
   inkscape:export-xdpi="5.4000001"
   inkscape:export-ydpi="5.4000001"
   xmlns:inkscape="http://www.inkscape.org/namespaces/inkscape"
   xmlns:sodipodi="http://sodipodi.sourceforge.net/DTD/sodipodi-0.dtd"
   xmlns:xlink="http://www.w3.org/1999/xlink"
   xmlns="http://www.w3.org/2000/svg"
   xmlns:svg="http://www.w3.org/2000/svg"
   xmlns:rdf="http://www.w3.org/1999/02/22-rdf-syntax-ns#"
   xmlns:cc="http://creativecommons.org/ns#"
   xmlns:dc="http://purl.org/dc/elements/1.1/">
  <defs
     id="defs4">
    <linearGradient
       id="linearGradient4155"
       inkscape:swatch="solid">
      <stop
         style="stop-color:#000000;stop-opacity:1;"
         offset="0"
         id="stop4157" />
    </linearGradient>
    <linearGradient
       id="linearGradient4149">
      <stop
         style="stop-color:#000000;stop-opacity:1;"
         offset="0"
         id="stop4151" />
    </linearGradient>
    <linearGradient
       id="linearGradient4139"
       inkscape:swatch="gradient">
      <stop
         style="stop-color:#2b2200;stop-opacity:1;"
         offset="0"
         id="stop4141" />
      <stop
         style="stop-color:#2b2200;stop-opacity:0;"
         offset="1"
         id="stop4143" />
    </linearGradient>
    <linearGradient
       inkscape:collect="always"
       xlink:href="#linearGradient895"
       id="linearGradient897"
       x1="325.63055"
       y1="93.059601"
       x2="925.63055"
       y2="93.059601"
       gradientUnits="userSpaceOnUse"
       gradientTransform="matrix(1.0321199,0,0,1.0321199,-20.0952,-2.9890669)" />
    <linearGradient
       inkscape:collect="always"
       id="linearGradient895">
      <stop
         style="stop-color:#181818;stop-opacity:1;"
         offset="0"
         id="stop891" />
      <stop
         style="stop-color:#303030;stop-opacity:1;"
         offset="1"
         id="stop893" />
    </linearGradient>
    <linearGradient
       inkscape:collect="always"
       xlink:href="#linearGradient8256"
       id="linearGradient8258"
       x1="324.38055"
       y1="93.059616"
       x2="926.88055"
       y2="93.059616"
       gradientUnits="userSpaceOnUse" />
    <linearGradient
       inkscape:collect="always"
       id="linearGradient8256">
      <stop
         style="stop-color:#808080;stop-opacity:1;"
         offset="0"
         id="stop8254" />
      <stop
         style="stop-color:#404040;stop-opacity:1;"
         offset="1"
         id="stop8252" />
    </linearGradient>
  </defs>
  <sodipodi:namedview
     id="base"
     pagecolor="#ffffff"
     bordercolor="#666666"
     borderopacity="1.0"
     inkscape:pageopacity="0.0"
     inkscape:pageshadow="2"
     inkscape:zoom="1"
     inkscape:cx="293.5"
     inkscape:cy="385"
     inkscape:document-units="px"
     inkscape:current-layer="g4165"
     showgrid="false"
     fit-margin-top="1"
     fit-margin-left="1"
     fit-margin-right="1"
     fit-margin-bottom="1"
     units="mm"
     inkscape:window-width="2400"
     inkscape:window-height="1244"
     inkscape:window-x="2869"
     inkscape:window-y="-11"
     inkscape:window-maximized="1"
     inkscape:showpageshadow="0"
     inkscape:pagecheckerboard="0"
     inkscape:deskcolor="#d1d1d1" />
  <metadata
     id="metadata7">
    <rdf:RDF>
      <cc:Work
         rdf:about="">
        <dc:format>image/svg+xml</dc:format>
        <dc:type
           rdf:resource="http://purl.org/dc/dcmitype/StillImage" />
        <dc:title />
      </cc:Work>
    </rdf:RDF>
  </metadata>
  <g
     inkscape:label="Layer 1"
     inkscape:groupmode="layer"
     id="layer1"
     transform="translate(-65.224067,-173.70181)">
    <g
       id="g4165"
       transform="matrix(0.70710678,-0.70710678,0.70710678,0.70710678,-256.86318,384.18552)">
      <rect
         style="fill:url(#linearGradient897);fill-opacity:1;stroke:url(#linearGradient8258);stroke-width:3.87045;stroke-miterlimit:4;stroke-dasharray:none;stroke-opacity:1"
         id="rect5645"
         width="598.62958"
         height="598.62958"
         x="326.31577"
         y="-206.25517"
         transform="rotate(45)"
         ry="98.051392"
         rx="98.051392"
         inkscape:export-filename="C:\Users\uketmh\Documents\ModelRailway\JMRIDev\EngineDriver\res\drawable-xhdpi\flashlight_on.png"
         inkscape:export-xdpi="14.4"
         inkscape:export-ydpi="14.4" />
      <g
         transform="matrix(0.61871659,0.61871659,-0.61871659,0.61871659,382.8425,177.48605)"
         id="g14" />
      <g
         transform="matrix(0.61871659,0.61871659,-0.61871659,0.61871659,382.8425,177.48605)"
         id="g16" />
      <g
         transform="matrix(0.61871659,0.61871659,-0.61871659,0.61871659,382.8425,177.48605)"
         id="g18" />
      <g
         transform="matrix(0.61871659,0.61871659,-0.61871659,0.61871659,382.8425,177.48605)"
         id="g20" />
      <g
         transform="matrix(0.61871659,0.61871659,-0.61871659,0.61871659,382.8425,177.48605)"
         id="g22" />
      <g
         transform="matrix(0.61871659,0.61871659,-0.61871659,0.61871659,382.8425,177.48605)"
         id="g24" />
      <g
         transform="matrix(0.61871659,0.61871659,-0.61871659,0.61871659,382.8425,177.48605)"
         id="g26" />
      <g
         transform="matrix(0.61871659,0.61871659,-0.61871659,0.61871659,382.8425,177.48605)"
         id="g28" />
      <g
         transform="matrix(0.61871659,0.61871659,-0.61871659,0.61871659,382.8425,177.48605)"
         id="g30" />
      <g
         transform="matrix(0.61871659,0.61871659,-0.61871659,0.61871659,382.8425,177.48605)"
         id="g32" />
      <g
         transform="matrix(0.61871659,0.61871659,-0.61871659,0.61871659,382.8425,177.48605)"
         id="g34" />
      <g
         transform="matrix(0.61871659,0.61871659,-0.61871659,0.61871659,382.8425,177.48605)"
         id="g36" />
      <g
         transform="matrix(0.61871659,0.61871659,-0.61871659,0.61871659,382.8425,177.48605)"
         id="g38" />
      <g
         transform="matrix(0.61871659,0.61871659,-0.61871659,0.61871659,382.8425,177.48605)"
         id="g40" />
      <g
         transform="matrix(0.61871659,0.61871659,-0.61871659,0.61871659,382.8425,177.48605)"
         id="g42" />
      <g
         id="g955"
         transform="translate(6.3367919,3.9774599)">
        <g
           style="fill:#ffffff;fill-opacity:1"
           id="g6"
           transform="matrix(0.66291262,0.66291262,-0.66291262,0.66291262,370.24774,164.80196)">
          <g
             style="fill:#ffffff;fill-opacity:1"
             id="g4">
            <path
               style="fill:#ffffff;fill-opacity:1"
               id="path2"
               d="M 379.853,0 H 132.147 c -24.085,0 -43.68,19.595 -43.68,43.68 v 424.64 c 0,24.085 19.595,43.68 43.68,43.68 h 247.706 c 24.085,0 43.68,-19.595 43.68,-43.68 V 43.68 C 423.533,19.595 403.938,0 379.853,0 Z m 27.093,468.32 c 0,14.939 -12.154,27.093 -27.093,27.093 H 132.147 c -14.939,0 -27.093,-12.154 -27.093,-27.093 V 43.68 c 0,-14.939 12.154,-27.093 27.093,-27.093 h 247.706 c 14.939,0 27.093,12.154 27.093,27.093 z"
               inkscape:connector-curvature="0" />
          </g>
        </g>
        <path
           inkscape:connector-curvature="0"
           d="m 317.48253,710.90211 c -3.43588,3.43587 -9.02622,3.43653 -12.46276,0 L 164.55323,570.43556 c -3.43588,-3.43588 -3.43654,-9.02622 0,-12.46276 l 96.37821,-96.37822 c 3.43588,-3.43587 9.02688,-3.43587 12.46276,0 l 140.46655,140.46655 c 3.43587,3.43588 3.43587,9.02688 0,12.46276 z M 424.85648,591.0654 284.38993,450.59885 c -9.49887,-9.49887 -24.95534,-9.49887 -34.45422,0 l -96.37888,96.37888 c -9.49887,9.49888 -9.49887,24.95535 0,34.45422 L 294.02338,721.8985 c 9.49887,9.49887 24.95534,9.49888 34.45422,0 l 96.37888,-96.37888 c 9.49954,-9.49954 9.49954,-24.95468 0,-34.45422 z"
           style="fill:#ffffff;fill-opacity:1;stroke-width:0.9375"
           id="path62" />
        <g
           style="fill:#ffffff;fill-opacity:1"
           id="g72"
           transform="matrix(0.66291262,0.66291262,-0.66291262,0.66291262,382.11188,172.7768)">
          <g
             style="fill:#ffffff;fill-opacity:1"
             id="g70">
            <path
               style="fill:#ffffff;fill-opacity:1"
               sodipodi:nodetypes="ssssscs"
               id="path68"
               d="M 330.307,424.639 H 153.534 c -4.58,0 -8.294,3.713 -8.294,8.294 0,4.58 3.713,8.294 8.294,8.294 h 176.773 c 4.58,0 8.294,-3.713 8.294,-8.294 -10e-4,-4.58 -3.714,-8.294 -8.294,-8.294 z"
               inkscape:connector-curvature="0" />
          </g>
        </g>
        <g
           style="fill:#ffffff;fill-opacity:1"
           transform="matrix(0.66291262,0.66291262,-0.66291262,0.66291262,405.20334,149.68535)"
           id="g925">
          <g
             style="fill:#ffffff;fill-opacity:1"
             id="g923">
            <path
               style="fill:#ffffff;fill-opacity:1"
               inkscape:connector-curvature="0"
               d="M 330.307,424.639 H 153.534 c -4.58,0 -8.294,3.713 -8.294,8.294 0,4.58 3.713,8.294 8.294,8.294 h 176.773 c 4.58,0 8.294,-3.713 8.294,-8.294 -10e-4,-4.58 -3.714,-8.294 -8.294,-8.294 z"
               id="path921"
               sodipodi:nodetypes="ssssscs" />
          </g>
        </g>
        <g
           style="fill:#ffffff;fill-opacity:1"
           id="g931"
           transform="matrix(0.66291262,0.66291262,-0.66291262,0.66291262,428.29479,126.5939)">
          <g
             style="fill:#ffffff;fill-opacity:1"
             id="g929">
            <path
               style="fill:#ffffff;fill-opacity:1"
               sodipodi:nodetypes="ssssscs"
               id="path927"
               d="M 330.307,424.639 H 153.534 c -4.58,0 -8.294,3.713 -8.294,8.294 0,4.58 3.713,8.294 8.294,8.294 h 176.773 c 4.58,0 8.294,-3.713 8.294,-8.294 -10e-4,-4.58 -3.714,-8.294 -8.294,-8.294 z"
               inkscape:connector-curvature="0" />
          </g>
        </g>
        <g
           style="fill:#ffffff;fill-opacity:1"
           transform="matrix(0.66291262,0.66291262,-0.66291262,0.66291262,451.38624,103.50245)"
           id="g937">
          <g
             style="fill:#ffffff;fill-opacity:1"
             id="g935">
            <path
               style="fill:#ffffff;fill-opacity:1"
               inkscape:connector-curvature="0"
               d="M 330.307,424.639 H 153.534 c -4.58,0 -8.294,3.713 -8.294,8.294 0,4.58 3.713,8.294 8.294,8.294 h 176.773 c 4.58,0 8.294,-3.713 8.294,-8.294 -10e-4,-4.58 -3.714,-8.294 -8.294,-8.294 z"
               id="path933"
               sodipodi:nodetypes="ssssscs" />
          </g>
        </g>
      </g>
    </g>
  </g>
</svg>
