<?xml version="1.0" encoding="UTF-8" standalone="no"?>
<!-- Created with Inkscape (http://www.inkscape.org/) -->

<svg
   width="171.33333mm"
   height="171.33333mm"
   viewBox="0 0 607.0866 607.08659"
   id="svg2"
   version="1.1"
   inkscape:version="1.2.2 (732a01da63, 2022-12-09)"
   sodipodi:docname="ulltra_toolbar_button_esu_mc2_knob_on.svg"
   inkscape:export-filename="C:\Users\akers\StudioProjects\EngineDriver\EngineDriver\src\main\res\drawable-xhdpi\estop_outline.png"
   inkscape:export-xdpi="14.400002"
   inkscape:export-ydpi="14.400002"
   xmlns:inkscape="http://www.inkscape.org/namespaces/inkscape"
   xmlns:sodipodi="http://sodipodi.sourceforge.net/DTD/sodipodi-0.dtd"
   xmlns:xlink="http://www.w3.org/1999/xlink"
   xmlns="http://www.w3.org/2000/svg"
   xmlns:svg="http://www.w3.org/2000/svg"
   xmlns:rdf="http://www.w3.org/1999/02/22-rdf-syntax-ns#"
   xmlns:cc="http://creativecommons.org/ns#"
   xmlns:dc="http://purl.org/dc/elements/1.1/">
  <defs
     id="defs4">
    <linearGradient
       id="linearGradient4155"
       inkscape:swatch="solid">
      <stop
         style="stop-color:#000000;stop-opacity:1;"
         offset="0"
         id="stop4157" />
    </linearGradient>
    <linearGradient
       id="linearGradient4149">
      <stop
         style="stop-color:#000000;stop-opacity:1;"
         offset="0"
         id="stop4151" />
    </linearGradient>
    <linearGradient
       id="linearGradient4139"
       inkscape:swatch="gradient">
      <stop
         style="stop-color:#2b2200;stop-opacity:1;"
         offset="0"
         id="stop4141" />
      <stop
         style="stop-color:#2b2200;stop-opacity:0;"
         offset="1"
         id="stop4143" />
    </linearGradient>
    <linearGradient
       inkscape:collect="always"
       xlink:href="#linearGradient895"
       id="linearGradient897"
       x1="325.63055"
       y1="93.059601"
       x2="925.63055"
       y2="93.059601"
       gradientUnits="userSpaceOnUse"
       gradientTransform="matrix(1.0321199,0,0,1.0321199,-20.0952,-2.9890669)" />
    <linearGradient
       inkscape:collect="always"
       id="linearGradient895">
      <stop
         style="stop-color:#181818;stop-opacity:1;"
         offset="0"
         id="stop891" />
      <stop
         style="stop-color:#303030;stop-opacity:1;"
         offset="1"
         id="stop893" />
    </linearGradient>
    <linearGradient
       inkscape:collect="always"
       xlink:href="#linearGradient8256"
       id="linearGradient8258"
       x1="324.38055"
       y1="93.059616"
       x2="926.88055"
       y2="93.059616"
       gradientUnits="userSpaceOnUse" />
    <linearGradient
       inkscape:collect="always"
       id="linearGradient8256">
      <stop
         style="stop-color:#808080;stop-opacity:1;"
         offset="0"
         id="stop8254" />
      <stop
         style="stop-color:#404040;stop-opacity:1;"
         offset="1"
         id="stop8252" />
    </linearGradient>
    <linearGradient
       inkscape:collect="always"
       xlink:href="#linearGradient5596"
       id="linearGradient5619"
       gradientUnits="userSpaceOnUse"
       x1="-156.89746"
       y1="2.8421709e-14"
       x2="156.8972"
       y2="2.8421709e-14"
       gradientTransform="matrix(1.5437476,0,0,1.5437476,380.00212,508.19068)" />
    <linearGradient
       inkscape:collect="always"
       id="linearGradient5596">
      <stop
         style="stop-color:#ffffff;stop-opacity:1;"
         offset="0"
         id="stop5592" />
      <stop
         style="stop-color:#ffffff;stop-opacity:0;"
         offset="1"
         id="stop5594" />
    </linearGradient>
    <linearGradient
       inkscape:collect="always"
       xlink:href="#linearGradient5596"
       id="linearGradient5612"
       x1="478.64978"
       y1="19.259123"
       x2="584.58728"
       y2="19.259123"
       gradientUnits="userSpaceOnUse"
       gradientTransform="translate(2.0101003,-3.0323269)" />
  </defs>
  <sodipodi:namedview
     id="base"
     pagecolor="#ffffff"
     bordercolor="#666666"
     borderopacity="1.0"
     inkscape:pageopacity="0.0"
     inkscape:pageshadow="2"
     inkscape:zoom="0.5"
     inkscape:cx="477"
     inkscape:cy="168"
     inkscape:document-units="px"
     inkscape:current-layer="g4165"
     showgrid="false"
     fit-margin-top="1"
     fit-margin-left="1"
     fit-margin-right="1"
     fit-margin-bottom="1"
     units="mm"
     inkscape:window-width="1600"
     inkscape:window-height="829"
     inkscape:window-x="1592"
     inkscape:window-y="177"
     inkscape:window-maximized="1"
     inkscape:showpageshadow="0"
     inkscape:pagecheckerboard="0"
     inkscape:deskcolor="#d1d1d1" />
  <metadata
     id="metadata7">
    <rdf:RDF>
      <cc:Work
         rdf:about="">
        <dc:format>image/svg+xml</dc:format>
        <dc:type
           rdf:resource="http://purl.org/dc/dcmitype/StillImage" />
        <dc:title />
      </cc:Work>
    </rdf:RDF>
  </metadata>
  <g
     inkscape:label="Layer 1"
     inkscape:groupmode="layer"
     id="layer1"
     transform="translate(-65.224067,-173.70181)">
    <g
       id="g4165"
       transform="matrix(0.70710678,-0.70710678,0.70710678,0.70710678,-256.86318,384.18552)">
      <rect
         style="fill:url(#linearGradient897);fill-opacity:1;stroke:url(#linearGradient8258);stroke-width:3.87045;stroke-miterlimit:4;stroke-dasharray:none;stroke-opacity:1"
         id="rect5645"
         width="598.62958"
         height="598.62958"
         x="326.31577"
         y="-206.25517"
         transform="rotate(45)"
         ry="98.051392"
         rx="98.051392"
         inkscape:export-filename="C:\Users\uketmh\Documents\ModelRailway\JMRIDev\EngineDriver\res\drawable-xhdpi\flashlight_on.png"
         inkscape:export-xdpi="14.4"
         inkscape:export-ydpi="14.4" />
      <path
         inkscape:connector-curvature="0"
         d="m 613.96019,503.25938 3.74851,2.01405 3.73122,2.18192 v 1.47066 l -3.73122,2.18192 -3.74851,2.01405 -0.0398,1.62311 3.64517,2.19557 3.61967,2.36236 -0.0722,1.46891 -3.83379,1.99619 -3.84282,1.8277 -0.11949,1.61921 3.53305,2.37177 3.4994,2.53713 -0.14419,1.4636 -3.92712,1.80567 -3.92786,1.63695 -0.19876,1.61137 3.41242,2.54229 3.37068,2.70578 -0.21578,1.45475 -4.011,1.61081 -4.00346,1.44224 -0.27758,1.5997 3.28356,2.70665 3.23386,2.86791 -0.2869,1.44242 -4.08521,1.41205 -4.06941,1.24407 -0.35572,1.58415 3.14679,2.86452 3.08924,3.02312 -0.35734,1.4266 -4.14957,1.2099 -4.12555,1.0429 -0.43303,1.56478 3.00245,3.01547 2.93718,3.17107 -0.42691,1.40734 -4.20393,1.00485 -4.17175,0.83919 -0.5093,1.54167 2.85087,3.15915 2.77805,3.31137 -0.49545,1.38471 -4.24817,0.79735 -4.20791,0.63349 -0.58432,1.5148 2.69242,3.29525 2.61222,3.44369 -0.5628,1.35873 -4.28219,0.58795 -4.23391,0.42624 -0.65795,1.48432 2.52749,3.42338 2.44011,3.56773 -0.6288,1.32947 -4.30588,0.37712 -4.24973,0.218 -0.72999,1.45022 2.35647,3.54329 2.2621,3.68315 -0.69326,1.29703 -4.31919,0.16538 -4.25531,0.009 -0.80028,1.41268 2.17977,3.65464 2.07866,3.78972 -0.75609,1.26144 -4.3221,-0.0468 -4.25064,-0.19959 -0.86862,1.37169 1.99783,3.75719 1.8902,3.88714 -0.81706,1.22284 -4.31461,-0.25878 -4.23573,-0.40792 -0.93488,1.32742 1.81106,3.85069 1.69718,3.97522 -0.87607,1.18126 -4.29672,-0.47017 -4.2106,-0.61527 -0.99888,1.27995 1.61993,3.93492 1.50009,4.05369 -0.93299,1.13687 -4.26847,-0.68044 -4.17534,-0.82114 -1.06049,1.2294 1.42491,4.00967 1.29937,4.12242 -0.98764,1.0897 -4.22995,-0.88904 -4.13002,-1.02504 -1.11952,1.17589 1.22643,4.07475 1.09553,4.18121 -1.03993,1.03993 -4.18121,-1.09553 -4.07475,-1.22643 -1.17589,1.11952 1.02503,4.13002 0.88905,4.22995 -1.0897,0.98764 -4.12243,-1.29937 -4.00966,-1.42491 -1.2294,1.06049 0.82114,4.17534 0.68043,4.26847 -1.13686,0.93299 -4.05369,-1.50009 -3.93492,-1.61993 -1.27996,0.99888 0.61528,4.2106 0.47016,4.29672 -1.18126,0.87607 -3.97521,-1.69718 -3.85069,-1.81106 -1.32742,0.93488 0.40792,4.23573 0.25878,4.31461 -1.22284,0.81706 -3.88714,-1.8902 -3.75719,-1.99782 -1.37169,0.86862 0.19959,4.25063 0.0468,4.3221 -1.26145,0.75609 -3.78971,-2.07866 -3.65464,-2.17977 -1.41268,0.80028 -0.009,4.25531 -0.16539,4.31919 -1.29702,0.69326 -3.68315,-2.2621 -3.54329,-2.35647 -1.45023,0.73 -0.21799,4.24972 -0.37712,4.30588 -1.32948,0.6288 -3.56772,-2.44011 -3.42338,-2.52749 -1.48432,0.65795 -0.42624,4.23391 -0.58795,4.28219 -1.35873,0.5628 -3.44369,-2.61222 -3.29525,-2.69242 -1.5148,0.58433 -0.63349,4.2079 -0.79735,4.24817 -1.38471,0.49545 -3.31137,-2.77805 -3.15916,-2.85087 -1.54166,0.5093 -0.8392,4.17175 -1.00484,4.20393 -1.40734,0.42691 -3.17107,-2.93718 -3.01547,-3.00245 -1.56478,0.43303 -1.0429,4.12555 -1.2099,4.14957 -1.4266,0.35734 -3.02312,-3.08924 -2.86452,-3.14679 -1.58415,0.35572 -1.24407,4.06941 -1.41205,4.08521 -1.44242,0.2869 -2.86791,-3.23386 -2.70666,-3.28356 -1.59969,0.27758 -1.44224,4.00346 -1.61081,4.011 -1.45475,0.21578 -2.70578,-3.37068 -2.54229,-3.41242 -1.61138,0.19876 -1.63694,3.92786 -1.80567,3.92713 -1.4636,0.14418 -2.53713,-3.4994 -2.37177,-3.53305 -1.61921,0.11949 -1.8277,3.84282 -1.99619,3.83379 -1.46891,0.0722 -2.36236,-3.61967 -2.19557,-3.64517 -1.62311,0.0398 -2.01405,3.74851 -2.18192,3.73122 h -1.47066 l -2.18192,-3.73122 -2.01405,-3.74851 -1.62311,-0.0398 -2.19557,3.64517 -2.36236,3.61967 -1.46891,-0.0722 -1.99619,-3.83379 -1.8277,-3.84282 -1.61921,-0.11949 -2.37177,3.53305 -2.53713,3.4994 -1.4636,-0.14418 -1.80567,-3.92713 -1.63695,-3.92786 -1.61138,-0.19876 -2.54229,3.41242 -2.70577,3.37068 -1.45475,-0.21578 -1.61081,-4.011 -1.44224,-4.00346 -1.5997,-0.27758 -2.70665,3.28356 -2.86791,3.23386 -1.44242,-0.2869 -1.41205,-4.08521 -1.24407,-4.06941 -1.58415,-0.35572 -2.86452,3.14679 -3.02312,3.08924 -1.42661,-0.35734 -1.20989,-4.14957 -1.0429,-4.12555 -1.56479,-0.43303 -3.01546,3.00245 -3.17107,2.93718 -1.40735,-0.42691 -1.00484,-4.20393 -0.83919,-4.17175 -1.54167,-0.5093 -3.15915,2.85087 -3.31137,2.77805 -1.38471,-0.49545 -0.79735,-4.24817 -0.63349,-4.2079 -1.5148,-0.58433 -3.29526,2.69242 -3.44368,2.61222 -1.35873,-0.5628 -0.58795,-4.28219 -0.42624,-4.23391 -1.48432,-0.65795 -3.42338,2.52749 -3.56773,2.44011 -1.32947,-0.6288 -0.37712,-4.30588 -0.218,-4.24972 -1.45022,-0.73 -3.54329,2.35647 -3.68315,2.2621 -1.29703,-0.69326 -0.16538,-4.31919 -0.009,-4.25531 -1.41268,-0.80028 -3.65464,2.17977 -3.78972,2.07866 -1.26144,-0.75609 0.0468,-4.3221 0.19959,-4.25063 -1.37169,-0.86862 -3.75719,1.99782 -3.88714,1.8902 -1.22284,-0.81706 0.25878,-4.31461 0.40792,-4.23573 -1.32742,-0.93488 -3.85069,1.81106 -3.97522,1.69718 -1.18126,-0.87607 0.47017,-4.29672 0.61527,-4.2106 -1.27995,-0.99888 -3.93492,1.61993 -4.05369,1.50009 -1.13687,-0.93299 0.68044,-4.26847 0.82114,-4.17534 -1.2294,-1.06049 -4.00967,1.42491 -4.12242,1.29937 -1.0897,-0.98764 0.88904,-4.22995 1.02504,-4.13002 -1.17589,-1.11952 -4.07475,1.22643 -4.18121,1.09553 -1.03993,-1.03993 1.09553,-4.18121 1.22643,-4.07475 -1.11952,-1.17589 -4.13002,1.02504 -4.22995,0.88904 -0.98764,-1.0897 1.29937,-4.12242 1.42491,-4.00967 -1.06049,-1.2294 -4.17534,0.82114 -4.26847,0.68044 -0.93299,-1.13687 1.50009,-4.05369 1.61993,-3.93492 -0.99888,-1.27995 -4.2106,0.61527 -4.29672,0.47017 -0.87607,-1.18126 1.69718,-3.97522 1.81106,-3.85069 -0.93488,-1.32742 -4.23573,0.40792 -4.31461,0.25878 -0.81706,-1.22284 1.8902,-3.88714 1.99782,-3.75719 -0.86862,-1.37169 -4.25063,0.19959 -4.32211,0.0468 -0.75608,-1.26144 2.07866,-3.78972 2.17977,-3.65464 -0.80028,-1.41268 -4.25531,-0.009 -4.31919,-0.16538 -0.69326,-1.29703 2.2621,-3.68315 2.35647,-3.54329 -0.73,-1.45022 -4.24972,-0.218 -4.30588,-0.37712 -0.6288,-1.32947 2.44011,-3.56773 2.52749,-3.42338 -0.65795,-1.48432 -4.23391,-0.42624 -4.28219,-0.58795 -0.5628,-1.35873 2.61222,-3.44369 2.69242,-3.29525 -0.58433,-1.5148 -4.2079,-0.63349 -4.24817,-0.79735 -0.49545,-1.38471 2.77805,-3.31137 2.85087,-3.15915 -0.5093,-1.54167 -4.17175,-0.83919 -4.20393,-1.00485 -0.42691,-1.40734 2.93718,-3.17107 3.00245,-3.01547 -0.43304,-1.56478 -4.12554,-1.0429 -4.14958,-1.2099 -0.35733,-1.4266 3.08924,-3.02312 3.14679,-2.86452 -0.35572,-1.58415 -4.06941,-1.24407 -4.08521,-1.41205 -0.2869,-1.44242 3.23386,-2.86791 3.28356,-2.70665 -0.27758,-1.5997 -4.00346,-1.44224 -4.011,-1.61081 -0.21578,-1.45475 3.37068,-2.70578 3.41242,-2.54229 -0.19876,-1.61137 -3.92786,-1.63695 -3.92713,-1.80567 -0.14418,-1.4636 3.4994,-2.53713 3.53305,-2.37177 -0.11949,-1.61921 -3.84282,-1.8277 -3.83379,-1.99619 -0.0722,-1.46891 3.61968,-2.36236 3.64517,-2.19557 -0.0398,-1.62311 -3.74851,-2.01405 -3.73122,-2.18192 v -1.47066 l 3.73122,-2.18192 3.74851,-2.01405 0.0398,-1.62311 -3.64517,-2.19557 -3.61968,-2.36236 0.0722,-1.46891 3.83379,-1.99619 3.84282,-1.8277 0.11949,-1.61921 -3.53305,-2.37177 -3.4994,-2.53713 0.14418,-1.4636 3.92713,-1.80567 3.92786,-1.63695 0.19876,-1.61137 -3.41242,-2.54229 -3.37068,-2.70578 0.21578,-1.45475 4.011,-1.61081 4.00346,-1.44224 0.27758,-1.5997 -3.28356,-2.70665 -3.23386,-2.86791 0.2869,-1.44242 4.08521,-1.41205 4.06941,-1.24407 0.35572,-1.58415 -3.14679,-2.86452 -3.08924,-3.02312 0.35733,-1.4266 4.14958,-1.2099 4.12554,-1.0429 0.43304,-1.56478 -3.00245,-3.01547 -2.93718,-3.17107 0.42691,-1.40734 4.20393,-1.00485 4.17175,-0.83919 0.5093,-1.54167 -2.85087,-3.15915 -2.77805,-3.31137 0.49545,-1.38471 4.24817,-0.79735 4.2079,-0.63349 0.58433,-1.5148 -2.69242,-3.29525 -2.61222,-3.44369 0.5628,-1.35873 4.28219,-0.58795 4.23391,-0.42624 0.65795,-1.48432 -2.52749,-3.42338 -2.44011,-3.56773 0.6288,-1.32947 4.30588,-0.37712 4.24972,-0.218 0.73,-1.45022 -2.35647,-3.54329 -2.2621,-3.68315 0.69326,-1.29703 4.31919,-0.16538 4.25531,-0.009 0.80028,-1.41268 -2.17977,-3.65464 -2.07866,-3.78972 0.75608,-1.26144 4.32211,0.0468 4.25063,0.19959 0.86862,-1.37169 -1.99782,-3.75719 -1.8902,-3.88714 0.81706,-1.22284 4.31461,0.25878 4.23573,0.40792 0.93488,-1.32742 -1.81106,-3.85069 -1.69718,-3.97522 0.87607,-1.18126 4.29672,0.47017 4.2106,0.61527 0.99888,-1.27995 -1.61993,-3.93492 -1.50009,-4.05369 0.93299,-1.13687 4.26847,0.68044 4.17534,0.82114 1.06049,-1.2294 -1.42491,-4.00967 -1.29937,-4.12242 0.98764,-1.0897 4.22995,0.88904 4.13002,1.02504 1.11952,-1.17589 -1.22643,-4.07475 -1.09553,-4.18121 1.03993,-1.03993 4.18121,1.09553 4.07475,1.22643 1.17589,-1.11952 -1.02504,-4.13002 -0.88904,-4.22995 1.0897,-0.98764 4.12242,1.29937 4.00967,1.42491 1.2294,-1.06049 -0.82114,-4.17534 -0.68044,-4.26847 1.13687,-0.93299 4.05369,1.50009 3.93492,1.61993 1.27995,-0.99888 -0.61527,-4.2106 -0.47017,-4.29672 1.18126,-0.87607 3.97522,1.69718 3.85069,1.81106 1.32742,-0.93488 -0.40792,-4.23573 -0.25878,-4.31461 1.22284,-0.81706 3.88714,1.8902 3.75719,1.99782 1.37169,-0.86862 -0.19959,-4.25063 -0.0468,-4.3221 1.26144,-0.75609 3.78972,2.07866 3.65464,2.17977 1.41268,-0.80028 0.009,-4.25531 0.16538,-4.31919 1.29703,-0.69326 3.68315,2.2621 3.54329,2.35647 1.45022,-0.73 0.218,-4.24972 0.37712,-4.30588 1.32947,-0.6288 3.56773,2.44011 3.42338,2.52749 1.48432,-0.65795 0.42624,-4.23391 0.58795,-4.28219 1.35873,-0.5628 3.44368,2.61222 3.29526,2.69242 1.5148,-0.58433 0.63349,-4.2079 0.79735,-4.24817 1.38471,-0.49545 3.31137,2.77805 3.15915,2.85087 1.54167,-0.5093 0.83919,-4.17175 1.00484,-4.20393 1.40735,-0.42691 3.17107,2.93718 3.01546,3.00245 1.56479,-0.43303 1.0429,-4.12555 1.20989,-4.14957 1.42661,-0.35734 3.02312,3.08924 2.86452,3.14679 1.58415,-0.35572 1.24407,-4.06941 1.41205,-4.08521 1.44242,-0.2869 2.86791,3.23386 2.70665,3.28356 1.5997,-0.27758 1.44224,-4.00346 1.61081,-4.011 1.45475,-0.21578 2.70577,3.37068 2.54229,3.41242 1.61138,-0.19876 1.63695,-3.92786 1.80567,-3.92713 1.4636,-0.14418 2.53713,3.4994 2.37177,3.53305 1.61921,-0.11949 1.8277,-3.84282 1.99619,-3.83379 1.46891,-0.0722 2.36236,3.61967 2.19557,3.64517 1.62311,-0.0398 2.01405,-3.74851 2.18192,-3.73122 h 1.47066 l 2.18192,3.73122 2.01405,3.74851 1.62311,0.0398 2.19557,-3.64517 2.36236,-3.61967 1.46891,0.0722 1.99619,3.83379 1.8277,3.84282 1.61921,0.11949 2.37177,-3.53305 2.53713,-3.4994 1.4636,0.14418 1.80567,3.92713 1.63694,3.92786 1.61138,0.19876 2.54229,-3.41242 2.70578,-3.37068 1.45475,0.21578 1.61081,4.011 1.44224,4.00346 1.59969,0.27758 2.70666,-3.28356 2.86791,-3.23386 1.44242,0.2869 1.41205,4.08521 1.24407,4.06941 1.58415,0.35572 2.86452,-3.14679 3.02312,-3.08924 1.4266,0.35734 1.2099,4.14957 1.0429,4.12555 1.56478,0.43303 3.01547,-3.00245 3.17107,-2.93718 1.40734,0.42691 1.00484,4.20393 0.8392,4.17175 1.54166,0.5093 3.15916,-2.85087 3.31137,-2.77805 1.38471,0.49545 0.79735,4.24817 0.63349,4.2079 1.5148,0.58433 3.29525,-2.69242 3.44369,-2.61222 1.35873,0.5628 0.58795,4.28219 0.42624,4.23391 1.48432,0.65795 3.42338,-2.52749 3.56772,-2.44011 1.32948,0.6288 0.37712,4.30588 0.21799,4.24972 1.45023,0.73 3.54329,-2.35647 3.68315,-2.2621 1.29702,0.69326 0.16539,4.31919 0.009,4.25531 1.41268,0.80028 3.65464,-2.17977 3.78971,-2.07866 1.26145,0.75609 -0.0468,4.3221 -0.19959,4.25063 1.37169,0.86862 3.75719,-1.99782 3.88714,-1.8902 1.22284,0.81706 -0.25878,4.31461 -0.40792,4.23573 1.32742,0.93488 3.85069,-1.81106 3.97521,-1.69718 1.18126,0.87607 -0.47016,4.29672 -0.61528,4.2106 1.27996,0.99888 3.93492,-1.61993 4.05369,-1.50009 1.13686,0.93299 -0.68043,4.26847 -0.82114,4.17534 1.2294,1.06049 4.00966,-1.42491 4.12243,-1.29937 1.0897,0.98764 -0.88905,4.22995 -1.02503,4.13002 1.17589,1.11952 4.07475,-1.22643 4.18121,-1.09553 1.03993,1.03993 -1.09553,4.18121 -1.22643,4.07475 1.11952,1.17589 4.13002,-1.02504 4.22995,-0.88904 0.98764,1.0897 -1.29937,4.12242 -1.42491,4.00967 1.06049,1.2294 4.17534,-0.82114 4.26847,-0.68044 0.93299,1.13687 -1.50009,4.05369 -1.61993,3.93492 0.99888,1.27995 4.2106,-0.61527 4.29672,-0.47017 0.87607,1.18126 -1.69718,3.97522 -1.81106,3.85069 0.93488,1.32742 4.23573,-0.40792 4.31461,-0.25878 0.81706,1.22284 -1.8902,3.88714 -1.99783,3.75719 0.86862,1.37169 4.25064,-0.19959 4.3221,-0.0468 0.75609,1.26144 -2.07866,3.78972 -2.17977,3.65464 0.80028,1.41268 4.25531,0.009 4.31919,0.16538 0.69326,1.29703 -2.2621,3.68315 -2.35647,3.54329 0.72999,1.45022 4.24973,0.218 4.30588,0.37712 0.6288,1.32947 -2.44011,3.56773 -2.52749,3.42338 0.65795,1.48432 4.23391,0.42624 4.28219,0.58795 0.5628,1.35873 -2.61222,3.44369 -2.69242,3.29525 0.58432,1.5148 4.20791,0.63349 4.24817,0.79735 0.49545,1.38471 -2.77805,3.31137 -2.85087,3.15915 0.5093,1.54167 4.17175,0.83919 4.20393,1.00485 0.42691,1.40734 -2.93718,3.17107 -3.00245,3.01547 0.43303,1.56478 4.12555,1.0429 4.14957,1.2099 0.35734,1.4266 -3.08924,3.02312 -3.14679,2.86452 0.35572,1.58415 4.06941,1.24407 4.08521,1.41205 0.2869,1.44242 -3.23386,2.86791 -3.28356,2.70665 0.27758,1.5997 4.00346,1.44224 4.011,1.61081 0.21578,1.45475 -3.37068,2.70578 -3.41242,2.54229 0.19876,1.61137 3.92786,1.63695 3.92712,1.80567 0.14419,1.4636 -3.4994,2.53713 -3.53305,2.37177 0.11949,1.61921 3.84282,1.8277 3.83379,1.99619 0.0722,1.46891 -3.61967,2.36236 -3.64517,2.19557 z"
         style="fill:url(#linearGradient5619);fill-opacity:1;stroke:#000000;stroke-width:4.6875;stroke-miterlimit:4;stroke-dasharray:none"
         id="path4744" />
      <circle
         transform="rotate(45)"
         r="52.96875"
         cy="16.226795"
         cx="533.6286"
         id="path5600"
         style="fill:url(#linearGradient5612);fill-opacity:1;stroke-width:4.6875;stroke-miterlimit:4;stroke-dasharray:none" />
    </g>
  </g>
</svg>
