<?xml version="1.0" encoding="UTF-8" standalone="no"?>
<!-- Created with Inkscape (http://www.inkscape.org/) -->

<svg
   width="171.33333mm"
   height="171.33333mm"
   viewBox="0 0 607.0866 607.08659"
   id="svg2"
   version="1.1"
   inkscape:version="1.4.3 (0d15f75, 2025-12-25)"
   sodipodi:docname="toolbar_button_web_view_ultra.svg"
   inkscape:export-filename="C:\Users\akers\StudioProjects\EngineDriver\EngineDriver\src\main\res\drawable\web_view_outline.png"
   inkscape:export-xdpi="5.4000001"
   inkscape:export-ydpi="5.4000001"
   xmlns:inkscape="http://www.inkscape.org/namespaces/inkscape"
   xmlns:sodipodi="http://sodipodi.sourceforge.net/DTD/sodipodi-0.dtd"
   xmlns:xlink="http://www.w3.org/1999/xlink"
   xmlns="http://www.w3.org/2000/svg"
   xmlns:svg="http://www.w3.org/2000/svg"
   xmlns:rdf="http://www.w3.org/1999/02/22-rdf-syntax-ns#"
   xmlns:cc="http://creativecommons.org/ns#"
   xmlns:dc="http://purl.org/dc/elements/1.1/">
  <defs
     id="defs4">
    <linearGradient
       id="linearGradient4155"
       inkscape:swatch="solid">
      <stop
         style="stop-color:#000000;stop-opacity:1;"
         offset="0"
         id="stop4157" />
    </linearGradient>
    <linearGradient
       id="linearGradient4149">
      <stop
         style="stop-color:#000000;stop-opacity:1;"
         offset="0"
         id="stop4151" />
    </linearGradient>
    <linearGradient
       id="linearGradient4139"
       inkscape:swatch="gradient">
      <stop
         style="stop-color:#2b2200;stop-opacity:1;"
         offset="0"
         id="stop4141" />
      <stop
         style="stop-color:#2b2200;stop-opacity:0;"
         offset="1"
         id="stop4143" />
    </linearGradient>
    <linearGradient
       inkscape:collect="always"
       xlink:href="#linearGradient895"
       id="linearGradient897"
       x1="325.63055"
       y1="93.059601"
       x2="925.63055"
       y2="93.059601"
       gradientUnits="userSpaceOnUse"
       gradientTransform="matrix(1.0321199,0,0,1.0321199,-20.0952,-2.9890669)" />
    <linearGradient
       inkscape:collect="always"
       id="linearGradient895">
      <stop
         style="stop-color:#181818;stop-opacity:1;"
         offset="0"
         id="stop891" />
      <stop
         style="stop-color:#303030;stop-opacity:1;"
         offset="1"
         id="stop893" />
    </linearGradient>
    <linearGradient
       inkscape:collect="always"
       xlink:href="#linearGradient8256"
       id="linearGradient8258"
       x1="324.38055"
       y1="93.059616"
       x2="926.88055"
       y2="93.059616"
       gradientUnits="userSpaceOnUse" />
    <linearGradient
       inkscape:collect="always"
       id="linearGradient8256">
      <stop
         style="stop-color:#808080;stop-opacity:1;"
         offset="0"
         id="stop8254" />
      <stop
         style="stop-color:#404040;stop-opacity:1;"
         offset="1"
         id="stop8252" />
    </linearGradient>
  </defs>
  <sodipodi:namedview
     id="base"
     pagecolor="#ffffff"
     bordercolor="#666666"
     borderopacity="1.0"
     inkscape:pageopacity="0.0"
     inkscape:pageshadow="2"
     inkscape:zoom="0.97562238"
     inkscape:cx="323.38331"
     inkscape:cy="431.00692"
     inkscape:document-units="px"
     inkscape:current-layer="g4165"
     showgrid="false"
     fit-margin-top="1"
     fit-margin-left="1"
     fit-margin-right="1"
     fit-margin-bottom="1"
     units="mm"
     inkscape:window-width="1600"
     inkscape:window-height="829"
     inkscape:window-x="-8"
     inkscape:window-y="114"
     inkscape:window-maximized="1"
     inkscape:showpageshadow="0"
     inkscape:pagecheckerboard="0"
     inkscape:deskcolor="#d1d1d1" />
  <metadata
     id="metadata7">
    <rdf:RDF>
      <cc:Work
         rdf:about="">
        <dc:format>image/svg+xml</dc:format>
        <dc:type
           rdf:resource="http://purl.org/dc/dcmitype/StillImage" />
        <dc:title />
      </cc:Work>
    </rdf:RDF>
  </metadata>
  <g
     inkscape:label="Layer 1"
     inkscape:groupmode="layer"
     id="layer1"
     transform="translate(-65.224067,-173.70181)">
    <g
       id="g4165"
       transform="matrix(0.70710678,-0.70710678,0.70710678,0.70710678,-256.86318,384.18552)">
      <rect
         style="fill:url(#linearGradient897);fill-opacity:1;stroke:url(#linearGradient8258);stroke-width:3.87045;stroke-miterlimit:4;stroke-dasharray:none;stroke-opacity:1"
         id="rect5645"
         width="598.62958"
         height="598.62958"
         x="326.31577"
         y="-206.25517"
         transform="rotate(45)"
         ry="98.051392"
         rx="98.051392"
         inkscape:export-filename="C:\Users\uketmh\Documents\ModelRailway\JMRIDev\EngineDriver\res\drawable-xhdpi\flashlight_on.png"
         inkscape:export-xdpi="14.4"
         inkscape:export-ydpi="14.4" />
      <path
         d="m 339.34281,542.27144 c -25.60029,-25.60029 -67.10798,-25.5539 -92.70828,0.049 -25.6002,25.60021 -25.6466,67.10791 -0.049,92.70821 25.64667,25.64666 67.20075,25.64666 92.80105,0.049 25.60022,-25.60029 25.60022,-67.15437 -0.049,-92.80097 z m 4.3131,59.96586 -13.68136,-13.6813 c 4.3131,-7.28128 7.74505,-14.97988 10.11026,-22.9104 5.61169,11.45517 6.77114,24.48723 3.5711,36.5917 z m -13.72774,-50.45852 c -1.71591,9.41457 -4.86956,18.5973 -9.50734,27.2235 l -17.71609,-17.71615 c 8.62613,-4.63772 17.80885,-7.79137 27.22343,-9.50735 z m -82.0878,10.29572 c 2.22613,-3.71019 4.86962,-7.28122 8.06967,-10.48125 3.20003,-3.20004 6.77106,-5.84354 10.48124,-8.06966 l 15.67557,15.67556 c -3.43195,2.68989 -6.77114,5.47255 -9.9248,8.62619 -3.15364,3.15366 -5.93624,6.49277 -8.62612,9.92473 z m -5.47255,13.07845 13.68136,13.68128 c -4.3131,7.28122 -7.74505,14.9799 -10.11026,22.9104 -5.61169,-11.45523 -6.81745,-24.44084 -3.5711,-36.59168 z m 50.7832,-23.42055 -13.6813,-13.68129 c 12.15086,-3.24642 25.13646,-2.04059 36.5917,3.57104 -7.93052,2.36527 -15.62919,5.79715 -22.9104,10.11025 z m -37.05546,73.87906 c 1.71591,-9.41464 4.86956,-18.5973 9.50734,-27.2235 l 17.71609,17.71615 c -8.62613,4.63771 -17.80885,7.79137 -27.22343,9.50735 z m 38.49314,-16.78864 -21.70458,-21.70456 c 2.64351,-3.47827 5.37978,-6.86384 8.53343,-10.01749 3.15365,-3.15365 6.58553,-5.93631 10.01749,-8.53343 l 21.70457,21.70457 c -2.59712,3.43196 -5.37978,6.86384 -8.53343,10.01749 -3.15365,3.15372 -6.53922,5.88992 -10.01748,8.53342 z m -24.62639,26.94527 c 7.93052,-2.36527 15.62919,-5.79716 22.9104,-10.11025 l 13.6813,13.68129 c -12.10447,3.20004 -25.13646,2.04059 -36.5917,-3.57104 z m 33.99457,-17.577 c 3.43196,-2.68989 6.77114,-5.47255 9.9248,-8.6262 3.15364,-3.15365 5.93624,-6.49283 8.62612,-9.92472 l 15.67557,15.6755 c -2.22613,3.71019 -4.86963,7.28122 -8.06968,10.48125 -3.20003,3.20004 -6.77106,5.84354 -10.48124,8.06966 z"
         id="path2-9"
         style="fill:#ffffff;stroke-width:6.55875" />
      <g
         transform="matrix(0.61871659,0.61871659,-0.61871659,0.61871659,382.8425,177.48605)"
         id="g14" />
      <g
         transform="matrix(0.61871659,0.61871659,-0.61871659,0.61871659,382.8425,177.48605)"
         id="g16" />
      <g
         transform="matrix(0.61871659,0.61871659,-0.61871659,0.61871659,382.8425,177.48605)"
         id="g18" />
      <g
         transform="matrix(0.61871659,0.61871659,-0.61871659,0.61871659,382.8425,177.48605)"
         id="g20" />
      <g
         transform="matrix(0.61871659,0.61871659,-0.61871659,0.61871659,382.8425,177.48605)"
         id="g22" />
      <g
         transform="matrix(0.61871659,0.61871659,-0.61871659,0.61871659,382.8425,177.48605)"
         id="g24" />
      <g
         transform="matrix(0.61871659,0.61871659,-0.61871659,0.61871659,382.8425,177.48605)"
         id="g26" />
      <g
         transform="matrix(0.61871659,0.61871659,-0.61871659,0.61871659,382.8425,177.48605)"
         id="g28" />
      <g
         transform="matrix(0.61871659,0.61871659,-0.61871659,0.61871659,382.8425,177.48605)"
         id="g30" />
      <g
         transform="matrix(0.61871659,0.61871659,-0.61871659,0.61871659,382.8425,177.48605)"
         id="g32" />
      <g
         transform="matrix(0.61871659,0.61871659,-0.61871659,0.61871659,382.8425,177.48605)"
         id="g34" />
      <g
         transform="matrix(0.61871659,0.61871659,-0.61871659,0.61871659,382.8425,177.48605)"
         id="g36" />
      <g
         transform="matrix(0.61871659,0.61871659,-0.61871659,0.61871659,382.8425,177.48605)"
         id="g38" />
      <g
         transform="matrix(0.61871659,0.61871659,-0.61871659,0.61871659,382.8425,177.48605)"
         id="g40" />
      <g
         transform="matrix(0.61871659,0.61871659,-0.61871659,0.61871659,382.8425,177.48605)"
         id="g42" />
      <g
         style="fill:#ffffff;fill-opacity:1"
         id="g6"
         transform="matrix(0.66291262,0.66291262,-0.66291262,0.66291262,376.58453,168.77942)">
        <g
           style="fill:#ffffff;fill-opacity:1"
           id="g4">
          <path
             style="fill:#ffffff;fill-opacity:1"
             id="path2"
             d="M 379.853,0 H 132.147 c -24.085,0 -43.68,19.595 -43.68,43.68 v 424.64 c 0,24.085 19.595,43.68 43.68,43.68 h 247.706 c 24.085,0 43.68,-19.595 43.68,-43.68 V 43.68 C 423.533,19.595 403.938,0 379.853,0 Z m 27.093,468.32 c 0,14.939 -12.154,27.093 -27.093,27.093 H 132.147 c -14.939,0 -27.093,-12.154 -27.093,-27.093 V 43.68 c 0,-14.939 12.154,-27.093 27.093,-27.093 h 247.706 c 14.939,0 27.093,12.154 27.093,27.093 z"
             inkscape:connector-curvature="0" />
        </g>
      </g>
      <path
         inkscape:connector-curvature="0"
         d="m 323.81932,714.87957 c -3.43588,3.43587 -9.02622,3.43653 -12.46276,0 L 170.89002,574.41302 c -3.43588,-3.43588 -3.43654,-9.02622 0,-12.46276 l 96.37821,-96.37822 c 3.43588,-3.43587 9.02688,-3.43587 12.46276,0 l 140.46655,140.46655 c 3.43587,3.43588 3.43587,9.02688 0,12.46276 z M 431.19327,595.04286 290.72672,454.57631 c -9.49887,-9.49887 -24.95534,-9.49887 -34.45422,0 l -96.37888,96.37888 c -9.49887,9.49888 -9.49887,24.95535 0,34.45422 l 140.46655,140.46655 c 9.49887,9.49887 24.95534,9.49888 34.45422,0 l 96.37888,-96.37888 c 9.49954,-9.49954 9.49954,-24.95468 0,-34.45422 z"
         style="fill:#ffffff;fill-opacity:1;stroke-width:0.9375"
         id="path62" />
    </g>
  </g>
</svg>
