<?xml version="1.0" encoding="UTF-8" standalone="no"?>
<svg
   height="24px"
   viewBox="0 0 24 24"
   width="24px"
   fill="#000000"
   version="1.1"
   id="svg22268"
   sodipodi:docname="category_layout_switch_button_white.svg"
   inkscape:version="1.2.2 (732a01da63, 2022-12-09)"
   xmlns:inkscape="http://www.inkscape.org/namespaces/inkscape"
   xmlns:sodipodi="http://sodipodi.sourceforge.net/DTD/sodipodi-0.dtd"
   xmlns="http://www.w3.org/2000/svg"
   xmlns:svg="http://www.w3.org/2000/svg">
  <defs
     id="defs22272" />
  <sodipodi:namedview
     id="namedview22270"
     pagecolor="#505050"
     bordercolor="#eeeeee"
     borderopacity="1"
     inkscape:showpageshadow="0"
     inkscape:pageopacity="0"
     inkscape:pagecheckerboard="0"
     inkscape:deskcolor="#505050"
     showgrid="false"
     inkscape:zoom="16.166667"
     inkscape:cx="10.298969"
     inkscape:cy="16.268041"
     inkscape:window-width="2400"
     inkscape:window-height="1244"
     inkscape:window-x="2869"
     inkscape:window-y="-11"
     inkscape:window-maximized="1"
     inkscape:current-layer="svg22268" />
  <path
     d="M0 0h24v24H0z"
     fill="none"
     id="path22264" />
  <g
     id="g22637"
     transform="matrix(0.04669337,0,0,0.04669337,-2.9117717,-2.9439807)"
     style="fill:#ffffff">
    <g
       style="fill:#ffffff"
       transform="matrix(17.916668,0,0,17.916668,104,105.55904)"
       id="g4">
      <path
         style="fill:#ffffff"
         inkscape:connector-curvature="0"
         d="M 22,0 H 11 C 9.895,0 9,0.895 9,2 v 9 c 0,1.105 0.895,2 2,2 h 11 c 1.105,0 2,-0.895 2,-2 V 2 C 24,0.895 23.105,0 22,0 Z m -1,11 h -9 c -0.551,0 -1,-0.448 -1,-1 V 4 h 11 v 6 c 0,0.552 -0.449,1 -1,1 z"
         id="path2" />
    </g>
    <g
       style="fill:#ffffff"
       transform="matrix(17.916668,0,0,17.916668,104,105.55904)"
       id="g8">
      <path
         style="fill:#ffffff"
         inkscape:connector-curvature="0"
         d="m 13,15 v 6 c 0,0.55 -0.45,1 -1,1 H 3 C 2.45,22 2,21.55 2,21 v -6 h 9 C 8.79,15 7,13.21 7,11 H 2 c -1.1,0 -2,0.9 -2,2 v 9 c 0,1.1 0.9,2 2,2 h 11 c 1.1,0 2,-0.9 2,-2 v -7 z"
         id="path6" />
    </g>
    <g
       style="fill:#ffffff"
       transform="matrix(17.916668,0,0,17.916668,104,105.55904)"
       id="g12">
      <path
         style="fill:#ffffff"
         inkscape:connector-curvature="0"
         d="M 6.25,5 H 5 V 4 C 5,3.449 5.449,3 6,3 6.552,3 7,2.552 7,2 7,1.448 6.552,1 6,1 4.346,1 3,2.346 3,4 V 5 H 1.75 C 1.453,5 1.185,5.174 1.065,5.445 0.945,5.715 0.994,6.031 1.192,6.252 l 2.25,2.5 C 3.585,8.91 3.787,9 4,9 4.213,9 4.415,8.91 4.558,8.752 l 2.25,-2.5 C 6.934,6.111 7,5.932 7,5.75 7,5.646 6.979,5.543 6.935,5.445 6.814,5.174 6.546,5 6.25,5 Z"
         id="path10" />
    </g>
    <g
       style="fill:#ffffff"
       transform="matrix(17.916668,0,0,17.916668,104,105.55904)"
       id="g16">
      <path
         style="fill:#ffffff"
         inkscape:connector-curvature="0"
         d="m 22.808,17.748 -2.25,-2.5 C 20.415,15.09 20.213,15 20,15 c -0.213,0 -0.415,0.09 -0.558,0.248 l -2.25,2.5 C 17.066,17.889 17,18.068 17,18.25 c 0,0.104 0.021,0.207 0.065,0.305 C 17.186,18.826 17.454,19 17.75,19 H 19 v 1 c 0,0.551 -0.449,1 -1,1 -0.552,0 -1,0.448 -1,1 0,0.552 0.448,1 1,1 1.654,0 3,-1.346 3,-3 v -1 h 1.25 c 0.296,0 0.564,-0.174 0.685,-0.445 0.12,-0.27 0.071,-0.586 -0.127,-0.807 z"
         id="path14" />
    </g>
  </g>
</svg>
