<?xml version="1.0" encoding="UTF-8" standalone="no"?>
<svg
   enable-background="new 0 0 24 24"
   height="24px"
   viewBox="0 0 24 24"
   width="24px"
   fill="#FFFFFF"
   version="1.1"
   id="svg23306"
   sodipodi:docname="aod_white_24dp.svg"
   inkscape:version="1.2.2 (732a01da63, 2022-12-09)"
   xmlns:inkscape="http://www.inkscape.org/namespaces/inkscape"
   xmlns:sodipodi="http://sodipodi.sourceforge.net/DTD/sodipodi-0.dtd"
   xmlns="http://www.w3.org/2000/svg"
   xmlns:svg="http://www.w3.org/2000/svg">
  <defs
     id="defs23310" />
  <sodipodi:namedview
     id="namedview23308"
     pagecolor="#505050"
     bordercolor="#eeeeee"
     borderopacity="1"
     inkscape:showpageshadow="0"
     inkscape:pageopacity="0"
     inkscape:pagecheckerboard="0"
     inkscape:deskcolor="#505050"
     showgrid="false"
     inkscape:zoom="32.333333"
     inkscape:cx="7.685567"
     inkscape:cy="12"
     inkscape:window-width="2400"
     inkscape:window-height="1244"
     inkscape:window-x="2869"
     inkscape:window-y="-11"
     inkscape:window-maximized="1"
     inkscape:current-layer="svg23306" />
  <g
     id="g23298">
    <path
       d="M0,0h24v24H0V0z"
       fill="none"
       id="path23296" />
  </g>
  <path
     d="M 17,1.01 7,1 C 5.9,1 5,1.9 5,3 v 18 c 0,1.1 0.9,2 2,2 h 10 c 1.1,0 2,-0.9 2,-2 V 3 C 19,1.9 18.1,1.01 17,1.01 Z M 17,21 H 7 v -6.505155 h 10 z m 0,-8.505155 H 7 V 6 H 17 Z M 17,4 H 7 V 3 H 17 Z M 8,15.783505 h 8 v 1.5 H 8 Z m 1,2.659794 h 6 v 1.5 H 9 Z"
     id="path23063"
     sodipodi:nodetypes="ccsssssscccccccccccccccccccccccccc" />
</svg>
