<?xml version="1.0" encoding="UTF-8" standalone="no"?>
<svg
   height="24px"
   viewBox="0 0 24 24"
   width="24px"
   fill="#000000"
   version="1.1"
   id="svg2"
   sodipodi:docname="category_consist_black.svg"
   inkscape:version="1.4.3 (0d15f75, 2025-12-25)"
   xmlns:inkscape="http://www.inkscape.org/namespaces/inkscape"
   xmlns:sodipodi="http://sodipodi.sourceforge.net/DTD/sodipodi-0.dtd"
   xmlns="http://www.w3.org/2000/svg"
   xmlns:svg="http://www.w3.org/2000/svg">
  <defs
     id="defs2" />
  <sodipodi:namedview
     id="namedview2"
     pagecolor="#ffffff"
     bordercolor="#000000"
     borderopacity="0.25"
     inkscape:showpageshadow="2"
     inkscape:pageopacity="0.0"
     inkscape:pagecheckerboard="0"
     inkscape:deskcolor="#d1d1d1"
     inkscape:zoom="26.125"
     inkscape:cx="12"
     inkscape:cy="12"
     inkscape:window-width="1600"
     inkscape:window-height="829"
     inkscape:window-x="-8"
     inkscape:window-y="114"
     inkscape:window-maximized="1"
     inkscape:current-layer="svg2" />
  <path
     id="path2-9"
     style="stroke-width:0.811005;fill:#000000"
     d="M 14.832031 1.8808594 C 11.588012 1.8808594 8.34375 2.2864833 8.34375 5.125 L 8.34375 5.3105469 C 8.7879235 5.2911076 9.2396076 5.2851562 9.6914062 5.2851562 C 9.7832469 5.2851562 9.875823 5.28463 9.9667969 5.2851562 L 9.9667969 5.125 L 14.021484 5.125 L 14.021484 5.6894531 C 14.664792 5.8658943 15.214297 6.1149156 15.642578 6.4628906 L 15.642578 5.125 L 19.699219 5.125 L 19.699219 8.3691406 L 16.628906 8.3691406 C 16.641219 8.4953496 16.648438 8.6252078 16.648438 8.7617188 L 16.648438 15.861328 L 18.076172 17.289062 L 19.699219 17.289062 L 19.699219 16.884766 L 18.482422 15.667969 C 20.047661 15.667969 21.320312 14.393364 21.320312 12.828125 L 21.320312 5.125 C 21.320312 2.2864833 18.416672 1.8808594 14.832031 1.8808594 z M 18.482422 11.613281 C 19.155556 11.613281 19.699219 12.154991 19.699219 12.828125 C 19.699219 13.501259 19.155556 14.044922 18.482422 14.044922 C 17.809288 14.044922 17.265625 13.501259 17.265625 12.828125 C 17.265625 12.154991 17.809288 11.613281 18.482422 11.613281 z " />
  <path
     d="M0 0h24v24H0V0z"
     fill="none"
     id="path1" />
  <path
     d="m 9.2248801,6.3947369 c -3.2440189,0 -6.488038,0.4055024 -6.488038,3.2440191 v 7.704546 c 0,1.565239 1.2732775,2.838516 2.8385167,2.838516 l -1.2165071,1.216508 v 0.405502 h 1.8085406 l 1.6220096,-1.62201 H 10.84689 l 1.622009,1.62201 h 1.62201 v -0.405502 l -1.216507,-1.216508 c 1.565239,0 2.838517,-1.273277 2.838517,-2.838516 V 9.638756 c 0,-2.8385167 -2.903398,-3.2440191 -6.4880389,-3.2440191 z M 5.5753588,18.559809 c -0.6731339,0 -1.2165071,-0.543373 -1.2165071,-1.216507 0,-0.673134 0.5433732,-1.216507 1.2165071,-1.216507 0.673134,0 1.2165072,0.543373 1.2165072,1.216507 0,0.673134 -0.5433732,1.216507 -1.2165072,1.216507 z M 8.4138756,12.882775 H 4.3588517 V 9.638756 h 4.0550239 z m 1.6220094,0 V 9.638756 h 4.055024 v 3.244019 z m 2.838517,5.677034 c -0.673134,0 -1.216507,-0.543373 -1.216507,-1.216507 0,-0.673134 0.543373,-1.216507 1.216507,-1.216507 0.673134,0 1.216507,0.543373 1.216507,1.216507 0,0.673134 -0.543373,1.216507 -1.216507,1.216507 z"
     id="path2"
     style="stroke-width:0.811005" />
</svg>
