<?xml version="1.0" encoding="UTF-8" standalone="no"?>
<!-- Created with Inkscape (http://www.inkscape.org/) -->

<svg
   width="171.33333mm"
   height="171.33333mm"
   viewBox="0 0 607.0866 607.08659"
   id="svg2"
   version="1.1"
   inkscape:version="1.2.2 (732a01da63, 2022-12-09)"
   sodipodi:docname="category_esu.svg"
   inkscape:export-filename="..\EngineDriver\src\main\res\drawable\category_dcc_ex.png"
   inkscape:export-xdpi="3.5579767"
   inkscape:export-ydpi="3.5579767"
   xml:space="preserve"
   xmlns:inkscape="http://www.inkscape.org/namespaces/inkscape"
   xmlns:sodipodi="http://sodipodi.sourceforge.net/DTD/sodipodi-0.dtd"
   xmlns="http://www.w3.org/2000/svg"
   xmlns:svg="http://www.w3.org/2000/svg"
   xmlns:rdf="http://www.w3.org/1999/02/22-rdf-syntax-ns#"
   xmlns:cc="http://creativecommons.org/ns#"
   xmlns:dc="http://purl.org/dc/elements/1.1/"><defs
     id="defs4"><rect
       x="462"
       y="280"
       width="171.11284"
       height="353.11285"
       id="rect2420" /><linearGradient
       id="linearGradient4155"
       inkscape:swatch="solid"><stop
         style="stop-color:#000000;stop-opacity:1;"
         offset="0"
         id="stop4157" /></linearGradient><linearGradient
       id="linearGradient4149"><stop
         style="stop-color:#000000;stop-opacity:1;"
         offset="0"
         id="stop4151" /></linearGradient><linearGradient
       id="linearGradient4139"
       inkscape:swatch="gradient"><stop
         style="stop-color:#2b2200;stop-opacity:1;"
         offset="0"
         id="stop4141" /><stop
         style="stop-color:#2b2200;stop-opacity:0;"
         offset="1"
         id="stop4143" /></linearGradient><mask
       height="599"
       width="599"
       y="21"
       x="406"
       maskUnits="userSpaceOnUse"
       mask-type="alpha"
       id="mask0-5"><rect
         id="rect4-1"
         fill="#ffffff"
         transform="rotate(-45,406.51,320.148)"
         rx="56.537102"
         height="422.702"
         width="422.702"
         y="320.14801"
         x="406.51001" /></mask><linearGradient
       gradientUnits="userSpaceOnUse"
       y2="597.09998"
       x2="707.41602"
       y1="-4.4348102"
       x1="707.41602"
       id="paint0_linear"><stop
         id="stop33"
         stop-color="#D3D3D3" /><stop
         id="stop35"
         stop-color="white"
         offset="1" /></linearGradient><mask
       height="599"
       width="599"
       y="21"
       x="406"
       maskUnits="userSpaceOnUse"
       mask-type="alpha"
       id="mask0-5-0"><rect
         id="rect4-1-6"
         fill="#ffffff"
         transform="rotate(-45,406.51,320.148)"
         rx="56.537102"
         height="422.702"
         width="422.702"
         y="320.14801"
         x="406.51001" /></mask><linearGradient
       gradientUnits="userSpaceOnUse"
       y2="597.09998"
       x2="707.41602"
       y1="-4.4348102"
       x1="707.41602"
       id="paint0_linear-3"><stop
         id="stop33-2"
         stop-color="#D3D3D3" /><stop
         id="stop35-3"
         stop-color="white"
         offset="1" /></linearGradient><mask
       height="599"
       width="599"
       y="21"
       x="406"
       maskUnits="userSpaceOnUse"
       mask-type="alpha"
       id="mask0-5-8"><rect
         id="rect4-1-0"
         fill="#ffffff"
         transform="rotate(-45,406.51,320.148)"
         rx="56.537102"
         height="422.702"
         width="422.702"
         y="320.14801"
         x="406.51001" /></mask></defs><sodipodi:namedview
     id="base"
     pagecolor="#ffffff"
     bordercolor="#666666"
     borderopacity="1.0"
     inkscape:pageopacity="0.0"
     inkscape:pageshadow="2"
     inkscape:zoom="0.70710678"
     inkscape:cx="263.75083"
     inkscape:cy="472.34733"
     inkscape:document-units="px"
     inkscape:current-layer="g4165"
     showgrid="false"
     fit-margin-top="1"
     fit-margin-left="1"
     fit-margin-right="1"
     fit-margin-bottom="1"
     units="mm"
     inkscape:window-width="1600"
     inkscape:window-height="829"
     inkscape:window-x="1592"
     inkscape:window-y="177"
     inkscape:window-maximized="1"
     inkscape:pagecheckerboard="0"
     inkscape:showpageshadow="0"
     inkscape:deskcolor="#d1d1d1"
     showguides="true"><sodipodi:guide
       position="191.01563,439.2741"
       orientation="0,-1"
       id="guide388"
       inkscape:locked="false" /><sodipodi:guide
       position="174.37501,366.85223"
       orientation="0,-1"
       id="guide390"
       inkscape:locked="false" /><sodipodi:guide
       position="149.76563,347.86785"
       orientation="0,-1"
       id="guide392"
       inkscape:locked="false" /><sodipodi:guide
       position="23.671876,349.2741"
       orientation="1,0"
       id="guide394"
       inkscape:locked="false" /><sodipodi:guide
       position="100.3125,351.38347"
       orientation="1,0"
       id="guide396"
       inkscape:locked="false" /><sodipodi:guide
       position="132.89063,274.97722"
       orientation="0,-1"
       id="guide398"
       inkscape:locked="false" /><sodipodi:guide
       position="126.32813,248.49285"
       orientation="0,-1"
       id="guide400"
       inkscape:locked="false" /><sodipodi:guide
       position="180.9375,313.18035"
       orientation="0.97195877,-0.23515135"
       id="guide402"
       inkscape:locked="false" /><sodipodi:guide
       position="246.09376,299.11785"
       orientation="0.78526921,0.61915448"
       id="guide515"
       inkscape:locked="false" /><sodipodi:guide
       position="332.81251,316.93035"
       orientation="0.78673816,0.61728685"
       id="guide517"
       inkscape:locked="false" /><sodipodi:guide
       position="361.40626,374.5866"
       orientation="0,-1"
       id="guide519"
       inkscape:locked="false" /><sodipodi:guide
       position="505.31252,292.0866"
       orientation="1,0"
       id="guide521"
       inkscape:locked="false" /><sodipodi:guide
       position="581.71877,293.49285"
       orientation="1,0"
       id="guide523"
       inkscape:locked="false" /><sodipodi:guide
       position="541.40627,395.68035"
       orientation="-0.29568382,0.95528586"
       id="guide525"
       inkscape:locked="false" /><sodipodi:guide
       position="190.66407,399.07879"
       orientation="0.97014252,0.24253556"
       id="guide791"
       inkscape:locked="false" /><sodipodi:guide
       position="296.98486,175.53049"
       orientation="0,-1"
       id="guide907"
       inkscape:locked="false" /></sodipodi:namedview><metadata
     id="metadata7"><rdf:RDF><cc:Work
         rdf:about=""><dc:format>image/svg+xml</dc:format><dc:type
           rdf:resource="http://purl.org/dc/dcmitype/StillImage" /></cc:Work></rdf:RDF></metadata><g
     inkscape:label="Layer 1"
     inkscape:groupmode="layer"
     id="layer1"
     transform="translate(-65.224067,-173.70181)"><g
       id="g4165"
       transform="matrix(0.70710678,-0.70710678,0.70710678,0.70710678,-256.86318,384.18552)"><g
         transform="matrix(0.61871659,0.61871659,-0.61871659,0.61871659,382.8425,177.48605)"
         id="g14" /><g
         transform="matrix(0.61871659,0.61871659,-0.61871659,0.61871659,382.8425,177.48605)"
         id="g16" /><g
         transform="matrix(0.61871659,0.61871659,-0.61871659,0.61871659,382.8425,177.48605)"
         id="g18" /><g
         transform="matrix(0.61871659,0.61871659,-0.61871659,0.61871659,382.8425,177.48605)"
         id="g20" /><g
         transform="matrix(0.61871659,0.61871659,-0.61871659,0.61871659,382.8425,177.48605)"
         id="g22" /><g
         transform="matrix(0.61871659,0.61871659,-0.61871659,0.61871659,382.8425,177.48605)"
         id="g24" /><g
         transform="matrix(0.61871659,0.61871659,-0.61871659,0.61871659,382.8425,177.48605)"
         id="g26" /><g
         transform="matrix(0.61871659,0.61871659,-0.61871659,0.61871659,382.8425,177.48605)"
         id="g28" /><g
         transform="matrix(0.61871659,0.61871659,-0.61871659,0.61871659,382.8425,177.48605)"
         id="g30" /><g
         transform="matrix(0.61871659,0.61871659,-0.61871659,0.61871659,382.8425,177.48605)"
         id="g32" /><g
         transform="matrix(0.61871659,0.61871659,-0.61871659,0.61871659,382.8425,177.48605)"
         id="g34" /><g
         transform="matrix(0.61871659,0.61871659,-0.61871659,0.61871659,382.8425,177.48605)"
         id="g36" /><g
         transform="matrix(0.61871659,0.61871659,-0.61871659,0.61871659,382.8425,177.48605)"
         id="g38" /><g
         transform="matrix(0.61871659,0.61871659,-0.61871659,0.61871659,382.8425,177.48605)"
         id="g40" /><g
         transform="matrix(0.61871659,0.61871659,-0.61871659,0.61871659,382.8425,177.48605)"
         id="g42" /><path
         style="fill:#000000;stroke-width:0.9375"
         id="path3052"
         d="" /><path
         style="fill:#ffffff;stroke:#000000;stroke-width:12.5503;stroke-dasharray:none"
         d="m 91.364757,399.52584 c 0,-0.48613 40.652093,-41.53597 90.337963,-91.22184 70.88221,-70.88221 90.62274,-90.27073 91.66026,-90.0258 1.76155,0.41584 88.32424,86.28648 98.66075,97.87197 l 8.10627,9.08577 -12.08669,20.39603 c -15.34253,25.8902 -19.33427,30.12728 -27.97849,29.69804 -2.68765,-0.13346 -3.87736,-1.21523 -33.40296,-30.37239 l -30.61605,-30.234 -8.58595,8.58595 -8.58595,8.58595 30.48737,30.83205 c 30.19678,30.5382 30.47623,30.8469 29.31952,32.38982 -1.17931,1.57305 -51.08248,32.47701 -55.01697,34.07083 l -2.12308,0.86003 -25.20489,-25.20489 -25.20489,-25.2049 -11.31554,11.31555 -11.31555,11.31555 65.34292,64.9194 c 68.93425,68.48745 68.30994,67.91861 71.28076,64.94778 1.35856,-1.35856 3.5446,-17.09205 8.41739,-60.58227 5.92786,-52.90678 10.08528,-66.82929 25.02098,-83.79106 11.41739,-12.9662 25.558,-19.50392 42.15373,-19.48923 10.97909,0.01 18.87983,1.95037 26.23212,6.44339 9.03023,5.5184 40.59684,35.83022 109.862,105.49489 l 65.43962,65.81707 -1.63514,2.05934 c -2.20861,2.78158 -11.42512,7.33164 -41.46376,20.47011 -51.82904,22.66926 -77.78011,38.11383 -93.92156,55.89668 -15.50384,17.0804 -18.26266,30.96191 -9.47733,47.68696 2.12831,4.05176 4.80825,7.3061 11.65413,14.15198 l 8.89027,8.89026 49.30582,-49.30582 c 38.64385,-38.64385 49.6305,-49.27213 50.80732,-49.15004 2.56852,0.26648 61.65731,31.74866 62.3008,33.19353 0.89158,2.00191 -27.5115,31.37349 -98.56794,101.92896 l -58.5427,58.1299 -39.38841,-39.4982 c -50.87117,-51.01303 -59.89081,-61.87191 -64.97882,-78.22902 -4.08551,-13.1342 -3.25299,-38.23704 1.71789,-51.79962 5.18356,-14.14288 9.43764,-19.58734 36.38042,-46.56029 26.45636,-26.48606 30.00834,-29.41686 53.39236,-44.0558 6.95111,-4.35155 14.06529,-9.00651 15.80931,-10.34434 2.93761,-2.25346 3.08744,-2.61835 2.03624,-4.9592 -0.75321,-1.67729 -12.52467,-13.79361 -35.01412,-36.03989 -30.56862,-30.2381 -34.09518,-33.51308 -36.08702,-33.51271 -1.43016,2.7e-4 -2.60898,0.68903 -3.34745,1.95585 -0.62693,1.07549 -2.89101,16.01477 -5.03129,33.19839 -5.33855,42.86152 -9.89624,75.19489 -12.03381,85.37075 -2.19653,10.45653 -6.07427,18.07475 -13.45838,26.44038 -9.90145,11.21757 -20.82186,17.41786 -36.46543,20.70399 -10.59206,2.22499 -36.38847,2.02038 -40.53849,-0.32155 C 301.23753,610.43697 91.364737,400.98083 91.364737,399.52587 Z"
         id="path3066" /></g></g></svg>
